<svg xmlns="http://www.w3.org/2000/svg" width="300" height="134" viewBox="0 0 300 134" fill="none"><rect x="0.741272" y="0.789307" width="287.517" height="123.421" rx="10" fill="#0006A1"></rect><path d="M77.8534 61.0206H69.1762C67.5697 61.0204 65.9872 60.631 64.5641 59.8856C63.141 59.1403 61.9197 58.0612 61.0046 56.7408L55.5569 48.8709L51.2967 42.7178C51.1029 42.4364 50.8241 42.2245 50.5011 42.1131C50.1781 42.0018 49.828 41.9968 49.502 42.0989C49.1759 42.201 48.8912 42.4048 48.6894 42.6805C48.4876 42.9562 48.3795 43.2893 48.3808 43.6309V58.4613C48.3808 59.1401 48.1112 59.791 47.6312 60.271C47.1512 60.7509 46.5003 61.0206 45.8215 61.0206H38.3005C37.6221 61.0195 36.9717 60.7496 36.492 60.2698C36.0123 59.7901 35.7423 59.1397 35.7413 58.4613V47.4208C35.7413 46.1156 35.9984 44.8232 36.4978 43.6173C36.9973 42.4114 37.7295 41.3157 38.6524 40.3928C39.5753 39.4698 40.671 38.7377 41.8769 38.2382C43.0828 37.7387 44.3752 37.4817 45.6804 37.4817H47.6401C47.7664 37.4815 47.8909 37.4507 48.0028 37.392C48.1147 37.3333 48.2108 37.2484 48.2828 37.1446L55.5412 26.6763L60.8048 19.073C61.7181 17.7507 62.939 16.6699 64.3625 15.9237C65.7859 15.1776 67.3692 14.7883 68.9764 14.7893H77.6457C77.7884 14.7893 77.9284 14.8283 78.0506 14.902C78.1727 14.9757 78.2725 15.0814 78.339 15.2076C78.4056 15.3339 78.4364 15.4759 78.4282 15.6183C78.42 15.7608 78.373 15.8983 78.2924 16.016L65.5902 34.362C64.8953 35.3632 64.523 36.5529 64.523 37.7717C64.523 38.9904 64.8953 40.1801 65.5902 41.1814L78.5158 59.7899C78.5983 59.9088 78.6463 60.0482 78.6545 60.1926C78.6626 60.3371 78.6307 60.481 78.5621 60.6084C78.4935 60.7358 78.391 60.8418 78.2659 60.9145C78.1409 60.9873 77.9981 61.024 77.8534 61.0206Z" fill="white"></path><path d="M161.995 60.1543H151.233V40.4719C151.233 39.5603 150.871 38.6861 150.226 38.0415C149.582 37.3969 148.708 37.0348 147.796 37.0348C146.884 37.0348 146.01 37.3969 145.366 38.0415C144.721 38.6861 144.359 39.5603 144.359 40.4719V60.1386H133.616V59.4763C133.616 56.1606 133.616 47.601 133.616 42.2708C133.614 41.6766 133.495 41.0885 133.266 40.5403C133.036 39.9921 132.701 39.4945 132.279 39.0759C131.857 38.6574 131.357 38.326 130.807 38.1009C130.257 37.8757 129.668 37.7611 129.074 37.7637H126.722V60.1543H115.999V27.3582H116.568C120.636 27.3582 124.704 27.3974 128.772 27.3582C132.691 27.3111 136.183 28.3066 138.962 31.2343C139.413 30.811 139.84 30.3721 140.306 29.9801C142.137 28.436 144.155 27.2367 146.55 26.7899C152.777 25.5906 159.742 29.6666 161.494 35.6042C161.819 36.7144 161.987 37.8649 161.991 39.0218C161.995 45.9353 161.995 60.0093 161.995 60.1543Z" fill="white"></path><path d="M214.443 60.1543H203.68V40.4719C203.696 40.011 203.619 39.5517 203.453 39.1214C203.287 38.691 203.037 38.2983 202.716 37.9668C202.396 37.6353 202.012 37.3716 201.587 37.1916C201.163 37.0115 200.706 36.9187 200.245 36.9187C199.784 36.9187 199.328 37.0115 198.903 37.1916C198.479 37.3716 198.095 37.6353 197.774 37.9668C197.454 38.2983 197.203 38.691 197.037 39.1214C196.872 39.5517 196.794 40.011 196.81 40.4719V60.1386H186.052V59.4763C186.052 56.1606 186.052 47.601 186.052 42.2708C186.052 41.0713 185.575 39.9209 184.727 39.0727C183.879 38.2246 182.728 37.748 181.529 37.748H179.177V60.1386H168.427V27.3582H168.995C173.063 27.3582 177.132 27.3974 181.2 27.3582C185.119 27.3111 188.611 28.3066 191.39 31.2343C191.84 30.811 192.268 30.3721 192.734 29.9801C194.564 28.436 196.583 27.2367 198.977 26.7899C205.205 25.5906 212.169 29.6666 213.921 35.6042C214.246 36.7146 214.412 37.8651 214.415 39.0218L214.443 60.1543Z" fill="white"></path><path d="M77.1832 43.819C77.1832 35.6434 83.2502 28.2635 91.316 26.8957C97.673 25.8179 102.913 28.0715 106.993 32.9509C108.472 34.6602 109.584 36.6559 110.258 38.8137C110.932 40.9714 111.155 43.2449 110.912 45.4925C110.481 49.9447 108.47 53.6445 105.19 56.6348C102.055 59.5076 98.3079 61.0675 94.0163 61.0087C88.3452 60.9225 83.8969 58.3946 80.5459 53.8992C78.3383 51.005 77.1553 47.459 77.1832 43.819ZM87.5457 43.819C87.5475 44.9661 87.8158 46.0972 88.3295 47.1229C88.7525 48.0666 89.4006 48.892 90.217 49.5267C91.0335 50.1615 91.9932 50.5861 93.0121 50.7633C94.0309 50.9405 95.0777 50.8649 96.0605 50.5432C97.0433 50.2214 97.9321 49.6633 98.6489 48.9179C99.7485 47.7213 100.428 46.1985 100.583 44.5808C100.739 42.9632 100.362 41.3389 99.5111 39.9546C98.6871 38.5243 97.3305 37.4782 95.7377 37.0449C94.1448 36.6117 92.4453 36.8264 91.0103 37.6422C88.6587 38.9865 87.6946 41.1852 87.53 43.8033L87.5457 43.819Z" fill="white"></path><path d="M253.259 43.1411C253.278 52.265 246.768 59.8252 238.424 60.8756C232.64 61.6046 227.815 59.5548 223.923 55.2907C221.459 52.6558 219.924 49.2883 219.549 45.7003C219.036 40.7856 220.47 36.4509 223.629 32.6924C226.172 29.5493 229.793 27.4637 233.788 26.841C238.942 26.0258 243.488 27.4798 247.341 30.9327C251.193 34.3855 253.169 38.6575 253.259 43.1411ZM242.888 43.823C242.885 42.7157 242.635 41.6232 242.156 40.6249C239.976 35.9571 234.615 35.9924 232.13 38.4458C231.148 39.3502 230.436 40.5093 230.073 41.7942C229.711 43.0792 229.712 44.4395 230.076 45.7238C231.06 49.6078 234.78 51.7046 238.413 50.4975C241.011 49.6392 242.888 46.8369 242.888 43.823Z" fill="white"></path><path d="M42.6261 79.1395V111.436H39.6218V73.932H42.4258L42.6261 79.1395ZM61.4531 87.226V87.7518C61.4531 89.7713 61.2194 91.624 60.7521 93.3097C60.2847 94.9955 59.6088 96.4559 58.7242 97.691C57.8563 98.9094 56.7797 99.8524 55.4945 100.52C54.2094 101.188 52.749 101.521 51.1133 101.521C49.4943 101.521 48.0506 101.271 46.7821 100.77C45.5136 100.27 44.4204 99.5604 43.5024 98.6424C42.6011 97.7077 41.8751 96.6228 41.3243 95.3877C40.7902 94.1359 40.4146 92.7673 40.1977 91.2818V84.3469C40.448 82.7112 40.8569 81.2258 41.4244 79.8905C41.9919 78.5553 42.7179 77.4036 43.6025 76.4356C44.5038 75.4675 45.572 74.7248 46.8071 74.2074C48.0422 73.69 49.4526 73.4313 51.0382 73.4313C52.6905 73.4313 54.1593 73.7568 55.4445 74.4077C56.7463 75.0419 57.8396 75.9683 58.7242 77.1867C59.6255 78.3884 60.3014 79.8405 60.7521 81.5429C61.2194 83.2286 61.4531 85.123 61.4531 87.226ZM58.4488 87.7518V87.226C58.4488 85.6404 58.2819 84.1717 57.9481 82.8197C57.6309 81.4678 57.1386 80.2911 56.4709 79.2897C55.82 78.2715 54.9855 77.4787 53.9674 76.9113C52.9659 76.3438 51.7726 76.0601 50.3872 76.0601C48.9518 76.0601 47.7251 76.3021 46.707 76.7861C45.7055 77.2534 44.871 77.8793 44.2034 78.6638C43.5358 79.4315 43.01 80.2744 42.6261 81.1924C42.2422 82.1104 41.9585 83.0117 41.7749 83.8963V91.8827C42.092 93.1512 42.6011 94.3279 43.3021 95.4128C44.0031 96.481 44.9378 97.3405 46.1061 97.9914C47.2911 98.6257 48.7349 98.9428 50.4373 98.9428C51.8059 98.9428 52.991 98.6591 53.9924 98.0916C54.9938 97.5241 55.82 96.7313 56.4709 95.7132C57.1386 94.6951 57.6309 93.51 57.9481 92.1581C58.2819 90.8062 58.4488 89.3374 58.4488 87.7518ZM84.5862 96.1638V82.1938C84.5862 80.9087 84.3191 79.7987 83.785 78.8641C83.251 77.9294 82.4665 77.2117 81.4317 76.711C80.3969 76.2103 79.12 75.9599 77.6012 75.9599C76.1992 75.9599 74.9474 76.2103 73.8458 76.711C72.7609 77.195 71.9014 77.8543 71.2671 78.6888C70.6496 79.5067 70.3408 80.4163 70.3408 81.4177L67.3365 81.3927C67.3365 80.3746 67.5869 79.3898 68.0876 78.4385C68.5883 77.4871 69.2976 76.6359 70.2156 75.8848C71.1336 75.1337 72.2268 74.5412 73.4953 74.1073C74.7805 73.6566 76.1908 73.4313 77.7264 73.4313C79.6625 73.4313 81.3649 73.7568 82.8337 74.4077C84.3191 75.0586 85.4791 76.035 86.3137 77.3369C87.1482 78.6387 87.5655 80.2744 87.5655 82.2439V95.3376C87.5655 96.2723 87.6322 97.2404 87.7657 98.2418C87.916 99.2432 88.1246 100.069 88.3916 100.72V101.021H85.2121C85.0118 100.42 84.8532 99.6688 84.7364 98.7676C84.6363 97.8496 84.5862 96.9817 84.5862 96.1638ZM85.2872 85.2482L85.3373 87.5515H79.4538C77.9183 87.5515 76.5413 87.6934 75.3229 87.9771C74.1212 88.2442 73.1031 88.6447 72.2686 89.1788C71.434 89.6962 70.7914 90.3221 70.3408 91.0565C69.9068 91.7909 69.6899 92.6254 69.6899 93.5601C69.6899 94.5282 69.9319 95.4128 70.4159 96.2139C70.9166 97.015 71.6176 97.6576 72.5189 98.1417C73.4369 98.609 74.5218 98.8427 75.7736 98.8427C77.4426 98.8427 78.9114 98.5339 80.1799 97.9163C81.4651 97.2988 82.5249 96.4893 83.3594 95.4879C84.194 94.4864 84.7531 93.3932 85.0368 92.2082L86.3387 93.9356C86.1217 94.7702 85.7212 95.6297 85.137 96.5143C84.5695 97.3822 83.8268 98.2001 82.9088 98.9678C81.9908 99.7189 80.9059 100.336 79.6541 100.82C78.419 101.288 77.017 101.521 75.4481 101.521C73.6789 101.521 72.135 101.188 70.8165 100.52C69.5146 99.8524 68.4965 98.9428 67.7621 97.7912C67.0444 96.6228 66.6856 95.3043 66.6856 93.8355C66.6856 92.5003 66.9693 91.3069 67.5368 90.2554C68.1043 89.1872 68.9221 88.2859 69.9903 87.5515C71.0752 86.8004 72.3771 86.2329 73.8959 85.8491C75.4314 85.4485 77.1506 85.2482 79.0533 85.2482H85.2872ZM98.5812 78.4134V101.021H95.602V73.932H98.5061L98.5812 78.4134ZM108.17 73.7317L108.095 76.4857C107.761 76.4356 107.436 76.3939 107.118 76.3605C106.801 76.3271 106.459 76.3104 106.092 76.3104C104.79 76.3104 103.647 76.5524 102.662 77.0364C101.694 77.5038 100.876 78.1631 100.209 79.0143C99.5409 79.8488 99.0319 80.8336 98.6814 81.9685C98.3309 83.0868 98.1306 84.2885 98.0805 85.5737L96.9789 85.9993C96.9789 84.2301 97.1625 82.5861 97.5297 81.0672C97.8969 79.5484 98.456 78.2215 99.2071 77.0865C99.9749 75.9349 100.935 75.0419 102.086 74.4077C103.255 73.7568 104.623 73.4313 106.192 73.4313C106.576 73.4313 106.952 73.4647 107.319 73.5314C107.703 73.5815 107.986 73.6483 108.17 73.7317ZM124.368 73.932V76.3855H110.799V73.932H124.368ZM115.781 66.972H118.76V94.4364C118.76 95.6881 118.927 96.6312 119.261 97.2654C119.595 97.8996 120.029 98.3253 120.563 98.5422C121.097 98.7592 121.673 98.8677 122.29 98.8677C122.741 98.8677 123.175 98.8427 123.592 98.7926C124.009 98.7258 124.385 98.6591 124.719 98.5923L124.844 101.121C124.477 101.238 124.001 101.33 123.417 101.396C122.833 101.48 122.248 101.521 121.664 101.521C120.513 101.521 119.495 101.313 118.61 100.896C117.725 100.462 117.033 99.7273 116.532 98.6924C116.031 97.6409 115.781 96.2139 115.781 94.4113V66.972ZM133.631 79.7153V101.021H130.652V73.932H133.506L133.631 79.7153ZM132.955 85.799L131.629 85.0479C131.729 83.4456 132.054 81.9435 132.605 80.5415C133.156 79.1395 133.898 77.9044 134.833 76.8362C135.784 75.768 136.894 74.9334 138.163 74.3326C139.448 73.7317 140.867 73.4313 142.419 73.4313C143.771 73.4313 144.981 73.6149 146.049 73.9821C147.117 74.3493 148.027 74.9334 148.778 75.7346C149.529 76.5357 150.097 77.5622 150.481 78.814C150.881 80.0658 151.081 81.593 151.081 83.3956V101.021H148.077V83.3705C148.077 81.5012 147.818 80.0407 147.301 78.9892C146.784 77.921 146.049 77.1616 145.098 76.711C144.146 76.2603 143.02 76.035 141.718 76.035C140.283 76.035 139.022 76.3521 137.938 76.9864C136.869 77.6039 135.968 78.4134 135.234 79.4149C134.516 80.3996 133.965 81.4594 133.581 82.5944C133.197 83.7127 132.989 84.7809 132.955 85.799ZM169.307 101.521C167.538 101.521 165.911 101.196 164.425 100.545C162.957 99.8942 161.672 98.9762 160.57 97.7912C159.485 96.6061 158.642 95.2041 158.041 93.5851C157.457 91.9495 157.165 90.1636 157.165 88.2275V87.1509C157.165 85.0646 157.474 83.1786 158.091 81.4928C158.709 79.8071 159.56 78.3633 160.645 77.1616C161.73 75.9599 162.965 75.0419 164.35 74.4077C165.752 73.7568 167.221 73.4313 168.757 73.4313C170.476 73.4313 172.003 73.7401 173.338 74.3576C174.673 74.9585 175.792 75.818 176.693 76.9363C177.611 78.0379 178.304 79.3481 178.771 80.8669C179.238 82.3691 179.472 84.0298 179.472 85.8491V87.6767H158.968V85.123H176.493V84.7725C176.459 83.2537 176.151 81.835 175.566 80.5164C174.999 79.1812 174.148 78.0963 173.013 77.2618C171.878 76.4272 170.459 76.01 168.757 76.01C167.488 76.01 166.32 76.277 165.252 76.8111C164.2 77.3452 163.291 78.113 162.523 79.1144C161.772 80.0992 161.188 81.2759 160.77 82.6445C160.37 83.9964 160.169 85.4986 160.169 87.1509V88.2275C160.169 89.7296 160.386 91.1316 160.82 92.4335C161.271 93.7187 161.905 94.8536 162.723 95.8384C163.558 96.8231 164.542 97.5909 165.677 98.1417C166.812 98.6924 168.064 98.9678 169.433 98.9678C171.035 98.9678 172.454 98.6758 173.689 98.0916C174.924 97.4907 176.034 96.5477 177.019 95.2625L178.896 96.7146C178.312 97.5825 177.578 98.3837 176.693 99.1181C175.825 99.8524 174.782 100.437 173.564 100.871C172.345 101.305 170.926 101.521 169.307 101.521ZM188.36 78.4134V101.021H185.38V73.932H188.285L188.36 78.4134ZM197.948 73.7317L197.873 76.4857C197.54 76.4356 197.214 76.3939 196.897 76.3605C196.58 76.3271 196.238 76.3104 195.871 76.3104C194.569 76.3104 193.425 76.5524 192.441 77.0364C191.473 77.5038 190.655 78.1631 189.987 79.0143C189.319 79.8488 188.81 80.8336 188.46 81.9685C188.109 83.0868 187.909 84.2885 187.859 85.5737L186.757 85.9993C186.757 84.2301 186.941 82.5861 187.308 81.0672C187.675 79.5484 188.235 78.2215 188.986 77.0865C189.753 75.9349 190.713 75.0419 191.865 74.4077C193.033 73.7568 194.402 73.4313 195.971 73.4313C196.355 73.4313 196.73 73.4647 197.097 73.5314C197.481 73.5815 197.765 73.6483 197.948 73.7317Z" fill="white"></path><path d="M246.875 124.287L237.73 122.291C236.898 122.124 236.233 121.694 235.734 121C235.235 120.308 235.041 119.546 235.152 118.714L236.067 109.316L229.831 102.163C229.277 101.553 229 100.832 229 100C229 99.1683 229.277 98.4474 229.831 97.8375L236.067 90.6844L235.152 81.2857C235.041 80.4539 235.235 79.692 235.734 79C236.233 78.3058 236.898 77.8755 237.73 77.7092L246.875 75.713L251.697 67.5618C252.14 66.841 252.75 66.3697 253.526 66.1479C254.302 65.9261 255.078 65.9538 255.854 66.231L264.5 69.8907L273.146 66.231C273.922 65.9538 274.698 65.9261 275.474 66.1479C276.25 66.3697 276.86 66.841 277.303 67.5618L282.125 75.713L291.27 77.7092C292.102 77.8755 292.767 78.3058 293.266 79C293.765 79.692 293.959 80.4539 293.848 81.2857L292.933 90.6844L299.169 97.8375C299.723 98.4474 300 99.1683 300 100C300 100.832 299.723 101.553 299.169 102.163L292.933 109.316L293.848 118.714C293.959 119.546 293.765 120.308 293.266 121C292.767 121.694 292.102 122.124 291.27 122.291L282.125 124.287L277.303 132.438C276.86 133.159 276.25 133.63 275.474 133.852C274.698 134.074 273.922 134.046 273.146 133.769L264.5 130.109L255.854 133.769C255.078 134.046 254.302 134.074 253.526 133.852C252.75 133.63 252.14 133.159 251.697 132.438L246.875 124.287ZM258.68 109.482C259.29 110.092 260.066 110.397 261.008 110.397C261.95 110.397 262.726 110.092 263.336 109.482L277.47 95.3422C278.135 94.6768 278.467 93.8861 278.467 92.9701C278.467 92.0563 278.135 91.2666 277.47 90.6013C276.804 89.9359 276.015 89.6032 275.102 89.6032C274.186 89.6032 273.396 89.9359 272.731 90.6013L261.008 102.329L256.186 97.5879C255.521 96.978 254.732 96.6863 253.818 96.7129C252.903 96.7418 252.14 97.0612 251.53 97.6711C250.921 98.2811 250.616 99.0574 250.616 100C250.616 100.943 250.921 101.719 251.53 102.329L258.68 109.482Z" fill="#FFBF46"></path></svg>