<svg xmlns="http://www.w3.org/2000/svg" width="383.762" height="383.592" viewBox="0 0 383.762 383.592">
  <g id="Пересечение_80" data-name="Пересечение 80" transform="translate(-130.6 -6126.684)" opacity="0.2">
    <path id="Пересечение_80-2" data-name="Пересечение 80" d="M16543.5,9675.558l-178.21,179.4Zm-221.28,177.474,219.069-220.532-219.069,220.532Zm-35.767-9.282,199.816-201.149-199.816,201.149Zm244.271-110.049-107.377,108.094Zm-274.914,95.611,261.314-263.057-261.314,263.057Zm-26.465-18.643,268.961-270.756-268.961,270.756Zm-22.667-22.465L16475.7,9517.4,16206.683,9788.2Zm-18.873-26.285,261.476-263.22-261.476,263.22Zm298.464-119.319L16394,9735.492Zm-313.17,88.839,245.6-247.241-245.6,247.241Zm-9.6-35.617,219.525-220.989L16163.5,9695.821Zm-2.34-42.929,178.924-180.117-178.924,180.117Zm325.113-10.293,45.5-45.8-45.5,45.8,45.5-45.8Zm-312.7-47.484,108.818-109.543-108.818,109.543Z" transform="translate(-16029.852 -3345.387)" fill="#fff"/>
    <path id="Пересечение_80_-_Рамка" data-name="Пересечение 80 - Рамка" d="M16366,9855.662l-1.418-1.41,178.21-179.4,1.418,1.41Zm-43.07-1.926-1.418-1.41,219.069-220.532,1.418,1.41Zm-35.767-9.282-1.418-1.41,245.314-246.95,1.418,1.41Zm136.895-1.955-1.418-1.41L16530.02,9733l1.418,1.41Zm-167.536-12.482-1.419-1.41,261.314-263.057,1.418,1.41Zm-26.466-18.643-1.418-1.41,268.961-270.756,1.418,1.41Zm-22.667-22.465-1.418-1.41,269.013-270.808,1.418,1.41Zm-18.873-26.285-1.418-1.41,261.476-263.22,1.418,1.41Zm-14.706-30.48-1.418-1.41,245.6-247.241,1.418,1.41Zm-9.6-35.617-1.419-1.41,219.525-220.989,1.418,1.41Zm-2.34-42.929-1.419-1.41,178.924-180.117,1.418,1.41Zm12.408-57.777-1.418-1.41,108.818-109.543,1.418,1.41Z" transform="translate(-16029.852 -3345.387)" fill="#dfdfe6"/>
  </g>
</svg>
