<svg xmlns="http://www.w3.org/2000/svg" width="383.744" height="383.575" viewBox="0 0 383.744 383.575">
  <g id="Сгруппировать_6720" data-name="Сгруппировать 6720" transform="translate(70.268 -1266.83)" opacity="0.5">
    <path id="Пересечение_51" data-name="Пересечение 51" d="M16363.889,9855.792l-1.418-1.41,180.439-181.644,1.418,1.41Zm-42.668-2.334-1.418-1.41,220.49-221.963,1.418,1.41Zm-35.506-9.542-1.418-1.41,246.217-247.859,1.418,1.41L16394.705,9734.2h0Zm135.109-.158-1.418-1.41,111.85-112.595,1.418,1.41Zm-165.554-14.48-1.418-1.41,261.819-263.565,1.418,1.41Zm-26.291-18.815-1.418-1.41,269.12-270.917,1.418,1.41Zm-22.5-22.631-1.418-1.41,268.843-270.637,1.418,1.41Zm-18.7-26.461-1.418-1.41,260.96-262.7,1.418,1.41Zm-14.5-30.683-1.419-1.41,244.687-246.317,1.418,1.41Zm-9.342-35.88-1.419-1.41,218.086-219.539,1.418,1.41Zm-1.928-43.345-1.418-1.41,176.658-177.836,1.418,1.41Zm13.592-58.964-1.418-1.41,104.189-104.885,1.418,1.41Z" transform="translate(-16230.852 -8205.387)" fill="#fff"/>
  </g>
</svg>
