<svg xmlns="http://www.w3.org/2000/svg" width="384.762" height="385.592" viewBox="0 0 384.762 385.592">
  <g id="Group_6722" data-name="Group 6722" transform="translate(-1073.6 -1252.552)">
    <path id="Intersection_85" data-name="Intersection 85" d="M16543.5,9675.558l-178.21,179.4Zm-221.28,177.474,219.069-220.532-219.069,220.532Zm-35.767-9.282,199.816-201.149-199.816,201.149Zm244.271-110.049-107.377,108.094Zm-274.914,95.611,261.314-263.057-261.314,263.057Zm-26.465-18.643,268.961-270.756-268.961,270.756Zm-22.667-22.465L16475.7,9517.4,16206.683,9788.2Zm-18.873-26.285,261.476-263.22-261.476,263.22Zm298.464-119.319L16394,9735.492Zm-313.17,88.839,245.6-247.241-245.6,247.241Zm-9.6-35.617,219.525-220.989L16163.5,9695.821Zm-2.34-42.929,178.924-180.117-178.924,180.117Zm325.113-10.293,45.5-45.8-45.5,45.8,45.5-45.8Zm-312.7-47.484,108.818-109.543-108.818,109.543Z" transform="translate(-15086.852 -8219.519)" fill="#fff" stroke="#f96156" stroke-width="2"/>
    <path id="Intersection_86" data-name="Intersection 86" d="M16543.5,9675.558l-178.21,179.4Zm-221.28,177.474,219.069-220.532-219.069,220.532Zm-35.767-9.282,199.816-201.149-199.816,201.149Zm244.271-110.049-107.377,108.094Zm-274.914,95.611,261.314-263.057-261.314,263.057Zm-26.465-18.643,268.961-270.756-268.961,270.756Zm-22.667-22.465L16475.7,9517.4,16206.683,9788.2Zm-18.873-26.285,261.476-263.22-261.476,263.22Zm298.464-119.319L16394,9735.492Zm-313.17,88.839,245.6-247.241-245.6,247.241Zm-9.6-35.617,219.525-220.989L16163.5,9695.821Zm-2.34-42.929,178.924-180.117-178.924,180.117Zm325.113-10.293,45.5-45.8-45.5,45.8,45.5-45.8Zm-312.7-47.484,108.818-109.543-108.818,109.543Z" transform="translate(-15085.852 -8217.519)" fill="#fff" stroke="#fff" stroke-width="2" opacity="0.5"/>
  </g>
</svg>
