<svg xmlns="http://www.w3.org/2000/svg" width="213.068" height="167.285" viewBox="0 0 213.068 167.285">
  <path id="Path_9394_-_Outline" data-name="Path 9394 - Outline" d="M-1744.228,200.3h-189.592v-5h189.592Zm11.738-13.524h-213.068v-5h213.068Zm-1.278-13.523H-1944.28v-5h210.512Zm-8.52-13.524h-193.471v-5h193.471Zm-8.718-13.523h-176.036v-5h176.036Zm-8.718-13.524h-158.6v-5h158.6Zm-8.718-13.523h-141.165v-5h141.165Zm-8.718-13.523h-123.729v-5h123.729Zm-8.718-13.524h-106.293v-5h106.293Zm-8.718-13.523h-88.858v-5h88.858Zm-8.718-13.524h-71.422v-5h71.422Zm-8.718-13.523h-53.987v-5h53.987Zm-8.718-13.523H-1857.3v-5h36.551Z" transform="translate(1945.558 -33.018)" fill="#f86056"/>
</svg>
