<svg xmlns="http://www.w3.org/2000/svg" width="334.686" height="354.614" viewBox="0 0 334.686 354.614">
  <g id="Group_243" data-name="Group 243" transform="translate(224.807 -128.292) rotate(60)">
    <path id="Line_35" data-name="Line 35" d="M407.741,1.5H0v-3H407.741Z" transform="translate(0 258.085)" fill="#f96156"/>
    <path id="Line_36" data-name="Line 36" d="M378.421,1.5H0v-3H378.421Z" transform="translate(14.66 238.232)" fill="#f96156"/>
    <path id="Line_37" data-name="Line 37" d="M349.1,1.5H0v-3H349.1Z" transform="translate(29.32 218.38)" fill="#f96156"/>
    <path id="Line_38" data-name="Line 38" d="M319.781,1.5H0v-3H319.781Z" transform="translate(43.981 198.527)" fill="#f96156"/>
    <path id="Line_39" data-name="Line 39" d="M290.46,1.5H0v-3H290.46Z" transform="translate(58.641 178.674)" fill="#f96156"/>
    <path id="Line_40" data-name="Line 40" d="M261.14,1.5H0v-3H261.14Z" transform="translate(73.301 158.821)" fill="#f96156"/>
    <path id="Line_41" data-name="Line 41" d="M231.82,1.5H0v-3H231.82Z" transform="translate(87.96 138.969)" fill="#f96156"/>
    <path id="Line_42" data-name="Line 42" d="M202.5,1.5H0v-3H202.5Z" transform="translate(102.621 119.116)" fill="#f96156"/>
    <path id="Line_43" data-name="Line 43" d="M173.179,1.5H0v-3H173.179Z" transform="translate(117.281 99.263)" fill="#f96156"/>
    <path id="Line_44" data-name="Line 44" d="M143.859,1.5H0v-3H143.859Z" transform="translate(131.941 79.411)" fill="#f96156"/>
    <path id="Line_45" data-name="Line 45" d="M114.539,1.5H0v-3H114.539Z" transform="translate(146.601 59.558)" fill="#f96156"/>
    <path id="Line_46" data-name="Line 46" d="M85.219,1.5H0v-3H85.219Z" transform="translate(161.261 39.705)" fill="#f96156"/>
    <path id="Line_47" data-name="Line 47" d="M55.9,1.5H0v-3H55.9Z" transform="translate(175.922 19.853)" fill="#f96156"/>
    <path id="Line_48" data-name="Line 48" d="M26.577,1.5H0v-3H26.577Z" transform="translate(190.582 0)" fill="#f96156"/>
  </g>
</svg>
