<svg xmlns="http://www.w3.org/2000/svg" width="229.48" height="230.342" viewBox="0 0 229.48 230.342">
  <path id="Intersection_88" data-name="Intersection 88" d="M-3337.85,537.246c-.036,1-.085,2-.147,2.991l-106.649,107.8q-1.484.1-2.978.167Zm-135.087,109.27L-3339.7,511.84c.148.8.288,1.609.42,2.419L-3470.525,646.92C-3471.333,646.794-3472.134,646.659-3472.937,646.515Zm128.83-75.673q-.794,2.294-1.68,4.542l-63.906,64.595q-2.233.9-4.513,1.717Zm-149.947,69.744,65.685-66.393h0l34.145-34.511,48.481-49c.268.682.528,1.364.784,2.052l-47.843,48.358L-3492,641.359C-3492.689,641.108-3493.375,640.849-3494.053,640.586Zm-18.121-8.957,157.389-159.086q.539.879,1.064,1.768l-156.685,158.374Q-3511.3,632.165-3512.175,631.629Zm-15.649-11.456L-3366.3,456.906q.661.756,1.308,1.522L-3526.3,621.477Q-3527.067,620.831-3527.824,620.173Zm-13.38-13.748,161.125-162.862q.776.636,1.542,1.285l-161.377,163.116Q-3540.565,607.2-3541.2,606.425Zm-11.093-16.061,156.15-157.833c.6.341,1.193.685,1.787,1.037l-156.892,158.584C-3551.6,591.561-3551.955,590.962-3552.3,590.364Zm-8.558-18.624,146.1-147.677c.7.244,1.383.492,2.072.749l-147.414,149C-3560.355,573.126-3560.607,572.436-3560.854,571.74Zm-5.415-21.8,129.77-131.169c.816.115,1.635.24,2.445.372l-131.828,133.249C-3566.02,551.577-3566.149,550.762-3566.269,549.941Zm-.854-26.41,104.318-105.442c1.011-.089,2.021-.165,3.039-.227L-3567.33,526.584C-3567.274,525.563-3567.205,524.543-3567.123,523.53Zm9.073-36.445,59.008-59.644q2.366-1.05,4.791-2l-65.755,66.464Q-3559.082,489.47-3558.05,487.086Z" transform="translate(3567.33 -417.861)" fill="#dfdfe6"/>
</svg>
