<svg xmlns="http://www.w3.org/2000/svg" width="229.48" height="230.341" viewBox="0 0 229.48 230.341">
  <path id="Intersection_87" data-name="Intersection 87" d="M-5342.849,537.245c-.037,1-.085,2-.147,2.992l-106.649,107.8q-1.485.1-2.979.167Zm-135.087,109.271L-5344.7,511.84c.148.8.288,1.609.419,2.419l-131.247,132.662C-5476.333,646.794-5477.134,646.659-5477.937,646.515Zm128.831-75.675c-.528,1.526-1.091,3.047-1.68,4.543l-63.907,64.6q-2.233.9-4.514,1.718Zm-149.949,69.745,65.686-66.393,34.144-34.511,48.481-49c.268.682.528,1.364.784,2.052l-47.843,48.358-99.2,100.271C-5497.689,641.108-5498.376,640.849-5499.054,640.586Zm-18.121-8.957,157.389-159.086q.54.879,1.064,1.769l-156.685,158.374Q-5516.3,632.165-5517.175,631.628Zm-15.649-11.455L-5371.3,456.907q.661.756,1.308,1.522L-5531.3,621.476Q-5532.068,620.831-5532.824,620.173Zm-13.38-13.749,161.125-162.861q.776.636,1.542,1.286l-161.376,163.116Q-5545.565,607.2-5546.2,606.424Zm-11.093-16.06,156.149-157.833c.6.341,1.193.685,1.788,1.037l-156.892,158.583C-5556.6,591.561-5556.955,590.961-5557.3,590.364Zm-8.557-18.623,146.1-147.677c.7.244,1.382.492,2.072.749l-147.414,149C-5565.354,573.126-5565.606,572.437-5565.854,571.741Zm-5.415-21.8,129.77-131.168c.816.115,1.634.24,2.445.372l-131.828,133.248C-5571.02,551.577-5571.148,550.762-5571.269,549.94Zm-.854-26.411,104.316-105.441c1.011-.089,2.021-.165,3.04-.227L-5572.33,526.583C-5572.274,525.563-5572.205,524.543-5572.123,523.53Zm9.073-36.444,59.007-59.643q2.366-1.05,4.791-2l-65.754,66.463Q-5564.082,489.471-5563.05,487.086Z" transform="translate(5572.33 -417.862)" fill="#f96156"/>
</svg>
