<svg xmlns="http://www.w3.org/2000/svg" width="173.261" height="136.689" viewBox="0 0 173.261 136.689">
  <g id="Group_508" data-name="Group 508" transform="matrix(-0.966, -0.259, 0.259, -0.966, 143.619, 156.843)">
    <path id="Line_35" data-name="Line 35" d="M178.57,1.5H0v-3H178.57Z" transform="translate(0 113.028)" fill="#f96156"/>
    <path id="Line_36" data-name="Line 36" d="M165.729,1.5H0v-3H165.729Z" transform="translate(6.421 104.334)" fill="#f96156"/>
    <path id="Line_37" data-name="Line 37" d="M152.888,1.5H0v-3H152.888Z" transform="translate(12.841 95.639)" fill="#f96156"/>
    <path id="Line_38" data-name="Line 38" d="M140.047,1.5H0v-3H140.047Z" transform="translate(19.261 86.945)" fill="#f96156"/>
    <path id="Line_39" data-name="Line 39" d="M127.207,1.5H0v-3H127.207Z" transform="translate(25.681 78.25)" fill="#f96156"/>
    <path id="Line_40" data-name="Line 40" d="M114.366,1.5H0v-3H114.366Z" transform="translate(32.102 69.556)" fill="#f96156"/>
    <path id="Line_41" data-name="Line 41" d="M101.525,1.5H0v-3H101.525Z" transform="translate(38.522 60.861)" fill="#f96156"/>
    <path id="Line_42" data-name="Line 42" d="M88.684,1.5H0v-3H88.684Z" transform="translate(44.943 52.167)" fill="#f96156"/>
    <path id="Line_43" data-name="Line 43" d="M75.843,1.5H0v-3H75.843Z" transform="translate(51.363 43.472)" fill="#f96156"/>
    <path id="Line_44" data-name="Line 44" d="M63,1.5H0v-3H63Z" transform="translate(57.784 34.778)" fill="#f96156"/>
    <path id="Line_45" data-name="Line 45" d="M50.162,1.5H0v-3H50.162Z" transform="translate(64.204 26.083)" fill="#f96156"/>
    <path id="Line_46" data-name="Line 46" d="M37.321,1.5H0v-3H37.321Z" transform="translate(70.624 17.389)" fill="#f96156"/>
    <path id="Line_47" data-name="Line 47" d="M24.48,1.5H0v-3H24.48Z" transform="translate(77.044 8.695)" fill="#f96156"/>
    <path id="Line_48" data-name="Line 48" d="M11.64,1.5H0v-3H11.64Z" transform="translate(83.465 0)" fill="#f96156"/>
  </g>
</svg>
