<svg xmlns="http://www.w3.org/2000/svg" width="258.35" height="273.446" viewBox="0 0 258.35 273.446">
  <g id="Сгруппировать_255" data-name="Сгруппировать 255" transform="translate(-1578.352 -1796.743)" opacity="0.5">
    <g id="Сгруппировать_243" data-name="Сгруппировать 243" transform="translate(1751.782 1698.113) rotate(60)">
      <path id="Линия_35" data-name="Линия 35" d="M314.016,1.5H0v-3H314.016Z" transform="translate(0 198.76)" fill="#fff"/>
      <path id="Линия_36" data-name="Линия 36" d="M291.435,1.5H0v-3H291.435Z" transform="translate(11.29 183.471)" fill="#fff"/>
      <path id="Линия_37" data-name="Линия 37" d="M268.855,1.5H0v-3H268.855Z" transform="translate(22.581 168.182)" fill="#fff"/>
      <path id="Линия_38" data-name="Линия 38" d="M246.275,1.5H0v-3H246.275Z" transform="translate(33.871 152.893)" fill="#fff"/>
      <path id="Линия_39" data-name="Линия 39" d="M223.694,1.5H0v-3H223.694Z" transform="translate(45.161 137.603)" fill="#fff"/>
      <path id="Линия_40" data-name="Линия 40" d="M201.113,1.5H0v-3H201.113Z" transform="translate(56.452 122.314)" fill="#fff"/>
      <path id="Линия_41" data-name="Линия 41" d="M178.533,1.5H0v-3H178.533Z" transform="translate(67.741 107.025)" fill="#fff"/>
      <path id="Линия_42" data-name="Линия 42" d="M155.952,1.5H0v-3H155.952Z" transform="translate(79.032 91.736)" fill="#fff"/>
      <path id="Линия_43" data-name="Линия 43" d="M133.371,1.5H0v-3H133.371Z" transform="translate(90.323 76.446)" fill="#fff"/>
      <path id="Линия_44" data-name="Линия 44" d="M110.791,1.5H0v-3H110.791Z" transform="translate(101.613 61.157)" fill="#fff"/>
      <path id="Линия_45" data-name="Линия 45" d="M88.21,1.5H0v-3H88.21Z" transform="translate(112.903 45.868)" fill="#fff"/>
      <path id="Линия_46" data-name="Линия 46" d="M65.63,1.5H0v-3H65.63Z" transform="translate(124.193 30.578)" fill="#fff"/>
      <path id="Линия_47" data-name="Линия 47" d="M43.049,1.5H0v-3H43.049Z" transform="translate(135.483 15.289)" fill="#fff"/>
      <path id="Линия_48" data-name="Линия 48" d="M20.468,1.5H0v-3H20.468Z" transform="translate(146.774)" fill="#fff"/>
    </g>
  </g>
</svg>
