<svg xmlns="http://www.w3.org/2000/svg" width="313.528" height="299.137" viewBox="0 0 313.528 299.137"><g transform="translate(-500.883 -8073.211)" opacity="0.5"><path d="M-1938.449,238.8h0Zm-11.53-16.8h0Zm5.769-16.8h0Zm9.605-16.8h0Zm9.605-16.8h0Zm9.605-16.8h0Zm9.6-16.8h0Zm9.605-16.8h0Zm9.605-16.8h0Zm9.6-16.8h0Zm9.6-16.8h0Zm9.605-16.8h0Zm9.6-16.8h0Z" transform="translate(2171.759 7189.25) rotate(-30)" fill="#fff"/><path d="M-1717.6,240.3h-220.85v-3h220.85Zm11.53-16.8h-243.91v-3h243.91Zm-5.768-16.8H-1944.21v-3h232.372Zm-9.605-16.8H-1934.6v-3h213.162Zm-9.605-16.8H-1925v-3h193.951Zm-9.6-16.8h-174.741v-3h174.741Zm-9.6-16.8H-1905.79v-3h155.532Zm-9.605-16.8h-136.321v-3h136.321Zm-9.6-16.8h-117.111v-3h117.111Zm-9.605-16.8h-97.9v-3h97.9Zm-9.6-16.8h-78.691v-3h78.691Zm-9.605-16.8h-59.481v-3h59.481Zm-9.6-16.8h-40.271v-3h40.271Z" transform="translate(2171.759 7189.25) rotate(-30)" fill="#f22c4a"/></g></svg>