<svg xmlns="http://www.w3.org/2000/svg" width="437.075" height="463.486" viewBox="0 0 437.075 463.486"><g transform="translate(-1578.352 -1866.192)" opacity="0.5"><g transform="translate(1872.071 1698.113) rotate(60)"><path d="M533.456,1.5H0v-3H533.456Z" transform="translate(0 337.657)" fill="#f5f5f8"/><path d="M495.1,1.5H0v-3H495.1Z" transform="translate(19.18 311.684)" fill="#f5f5f8"/><path d="M456.736,1.5H0v-3H456.736Z" transform="translate(38.36 285.711)" fill="#f5f5f8"/><path d="M418.375,1.5H0v-3H418.375Z" transform="translate(57.541 259.737)" fill="#f5f5f8"/><path d="M380.015,1.5H0v-3H380.015Z" transform="translate(76.721 233.763)" fill="#f5f5f8"/><path d="M341.654,1.5H0v-3H341.654Z" transform="translate(95.901 207.789)" fill="#f5f5f8"/><path d="M303.295,1.5H0v-3H303.295Z" transform="translate(115.08 181.816)" fill="#f5f5f8"/><path d="M264.934,1.5H0v-3H264.934Z" transform="translate(134.261 155.842)" fill="#f5f5f8"/><path d="M226.573,1.5H0v-3H226.573Z" transform="translate(153.441 129.868)" fill="#f5f5f8"/><path d="M188.213,1.5H0v-3H188.213Z" transform="translate(172.622 103.895)" fill="#f5f5f8"/><path d="M149.853,1.5H0v-3H149.853Z" transform="translate(191.801 77.921)" fill="#f5f5f8"/><path d="M111.493,1.5H0v-3H111.493Z" transform="translate(210.981 51.947)" fill="#f5f5f8"/><path d="M73.132,1.5H0v-3H73.132Z" transform="translate(230.162 25.974)" fill="#f5f5f8"/><path d="M34.772,1.5H0v-3H34.772Z" transform="translate(249.342 0)" fill="#f5f5f8"/></g></g></svg>