<svg xmlns="http://www.w3.org/2000/svg" width="299.974" height="285.627" viewBox="0 0 299.974 285.627"><path d="M-1732.673,229.3h-210.7v-1h210.7Zm11.621-16.145H-1955v-1h233.943Zm-4.923-16.146h-224.1v-1h224.1Zm-9.263-16.146h-205.57v-1h205.57Zm-9.263-16.145h-187.045v-1H-1744.5Zm-9.263-16.146h-168.518v-1h168.518Zm-9.263-16.145H-1913.02v-1h149.993Zm-9.263-16.146h-131.466v-1h131.466Zm-9.263-16.145h-112.941v-1h112.941Zm-9.263-16.146h-94.414v-1h94.414Zm-9.263-16.145h-75.889v-1h75.889Zm-9.263-16.146H-1866.7v-1h57.363Zm-9.263-16.145h-38.837v-1h38.837Z" transform="translate(1807.728 947.57) rotate(30)" fill="#d1d3db"/></svg>