<svg xmlns="http://www.w3.org/2000/svg" xmlns:xlink="http://www.w3.org/1999/xlink" width="69" viewBox="0 0 51.75 47.25" height="63" preserveAspectRatio="xMidYMid meet"><defs><clipPath id="id1"><path d="M 21 2 L 48.742188 2 L 48.742188 39 L 21 39 Z M 21 2 " clip-rule="nonzero"></path></clipPath><clipPath id="id2"><path d="M 11 33 L 31 33 L 31 45.480469 L 11 45.480469 Z M 11 33 " clip-rule="nonzero"></path></clipPath><clipPath id="id3"><path d="M 3.492188 1.710938 L 22 1.710938 L 22 20 L 3.492188 20 Z M 3.492188 1.710938 " clip-rule="nonzero"></path></clipPath><clipPath id="id4"><path d="M 3.492188 21 L 21 21 L 21 35 L 3.492188 35 Z M 3.492188 21 " clip-rule="nonzero"></path></clipPath><clipPath id="id5"><path d="M 3.492188 21 L 21 21 L 21 29 L 3.492188 29 Z M 3.492188 21 " clip-rule="nonzero"></path></clipPath></defs><path fill="rgb(16.468811%, 0%, 49.01886%)" d="M 20.488281 6.585938 L 19.8125 5.6875 C 19.96875 5.570312 20.125 5.457031 20.285156 5.347656 L 20.929688 6.269531 C 20.78125 6.371094 20.632812 6.480469 20.488281 6.585938 " fill-opacity="1" fill-rule="nonzero"></path><g clip-path="url(#id1)"><path fill="rgb(16.468811%, 0%, 49.01886%)" d="M 31.285156 3.226562 C 31.074219 3.21875 30.859375 3.214844 30.648438 3.214844 C 30.492188 3.214844 30.335938 3.214844 30.1875 3.21875 L 30.15625 2.09375 C 30.316406 2.089844 30.480469 2.089844 30.648438 2.089844 C 30.875 2.089844 31.101562 2.09375 31.328125 2.101562 Z M 28 3.417969 L 27.824219 2.308594 C 28.210938 2.246094 28.601562 2.199219 28.988281 2.164062 L 29.089844 3.285156 C 28.726562 3.316406 28.359375 3.363281 28 3.417969 Z M 33.46875 3.449219 C 33.109375 3.386719 32.746094 3.339844 32.382812 3.300781 L 32.496094 2.179688 C 32.882812 2.222656 33.273438 2.273438 33.65625 2.335938 Z M 25.859375 3.898438 L 25.539062 2.820312 C 25.914062 2.707031 26.296875 2.609375 26.675781 2.523438 L 26.921875 3.625 C 26.566406 3.703125 26.207031 3.796875 25.859375 3.898438 Z M 35.605469 3.949219 C 35.257812 3.84375 34.902344 3.746094 34.546875 3.664062 L 34.804688 2.566406 C 35.183594 2.65625 35.5625 2.757812 35.933594 2.871094 Z M 23.796875 4.652344 L 23.339844 3.621094 C 23.699219 3.464844 24.0625 3.316406 24.429688 3.183594 L 24.816406 4.242188 C 24.472656 4.367188 24.128906 4.503906 23.796875 4.652344 Z M 37.664062 4.726562 C 37.328125 4.574219 36.988281 4.433594 36.648438 4.304688 L 37.046875 3.25 C 37.410156 3.390625 37.773438 3.539062 38.128906 3.703125 Z M 21.851562 5.667969 L 21.265625 4.707031 C 21.597656 4.503906 21.941406 4.308594 22.285156 4.128906 L 22.804688 5.128906 C 22.484375 5.296875 22.160156 5.480469 21.851562 5.667969 Z M 39.597656 5.761719 C 39.289062 5.570312 38.96875 5.386719 38.648438 5.214844 L 39.179688 4.222656 C 39.523438 4.40625 39.863281 4.601562 40.195312 4.808594 Z M 41.386719 7.042969 C 41.101562 6.808594 40.808594 6.585938 40.511719 6.375 L 41.167969 5.457031 C 41.484375 5.683594 41.796875 5.921875 42.097656 6.171875 Z M 42.992188 8.539062 C 42.742188 8.273438 42.480469 8.011719 42.214844 7.765625 L 42.980469 6.941406 C 43.265625 7.203125 43.546875 7.484375 43.8125 7.765625 Z M 44.394531 10.226562 C 44.179688 9.933594 43.953125 9.640625 43.722656 9.359375 L 44.585938 8.640625 C 44.835938 8.941406 45.078125 9.253906 45.304688 9.566406 Z M 45.566406 12.082031 C 45.390625 11.761719 45.203125 11.445312 45.011719 11.136719 L 45.960938 10.535156 C 46.167969 10.863281 46.367188 11.203125 46.554688 11.542969 Z M 46.488281 14.070312 C 46.355469 13.730469 46.210938 13.390625 46.058594 13.0625 L 47.082031 12.589844 C 47.242188 12.941406 47.398438 13.304688 47.539062 13.664062 Z M 47.140625 16.164062 C 47.054688 15.8125 46.957031 15.457031 46.847656 15.109375 L 47.921875 14.769531 C 48.039062 15.140625 48.144531 15.523438 48.238281 15.898438 Z M 47.519531 18.328125 C 47.480469 17.964844 47.429688 17.597656 47.367188 17.238281 L 48.476562 17.046875 C 48.542969 17.429688 48.597656 17.816406 48.640625 18.203125 Z M 48.746094 20.542969 L 47.617188 20.519531 C 47.621094 20.410156 47.621094 20.296875 47.621094 20.183594 C 47.621094 19.933594 47.617188 19.675781 47.605469 19.421875 L 48.730469 19.371094 C 48.742188 19.640625 48.746094 19.914062 48.746094 20.183594 C 48.746094 20.304688 48.746094 20.421875 48.746094 20.542969 Z M 48.550781 22.875 L 47.433594 22.707031 C 47.488281 22.347656 47.53125 21.980469 47.5625 21.617188 L 48.683594 21.710938 C 48.652344 22.097656 48.605469 22.488281 48.550781 22.875 Z M 48.054688 25.160156 L 46.972656 24.851562 C 47.070312 24.503906 47.160156 24.144531 47.238281 23.789062 L 48.339844 24.027344 C 48.257812 24.40625 48.160156 24.789062 48.054688 25.160156 Z M 47.265625 27.367188 L 46.234375 26.921875 C 46.378906 26.585938 46.511719 26.242188 46.636719 25.898438 L 47.695312 26.277344 C 47.566406 26.644531 47.421875 27.011719 47.265625 27.367188 Z M 46.195312 29.453125 L 45.230469 28.875 C 45.417969 28.5625 45.597656 28.238281 45.761719 27.914062 L 46.765625 28.429688 C 46.589844 28.773438 46.398438 29.117188 46.195312 29.453125 Z M 44.867188 31.382812 L 43.984375 30.683594 C 44.210938 30.398438 44.429688 30.101562 44.636719 29.800781 L 45.5625 30.4375 C 45.34375 30.757812 45.109375 31.078125 44.867188 31.382812 Z M 43.304688 33.121094 L 42.515625 32.316406 C 42.777344 32.0625 43.03125 31.796875 43.277344 31.523438 L 44.113281 32.277344 C 43.855469 32.566406 43.582031 32.851562 43.304688 33.121094 Z M 41.53125 34.648438 L 40.851562 33.75 C 41.144531 33.53125 41.429688 33.296875 41.707031 33.058594 L 42.441406 33.914062 C 42.144531 34.167969 41.839844 34.414062 41.53125 34.648438 Z M 39.574219 35.933594 L 39.019531 34.953125 C 39.335938 34.773438 39.648438 34.582031 39.953125 34.378906 L 40.574219 35.320312 C 40.246094 35.535156 39.910156 35.742188 39.574219 35.933594 Z M 37.46875 36.953125 L 37.046875 35.910156 C 37.382812 35.773438 37.71875 35.621094 38.046875 35.464844 L 38.539062 36.476562 C 38.1875 36.644531 37.828125 36.808594 37.46875 36.953125 Z M 35.25 37.691406 L 34.964844 36.605469 C 35.316406 36.511719 35.667969 36.40625 36.015625 36.292969 L 36.371094 37.359375 C 36.003906 37.480469 35.625 37.59375 35.25 37.691406 Z M 32.949219 38.136719 L 32.808594 37.019531 C 33.171875 36.976562 33.535156 36.917969 33.894531 36.847656 L 34.105469 37.953125 C 33.726562 38.027344 33.335938 38.089844 32.949219 38.136719 Z M 29.445312 38.242188 C 29.054688 38.21875 28.664062 38.179688 28.277344 38.128906 L 28.425781 37.011719 C 28.785156 37.058594 29.152344 37.097656 29.519531 37.121094 Z M 30.648438 38.28125 L 30.617188 38.28125 L 30.617188 37.15625 L 30.648438 37.15625 C 31.003906 37.15625 31.363281 37.144531 31.714844 37.125 L 31.785156 38.246094 C 31.410156 38.269531 31.027344 38.28125 30.648438 38.28125 " fill-opacity="1" fill-rule="nonzero"></path></g><path fill="rgb(16.468811%, 0%, 49.01886%)" d="M 27.101562 37.9375 C 26.910156 37.898438 26.71875 37.855469 26.53125 37.8125 L 26.789062 36.714844 C 26.960938 36.757812 27.140625 36.796875 27.320312 36.832031 L 27.101562 37.9375 " fill-opacity="1" fill-rule="nonzero"></path><g clip-path="url(#id2)"><path fill="rgb(16.468811%, 0%, 49.01886%)" d="M 12.933594 34.832031 L 11.816406 34.707031 C 11.855469 34.332031 11.921875 33.957031 12.003906 33.59375 L 13.101562 33.847656 C 13.027344 34.171875 12.972656 34.5 12.933594 34.832031 Z M 11.839844 37.089844 C 11.789062 36.695312 11.757812 36.296875 11.753906 35.898438 L 12.882812 35.886719 C 12.882812 36.238281 12.910156 36.59375 12.957031 36.941406 Z M 12.445312 39.394531 C 12.296875 39.027344 12.171875 38.644531 12.070312 38.261719 L 13.160156 37.976562 C 13.25 38.316406 13.359375 38.652344 13.492188 38.976562 Z M 30.304688 39.722656 L 29.273438 39.265625 C 29.417969 38.945312 29.539062 38.613281 29.640625 38.277344 L 30.71875 38.601562 C 30.605469 38.980469 30.464844 39.359375 30.304688 39.722656 Z M 13.597656 41.480469 C 13.367188 41.160156 13.148438 40.820312 12.957031 40.472656 L 13.945312 39.929688 C 14.113281 40.238281 14.304688 40.535156 14.511719 40.820312 Z M 29.074219 41.765625 L 28.1875 41.070312 C 28.40625 40.792969 28.605469 40.503906 28.785156 40.203125 L 29.75 40.78125 C 29.546875 41.121094 29.320312 41.453125 29.074219 41.765625 Z M 15.226562 43.222656 C 14.921875 42.96875 14.628906 42.691406 14.359375 42.402344 L 15.183594 41.636719 C 15.421875 41.890625 15.679688 42.136719 15.949219 42.363281 Z M 27.386719 43.449219 L 26.695312 42.558594 C 26.972656 42.34375 27.238281 42.109375 27.488281 41.859375 L 28.28125 42.660156 C 28 42.9375 27.699219 43.203125 27.386719 43.449219 Z M 17.226562 44.519531 C 16.871094 44.347656 16.519531 44.148438 16.1875 43.933594 L 16.796875 42.988281 C 17.09375 43.179688 17.402344 43.351562 17.71875 43.507812 Z M 25.335938 44.667969 L 24.882812 43.636719 C 25.203125 43.496094 25.519531 43.335938 25.820312 43.15625 L 26.398438 44.121094 C 26.058594 44.324219 25.699219 44.507812 25.335938 44.667969 Z M 19.488281 45.285156 C 19.097656 45.203125 18.710938 45.101562 18.332031 44.972656 L 18.695312 43.90625 C 19.027344 44.019531 19.371094 44.113281 19.714844 44.183594 Z M 23.050781 45.351562 L 22.867188 44.238281 C 23.210938 44.179688 23.558594 44.101562 23.894531 44 L 24.214844 45.078125 C 23.835938 45.191406 23.445312 45.285156 23.050781 45.351562 Z M 21.445312 45.484375 C 21.410156 45.484375 21.375 45.480469 21.335938 45.480469 C 21.113281 45.480469 20.890625 45.46875 20.671875 45.453125 L 20.757812 44.328125 C 20.953125 44.34375 21.152344 44.355469 21.351562 44.355469 C 21.507812 44.359375 21.660156 44.355469 21.816406 44.347656 L 21.863281 45.472656 C 21.726562 45.480469 21.585938 45.484375 21.445312 45.484375 " fill-opacity="1" fill-rule="nonzero"></path></g><g clip-path="url(#id3)"><path fill="rgb(16.468811%, 0%, 49.01886%)" d="M 11.449219 2.902344 L 11.308594 1.785156 C 11.710938 1.734375 12.117188 1.714844 12.527344 1.714844 L 12.515625 2.84375 C 12.15625 2.839844 11.800781 2.859375 11.449219 2.902344 Z M 14.625 3.152344 C 14.285156 3.050781 13.933594 2.976562 13.582031 2.925781 L 13.746094 1.8125 C 14.148438 1.871094 14.550781 1.957031 14.941406 2.070312 Z M 9.390625 3.457031 L 8.949219 2.421875 C 9.324219 2.261719 9.714844 2.128906 10.109375 2.023438 L 10.398438 3.109375 C 10.054688 3.203125 9.71875 3.320312 9.390625 3.457031 Z M 16.574219 4.019531 C 16.273438 3.832031 15.953125 3.664062 15.628906 3.519531 L 16.089844 2.492188 C 16.460938 2.65625 16.824219 2.851562 17.167969 3.066406 Z M 7.558594 4.546875 L 6.855469 3.667969 C 7.171875 3.414062 7.511719 3.179688 7.859375 2.972656 L 8.4375 3.9375 C 8.132812 4.121094 7.835938 4.324219 7.558594 4.546875 Z M 18.214844 5.382812 C 17.976562 5.121094 17.714844 4.875 17.441406 4.648438 L 18.160156 3.78125 C 18.472656 4.039062 18.769531 4.324219 19.046875 4.625 Z M 6.085938 6.089844 L 5.171875 5.429688 C 5.410156 5.101562 5.671875 4.785156 5.953125 4.492188 L 6.769531 5.269531 C 6.523438 5.527344 6.292969 5.804688 6.085938 6.089844 Z M 19.429688 7.136719 C 19.269531 6.820312 19.085938 6.511719 18.882812 6.21875 L 19.808594 5.578125 C 20.039062 5.914062 20.25 6.265625 20.433594 6.628906 Z M 5.082031 7.972656 L 4.027344 7.585938 C 4.164062 7.203125 4.332031 6.828125 4.523438 6.46875 L 5.519531 6.996094 C 5.351562 7.3125 5.203125 7.640625 5.082031 7.972656 Z M 20.125 9.152344 C 20.054688 8.804688 19.960938 8.457031 19.847656 8.121094 L 20.910156 7.753906 C 21.042969 8.140625 21.148438 8.535156 21.230469 8.933594 Z M 4.628906 10.058594 L 3.507812 9.96875 C 3.539062 9.5625 3.597656 9.15625 3.683594 8.761719 L 4.785156 9 C 4.707031 9.347656 4.65625 9.703125 4.628906 10.058594 Z M 21.371094 11.367188 L 20.246094 11.28125 C 20.261719 11.109375 20.269531 10.933594 20.269531 10.757812 C 20.269531 10.730469 20.269531 10.699219 20.269531 10.671875 C 20.269531 10.519531 20.265625 10.363281 20.257812 10.210938 L 21.382812 10.148438 C 21.390625 10.320312 21.398438 10.496094 21.398438 10.671875 C 21.398438 10.703125 21.398438 10.738281 21.398438 10.773438 C 21.394531 10.96875 21.386719 11.171875 21.371094 11.367188 Z M 3.644531 12.402344 C 3.566406 12.003906 3.515625 11.597656 3.492188 11.191406 L 4.617188 11.125 C 4.636719 11.484375 4.683594 11.839844 4.75 12.1875 Z M 20.851562 13.753906 L 19.796875 13.367188 C 19.917969 13.03125 20.019531 12.6875 20.09375 12.339844 L 21.195312 12.578125 C 21.109375 12.976562 20.992188 13.371094 20.851562 13.753906 Z M 4.4375 14.710938 C 4.253906 14.347656 4.09375 13.96875 3.960938 13.585938 L 5.027344 13.21875 C 5.144531 13.554688 5.28125 13.886719 5.441406 14.203125 Z M 19.707031 15.910156 L 18.796875 15.25 C 19.003906 14.960938 19.195312 14.65625 19.359375 14.34375 L 20.355469 14.871094 C 20.164062 15.230469 19.945312 15.578125 19.707031 15.910156 Z M 5.824219 16.71875 C 5.550781 16.417969 5.292969 16.09375 5.0625 15.761719 L 5.988281 15.121094 C 6.191406 15.414062 6.414062 15.695312 6.65625 15.957031 Z M 18.027344 17.675781 L 17.324219 16.796875 C 17.601562 16.574219 17.867188 16.332031 18.113281 16.074219 L 18.925781 16.847656 C 18.648438 17.144531 18.34375 17.421875 18.027344 17.675781 Z M 7.699219 18.277344 C 7.355469 18.0625 7.019531 17.820312 6.707031 17.5625 L 7.429688 16.695312 C 7.703125 16.921875 7.992188 17.132812 8.296875 17.320312 Z M 15.933594 18.925781 L 15.492188 17.886719 C 15.820312 17.75 16.140625 17.585938 16.445312 17.402344 L 17.023438 18.371094 C 16.671875 18.578125 16.308594 18.765625 15.933594 18.925781 Z M 9.925781 19.273438 C 9.535156 19.160156 9.148438 19.019531 8.777344 18.851562 L 9.238281 17.824219 C 9.5625 17.96875 9.902344 18.09375 10.242188 18.195312 Z M 13.578125 19.558594 L 13.433594 18.441406 C 13.789062 18.398438 14.140625 18.328125 14.484375 18.234375 L 14.777344 19.324219 C 14.382812 19.429688 13.980469 19.507812 13.578125 19.558594 Z M 12.355469 19.632812 L 12.339844 19.628906 C 11.933594 19.625 11.523438 19.59375 11.121094 19.535156 L 11.285156 18.421875 C 11.636719 18.472656 11.996094 18.5 12.351562 18.503906 L 12.367188 18.503906 L 12.355469 19.632812 " fill-opacity="1" fill-rule="nonzero"></path></g><path fill="rgb(100%, 56.858826%, 30.198669%)" d="M 12.414062 12.746094 C 11.269531 12.734375 10.351562 11.796875 10.363281 10.652344 C 10.375 9.503906 11.316406 8.585938 12.460938 8.601562 C 13.605469 8.613281 14.523438 9.550781 14.511719 10.695312 C 14.5 11.839844 13.5625 12.761719 12.414062 12.746094 Z M 13.113281 14.765625 L 14.152344 16.011719 C 14.3125 16.203125 14.582031 16.253906 14.796875 16.132812 L 15.878906 15.523438 C 16.09375 15.402344 16.195312 15.144531 16.113281 14.910156 L 15.589844 13.371094 C 15.898438 13.007812 16.148438 12.59375 16.320312 12.136719 L 17.921875 11.859375 C 18.164062 11.816406 18.34375 11.605469 18.347656 11.359375 L 18.359375 10.117188 C 18.363281 9.871094 18.1875 9.65625 17.945312 9.609375 L 16.351562 9.296875 C 16.191406 8.835938 15.949219 8.414062 15.644531 8.042969 L 16.207031 6.519531 C 16.289062 6.285156 16.199219 6.027344 15.984375 5.902344 L 14.917969 5.269531 C 14.703125 5.144531 14.433594 5.1875 14.269531 5.371094 L 13.203125 6.597656 C 12.96875 6.554688 12.726562 6.527344 12.484375 6.527344 C 12.238281 6.523438 11.996094 6.542969 11.765625 6.582031 L 10.722656 5.335938 C 10.566406 5.144531 10.292969 5.09375 10.078125 5.214844 L 8.996094 5.824219 C 8.78125 5.945312 8.683594 6.203125 8.761719 6.4375 L 9.289062 7.976562 C 8.976562 8.335938 8.726562 8.753906 8.554688 9.210938 L 6.957031 9.488281 C 6.710938 9.53125 6.53125 9.742188 6.53125 9.988281 L 6.515625 11.230469 C 6.515625 11.476562 6.6875 11.691406 6.929688 11.738281 L 8.523438 12.050781 C 8.683594 12.511719 8.925781 12.933594 9.230469 13.304688 L 8.671875 14.828125 C 8.585938 15.058594 8.679688 15.320312 8.890625 15.445312 L 9.957031 16.078125 C 10.171875 16.203125 10.445312 16.160156 10.605469 15.972656 L 11.675781 14.75 C 11.90625 14.792969 12.148438 14.820312 12.394531 14.820312 C 12.636719 14.824219 12.878906 14.804688 13.113281 14.765625 " fill-opacity="1" fill-rule="nonzero"></path><path fill="rgb(100%, 100%, 100%)" d="M 14.511719 10.695312 C 14.523438 9.550781 13.605469 8.613281 12.460938 8.601562 C 11.316406 8.585938 10.375 9.503906 10.363281 10.652344 C 10.351562 11.796875 11.269531 12.734375 12.414062 12.746094 C 13.5625 12.761719 14.5 11.839844 14.511719 10.695312 " fill-opacity="1" fill-rule="nonzero"></path><path fill="rgb(16.468811%, 0%, 49.01886%)" d="M 12.421875 12.183594 C 12.824219 12.191406 13.207031 12.035156 13.496094 11.753906 C 13.785156 11.472656 13.945312 11.09375 13.949219 10.691406 C 13.953125 10.285156 13.800781 9.90625 13.519531 9.617188 C 13.234375 9.328125 12.859375 9.167969 12.453125 9.164062 C 12.050781 9.160156 11.667969 9.3125 11.382812 9.59375 C 11.09375 9.875 10.929688 10.253906 10.925781 10.65625 C 10.917969 11.488281 11.589844 12.175781 12.421875 12.183594 Z M 12.4375 13.3125 C 12.429688 13.3125 12.417969 13.3125 12.410156 13.308594 C 10.953125 13.292969 9.785156 12.097656 9.800781 10.644531 C 9.808594 9.941406 10.089844 9.28125 10.59375 8.789062 C 11.097656 8.296875 11.761719 8.03125 12.464844 8.035156 C 13.171875 8.042969 13.832031 8.324219 14.324219 8.828125 C 14.816406 9.332031 15.082031 10 15.074219 10.703125 C 15.066406 11.40625 14.785156 12.066406 14.28125 12.558594 C 13.785156 13.042969 13.132812 13.3125 12.4375 13.3125 Z M 13.339844 14.160156 L 14.558594 15.621094 L 15.566406 15.050781 L 14.953125 13.25 L 15.160156 13.007812 C 15.433594 12.6875 15.648438 12.328125 15.792969 11.9375 L 15.90625 11.636719 L 17.78125 11.3125 L 17.796875 10.152344 L 15.929688 9.785156 L 15.820312 9.484375 C 15.683594 9.089844 15.476562 8.726562 15.210938 8.402344 L 15.007812 8.152344 L 15.664062 6.363281 L 14.667969 5.773438 L 13.414062 7.207031 L 13.097656 7.148438 C 12.894531 7.113281 12.683594 7.089844 12.476562 7.089844 C 12.269531 7.085938 12.058594 7.101562 11.855469 7.136719 L 11.539062 7.1875 L 10.316406 5.726562 L 9.308594 6.292969 L 9.925781 8.097656 L 9.714844 8.339844 C 9.441406 8.660156 9.230469 9.019531 9.082031 9.410156 L 8.96875 9.710938 L 7.09375 10.035156 L 7.082031 11.195312 L 8.949219 11.5625 L 9.054688 11.863281 C 9.191406 12.257812 9.398438 12.621094 9.664062 12.945312 L 9.867188 13.195312 L 9.214844 14.984375 L 10.210938 15.574219 L 11.460938 14.140625 L 11.777344 14.199219 C 11.980469 14.234375 12.191406 14.257812 12.398438 14.257812 C 12.605469 14.261719 12.816406 14.246094 13.019531 14.210938 Z M 14.546875 16.761719 C 14.238281 16.761719 13.929688 16.625 13.71875 16.375 L 12.875 15.363281 C 12.714844 15.378906 12.550781 15.386719 12.386719 15.382812 C 12.222656 15.382812 12.058594 15.371094 11.894531 15.351562 L 11.03125 16.34375 C 10.691406 16.734375 10.117188 16.828125 9.671875 16.5625 L 8.605469 15.929688 C 8.15625 15.667969 7.964844 15.121094 8.140625 14.632812 L 8.59375 13.398438 C 8.402344 13.132812 8.242188 12.84375 8.113281 12.542969 L 6.824219 12.289062 C 6.3125 12.191406 5.949219 11.742188 5.953125 11.222656 L 5.96875 9.984375 C 5.972656 9.464844 6.347656 9.023438 6.859375 8.933594 L 8.15625 8.707031 C 8.292969 8.410156 8.457031 8.128906 8.65625 7.863281 L 8.230469 6.621094 C 8.0625 6.128906 8.269531 5.589844 8.71875 5.332031 L 9.800781 4.726562 C 10.253906 4.472656 10.824219 4.574219 11.15625 4.972656 L 12 5.984375 C 12.160156 5.96875 12.324219 5.960938 12.488281 5.964844 C 12.652344 5.964844 12.816406 5.976562 12.980469 5.992188 L 13.84375 5.003906 C 14.1875 4.613281 14.757812 4.519531 15.203125 4.785156 L 16.273438 5.417969 C 16.71875 5.679688 16.914062 6.226562 16.734375 6.714844 L 16.28125 7.949219 C 16.472656 8.214844 16.632812 8.503906 16.761719 8.804688 L 18.054688 9.054688 C 18.5625 9.15625 18.929688 9.605469 18.921875 10.125 L 18.910156 11.363281 C 18.902344 11.882812 18.527344 12.324219 18.015625 12.414062 L 16.722656 12.636719 C 16.585938 12.9375 16.417969 13.21875 16.21875 13.484375 L 16.644531 14.726562 C 16.816406 15.21875 16.609375 15.757812 16.15625 16.011719 L 15.074219 16.621094 C 14.910156 16.714844 14.726562 16.761719 14.546875 16.761719 " fill-opacity="1" fill-rule="nonzero"></path><path fill="rgb(37.249756%, 64.709473%, 87.449646%)" d="M 21.421875 37.867188 C 20.273438 37.855469 19.355469 36.917969 19.371094 35.773438 C 19.382812 34.625 20.320312 33.707031 21.464844 33.722656 C 22.613281 33.734375 23.53125 34.671875 23.519531 35.816406 C 23.503906 36.960938 22.566406 37.882812 21.421875 37.867188 Z M 22.117188 39.886719 L 23.160156 41.132812 C 23.316406 41.324219 23.589844 41.375 23.804688 41.253906 L 24.886719 40.644531 C 25.101562 40.523438 25.199219 40.265625 25.121094 40.03125 L 24.59375 38.492188 C 24.90625 38.132812 25.15625 37.714844 25.328125 37.257812 L 26.925781 36.980469 C 27.167969 36.9375 27.347656 36.726562 27.351562 36.480469 L 27.363281 35.238281 C 27.367188 34.992188 27.191406 34.777344 26.949219 34.730469 L 25.359375 34.417969 C 25.195312 33.957031 24.957031 33.535156 24.652344 33.164062 L 25.210938 31.640625 C 25.296875 31.40625 25.203125 31.148438 24.992188 31.023438 L 23.921875 30.390625 C 23.710938 30.265625 23.4375 30.308594 23.273438 30.496094 L 22.207031 31.71875 C 21.972656 31.675781 21.734375 31.648438 21.488281 31.648438 C 21.242188 31.644531 21.003906 31.664062 20.769531 31.703125 L 19.730469 30.457031 C 19.570312 30.265625 19.296875 30.214844 19.082031 30.335938 L 18 30.945312 C 17.785156 31.066406 17.6875 31.324219 17.769531 31.558594 L 18.292969 33.097656 C 17.980469 33.457031 17.730469 33.875 17.5625 34.332031 L 15.960938 34.609375 C 15.71875 34.652344 15.539062 34.863281 15.535156 35.109375 L 15.523438 36.351562 C 15.519531 36.597656 15.695312 36.8125 15.9375 36.859375 L 17.53125 37.171875 C 17.691406 37.632812 17.933594 38.054688 18.234375 38.425781 L 17.675781 39.949219 C 17.589844 40.183594 17.683594 40.441406 17.898438 40.566406 L 18.964844 41.199219 C 19.175781 41.324219 19.449219 41.28125 19.613281 41.09375 L 20.679688 39.871094 C 20.914062 39.914062 21.152344 39.941406 21.398438 39.941406 C 21.644531 39.945312 21.882812 39.925781 22.117188 39.886719 " fill-opacity="1" fill-rule="nonzero"></path><path fill="rgb(100%, 100%, 100%)" d="M 23.519531 35.816406 C 23.53125 34.671875 22.613281 33.734375 21.464844 33.722656 C 20.320312 33.707031 19.382812 34.625 19.371094 35.773438 C 19.355469 36.917969 20.273438 37.855469 21.421875 37.867188 C 22.566406 37.882812 23.503906 36.960938 23.519531 35.816406 " fill-opacity="1" fill-rule="nonzero"></path><path fill="rgb(16.468811%, 0%, 49.01886%)" d="M 21.425781 37.304688 C 21.832031 37.3125 22.210938 37.15625 22.5 36.875 C 22.789062 36.59375 22.949219 36.214844 22.953125 35.8125 C 22.964844 34.976562 22.292969 34.292969 21.460938 34.285156 C 21.054688 34.28125 20.675781 34.433594 20.386719 34.714844 C 20.097656 34.996094 19.9375 35.375 19.933594 35.777344 C 19.921875 36.613281 20.59375 37.296875 21.425781 37.304688 Z M 21.445312 38.433594 C 21.433594 38.433594 21.425781 38.433594 21.414062 38.429688 C 19.960938 38.414062 18.789062 37.21875 18.804688 35.765625 C 18.8125 35.0625 19.097656 34.402344 19.597656 33.910156 C 20.101562 33.417969 20.765625 33.148438 21.472656 33.15625 C 22.925781 33.175781 24.097656 34.371094 24.082031 35.824219 C 24.074219 36.527344 23.792969 37.1875 23.289062 37.679688 C 22.792969 38.164062 22.136719 38.433594 21.445312 38.433594 Z M 22.34375 39.28125 L 23.5625 40.742188 L 24.574219 40.175781 L 23.957031 38.371094 L 24.167969 38.128906 C 24.441406 37.808594 24.652344 37.449219 24.800781 37.058594 L 24.914062 36.757812 L 26.789062 36.433594 L 26.800781 35.273438 L 24.933594 34.90625 L 24.828125 34.605469 C 24.6875 34.210938 24.484375 33.847656 24.214844 33.523438 L 24.011719 33.273438 L 24.667969 31.484375 L 23.671875 30.894531 L 22.417969 32.328125 L 22.105469 32.269531 C 21.898438 32.234375 21.691406 32.210938 21.484375 32.210938 C 21.273438 32.207031 21.066406 32.222656 20.859375 32.257812 L 20.542969 32.308594 L 19.324219 30.847656 L 18.3125 31.414062 L 18.929688 33.21875 L 18.722656 33.460938 C 18.449219 33.78125 18.234375 34.140625 18.085938 34.53125 L 17.972656 34.832031 L 16.097656 35.15625 L 16.085938 36.316406 L 17.953125 36.683594 L 18.058594 36.984375 C 18.199219 37.378906 18.402344 37.742188 18.671875 38.066406 L 18.875 38.316406 L 18.21875 40.105469 L 19.214844 40.695312 L 20.46875 39.261719 L 20.785156 39.320312 C 20.988281 39.355469 21.195312 39.378906 21.40625 39.378906 C 21.613281 39.382812 21.820312 39.367188 22.027344 39.332031 Z M 23.554688 41.882812 C 23.242188 41.882812 22.9375 41.746094 22.726562 41.496094 L 21.882812 40.484375 C 21.71875 40.5 21.554688 40.507812 21.390625 40.503906 C 21.226562 40.503906 21.066406 40.492188 20.902344 40.476562 L 20.035156 41.464844 C 19.695312 41.855469 19.125 41.949219 18.675781 41.683594 L 17.609375 41.050781 C 17.164062 40.789062 16.96875 40.242188 17.148438 39.753906 L 17.601562 38.519531 C 17.410156 38.253906 17.25 37.964844 17.117188 37.664062 L 15.828125 37.410156 C 15.320312 37.3125 14.953125 36.863281 14.960938 36.34375 L 14.972656 35.105469 C 14.976562 34.585938 15.355469 34.144531 15.863281 34.054688 L 17.160156 33.832031 C 17.296875 33.53125 17.464844 33.25 17.660156 32.984375 L 17.234375 31.742188 C 17.066406 31.25 17.273438 30.710938 17.726562 30.457031 L 18.808594 29.847656 C 19.257812 29.59375 19.828125 29.695312 20.160156 30.09375 L 21.003906 31.105469 C 21.167969 31.089844 21.332031 31.082031 21.496094 31.085938 C 21.660156 31.085938 21.824219 31.097656 21.984375 31.117188 L 22.851562 30.125 C 23.191406 29.734375 23.761719 29.640625 24.210938 29.90625 L 25.277344 30.539062 C 25.722656 30.800781 25.917969 31.347656 25.738281 31.835938 L 25.285156 33.070312 C 25.476562 33.335938 25.640625 33.625 25.769531 33.925781 L 27.058594 34.175781 C 27.566406 34.277344 27.933594 34.726562 27.929688 35.246094 L 27.914062 36.484375 C 27.910156 37.003906 27.535156 37.445312 27.023438 37.535156 L 25.726562 37.761719 C 25.589844 38.058594 25.421875 38.339844 25.226562 38.605469 L 25.652344 39.847656 C 25.820312 40.339844 25.613281 40.878906 25.160156 41.136719 L 24.082031 41.742188 C 23.914062 41.835938 23.734375 41.882812 23.554688 41.882812 " fill-opacity="1" fill-rule="nonzero"></path><path fill="rgb(100%, 56.858826%, 30.198669%)" d="M 35.332031 20.183594 C 35.332031 22.773438 33.234375 24.871094 30.648438 24.871094 C 28.058594 24.871094 25.960938 22.773438 25.960938 20.183594 C 25.960938 17.597656 28.058594 15.503906 30.648438 15.503906 C 33.234375 15.503906 35.332031 17.597656 35.332031 20.183594 Z M 39.875 18.5625 L 42.664062 16.183594 C 43.089844 15.820312 43.195312 15.203125 42.914062 14.722656 L 41.515625 12.296875 C 41.234375 11.8125 40.648438 11.59375 40.121094 11.78125 L 36.664062 13.007812 C 35.835938 12.3125 34.890625 11.757812 33.855469 11.382812 L 33.1875 7.777344 C 33.085938 7.230469 32.605469 6.832031 32.046875 6.832031 L 29.246094 6.832031 C 28.6875 6.832031 28.207031 7.230469 28.105469 7.777344 L 27.4375 11.382812 C 26.40625 11.757812 25.457031 12.3125 24.628906 13.007812 L 21.171875 11.78125 C 20.644531 11.59375 20.058594 11.8125 19.78125 12.296875 L 18.378906 14.722656 C 18.097656 15.203125 18.203125 15.820312 18.628906 16.183594 L 21.417969 18.5625 C 21.328125 19.089844 21.277344 19.632812 21.277344 20.183594 C 21.277344 20.738281 21.328125 21.28125 21.417969 21.808594 L 18.628906 24.1875 C 18.203125 24.550781 18.097656 25.167969 18.378906 25.648438 L 19.78125 28.078125 C 20.058594 28.558594 20.644531 28.777344 21.171875 28.589844 L 24.628906 27.363281 C 25.457031 28.058594 26.40625 28.613281 27.4375 28.988281 L 28.105469 32.59375 C 28.207031 33.140625 28.6875 33.539062 29.246094 33.539062 L 32.046875 33.539062 C 32.605469 33.539062 33.085938 33.140625 33.1875 32.59375 L 33.855469 28.988281 C 34.890625 28.613281 35.835938 28.058594 36.664062 27.363281 L 40.121094 28.589844 C 40.648438 28.777344 41.234375 28.558594 41.515625 28.078125 L 42.914062 25.648438 C 43.195312 25.167969 43.089844 24.550781 42.664062 24.1875 L 39.875 21.808594 C 39.96875 21.28125 40.015625 20.738281 40.015625 20.183594 C 40.015625 19.632812 39.96875 19.089844 39.875 18.5625 " fill-opacity="1" fill-rule="nonzero"></path><path fill="rgb(100%, 100%, 100%)" d="M 29.625 14.339844 L 29.429688 13.230469 C 29.941406 13.140625 30.46875 13.105469 30.988281 13.132812 L 30.9375 14.257812 C 30.5 14.234375 30.050781 14.261719 29.625 14.339844 Z M 32.933594 14.707031 C 32.617188 14.574219 32.289062 14.46875 31.953125 14.394531 L 32.199219 13.296875 C 32.597656 13.386719 32.988281 13.507812 33.367188 13.667969 Z M 27.699219 15.03125 L 27.140625 14.054688 C 27.492188 13.851562 27.867188 13.679688 28.25 13.542969 L 28.632812 14.601562 C 28.308594 14.71875 27.996094 14.863281 27.699219 15.03125 Z M 34.65625 15.808594 C 34.402344 15.578125 34.128906 15.367188 33.839844 15.179688 L 34.449219 14.234375 C 34.789062 14.453125 35.117188 14.703125 35.414062 14.976562 Z M 26.125 16.339844 L 25.265625 15.609375 C 25.53125 15.300781 25.824219 15.011719 26.136719 14.753906 L 26.855469 15.617188 C 26.59375 15.835938 26.347656 16.078125 26.125 16.339844 Z M 35.90625 17.429688 C 35.746094 17.125 35.558594 16.835938 35.351562 16.5625 L 36.242188 15.875 C 36.492188 16.199219 36.714844 16.542969 36.902344 16.90625 Z M 25.085938 18.101562 L 24.03125 17.707031 C 24.175781 17.328125 24.351562 16.957031 24.558594 16.605469 L 25.527344 17.175781 C 25.355469 17.472656 25.207031 17.78125 25.085938 18.101562 Z M 36.527344 19.375 C 36.484375 19.035156 36.40625 18.699219 36.300781 18.375 L 37.375 18.03125 C 37.5 18.417969 37.589844 18.820312 37.644531 19.222656 Z M 24.710938 20.113281 L 23.585938 20.101562 C 23.589844 19.691406 23.628906 19.28125 23.703125 18.882812 L 24.8125 19.089844 C 24.75 19.425781 24.714844 19.769531 24.710938 20.113281 Z M 37.554688 21.65625 L 36.453125 21.421875 C 36.523438 21.089844 36.566406 20.746094 36.578125 20.402344 L 37.703125 20.441406 C 37.691406 20.851562 37.640625 21.257812 37.554688 21.65625 Z M 23.972656 22.503906 C 23.839844 22.117188 23.738281 21.71875 23.675781 21.316406 L 24.785156 21.136719 C 24.839844 21.476562 24.925781 21.808594 25.035156 22.132812 Z M 36.644531 23.914062 L 35.691406 23.316406 C 35.871094 23.027344 36.027344 22.71875 36.15625 22.402344 L 37.199219 22.824219 C 37.046875 23.203125 36.863281 23.566406 36.644531 23.914062 Z M 25.15625 24.628906 C 24.902344 24.3125 24.671875 23.972656 24.472656 23.617188 L 25.457031 23.070312 C 25.625 23.367188 25.816406 23.65625 26.03125 23.921875 Z M 35.023438 25.726562 L 34.324219 24.84375 C 34.59375 24.632812 34.847656 24.394531 35.074219 24.140625 L 35.914062 24.890625 C 35.644531 25.195312 35.34375 25.476562 35.023438 25.726562 Z M 26.992188 26.230469 C 26.644531 26.019531 26.3125 25.777344 26.003906 25.507812 L 26.746094 24.660156 C 27.003906 24.886719 27.28125 25.089844 27.574219 25.265625 Z M 32.882812 26.886719 L 32.527344 25.816406 C 32.851562 25.710938 33.167969 25.574219 33.46875 25.410156 L 34.003906 26.398438 C 33.644531 26.59375 33.269531 26.757812 32.882812 26.886719 Z M 29.261719 27.109375 C 28.863281 27.03125 28.46875 26.917969 28.085938 26.769531 L 28.496094 25.71875 C 28.8125 25.84375 29.144531 25.941406 29.480469 26.007812 Z M 30.640625 27.246094 C 30.585938 27.246094 30.53125 27.246094 30.476562 27.246094 L 30.503906 26.121094 C 30.550781 26.121094 30.597656 26.121094 30.644531 26.121094 C 30.941406 26.121094 31.238281 26.097656 31.527344 26.054688 L 31.695312 27.171875 C 31.347656 27.222656 30.992188 27.246094 30.640625 27.246094 " fill-opacity="1" fill-rule="nonzero"></path><path fill="rgb(100%, 100%, 100%)" d="M 22.078125 28.269531 L 21.171875 28.589844 C 20.644531 28.777344 20.058594 28.558594 19.78125 28.078125 L 18.378906 25.648438 C 18.097656 25.167969 18.203125 24.550781 18.628906 24.1875 L 19.359375 23.566406 C 19.890625 25.347656 20.835938 26.949219 22.078125 28.269531 " fill-opacity="1" fill-rule="nonzero"></path><path fill="rgb(100%, 100%, 100%)" d="M 30.648438 31.964844 C 31.582031 31.964844 32.492188 31.855469 33.363281 31.648438 L 33.1875 32.59375 C 33.085938 33.140625 32.605469 33.539062 32.046875 33.539062 L 29.246094 33.539062 C 28.6875 33.539062 28.207031 33.140625 28.105469 32.59375 L 27.929688 31.648438 C 28.804688 31.855469 29.710938 31.964844 30.648438 31.964844 " fill-opacity="1" fill-rule="nonzero"></path><path fill="rgb(100%, 100%, 100%)" d="M 41.933594 23.566406 L 42.664062 24.1875 C 43.089844 24.550781 43.195312 25.167969 42.914062 25.648438 L 41.515625 28.078125 C 41.234375 28.558594 40.648438 28.777344 40.121094 28.589844 L 39.214844 28.269531 C 40.460938 26.949219 41.402344 25.347656 41.933594 23.566406 " fill-opacity="1" fill-rule="nonzero"></path><path fill="rgb(100%, 100%, 100%)" d="M 19.359375 16.804688 L 18.628906 16.183594 C 18.203125 15.820312 18.097656 15.203125 18.378906 14.722656 L 19.78125 12.296875 C 20.058594 11.8125 20.644531 11.59375 21.171875 11.78125 L 22.078125 12.101562 C 20.835938 13.421875 19.890625 15.023438 19.359375 16.804688 " fill-opacity="1" fill-rule="nonzero"></path><path fill="rgb(100%, 100%, 100%)" d="M 39.214844 12.101562 L 40.121094 11.78125 C 40.648438 11.59375 41.234375 11.8125 41.515625 12.296875 L 42.914062 14.722656 C 43.195312 15.203125 43.089844 15.820312 42.664062 16.183594 L 41.933594 16.804688 C 41.402344 15.023438 40.460938 13.421875 39.214844 12.101562 " fill-opacity="1" fill-rule="nonzero"></path><path fill="rgb(100%, 100%, 100%)" d="M 30.648438 8.40625 C 29.710938 8.40625 28.804688 8.515625 27.929688 8.722656 L 28.105469 7.777344 C 28.207031 7.230469 28.6875 6.832031 29.246094 6.832031 L 32.046875 6.832031 C 32.605469 6.832031 33.085938 7.230469 33.1875 7.777344 L 33.363281 8.722656 C 32.492188 8.515625 31.582031 8.40625 30.648438 8.40625 " fill-opacity="1" fill-rule="nonzero"></path><path fill="rgb(16.468811%, 0%, 49.01886%)" d="M 30.648438 16.066406 C 28.375 16.066406 26.527344 17.914062 26.527344 20.183594 C 26.527344 22.457031 28.375 24.304688 30.648438 24.304688 C 32.917969 24.304688 34.769531 22.457031 34.769531 20.183594 C 34.769531 17.914062 32.917969 16.066406 30.648438 16.066406 Z M 30.648438 25.433594 C 27.753906 25.433594 25.398438 23.078125 25.398438 20.183594 C 25.398438 17.292969 27.753906 14.9375 30.648438 14.9375 C 33.539062 14.9375 35.894531 17.292969 35.894531 20.183594 C 35.894531 23.078125 33.539062 25.433594 30.648438 25.433594 Z M 24.746094 26.726562 L 24.992188 26.933594 C 25.78125 27.59375 26.667969 28.109375 27.632812 28.460938 L 27.933594 28.570312 L 28.660156 32.488281 C 28.710938 32.773438 28.957031 32.976562 29.246094 32.976562 L 32.046875 32.976562 C 32.335938 32.976562 32.582031 32.773438 32.632812 32.488281 L 33.359375 28.570312 L 33.664062 28.460938 C 34.625 28.109375 35.511719 27.59375 36.304688 26.933594 L 36.550781 26.726562 L 40.3125 28.058594 C 40.582031 28.15625 40.882812 28.042969 41.027344 27.792969 L 42.425781 25.367188 C 42.570312 25.121094 42.515625 24.804688 42.296875 24.617188 L 39.265625 22.027344 L 39.320312 21.710938 C 39.40625 21.210938 39.453125 20.695312 39.453125 20.183594 C 39.453125 19.675781 39.40625 19.160156 39.320312 18.660156 L 39.265625 18.34375 L 42.296875 15.753906 C 42.515625 15.566406 42.570312 15.25 42.425781 15.003906 L 41.027344 12.578125 C 40.882812 12.328125 40.582031 12.214844 40.3125 12.3125 L 36.550781 13.644531 L 36.304688 13.4375 C 35.511719 12.777344 34.625 12.261719 33.664062 11.910156 L 33.359375 11.800781 L 32.632812 7.882812 C 32.582031 7.597656 32.335938 7.394531 32.046875 7.394531 L 29.246094 7.394531 C 28.957031 7.394531 28.710938 7.597656 28.660156 7.882812 L 27.933594 11.800781 L 27.632812 11.910156 C 26.667969 12.261719 25.78125 12.777344 24.992188 13.4375 L 24.746094 13.644531 L 20.984375 12.3125 C 20.710938 12.214844 20.410156 12.328125 20.265625 12.578125 L 18.867188 15.003906 C 18.722656 15.25 18.777344 15.566406 18.996094 15.753906 L 22.027344 18.34375 L 21.972656 18.660156 C 21.886719 19.160156 21.839844 19.675781 21.839844 20.183594 C 21.839844 20.695312 21.886719 21.210938 21.972656 21.710938 L 22.027344 22.027344 L 18.996094 24.617188 C 18.777344 24.804688 18.722656 25.121094 18.867188 25.367188 L 20.265625 27.792969 C 20.410156 28.042969 20.710938 28.15625 20.984375 28.058594 Z M 32.046875 34.105469 L 29.246094 34.105469 C 28.414062 34.105469 27.703125 33.511719 27.550781 32.695312 L 26.941406 29.402344 C 26.074219 29.050781 25.261719 28.582031 24.519531 28 L 21.359375 29.121094 C 20.578125 29.398438 19.707031 29.078125 19.292969 28.359375 L 17.890625 25.929688 C 17.476562 25.210938 17.632812 24.300781 18.265625 23.761719 L 20.8125 21.585938 C 20.75 21.121094 20.714844 20.652344 20.714844 20.183594 C 20.714844 19.71875 20.75 19.25 20.8125 18.785156 L 18.265625 16.609375 C 17.632812 16.070312 17.476562 15.160156 17.890625 14.441406 L 19.292969 12.011719 C 19.707031 11.292969 20.578125 10.972656 21.359375 11.25 L 24.519531 12.371094 C 25.261719 11.789062 26.074219 11.320312 26.941406 10.96875 L 27.550781 7.675781 C 27.703125 6.859375 28.414062 6.269531 29.246094 6.269531 L 32.046875 6.269531 C 32.878906 6.269531 33.589844 6.859375 33.742188 7.675781 L 34.351562 10.96875 C 35.222656 11.320312 36.035156 11.789062 36.773438 12.371094 L 39.933594 11.25 C 40.71875 10.972656 41.585938 11.292969 42.003906 12.011719 L 43.402344 14.441406 C 43.816406 15.160156 43.660156 16.070312 43.03125 16.609375 L 40.480469 18.785156 C 40.546875 19.25 40.578125 19.71875 40.578125 20.183594 C 40.578125 20.652344 40.546875 21.121094 40.480469 21.585938 L 43.03125 23.761719 C 43.660156 24.300781 43.816406 25.210938 43.402344 25.929688 L 42.003906 28.359375 C 41.585938 29.078125 40.71875 29.398438 39.933594 29.121094 L 36.773438 28 C 36.035156 28.582031 35.222656 29.050781 34.351562 29.402344 L 33.742188 32.695312 C 33.589844 33.511719 32.878906 34.105469 32.046875 34.105469 " fill-opacity="1" fill-rule="nonzero"></path><path fill="rgb(100%, 56.858826%, 30.198669%)" d="M 19.023438 33.539062 L 5.851562 33.539062 C 5.074219 33.539062 4.445312 32.910156 4.445312 32.132812 L 4.445312 23.023438 C 4.445312 22.25 5.074219 21.617188 5.851562 21.617188 L 19.023438 21.617188 C 19.800781 21.617188 20.429688 22.25 20.429688 23.023438 L 20.429688 32.132812 C 20.429688 32.910156 19.800781 33.539062 19.023438 33.539062 " fill-opacity="1" fill-rule="nonzero"></path><path fill="rgb(100%, 100%, 100%)" d="M 19.171875 21.617188 L 5.703125 21.617188 C 5.007812 21.617188 4.445312 22.179688 4.445312 22.875 L 4.445312 24.398438 C 4.445312 23.703125 5.007812 23.140625 5.703125 23.140625 L 19.171875 23.140625 C 19.867188 23.140625 20.429688 23.703125 20.429688 24.398438 L 20.429688 22.875 C 20.429688 22.179688 19.867188 21.617188 19.171875 21.617188 " fill-opacity="1" fill-rule="nonzero"></path><path fill="rgb(100%, 100%, 100%)" d="M 5.988281 32.425781 L 18.886719 32.425781 C 19.164062 32.425781 19.390625 32.199219 19.390625 31.921875 L 19.390625 30.007812 C 19.390625 30.613281 18.902344 31.101562 18.296875 31.101562 L 6.578125 31.101562 C 5.976562 31.101562 5.484375 30.613281 5.484375 30.007812 L 5.484375 31.921875 C 5.484375 32.199219 5.710938 32.425781 5.988281 32.425781 " fill-opacity="1" fill-rule="nonzero"></path><g clip-path="url(#id4)"><path fill="rgb(16.468811%, 0%, 49.01886%)" d="M 5.851562 22.179688 C 5.386719 22.179688 5.007812 22.558594 5.007812 23.023438 L 5.007812 32.132812 C 5.007812 32.597656 5.386719 32.976562 5.851562 32.976562 L 19.023438 32.976562 C 19.488281 32.976562 19.867188 32.597656 19.867188 32.132812 L 19.867188 23.023438 C 19.867188 22.558594 19.488281 22.179688 19.023438 22.179688 Z M 19.023438 34.105469 L 5.851562 34.105469 C 4.765625 34.105469 3.882812 33.21875 3.882812 32.132812 L 3.882812 23.023438 C 3.882812 21.9375 4.765625 21.054688 5.851562 21.054688 L 19.023438 21.054688 C 20.109375 21.054688 20.992188 21.9375 20.992188 23.023438 L 20.992188 32.132812 C 20.992188 33.21875 20.109375 34.105469 19.023438 34.105469 " fill-opacity="1" fill-rule="nonzero"></path></g><g clip-path="url(#id5)"><path fill="rgb(16.468811%, 0%, 49.01886%)" d="M 5.851562 22.179688 C 5.386719 22.179688 5.007812 22.558594 5.007812 23.023438 L 5.007812 26.171875 C 5.007812 26.636719 5.386719 27.015625 5.851562 27.015625 L 19.023438 27.015625 C 19.488281 27.015625 19.867188 26.636719 19.867188 26.171875 L 19.867188 23.023438 C 19.867188 22.558594 19.488281 22.179688 19.023438 22.179688 Z M 19.023438 28.140625 L 5.851562 28.140625 C 4.765625 28.140625 3.882812 27.257812 3.882812 26.171875 L 3.882812 23.023438 C 3.882812 21.9375 4.765625 21.054688 5.851562 21.054688 L 19.023438 21.054688 C 20.109375 21.054688 20.992188 21.9375 20.992188 23.023438 L 20.992188 26.171875 C 20.992188 27.257812 20.109375 28.140625 19.023438 28.140625 " fill-opacity="1" fill-rule="nonzero"></path></g><path fill="rgb(100%, 56.858826%, 30.198669%)" d="M 16.328125 21.617188 L 14.316406 21.617188 L 14.316406 20.058594 C 14.316406 19.917969 14.203125 19.808594 14.066406 19.808594 L 10.8125 19.808594 C 10.671875 19.808594 10.558594 19.917969 10.558594 20.058594 L 10.558594 21.617188 L 8.546875 21.617188 L 8.546875 20.058594 C 8.546875 18.808594 9.5625 17.792969 10.8125 17.792969 L 14.066406 17.792969 C 15.3125 17.792969 16.328125 18.808594 16.328125 20.058594 L 16.328125 21.617188 " fill-opacity="1" fill-rule="nonzero"></path><path fill="rgb(100%, 100%, 100%)" d="M 14.066406 17.792969 L 10.8125 17.792969 C 9.5625 17.792969 8.546875 18.808594 8.546875 20.058594 L 8.546875 20.9375 C 8.546875 19.691406 9.5625 18.675781 10.8125 18.675781 L 14.066406 18.675781 C 15.3125 18.675781 16.328125 19.691406 16.328125 20.9375 L 16.328125 20.058594 C 16.328125 18.808594 15.3125 17.792969 14.066406 17.792969 " fill-opacity="1" fill-rule="nonzero"></path><path fill="rgb(16.468811%, 0%, 49.01886%)" d="M 14.878906 21.054688 L 15.765625 21.054688 L 15.765625 20.058594 C 15.765625 19.121094 15.003906 18.359375 14.066406 18.359375 L 10.8125 18.359375 C 9.871094 18.359375 9.109375 19.121094 9.109375 20.058594 L 9.109375 21.054688 L 9.996094 21.054688 L 9.996094 20.058594 C 9.996094 19.609375 10.363281 19.242188 10.8125 19.242188 L 14.066406 19.242188 C 14.515625 19.242188 14.878906 19.609375 14.878906 20.058594 Z M 16.890625 22.179688 L 13.753906 22.179688 L 13.753906 20.371094 L 11.121094 20.371094 L 11.121094 22.179688 L 7.984375 22.179688 L 7.984375 20.058594 C 7.984375 18.5 9.253906 17.230469 10.8125 17.230469 L 14.066406 17.230469 C 15.625 17.230469 16.890625 18.5 16.890625 20.058594 L 16.890625 22.179688 " fill-opacity="1" fill-rule="nonzero"></path><path fill="rgb(16.468811%, 0%, 49.01886%)" d="M 19.367188 25.996094 C 19.367188 26.273438 19.144531 26.496094 18.867188 26.496094 C 18.589844 26.496094 18.363281 26.273438 18.363281 25.996094 C 18.363281 25.71875 18.589844 25.492188 18.867188 25.492188 C 19.144531 25.492188 19.367188 25.71875 19.367188 25.996094 " fill-opacity="1" fill-rule="nonzero"></path><path fill="rgb(16.468811%, 0%, 49.01886%)" d="M 6.511719 25.996094 C 6.511719 26.273438 6.289062 26.496094 6.011719 26.496094 C 5.730469 26.496094 5.507812 26.273438 5.507812 25.996094 C 5.507812 25.71875 5.730469 25.492188 6.011719 25.492188 C 6.289062 25.492188 6.511719 25.71875 6.511719 25.996094 " fill-opacity="1" fill-rule="nonzero"></path><path fill="rgb(37.249756%, 64.709473%, 87.449646%)" d="M 13.527344 29.101562 L 11.351562 29.101562 C 10.699219 29.101562 10.171875 28.574219 10.171875 27.925781 L 10.171875 27.851562 C 10.171875 27.199219 10.699219 26.675781 11.351562 26.675781 L 13.527344 26.675781 C 14.175781 26.675781 14.703125 27.199219 14.703125 27.851562 L 14.703125 27.925781 C 14.703125 28.574219 14.175781 29.101562 13.527344 29.101562 " fill-opacity="1" fill-rule="nonzero"></path><path fill="rgb(100%, 100%, 100%)" d="M 13.488281 26.675781 L 11.386719 26.675781 C 10.71875 26.675781 10.171875 27.21875 10.171875 27.886719 C 10.171875 28.074219 10.214844 28.25 10.289062 28.40625 C 10.484375 27.996094 10.902344 27.714844 11.386719 27.714844 L 13.488281 27.714844 C 13.972656 27.714844 14.390625 27.996094 14.585938 28.40625 C 14.660156 28.25 14.703125 28.074219 14.703125 27.886719 C 14.703125 27.21875 14.160156 26.675781 13.488281 26.675781 " fill-opacity="1" fill-rule="nonzero"></path><path fill="rgb(16.468811%, 0%, 49.01886%)" d="M 11.351562 27.238281 C 11.011719 27.238281 10.738281 27.511719 10.738281 27.851562 L 10.738281 27.925781 C 10.738281 28.261719 11.011719 28.539062 11.351562 28.539062 L 13.527344 28.539062 C 13.863281 28.539062 14.140625 28.261719 14.140625 27.925781 L 14.140625 27.851562 C 14.140625 27.511719 13.863281 27.238281 13.527344 27.238281 Z M 13.527344 29.664062 L 11.351562 29.664062 C 10.390625 29.664062 9.609375 28.882812 9.609375 27.925781 L 9.609375 27.851562 C 9.609375 26.890625 10.390625 26.109375 11.351562 26.109375 L 13.527344 26.109375 C 14.484375 26.109375 15.265625 26.890625 15.265625 27.851562 L 15.265625 27.925781 C 15.265625 28.882812 14.484375 29.664062 13.527344 29.664062 " fill-opacity="1" fill-rule="nonzero"></path></svg>