<svg xmlns="http://www.w3.org/2000/svg" xmlns:xlink="http://www.w3.org/1999/xlink" width="69" viewBox="0 0 51.75 47.25" height="63" preserveAspectRatio="xMidYMid meet"><defs><clipPath id="id1"><path d="M 5 2 L 47.941406 2 L 47.941406 45 L 5 45 Z M 5 2 " clip-rule="nonzero"></path></clipPath><clipPath id="id2"><path d="M 5 8 L 47.941406 8 L 47.941406 33 L 5 33 Z M 5 8 " clip-rule="nonzero"></path></clipPath><clipPath id="id3"><path d="M 35 22 L 47.941406 22 L 47.941406 36 L 35 36 Z M 35 22 " clip-rule="nonzero"></path></clipPath></defs><g clip-path="url(#id1)"><path fill="rgb(100%, 56.858826%, 30.198669%)" d="M 14.367188 4.65625 C 22.996094 0 38.570312 2.375 43.566406 8.65625 C 47.773438 13.945312 47.054688 15.246094 47.457031 21.671875 C 47.9375 29.359375 44.675781 38.5 35.488281 42.445312 C 25.488281 46.738281 14.304688 42.667969 9.070312 36.066406 C 4.175781 29.890625 5.15625 22.617188 5.507812 20.019531 C 5.917969 16.972656 7.136719 8.554688 14.367188 4.65625 " fill-opacity="1" fill-rule="nonzero"></path></g><path fill="rgb(16.468811%, 0%, 49.01886%)" d="M 15.050781 8.949219 C 14.246094 8.582031 13.890625 7.636719 14.257812 6.835938 C 14.628906 6.035156 15.582031 5.683594 16.390625 6.050781 C 17.199219 6.417969 17.554688 7.363281 17.183594 8.164062 C 16.8125 8.964844 15.859375 9.316406 15.050781 8.949219 Z M 18.53125 9.113281 L 18.789062 8.550781 L 18.246094 8.140625 C 18.285156 8 18.308594 7.859375 18.320312 7.714844 L 18.96875 7.507812 L 18.910156 6.890625 L 18.230469 6.804688 C 18.191406 6.664062 18.140625 6.53125 18.082031 6.398438 L 18.535156 5.894531 L 18.175781 5.390625 L 17.546875 5.652344 C 17.441406 5.550781 17.332031 5.460938 17.210938 5.375 L 17.351562 4.714844 L 16.78125 4.457031 L 16.367188 4.996094 C 16.226562 4.957031 16.082031 4.933594 15.9375 4.921875 L 15.726562 4.28125 L 15.105469 4.339844 L 15.019531 5.011719 C 14.878906 5.046875 14.742188 5.097656 14.609375 5.160156 L 14.101562 4.707031 L 13.59375 5.066406 L 13.855469 5.691406 C 13.757812 5.792969 13.664062 5.902344 13.578125 6.023438 L 12.914062 5.882812 L 12.652344 6.449219 L 13.195312 6.859375 C 13.160156 7 13.132812 7.140625 13.121094 7.285156 L 12.472656 7.492188 L 12.53125 8.109375 L 13.210938 8.195312 C 13.25 8.335938 13.300781 8.46875 13.363281 8.601562 L 12.90625 9.105469 L 13.269531 9.609375 L 13.898438 9.347656 C 14 9.449219 14.113281 9.539062 14.234375 9.621094 L 14.09375 10.285156 L 14.660156 10.542969 L 15.074219 10.003906 C 15.214844 10.039062 15.359375 10.066406 15.503906 10.078125 L 15.714844 10.71875 L 16.335938 10.660156 L 16.421875 9.988281 C 16.5625 9.949219 16.699219 9.898438 16.832031 9.839844 L 17.339844 10.289062 L 17.847656 9.933594 L 17.585938 9.308594 C 17.6875 9.207031 17.777344 9.09375 17.863281 8.976562 L 18.53125 9.113281 " fill-opacity="1" fill-rule="nonzero"></path><path fill="rgb(0%, 0%, 0%)" d="M 13.253906 8.390625 C 13.226562 8.390625 13.199219 8.375 13.183594 8.347656 C 13.128906 8.226562 13.082031 8.105469 13.042969 7.980469 L 12.417969 7.898438 C 12.378906 7.894531 12.351562 7.867188 12.347656 7.832031 L 12.289062 7.214844 C 12.289062 7.179688 12.308594 7.148438 12.34375 7.136719 L 12.941406 6.941406 C 12.953125 6.828125 12.972656 6.714844 13 6.601562 L 12.5 6.222656 C 12.46875 6.203125 12.460938 6.164062 12.476562 6.128906 L 12.734375 5.566406 C 12.75 5.535156 12.785156 5.515625 12.820312 5.523438 L 13.4375 5.652344 C 13.507812 5.558594 13.582031 5.472656 13.660156 5.386719 L 13.414062 4.8125 C 13.402344 4.777344 13.414062 4.742188 13.441406 4.71875 L 13.953125 4.359375 C 13.980469 4.339844 14.019531 4.34375 14.046875 4.367188 L 14.519531 4.785156 C 14.621094 4.738281 14.730469 4.699219 14.839844 4.664062 L 14.921875 4.042969 C 14.925781 4.007812 14.957031 3.980469 14.992188 3.976562 L 15.613281 3.917969 C 15.648438 3.914062 15.683594 3.9375 15.691406 3.972656 L 15.890625 4.566406 C 16.003906 4.578125 16.117188 4.597656 16.230469 4.625 L 16.613281 4.125 C 16.636719 4.097656 16.675781 4.085938 16.707031 4.101562 L 17.273438 4.359375 C 17.308594 4.375 17.324219 4.410156 17.316406 4.445312 L 17.1875 5.058594 C 17.28125 5.125 17.371094 5.199219 17.453125 5.277344 L 18.039062 5.035156 C 18.070312 5.019531 18.109375 5.03125 18.128906 5.0625 L 18.492188 5.566406 C 18.511719 5.59375 18.511719 5.632812 18.484375 5.660156 L 18.0625 6.128906 C 18.109375 6.230469 18.152344 6.339844 18.183594 6.449219 L 18.8125 6.527344 C 18.847656 6.53125 18.875 6.5625 18.878906 6.597656 L 18.9375 7.214844 C 18.941406 7.25 18.917969 7.28125 18.882812 7.292969 L 18.285156 7.488281 C 18.273438 7.601562 18.253906 7.714844 18.226562 7.824219 L 18.730469 8.207031 C 18.761719 8.230469 18.769531 8.277344 18.742188 8.3125 C 18.71875 8.34375 18.667969 8.351562 18.636719 8.328125 L 18.09375 7.917969 C 18.070312 7.898438 18.058594 7.867188 18.066406 7.835938 C 18.101562 7.699219 18.125 7.5625 18.136719 7.425781 C 18.140625 7.394531 18.160156 7.367188 18.1875 7.359375 L 18.777344 7.167969 L 18.730469 6.671875 L 18.113281 6.59375 C 18.085938 6.589844 18.058594 6.566406 18.050781 6.539062 C 18.011719 6.402344 17.964844 6.273438 17.902344 6.144531 C 17.890625 6.117188 17.894531 6.085938 17.917969 6.0625 L 18.332031 5.605469 L 18.039062 5.199219 L 17.46875 5.4375 C 17.4375 5.449219 17.40625 5.441406 17.382812 5.417969 C 17.285156 5.324219 17.175781 5.234375 17.058594 5.152344 C 17.035156 5.136719 17.019531 5.105469 17.027344 5.074219 L 17.15625 4.472656 L 16.699219 4.265625 L 16.320312 4.753906 C 16.304688 4.78125 16.273438 4.789062 16.242188 4.78125 C 16.105469 4.746094 15.964844 4.722656 15.824219 4.710938 C 15.792969 4.710938 15.769531 4.691406 15.757812 4.660156 L 15.566406 4.074219 L 15.066406 4.121094 L 14.988281 4.734375 C 14.984375 4.765625 14.960938 4.789062 14.933594 4.796875 C 14.796875 4.835938 14.664062 4.882812 14.535156 4.945312 C 14.507812 4.957031 14.476562 4.953125 14.453125 4.929688 L 13.992188 4.519531 L 13.582031 4.808594 L 13.820312 5.375 C 13.832031 5.402344 13.824219 5.4375 13.804688 5.457031 C 13.707031 5.558594 13.617188 5.664062 13.535156 5.78125 C 13.519531 5.808594 13.488281 5.820312 13.457031 5.8125 L 12.847656 5.6875 L 12.640625 6.136719 L 13.132812 6.511719 C 13.160156 6.53125 13.167969 6.5625 13.164062 6.589844 C 13.125 6.726562 13.101562 6.867188 13.089844 7.003906 C 13.089844 7.035156 13.066406 7.058594 13.039062 7.070312 L 12.449219 7.261719 L 12.496094 7.757812 L 13.113281 7.835938 C 13.144531 7.839844 13.167969 7.859375 13.175781 7.890625 C 13.214844 8.023438 13.265625 8.15625 13.324219 8.28125 C 13.34375 8.320312 13.324219 8.367188 13.285156 8.382812 C 13.277344 8.386719 13.265625 8.390625 13.253906 8.390625 Z M 15.617188 5.695312 C 15.035156 5.695312 14.476562 6.023438 14.222656 6.582031 C 14.050781 6.949219 14.035156 7.363281 14.179688 7.742188 C 14.320312 8.125 14.605469 8.425781 14.976562 8.59375 C 15.347656 8.765625 15.765625 8.777344 16.148438 8.636719 C 16.53125 8.496094 16.835938 8.214844 17.007812 7.847656 C 17.175781 7.476562 17.191406 7.066406 17.050781 6.683594 C 16.90625 6.304688 16.625 6.003906 16.25 5.832031 C 16.046875 5.738281 15.828125 5.695312 15.617188 5.695312 Z M 15.613281 8.886719 C 15.375 8.886719 15.136719 8.835938 14.914062 8.734375 C 14.503906 8.546875 14.191406 8.214844 14.035156 7.796875 C 13.878906 7.378906 13.894531 6.925781 14.082031 6.519531 C 14.46875 5.679688 15.46875 5.3125 16.316406 5.695312 C 16.722656 5.878906 17.035156 6.214844 17.191406 6.632812 C 17.351562 7.050781 17.332031 7.503906 17.144531 7.910156 C 16.957031 8.316406 16.625 8.625 16.203125 8.78125 C 16.011719 8.851562 15.8125 8.886719 15.613281 8.886719 " fill-opacity="1" fill-rule="nonzero"></path><path fill="rgb(16.468811%, 0%, 49.01886%)" d="M 24.320312 10.640625 C 22.941406 10.015625 22.332031 8.394531 22.964844 7.027344 C 23.597656 5.65625 25.230469 5.050781 26.613281 5.679688 C 27.996094 6.308594 28.601562 7.925781 27.96875 9.296875 C 27.335938 10.667969 25.703125 11.269531 24.320312 10.640625 Z M 30.273438 10.925781 L 30.71875 9.960938 L 29.789062 9.257812 C 29.851562 9.019531 29.894531 8.773438 29.914062 8.53125 L 31.023438 8.171875 L 30.921875 7.117188 L 29.765625 6.96875 C 29.695312 6.730469 29.609375 6.5 29.503906 6.277344 L 30.285156 5.414062 L 29.664062 4.550781 L 28.589844 4.996094 C 28.414062 4.828125 28.21875 4.671875 28.015625 4.527344 L 28.253906 3.394531 L 27.28125 2.953125 L 26.574219 3.875 C 26.332031 3.8125 26.085938 3.769531 25.839844 3.75 L 25.476562 2.652344 L 24.414062 2.75 L 24.265625 3.902344 C 24.027344 3.96875 23.792969 4.054688 23.566406 4.15625 L 22.699219 3.382812 L 21.828125 4 L 22.277344 5.066406 C 22.105469 5.238281 21.945312 5.429688 21.804688 5.636719 L 20.660156 5.398438 L 20.214844 6.359375 L 21.144531 7.0625 C 21.082031 7.304688 21.039062 7.546875 21.019531 7.789062 L 19.910156 8.148438 L 20.011719 9.207031 L 21.171875 9.351562 C 21.238281 9.589844 21.324219 9.820312 21.429688 10.042969 L 20.648438 10.90625 L 21.269531 11.769531 L 22.34375 11.324219 C 22.519531 11.496094 22.714844 11.652344 22.921875 11.792969 L 22.679688 12.925781 L 23.652344 13.367188 L 24.359375 12.445312 C 24.601562 12.507812 24.847656 12.550781 25.09375 12.570312 L 25.457031 13.671875 L 26.519531 13.570312 L 26.667969 12.421875 C 26.910156 12.355469 27.140625 12.269531 27.367188 12.164062 L 28.234375 12.9375 L 29.105469 12.324219 L 28.65625 11.257812 C 28.828125 11.082031 28.988281 10.890625 29.132812 10.6875 L 30.273438 10.925781 " fill-opacity="1" fill-rule="nonzero"></path><path fill="rgb(0%, 0%, 0%)" d="M 29.695312 8.414062 C 29.691406 8.414062 29.6875 8.414062 29.683594 8.414062 C 29.640625 8.40625 29.613281 8.367188 29.621094 8.324219 C 29.636719 8.230469 29.648438 8.132812 29.65625 8.035156 C 29.65625 8.003906 29.679688 7.980469 29.707031 7.96875 L 30.757812 7.628906 L 30.667969 6.695312 L 29.570312 6.554688 C 29.539062 6.550781 29.515625 6.53125 29.507812 6.5 C 29.441406 6.269531 29.355469 6.039062 29.25 5.820312 C 29.238281 5.792969 29.242188 5.761719 29.265625 5.738281 L 30.003906 4.921875 L 29.453125 4.15625 L 28.433594 4.578125 C 28.40625 4.589844 28.375 4.585938 28.351562 4.5625 C 28.179688 4.398438 27.988281 4.242188 27.785156 4.101562 C 27.761719 4.085938 27.75 4.054688 27.753906 4.023438 L 27.984375 2.949219 L 27.121094 2.558594 L 26.453125 3.433594 C 26.433594 3.457031 26.402344 3.46875 26.371094 3.460938 C 26.132812 3.398438 25.890625 3.359375 25.652344 3.339844 C 25.621094 3.335938 25.59375 3.316406 25.585938 3.285156 L 25.242188 2.246094 L 24.296875 2.332031 L 24.15625 3.421875 C 24.152344 3.453125 24.132812 3.476562 24.101562 3.484375 C 23.867188 3.550781 23.636719 3.636719 23.417969 3.738281 C 23.390625 3.75 23.355469 3.746094 23.332031 3.726562 L 22.507812 2.992188 L 21.738281 3.535156 L 22.164062 4.546875 C 22.175781 4.574219 22.171875 4.609375 22.148438 4.628906 C 21.980469 4.800781 21.824219 4.988281 21.683594 5.191406 C 21.664062 5.214844 21.632812 5.226562 21.605469 5.222656 L 20.523438 4.996094 L 20.128906 5.847656 L 21.007812 6.511719 C 21.03125 6.53125 21.042969 6.5625 21.035156 6.59375 C 20.972656 6.832031 20.933594 7.070312 20.914062 7.308594 C 20.910156 7.339844 20.890625 7.363281 20.859375 7.375 L 19.808594 7.714844 L 19.832031 7.964844 C 19.835938 8.007812 19.808594 8.042969 19.765625 8.046875 C 19.722656 8.050781 19.683594 8.019531 19.679688 7.980469 L 19.652344 7.667969 C 19.648438 7.632812 19.667969 7.601562 19.703125 7.589844 L 20.765625 7.246094 C 20.785156 7.03125 20.820312 6.816406 20.875 6.605469 L 19.984375 5.933594 C 19.957031 5.910156 19.949219 5.871094 19.964844 5.839844 L 20.40625 4.875 C 20.421875 4.84375 20.457031 4.828125 20.492188 4.832031 L 21.585938 5.0625 C 21.714844 4.882812 21.855469 4.714844 22.003906 4.558594 L 21.574219 3.539062 C 21.558594 3.507812 21.570312 3.46875 21.597656 3.449219 L 22.46875 2.832031 C 22.5 2.8125 22.539062 2.816406 22.566406 2.839844 L 23.398438 3.578125 C 23.597656 3.488281 23.800781 3.414062 24.011719 3.351562 L 24.152344 2.253906 C 24.160156 2.21875 24.1875 2.191406 24.222656 2.1875 L 25.289062 2.085938 C 25.324219 2.085938 25.355469 2.105469 25.367188 2.140625 L 25.714844 3.191406 C 25.929688 3.210938 26.144531 3.246094 26.359375 3.300781 L 27.039062 2.417969 C 27.058594 2.390625 27.097656 2.382812 27.132812 2.394531 L 28.101562 2.835938 C 28.136719 2.851562 28.152344 2.886719 28.144531 2.921875 L 27.917969 4.007812 C 28.097656 4.132812 28.265625 4.273438 28.421875 4.417969 L 29.453125 3.992188 C 29.484375 3.980469 29.523438 3.988281 29.542969 4.019531 L 30.164062 4.882812 C 30.183594 4.910156 30.179688 4.949219 30.15625 4.976562 L 29.410156 5.800781 C 29.503906 6 29.578125 6.203125 29.640625 6.410156 L 30.75 6.550781 C 30.785156 6.554688 30.8125 6.585938 30.816406 6.621094 L 30.917969 7.675781 C 30.917969 7.710938 30.898438 7.742188 30.863281 7.753906 L 29.804688 8.097656 C 29.796875 8.183594 29.785156 8.265625 29.773438 8.347656 C 29.765625 8.386719 29.734375 8.414062 29.695312 8.414062 Z M 24.171875 10.085938 C 25.511719 10.691406 27.101562 10.105469 27.714844 8.777344 C 28.015625 8.132812 28.039062 7.410156 27.792969 6.746094 C 27.542969 6.082031 27.046875 5.554688 26.398438 5.261719 C 25.746094 4.964844 25.019531 4.9375 24.351562 5.1875 C 23.679688 5.433594 23.148438 5.925781 22.851562 6.566406 C 22.238281 7.898438 22.828125 9.476562 24.171875 10.085938 Z M 25.28125 10.476562 C 24.886719 10.476562 24.488281 10.394531 24.105469 10.222656 C 22.6875 9.578125 22.0625 7.910156 22.710938 6.503906 C 23.027344 5.824219 23.589844 5.304688 24.296875 5.042969 C 25.003906 4.78125 25.773438 4.808594 26.460938 5.121094 C 27.148438 5.433594 27.671875 5.992188 27.933594 6.695312 C 28.199219 7.394531 28.171875 8.15625 27.855469 8.839844 C 27.382812 9.867188 26.351562 10.476562 25.28125 10.476562 " fill-opacity="1" fill-rule="nonzero"></path><path fill="rgb(59.999084%, 72.549438%, 100%)" d="M 33.113281 30.460938 L 25.78125 30.507812 C 25.730469 30.507812 25.714844 30.550781 25.714844 30.59375 L 25.714844 36.78125 C 25.714844 37.371094 21.550781 38.910156 21.507812 38.832031 L 21.503906 39.488281 C 21.503906 39.609375 21.613281 39.71875 21.75 39.71875 L 27.992188 39.71875 C 28.277344 39.71875 28.558594 39.65625 28.816406 39.546875 L 32.199219 38.136719 C 32.808594 37.882812 33.191406 37.335938 33.191406 36.742188 L 33.191406 30.546875 C 33.191406 30.507812 33.160156 30.460938 33.113281 30.460938 " fill-opacity="1" fill-rule="nonzero"></path><path fill="rgb(100%, 100%, 100%)" d="M 24.890625 30.167969 L 24.890625 36.355469 C 24.890625 36.964844 24.496094 37.519531 23.871094 37.78125 L 21.589844 38.75 C 21.441406 38.8125 21.492188 39.007812 21.660156 39.007812 L 27.925781 39.007812 C 28.207031 39.007812 28.484375 38.953125 28.738281 38.847656 L 31.265625 37.792969 C 31.894531 37.53125 32.292969 36.972656 32.292969 36.359375 L 32.292969 30.167969 C 32.292969 30.140625 32.269531 30.121094 32.242188 30.121094 L 24.941406 30.121094 C 24.914062 30.121094 24.890625 30.140625 24.890625 30.167969 " fill-opacity="1" fill-rule="nonzero"></path><path fill="rgb(0%, 0%, 0%)" d="M 32.242188 30.195312 Z M 24.964844 30.195312 L 24.964844 36.355469 C 24.964844 36.992188 24.550781 37.578125 23.902344 37.851562 L 21.621094 38.820312 C 21.589844 38.832031 21.574219 38.855469 21.582031 38.882812 C 21.585938 38.90625 21.609375 38.933594 21.660156 38.933594 L 27.925781 38.933594 C 28.195312 38.933594 28.464844 38.878906 28.710938 38.777344 L 31.238281 37.722656 C 31.832031 37.472656 32.214844 36.941406 32.214844 36.359375 L 32.214844 30.195312 Z M 27.925781 39.085938 L 21.660156 39.085938 C 21.546875 39.085938 21.453125 39.015625 21.429688 38.910156 C 21.410156 38.8125 21.464844 38.71875 21.5625 38.679688 L 23.84375 37.714844 C 24.433594 37.464844 24.8125 36.929688 24.8125 36.355469 L 24.8125 30.167969 C 24.8125 30.097656 24.871094 30.042969 24.941406 30.042969 L 32.242188 30.042969 C 32.3125 30.042969 32.371094 30.097656 32.371094 30.167969 L 32.371094 36.359375 C 32.371094 37 31.949219 37.589844 31.296875 37.863281 L 28.769531 38.917969 C 28.507812 39.027344 28.214844 39.085938 27.925781 39.085938 " fill-opacity="1" fill-rule="nonzero"></path><g clip-path="url(#id2)"><path fill="rgb(59.999084%, 72.549438%, 100%)" d="M 9.71875 8.410156 L 5.796875 32.917969 L 42.5625 32.917969 C 43.082031 32.917969 43.527344 32.542969 43.609375 32.035156 L 47.300781 8.96875 C 47.347656 8.675781 47.117188 8.410156 46.816406 8.410156 L 9.71875 8.410156 " fill-opacity="1" fill-rule="nonzero"></path></g><path fill="rgb(100%, 100%, 100%)" d="M 42.367188 32.78125 L 5.21875 32.78125 C 5.128906 32.78125 5.058594 32.699219 5.074219 32.613281 L 8.8125 9.257812 C 8.882812 8.820312 9.269531 8.492188 9.71875 8.492188 L 46.070312 8.492188 C 46.234375 8.492188 46.359375 8.640625 46.335938 8.800781 L 42.515625 32.65625 C 42.503906 32.730469 42.441406 32.78125 42.367188 32.78125 " fill-opacity="1" fill-rule="nonzero"></path><path fill="rgb(0%, 0%, 0%)" d="M 42.300781 32.929688 L 21.136719 32.929688 C 21.09375 32.929688 21.058594 32.894531 21.058594 32.855469 C 21.058594 32.8125 21.09375 32.777344 21.136719 32.777344 L 42.300781 32.777344 C 42.375 32.777344 42.4375 32.726562 42.449219 32.65625 L 46.261719 8.769531 C 46.269531 8.71875 46.257812 8.667969 46.222656 8.628906 C 46.191406 8.59375 46.144531 8.570312 46.09375 8.570312 L 9.632812 8.570312 C 9.265625 8.570312 8.960938 8.832031 8.902344 9.1875 L 5.246094 32.082031 C 5.21875 32.257812 5.269531 32.433594 5.382812 32.566406 C 5.5 32.703125 5.667969 32.777344 5.84375 32.777344 L 6.496094 32.777344 C 6.535156 32.777344 6.570312 32.8125 6.570312 32.855469 C 6.570312 32.894531 6.535156 32.929688 6.496094 32.929688 L 5.84375 32.929688 C 5.621094 32.929688 5.410156 32.835938 5.269531 32.667969 C 5.125 32.5 5.058594 32.277344 5.09375 32.058594 L 8.75 9.164062 C 8.820312 8.730469 9.191406 8.417969 9.632812 8.417969 L 46.09375 8.417969 C 46.1875 8.417969 46.277344 8.460938 46.339844 8.53125 C 46.402344 8.605469 46.429688 8.699219 46.414062 8.792969 L 42.601562 32.679688 C 42.578125 32.824219 42.453125 32.929688 42.300781 32.929688 " fill-opacity="1" fill-rule="nonzero"></path><path fill="rgb(100%, 56.858826%, 30.198669%)" d="M 41.347656 31.695312 L 6.507812 31.695312 C 6.425781 31.695312 6.359375 31.621094 6.371094 31.539062 L 9.878906 10.222656 C 9.945312 9.816406 10.304688 9.523438 10.730469 9.523438 L 44.953125 9.523438 C 45.039062 9.523438 45.105469 9.59375 45.089844 9.675781 L 41.484375 31.582031 C 41.476562 31.648438 41.417969 31.695312 41.347656 31.695312 " fill-opacity="1" fill-rule="nonzero"></path><path fill="rgb(16.468811%, 0%, 49.01886%)" d="M 44.742188 11.785156 L 45.089844 9.664062 C 45.105469 9.582031 45.039062 9.503906 44.953125 9.503906 L 10.730469 9.503906 C 10.304688 9.503906 9.945312 9.804688 9.878906 10.207031 L 9.621094 11.785156 L 44.742188 11.785156 " fill-opacity="1" fill-rule="nonzero"></path><path fill="rgb(100%, 56.858826%, 30.198669%)" d="M 40.875 10.664062 C 40.875 10.929688 40.660156 11.144531 40.390625 11.144531 C 40.125 11.144531 39.90625 10.929688 39.90625 10.664062 C 39.90625 10.398438 40.125 10.183594 40.390625 10.183594 C 40.660156 10.183594 40.875 10.398438 40.875 10.664062 " fill-opacity="1" fill-rule="nonzero"></path><path fill="rgb(100%, 56.858826%, 30.198669%)" d="M 42.214844 10.691406 C 42.214844 10.957031 41.996094 11.171875 41.730469 11.171875 C 41.460938 11.171875 41.246094 10.957031 41.246094 10.691406 C 41.246094 10.425781 41.460938 10.210938 41.730469 10.210938 C 41.996094 10.210938 42.214844 10.425781 42.214844 10.691406 " fill-opacity="1" fill-rule="nonzero"></path><path fill="rgb(100%, 56.858826%, 30.198669%)" d="M 43.523438 10.691406 C 43.523438 10.957031 43.308594 11.171875 43.039062 11.171875 C 42.773438 11.171875 42.554688 10.957031 42.554688 10.691406 C 42.554688 10.425781 42.773438 10.210938 43.039062 10.210938 C 43.308594 10.210938 43.523438 10.425781 43.523438 10.691406 " fill-opacity="1" fill-rule="nonzero"></path><path fill="rgb(59.999084%, 72.549438%, 100%)" d="M 26.015625 31.296875 L 19.25 31.296875 C 19.03125 31.296875 18.867188 31.101562 18.90625 30.886719 L 19.886719 25.511719 C 19.914062 25.34375 20.0625 25.226562 20.230469 25.226562 L 26.996094 25.226562 C 27.214844 25.226562 27.378906 25.421875 27.339844 25.636719 L 26.363281 31.011719 C 26.332031 31.175781 26.1875 31.296875 26.015625 31.296875 " fill-opacity="1" fill-rule="nonzero"></path><path fill="rgb(59.999084%, 72.549438%, 100%)" d="M 17.65625 31.257812 L 7.804688 31.199219 C 7.605469 31.195312 7.457031 31.019531 7.492188 30.828125 L 8.484375 25.382812 C 8.511719 25.230469 8.644531 25.125 8.796875 25.125 L 18.714844 25.125 C 18.914062 25.125 19.0625 25.304688 19.027344 25.496094 L 17.972656 31.003906 C 17.941406 31.152344 17.8125 31.257812 17.65625 31.257812 " fill-opacity="1" fill-rule="nonzero"></path><path fill="rgb(59.999084%, 72.549438%, 100%)" d="M 29.648438 13.234375 C 29.679688 13.027344 29.523438 12.84375 29.3125 12.84375 L 10.710938 12.84375 C 10.605469 12.84375 10.511719 12.921875 10.496094 13.027344 L 8.691406 24.210938 C 8.675781 24.324219 8.761719 24.425781 8.875 24.425781 L 27.660156 24.425781 C 27.765625 24.425781 27.855469 24.347656 27.875 24.242188 L 29.648438 13.234375 " fill-opacity="1" fill-rule="nonzero"></path><path fill="rgb(16.468811%, 0%, 49.01886%)" d="M 17.824219 20.074219 C 17.007812 19.34375 16.960938 18.074219 17.710938 17.242188 C 18.464844 16.40625 19.734375 16.324219 20.546875 17.054688 C 21.363281 17.78125 21.410156 19.050781 20.660156 19.886719 C 19.90625 20.71875 18.636719 20.804688 17.824219 20.074219 " fill-opacity="1" fill-rule="nonzero"></path><path fill="rgb(100%, 100%, 100%)" d="M 18.582031 19.203125 L 18.613281 17.949219 C 18.617188 17.882812 18.683594 17.84375 18.742188 17.871094 L 19.988281 18.492188 C 20.050781 18.523438 20.050781 18.613281 19.984375 18.644531 L 18.703125 19.28125 C 18.644531 19.308594 18.578125 19.269531 18.582031 19.203125 " fill-opacity="1" fill-rule="nonzero"></path><path fill="rgb(100%, 100%, 100%)" d="M 39.644531 31.234375 L 28.621094 31.234375 C 28.386719 31.234375 28.207031 31.027344 28.242188 30.800781 L 30.984375 13.160156 C 31.015625 12.976562 31.175781 12.839844 31.363281 12.839844 L 42.386719 12.839844 C 42.621094 12.839844 42.800781 13.046875 42.765625 13.273438 L 40.019531 30.914062 C 39.992188 31.097656 39.832031 31.234375 39.644531 31.234375 " fill-opacity="1" fill-rule="nonzero"></path><path fill="rgb(100%, 56.858826%, 30.198669%)" d="M 41.070312 19.355469 C 41.070312 19.355469 41.070312 19.355469 41.066406 19.355469 L 36.664062 19.292969 C 36.566406 19.289062 36.484375 19.210938 36.488281 19.113281 C 36.488281 19.011719 36.570312 18.9375 36.667969 18.9375 L 41.074219 19 C 41.171875 19 41.25 19.082031 41.25 19.179688 C 41.25 19.277344 41.167969 19.355469 41.070312 19.355469 " fill-opacity="1" fill-rule="nonzero"></path><path fill="rgb(100%, 56.858826%, 30.198669%)" d="M 41.230469 18.203125 C 41.226562 18.203125 41.226562 18.203125 41.226562 18.203125 L 37.019531 18.148438 C 36.917969 18.144531 36.839844 18.066406 36.84375 17.96875 C 36.84375 17.871094 36.921875 17.792969 37.019531 17.792969 C 37.023438 17.792969 37.023438 17.792969 37.023438 17.792969 L 41.230469 17.847656 C 41.332031 17.847656 41.410156 17.929688 41.410156 18.027344 C 41.40625 18.125 41.328125 18.203125 41.230469 18.203125 " fill-opacity="1" fill-rule="nonzero"></path><path fill="rgb(100%, 56.858826%, 30.198669%)" d="M 41.363281 17.023438 C 41.363281 17.023438 41.359375 17.023438 41.359375 17.023438 L 37.152344 16.96875 C 37.054688 16.964844 36.972656 16.886719 36.976562 16.789062 C 36.976562 16.691406 37.058594 16.613281 37.15625 16.613281 L 41.363281 16.667969 C 41.464844 16.667969 41.542969 16.75 41.542969 16.847656 C 41.539062 16.945312 41.460938 17.023438 41.363281 17.023438 " fill-opacity="1" fill-rule="nonzero"></path><path fill="rgb(100%, 56.858826%, 30.198669%)" d="M 41.507812 15.90625 L 37.296875 15.851562 C 37.199219 15.851562 37.121094 15.769531 37.121094 15.671875 C 37.121094 15.574219 37.207031 15.496094 37.300781 15.496094 L 41.511719 15.550781 C 41.609375 15.554688 41.6875 15.632812 41.6875 15.730469 C 41.6875 15.828125 41.605469 15.90625 41.507812 15.90625 " fill-opacity="1" fill-rule="nonzero"></path><path fill="rgb(100%, 56.858826%, 30.198669%)" d="M 41.65625 14.742188 C 41.652344 14.742188 41.652344 14.742188 41.652344 14.742188 L 37.445312 14.683594 C 37.34375 14.683594 37.265625 14.605469 37.265625 14.503906 C 37.269531 14.40625 37.351562 14.332031 37.449219 14.332031 L 41.65625 14.386719 C 41.757812 14.386719 41.835938 14.46875 41.832031 14.566406 C 41.832031 14.664062 41.753906 14.742188 41.65625 14.742188 " fill-opacity="1" fill-rule="nonzero"></path><path fill="rgb(100%, 56.858826%, 30.198669%)" d="M 41.339844 13.574219 C 41.335938 13.574219 41.335938 13.574219 41.335938 13.574219 L 38.15625 13.519531 C 38.058594 13.515625 37.976562 13.4375 37.980469 13.339844 C 37.980469 13.242188 38.0625 13.160156 38.160156 13.164062 L 41.339844 13.21875 C 41.441406 13.222656 41.519531 13.300781 41.515625 13.398438 C 41.515625 13.496094 41.433594 13.574219 41.339844 13.574219 " fill-opacity="1" fill-rule="nonzero"></path><path fill="rgb(100%, 56.858826%, 30.198669%)" d="M 34.230469 20.65625 L 30.636719 20.65625 C 30.535156 20.65625 30.457031 20.578125 30.457031 20.480469 C 30.457031 20.382812 30.535156 20.300781 30.636719 20.300781 L 34.230469 20.300781 C 34.328125 20.300781 34.410156 20.382812 34.410156 20.480469 C 34.410156 20.578125 34.328125 20.65625 34.230469 20.65625 " fill-opacity="1" fill-rule="nonzero"></path><path fill="rgb(100%, 56.858826%, 30.198669%)" d="M 40.898438 20.65625 L 35.183594 20.65625 C 35.082031 20.65625 35.003906 20.578125 35.003906 20.480469 C 35.003906 20.382812 35.082031 20.300781 35.183594 20.300781 L 40.898438 20.300781 C 40.996094 20.300781 41.078125 20.382812 41.078125 20.480469 C 41.078125 20.578125 40.996094 20.65625 40.898438 20.65625 " fill-opacity="1" fill-rule="nonzero"></path><path fill="rgb(100%, 56.858826%, 30.198669%)" d="M 40.390625 21.984375 L 30.34375 21.984375 C 30.242188 21.984375 30.164062 21.902344 30.164062 21.804688 C 30.164062 21.707031 30.242188 21.628906 30.34375 21.628906 L 40.390625 21.628906 C 40.488281 21.628906 40.570312 21.707031 40.570312 21.804688 C 40.570312 21.902344 40.488281 21.984375 40.390625 21.984375 " fill-opacity="1" fill-rule="nonzero"></path><path fill="rgb(100%, 56.858826%, 30.198669%)" d="M 39.945312 24.847656 L 29.898438 24.847656 C 29.796875 24.847656 29.71875 24.769531 29.71875 24.671875 C 29.71875 24.574219 29.796875 24.492188 29.898438 24.492188 L 39.945312 24.492188 C 40.042969 24.492188 40.125 24.574219 40.125 24.671875 C 40.125 24.769531 40.042969 24.847656 39.945312 24.847656 " fill-opacity="1" fill-rule="nonzero"></path><path fill="rgb(100%, 56.858826%, 30.198669%)" d="M 36.003906 23.4375 L 30.117188 23.4375 C 30.015625 23.4375 29.9375 23.355469 29.9375 23.257812 C 29.9375 23.160156 30.015625 23.082031 30.117188 23.082031 L 36.003906 23.082031 C 36.105469 23.082031 36.183594 23.160156 36.183594 23.257812 C 36.183594 23.355469 36.105469 23.4375 36.003906 23.4375 " fill-opacity="1" fill-rule="nonzero"></path><path fill="rgb(100%, 56.858826%, 30.198669%)" d="M 40.378906 23.4375 L 37.089844 23.4375 C 36.988281 23.4375 36.910156 23.355469 36.910156 23.257812 C 36.910156 23.160156 36.988281 23.082031 37.089844 23.082031 L 40.378906 23.082031 C 40.480469 23.082031 40.558594 23.160156 40.558594 23.257812 C 40.558594 23.355469 40.480469 23.4375 40.378906 23.4375 " fill-opacity="1" fill-rule="nonzero"></path><path fill="rgb(100%, 56.858826%, 30.198669%)" d="M 39.570312 27.542969 L 29.523438 27.542969 C 29.421875 27.542969 29.34375 27.460938 29.34375 27.363281 C 29.34375 27.265625 29.421875 27.1875 29.523438 27.1875 L 39.570312 27.1875 C 39.667969 27.1875 39.746094 27.265625 39.746094 27.363281 C 39.746094 27.460938 39.667969 27.542969 39.570312 27.542969 " fill-opacity="1" fill-rule="nonzero"></path><path fill="rgb(100%, 56.858826%, 30.198669%)" d="M 39.125 30.40625 L 29.074219 30.40625 C 28.976562 30.40625 28.898438 30.328125 28.898438 30.230469 C 28.898438 30.132812 28.976562 30.050781 29.074219 30.050781 L 39.125 30.050781 C 39.222656 30.050781 39.300781 30.132812 39.300781 30.230469 C 39.300781 30.328125 39.222656 30.40625 39.125 30.40625 " fill-opacity="1" fill-rule="nonzero"></path><path fill="rgb(100%, 56.858826%, 30.198669%)" d="M 35.183594 28.996094 L 29.296875 28.996094 C 29.195312 28.996094 29.117188 28.917969 29.117188 28.820312 C 29.117188 28.722656 29.195312 28.640625 29.296875 28.640625 L 35.183594 28.640625 C 35.285156 28.640625 35.363281 28.722656 35.363281 28.820312 C 35.363281 28.917969 35.285156 28.996094 35.183594 28.996094 " fill-opacity="1" fill-rule="nonzero"></path><path fill="rgb(100%, 56.858826%, 30.198669%)" d="M 39.558594 28.996094 L 36.269531 28.996094 C 36.167969 28.996094 36.089844 28.917969 36.089844 28.820312 C 36.089844 28.722656 36.167969 28.640625 36.269531 28.640625 L 39.558594 28.640625 C 39.65625 28.640625 39.738281 28.722656 39.738281 28.820312 C 39.738281 28.917969 39.65625 28.996094 39.558594 28.996094 " fill-opacity="1" fill-rule="nonzero"></path><path fill="rgb(100%, 56.858826%, 30.198669%)" d="M 33.273438 26.257812 L 29.675781 26.257812 C 29.578125 26.257812 29.5 26.179688 29.5 26.082031 C 29.5 25.984375 29.578125 25.902344 29.675781 25.902344 L 33.273438 25.902344 C 33.371094 25.902344 33.449219 25.984375 33.449219 26.082031 C 33.449219 26.179688 33.371094 26.257812 33.273438 26.257812 " fill-opacity="1" fill-rule="nonzero"></path><path fill="rgb(100%, 56.858826%, 30.198669%)" d="M 39.941406 26.257812 L 34.226562 26.257812 C 34.125 26.257812 34.046875 26.179688 34.046875 26.082031 C 34.046875 25.984375 34.125 25.902344 34.226562 25.902344 L 39.941406 25.902344 C 40.039062 25.902344 40.121094 25.984375 40.121094 26.082031 C 40.121094 26.179688 40.039062 26.257812 39.941406 26.257812 " fill-opacity="1" fill-rule="nonzero"></path><path fill="rgb(16.468811%, 0%, 49.01886%)" d="M 36.121094 18.800781 L 30.761719 18.800781 C 30.679688 18.800781 30.617188 18.726562 30.632812 18.648438 L 31.574219 13.332031 C 31.585938 13.269531 31.640625 13.222656 31.707031 13.222656 L 37.0625 13.222656 C 37.144531 13.222656 37.207031 13.296875 37.191406 13.375 L 36.25 18.691406 C 36.238281 18.753906 36.183594 18.800781 36.121094 18.800781 " fill-opacity="1" fill-rule="nonzero"></path><path fill="rgb(100%, 100%, 100%)" d="M 33.445312 16.386719 L 34.253906 16.386719 L 33.996094 15.125 Z M 34.390625 17.0625 L 33.152344 17.0625 L 32.855469 17.742188 L 31.890625 17.742188 L 33.6875 14.105469 L 34.535156 14.105469 L 35.503906 17.742188 L 34.53125 17.742188 L 34.390625 17.0625 " fill-opacity="1" fill-rule="nonzero"></path><path fill="rgb(100%, 100%, 100%)" d="M 40.796875 41.257812 L 40.738281 42.453125 L 41.320312 42.449219 L 41.492188 41.292969 L 40.796875 41.257812 " fill-opacity="1" fill-rule="nonzero"></path><path fill="rgb(0%, 0%, 0%)" d="M 40.871094 41.335938 L 40.816406 42.378906 L 41.253906 42.375 L 41.402344 41.363281 Z M 40.734375 42.53125 C 40.714844 42.53125 40.695312 42.523438 40.679688 42.507812 C 40.667969 42.492188 40.660156 42.472656 40.660156 42.449219 L 40.71875 41.253906 C 40.722656 41.234375 40.730469 41.214844 40.746094 41.199219 C 40.761719 41.1875 40.78125 41.179688 40.800781 41.179688 L 41.496094 41.214844 C 41.515625 41.21875 41.539062 41.226562 41.550781 41.242188 C 41.566406 41.261719 41.570312 41.28125 41.566406 41.304688 L 41.394531 42.460938 C 41.390625 42.496094 41.355469 42.523438 41.320312 42.523438 L 40.738281 42.53125 C 40.738281 42.53125 40.738281 42.53125 40.734375 42.53125 " fill-opacity="1" fill-rule="nonzero"></path><path fill="rgb(100%, 100%, 100%)" d="M 41.328125 43.980469 C 41.089844 43.996094 40.4375 43.980469 40.257812 43.890625 C 40.09375 43.8125 39.96875 43.472656 40.058594 43.355469 C 40.28125 43.054688 40.449219 42.523438 40.589844 42.105469 C 40.597656 42.082031 40.632812 42.082031 40.644531 42.101562 L 40.757812 42.292969 L 40.859375 42.078125 C 40.875 42.054688 40.902344 42.042969 40.929688 42.039062 L 41.136719 42.046875 C 41.179688 42.046875 41.230469 42.09375 41.253906 42.136719 L 41.390625 42.324219 L 41.480469 42.179688 C 41.496094 42.15625 41.535156 42.164062 41.535156 42.195312 L 41.636719 43.597656 C 41.628906 43.824219 41.464844 43.972656 41.328125 43.980469 " fill-opacity="1" fill-rule="nonzero"></path><path fill="rgb(0%, 0%, 0%)" d="M 40.628906 42.226562 L 40.621094 42.261719 C 40.480469 42.664062 40.328125 43.121094 40.121094 43.398438 C 40.105469 43.417969 40.097656 43.46875 40.117188 43.550781 C 40.144531 43.671875 40.222656 43.789062 40.289062 43.824219 C 40.445312 43.902344 41.054688 43.921875 41.324219 43.90625 C 41.414062 43.902344 41.550781 43.789062 41.558594 43.601562 L 41.46875 42.34375 L 41.457031 42.363281 C 41.445312 42.386719 41.421875 42.398438 41.394531 42.402344 C 41.371094 42.402344 41.34375 42.390625 41.332031 42.371094 L 41.191406 42.179688 C 41.191406 42.179688 41.191406 42.175781 41.1875 42.175781 C 41.171875 42.144531 41.144531 42.125 41.136719 42.121094 L 40.933594 42.117188 C 40.929688 42.117188 40.925781 42.117188 40.925781 42.121094 L 40.828125 42.324219 C 40.816406 42.351562 40.789062 42.367188 40.761719 42.371094 C 40.734375 42.371094 40.707031 42.355469 40.691406 42.332031 Z M 41.132812 44.0625 C 40.847656 44.0625 40.386719 44.042969 40.222656 43.960938 C 40.09375 43.898438 40 43.726562 39.96875 43.589844 C 39.9375 43.472656 39.949219 43.371094 39.996094 43.308594 C 40.1875 43.046875 40.339844 42.605469 40.472656 42.210938 L 40.519531 42.082031 C 40.53125 42.042969 40.566406 42.015625 40.609375 42.011719 C 40.648438 42.007812 40.6875 42.027344 40.710938 42.0625 L 40.75 42.132812 L 40.789062 42.046875 C 40.792969 42.042969 40.792969 42.039062 40.796875 42.039062 C 40.824219 41.996094 40.875 41.96875 40.925781 41.964844 C 40.929688 41.964844 40.929688 41.964844 40.933594 41.964844 L 41.136719 41.972656 C 41.214844 41.96875 41.28125 42.03125 41.320312 42.09375 L 41.386719 42.1875 L 41.414062 42.140625 C 41.441406 42.101562 41.488281 42.082031 41.53125 42.09375 C 41.578125 42.105469 41.609375 42.144531 41.613281 42.1875 L 41.710938 43.59375 C 41.710938 43.597656 41.710938 43.597656 41.710938 43.601562 C 41.703125 43.871094 41.507812 44.046875 41.332031 44.058594 C 41.292969 44.058594 41.222656 44.0625 41.132812 44.0625 " fill-opacity="1" fill-rule="nonzero"></path><path fill="rgb(0%, 0%, 0%)" d="M 40.960938 43.789062 C 40.78125 43.789062 40.5625 43.769531 40.332031 43.695312 C 40.289062 43.683594 40.269531 43.640625 40.28125 43.601562 C 40.292969 43.558594 40.335938 43.539062 40.378906 43.550781 C 40.90625 43.71875 41.363281 43.59375 41.367188 43.59375 C 41.40625 43.582031 41.449219 43.605469 41.460938 43.648438 C 41.472656 43.6875 41.449219 43.730469 41.40625 43.742188 C 41.394531 43.742188 41.21875 43.789062 40.960938 43.789062 " fill-opacity="1" fill-rule="nonzero"></path><path fill="rgb(0%, 0%, 0%)" d="M 41.140625 43.171875 C 41.140625 43.171875 41.140625 43.171875 41.136719 43.171875 L 40.609375 43.148438 C 40.566406 43.144531 40.535156 43.109375 40.535156 43.066406 C 40.539062 43.023438 40.574219 42.992188 40.617188 42.996094 L 41.144531 43.019531 C 41.1875 43.023438 41.21875 43.058594 41.21875 43.101562 C 41.214844 43.140625 41.183594 43.171875 41.140625 43.171875 " fill-opacity="1" fill-rule="nonzero"></path><path fill="rgb(100%, 100%, 100%)" d="M 45.097656 40.835938 L 45.199219 42.289062 L 45.742188 42.296875 L 45.816406 40.871094 L 45.097656 40.835938 " fill-opacity="1" fill-rule="nonzero"></path><path fill="rgb(0%, 0%, 0%)" d="M 45.269531 42.214844 L 45.667969 42.222656 L 45.734375 40.945312 L 45.183594 40.917969 Z M 45.742188 42.375 L 45.195312 42.367188 C 45.15625 42.363281 45.125 42.335938 45.121094 42.292969 L 45.023438 40.84375 C 45.023438 40.820312 45.03125 40.796875 45.046875 40.785156 C 45.058594 40.769531 45.082031 40.761719 45.101562 40.761719 L 45.820312 40.796875 C 45.859375 40.796875 45.894531 40.835938 45.890625 40.875 L 45.820312 42.300781 C 45.816406 42.34375 45.785156 42.375 45.742188 42.375 " fill-opacity="1" fill-rule="nonzero"></path><path fill="rgb(100%, 100%, 100%)" d="M 45.035156 41.9375 C 45.035156 41.9375 44.984375 42.578125 44.992188 42.835938 C 44.996094 43.019531 45.222656 43.589844 45.351562 43.902344 C 45.40625 44.027344 45.523438 44.128906 45.644531 44.164062 C 45.871094 44.226562 45.984375 44.230469 46.195312 44.207031 C 46.484375 44.175781 46.585938 43.921875 46.515625 43.667969 C 46.449219 43.433594 46.332031 43.179688 46.132812 42.859375 C 45.992188 42.625 45.882812 41.953125 45.882812 41.953125 L 45.441406 41.933594 L 45.296875 42.292969 L 45.035156 41.9375 " fill-opacity="1" fill-rule="nonzero"></path><path fill="rgb(0%, 0%, 0%)" d="M 45.097656 42.148438 C 45.082031 42.359375 45.0625 42.671875 45.070312 42.832031 C 45.074219 42.957031 45.203125 43.335938 45.425781 43.871094 C 45.464844 43.972656 45.5625 44.0625 45.664062 44.089844 C 45.882812 44.152344 45.980469 44.152344 46.1875 44.128906 C 46.285156 44.121094 46.359375 44.078125 46.40625 44.011719 C 46.460938 43.929688 46.476562 43.808594 46.441406 43.6875 C 46.371094 43.449219 46.253906 43.199219 46.070312 42.898438 C 45.945312 42.695312 45.847656 42.203125 45.820312 42.027344 L 45.492188 42.011719 L 45.367188 42.320312 C 45.359375 42.347656 45.335938 42.367188 45.304688 42.371094 C 45.277344 42.371094 45.25 42.363281 45.234375 42.339844 Z M 45.992188 44.296875 C 45.878906 44.296875 45.777344 44.28125 45.625 44.238281 C 45.476562 44.195312 45.34375 44.074219 45.28125 43.929688 C 45.117188 43.535156 44.921875 43.023438 44.914062 42.835938 C 44.90625 42.578125 44.957031 41.957031 44.960938 41.929688 C 44.964844 41.898438 44.984375 41.871094 45.015625 41.863281 C 45.046875 41.855469 45.082031 41.867188 45.097656 41.890625 L 45.277344 42.136719 L 45.371094 41.902344 C 45.382812 41.875 45.410156 41.855469 45.445312 41.855469 L 45.886719 41.878906 C 45.925781 41.878906 45.953125 41.90625 45.960938 41.941406 C 45.960938 41.949219 46.066406 42.601562 46.199219 42.816406 C 46.394531 43.128906 46.515625 43.394531 46.589844 43.648438 C 46.636719 43.8125 46.613281 43.976562 46.535156 44.09375 C 46.460938 44.203125 46.347656 44.265625 46.207031 44.28125 C 46.125 44.289062 46.058594 44.296875 45.992188 44.296875 " fill-opacity="1" fill-rule="nonzero"></path><path fill="rgb(0%, 0%, 0%)" d="M 45.238281 43.140625 Z M 45.238281 43.140625 Z M 46.078125 44.035156 C 46.003906 44.035156 45.941406 44.027344 45.910156 44.019531 C 45.773438 43.996094 45.648438 43.925781 45.5625 43.820312 C 45.496094 43.742188 45.449219 43.667969 45.421875 43.601562 C 45.371094 43.488281 45.320312 43.359375 45.285156 43.265625 C 45.261719 43.207031 45.238281 43.144531 45.226562 43.125 C 45.207031 43.097656 45.210938 43.058594 45.234375 43.03125 C 45.261719 43 45.3125 42.996094 45.34375 43.027344 C 45.363281 43.042969 45.367188 43.058594 45.425781 43.210938 C 45.464844 43.304688 45.511719 43.429688 45.5625 43.542969 C 45.582031 43.59375 45.625 43.65625 45.679688 43.722656 C 45.746094 43.800781 45.835938 43.851562 45.9375 43.871094 C 45.996094 43.882812 46.148438 43.890625 46.246094 43.859375 C 46.285156 43.847656 46.328125 43.867188 46.339844 43.910156 C 46.355469 43.949219 46.332031 43.992188 46.292969 44.003906 C 46.226562 44.027344 46.148438 44.035156 46.078125 44.035156 " fill-opacity="1" fill-rule="nonzero"></path><path fill="rgb(0%, 0%, 0%)" d="M 46.148438 43.441406 C 46.148438 43.441406 46.148438 43.441406 46.144531 43.441406 L 45.660156 43.417969 C 45.617188 43.414062 45.585938 43.378906 45.585938 43.335938 C 45.589844 43.296875 45.625 43.261719 45.667969 43.265625 L 46.152344 43.289062 C 46.195312 43.292969 46.226562 43.328125 46.226562 43.371094 C 46.222656 43.410156 46.191406 43.441406 46.148438 43.441406 " fill-opacity="1" fill-rule="nonzero"></path><path fill="rgb(0%, 0%, 0%)" d="M 40.472656 29.234375 C 40.472656 29.234375 40.308594 33.644531 40.347656 36.523438 C 40.382812 39 40.578125 40.984375 40.632812 41.488281 C 40.640625 41.566406 40.695312 41.628906 40.773438 41.644531 C 40.925781 41.671875 41.183594 41.703125 41.441406 41.667969 C 41.511719 41.660156 41.570312 41.609375 41.589844 41.542969 C 41.722656 41.054688 42.277344 39.011719 42.316406 38.226562 C 42.359375 37.371094 42.21875 37.148438 42.234375 36.453125 C 42.25 35.929688 42.519531 34.085938 42.652344 33.191406 C 42.671875 33.074219 42.839844 33.0625 42.871094 33.175781 C 43.117188 34.003906 43.636719 35.796875 44.113281 37.632812 C 44.140625 37.726562 44.242188 38.527344 44.265625 38.617188 C 44.5625 39.765625 44.851562 40.6875 44.945312 41.226562 C 44.960938 41.3125 45.027344 41.382812 45.113281 41.398438 C 45.28125 41.4375 45.566406 41.476562 45.820312 41.410156 C 45.914062 41.382812 45.976562 41.300781 45.980469 41.207031 C 46.007812 40.625 46.097656 38.449219 46.066406 38.082031 C 45.996094 37.292969 45.421875 36.492188 45.351562 35.65625 C 45.285156 34.820312 45.328125 32.730469 45.085938 31.464844 C 44.84375 30.199219 44.320312 28.765625 44.320312 28.765625 L 40.472656 29.234375 " fill-opacity="1" fill-rule="nonzero"></path><path fill="rgb(0%, 0%, 0%)" d="M 42.816406 20.824219 C 42.507812 20.621094 42 20.730469 41.804688 21.234375 C 41.644531 21.644531 42 21.960938 42.09375 22.261719 C 42.386719 23.242188 41.433594 25.332031 42.082031 26.398438 C 42.597656 27.25 44.03125 27.878906 45.265625 27.347656 C 46.441406 26.84375 47.238281 25.628906 46.761719 24.632812 C 46.335938 23.738281 45.523438 24.160156 45.03125 23.28125 C 44.546875 22.410156 44.992188 22.003906 44.636719 21.566406 C 44.152344 20.972656 43.679688 21.390625 42.816406 20.824219 " fill-opacity="1" fill-rule="nonzero"></path><path fill="rgb(100%, 100%, 100%)" d="M 44.457031 31.109375 C 44.449219 31.109375 44.4375 31.105469 44.425781 31.101562 C 43.617188 30.722656 43.417969 29.929688 43.410156 29.894531 C 43.398438 29.855469 43.425781 29.8125 43.46875 29.804688 C 43.507812 29.792969 43.550781 29.820312 43.558594 29.859375 C 43.5625 29.871094 43.75 30.617188 44.492188 30.960938 C 44.53125 30.980469 44.546875 31.027344 44.527344 31.0625 C 44.515625 31.089844 44.488281 31.109375 44.457031 31.109375 " fill-opacity="1" fill-rule="nonzero"></path><path fill="rgb(16.468811%, 0%, 49.01886%)" d="M 40.058594 24.210938 C 40.046875 24.175781 40.003906 24.171875 39.984375 24.199219 C 39.65625 24.609375 39.015625 25.878906 37.933594 25.785156 C 36.796875 25.691406 36.324219 25 36.324219 25 L 35.484375 25.441406 C 35.484375 25.441406 35.851562 26.660156 37.246094 27.414062 C 38.667969 28.183594 41.089844 26.804688 41.089844 26.804688 L 40.058594 24.210938 " fill-opacity="1" fill-rule="nonzero"></path><path fill="rgb(16.468811%, 0%, 49.01886%)" d="M 39.984375 24.199219 C 40.90625 23.648438 42.5625 23.695312 43.386719 24.066406 C 44.84375 24.730469 45.679688 29.988281 45.214844 31.125 C 44.789062 32.160156 41.160156 32.378906 40.152344 31.492188 C 39.726562 31.117188 39.867188 28.863281 39.941406 27.964844 C 39.964844 27.691406 39.976562 27.417969 39.976562 27.140625 L 39.984375 24.199219 " fill-opacity="1" fill-rule="nonzero"></path><g clip-path="url(#id3)"><path fill="rgb(59.999084%, 72.549438%, 100%)" d="M 35.09375 23.675781 L 36.367188 22.550781 L 46.980469 34.410156 C 47.09375 34.535156 47.070312 34.757812 46.917969 34.953125 C 46.734375 35.1875 46.515625 35.382812 46.261719 35.535156 C 46.046875 35.664062 45.820312 35.660156 45.710938 35.535156 L 35.09375 23.675781 " fill-opacity="1" fill-rule="nonzero"></path></g><path fill="rgb(0%, 0%, 0%)" d="M 44.542969 32.492188 C 44.519531 32.492188 44.5 32.484375 44.484375 32.464844 L 39.996094 27.453125 C 39.96875 27.421875 39.972656 27.375 40.003906 27.347656 C 40.035156 27.316406 40.085938 27.320312 40.113281 27.351562 L 44.597656 32.363281 C 44.628906 32.394531 44.625 32.445312 44.59375 32.472656 C 44.578125 32.484375 44.558594 32.492188 44.542969 32.492188 " fill-opacity="1" fill-rule="nonzero"></path><path fill="rgb(0%, 0%, 0%)" d="M 39.027344 26.332031 C 39.007812 26.332031 38.988281 26.324219 38.972656 26.308594 L 37.023438 24.132812 C 36.996094 24.101562 37 24.050781 37.03125 24.023438 C 37.0625 23.996094 37.109375 24 37.140625 24.03125 L 39.085938 26.207031 C 39.113281 26.238281 39.113281 26.285156 39.078125 26.3125 C 39.066406 26.328125 39.046875 26.332031 39.027344 26.332031 " fill-opacity="1" fill-rule="nonzero"></path><path fill="rgb(0%, 0%, 0%)" d="M 45.386719 34.363281 C 45.367188 34.363281 45.34375 34.355469 45.332031 34.335938 L 37.871094 26.003906 C 37.839844 25.972656 37.84375 25.925781 37.875 25.894531 C 37.90625 25.867188 37.957031 25.871094 37.984375 25.902344 L 45.445312 34.238281 C 45.472656 34.269531 45.46875 34.316406 45.4375 34.34375 C 45.425781 34.355469 45.40625 34.363281 45.386719 34.363281 " fill-opacity="1" fill-rule="nonzero"></path><path fill="rgb(100%, 100%, 100%)" d="M 33.253906 21.027344 C 33.390625 20.957031 33.554688 20.824219 33.671875 20.722656 C 33.789062 20.617188 33.847656 20.550781 33.933594 20.429688 L 36.363281 22.550781 C 36.0625 23.0625 35.636719 23.433594 35.09375 23.671875 L 33.253906 21.027344 " fill-opacity="1" fill-rule="nonzero"></path><path fill="rgb(0%, 0%, 0%)" d="M 33.253906 21.027344 Z M 33.933594 20.429688 C 33.847656 20.550781 33.789062 20.617188 33.671875 20.722656 C 33.554688 20.824219 33.390625 20.957031 33.253906 21.027344 L 35.09375 23.671875 C 35.636719 23.433594 36.0625 23.0625 36.363281 22.550781 Z M 33.957031 20.652344 L 36.164062 22.578125 C 35.910156 22.972656 35.566406 23.273438 35.144531 23.480469 L 33.472656 21.074219 C 33.601562 20.988281 33.71875 20.886719 33.773438 20.835938 C 33.851562 20.769531 33.90625 20.714844 33.957031 20.652344 " fill-opacity="1" fill-rule="nonzero"></path><path fill="rgb(0%, 0%, 0%)" d="M 33.632812 20.769531 C 33.515625 20.875 33.390625 20.957031 33.253906 21.027344 L 32.132812 19.410156 C 32.03125 19.265625 32.316406 19.015625 32.445312 19.132812 L 33.933594 20.429688 C 33.847656 20.550781 33.75 20.667969 33.632812 20.769531 " fill-opacity="1" fill-rule="nonzero"></path><path fill="rgb(100%, 100%, 100%)" d="M 41.964844 29.519531 C 41.964844 29.519531 41.382812 29.554688 41.070312 29.796875 C 41.070312 29.796875 41.113281 30.039062 41 30.199219 C 40.890625 30.359375 40.539062 30.558594 40.554688 30.796875 C 40.574219 31.035156 41.402344 30.929688 41.621094 30.710938 C 41.84375 30.492188 41.96875 30.128906 42.226562 30.035156 C 42.484375 29.945312 41.964844 29.519531 41.964844 29.519531 " fill-opacity="1" fill-rule="nonzero"></path><path fill="rgb(0%, 0%, 0%)" d="M 41.152344 29.832031 C 41.160156 29.917969 41.160156 30.101562 41.0625 30.242188 C 41.023438 30.300781 40.957031 30.359375 40.890625 30.421875 C 40.765625 30.539062 40.621094 30.667969 40.632812 30.792969 C 40.632812 30.8125 40.664062 30.824219 40.683594 30.832031 C 40.890625 30.910156 41.417969 30.804688 41.570312 30.65625 C 41.648438 30.578125 41.714844 30.476562 41.78125 30.378906 C 41.898438 30.207031 42.019531 30.03125 42.199219 29.964844 C 42.203125 29.964844 42.222656 29.957031 42.222656 29.953125 C 42.230469 29.890625 42.085938 29.722656 41.9375 29.597656 C 41.824219 29.609375 41.40625 29.65625 41.152344 29.832031 Z M 40.878906 31.011719 C 40.78125 31.011719 40.695312 31 40.628906 30.972656 C 40.507812 30.929688 40.480469 30.847656 40.480469 30.804688 C 40.464844 30.605469 40.640625 30.441406 40.785156 30.3125 C 40.847656 30.253906 40.90625 30.199219 40.9375 30.15625 C 41.027344 30.023438 40.996094 29.8125 40.996094 29.808594 C 40.992188 29.785156 41.003906 29.753906 41.023438 29.738281 C 41.347656 29.480469 41.933594 29.445312 41.960938 29.445312 C 41.980469 29.441406 41.996094 29.449219 42.011719 29.460938 C 42.105469 29.535156 42.40625 29.796875 42.371094 29.976562 C 42.367188 30.011719 42.34375 30.074219 42.253906 30.109375 C 42.117188 30.15625 42.015625 30.304688 41.910156 30.464844 C 41.839844 30.570312 41.765625 30.675781 41.675781 30.765625 C 41.53125 30.90625 41.164062 31.011719 40.878906 31.011719 " fill-opacity="1" fill-rule="nonzero"></path><path fill="rgb(16.468811%, 0%, 49.01886%)" d="M 43.480469 24.101562 L 44.25 26.898438 C 44.246094 27.230469 44.097656 27.542969 43.84375 27.757812 L 41.882812 29.425781 L 42.21875 30.1875 C 42.238281 30.230469 42.289062 30.246094 42.328125 30.222656 C 42.78125 29.96875 45.164062 28.609375 45.484375 28.074219 C 45.683594 27.742188 45.703125 26.824219 45.710938 26.230469 C 45.714844 25.792969 45.339844 24.871094 44.976562 24.617188 C 44.53125 24.3125 43.832031 24.027344 43.480469 24.101562 " fill-opacity="1" fill-rule="nonzero"></path><path fill="rgb(0%, 0%, 0%)" d="M 41.882812 29.503906 C 41.863281 29.503906 41.839844 29.496094 41.824219 29.476562 C 41.796875 29.445312 41.800781 29.398438 41.832031 29.371094 L 43.792969 27.703125 C 44.03125 27.5 44.167969 27.207031 44.171875 26.898438 L 44.1875 25.300781 C 44.1875 25.257812 44.222656 25.222656 44.265625 25.222656 C 44.308594 25.222656 44.339844 25.257812 44.339844 25.300781 L 44.324219 26.902344 C 44.320312 27.253906 44.164062 27.585938 43.894531 27.816406 L 41.933594 29.484375 C 41.917969 29.496094 41.902344 29.503906 41.882812 29.503906 " fill-opacity="1" fill-rule="nonzero"></path><path fill="rgb(0%, 0%, 0%)" d="M 42.933594 29.898438 C 42.90625 29.898438 42.878906 29.882812 42.867188 29.859375 C 42.84375 29.820312 42.859375 29.773438 42.894531 29.753906 C 44.324219 28.949219 45.246094 28.324219 45.417969 28.035156 C 45.515625 27.875 45.585938 27.570312 45.625 27.132812 C 45.628906 27.089844 45.667969 27.058594 45.707031 27.0625 C 45.75 27.066406 45.78125 27.105469 45.777344 27.148438 C 45.734375 27.605469 45.660156 27.933594 45.550781 28.113281 C 45.308594 28.515625 44.011719 29.300781 42.96875 29.886719 C 42.957031 29.894531 42.945312 29.898438 42.933594 29.898438 " fill-opacity="1" fill-rule="nonzero"></path><path fill="rgb(100%, 100%, 100%)" d="M 43.140625 22.554688 C 43.109375 22.554688 43.085938 22.527344 43.089844 22.496094 C 43.105469 22.347656 43.152344 22.066406 43.007812 21.941406 C 42.824219 21.777344 42.515625 21.53125 42.394531 21.683594 C 42.289062 21.816406 42.183594 22.082031 41.929688 22.183594 C 41.90625 22.191406 41.902344 22.226562 41.914062 22.25 L 41.96875 22.382812 C 41.980469 22.410156 41.96875 22.472656 41.957031 22.5 C 41.921875 22.582031 41.839844 22.753906 41.855469 22.792969 C 41.886719 22.863281 42.164062 22.988281 42.164062 22.988281 L 41.980469 23.835938 C 41.972656 23.871094 41.953125 23.921875 41.921875 23.914062 L 41.582031 23.941406 C 41.582031 23.941406 41.601562 24.398438 42.320312 24.527344 C 43.261719 24.691406 43.386719 24.066406 43.386719 24.066406 C 43.386719 24.066406 42.464844 24.054688 42.867188 23.0625 C 42.875 23.039062 42.894531 23.023438 42.917969 23.019531 C 43.007812 23.007812 43.253906 22.957031 43.300781 22.800781 C 43.351562 22.632812 43.25 22.550781 43.140625 22.554688 " fill-opacity="1" fill-rule="nonzero"></path><path fill="rgb(0%, 0%, 0%)" d="M 41.984375 22.21875 Z M 41.894531 22.410156 Z M 41.894531 22.410156 C 41.898438 22.410156 41.898438 22.414062 41.898438 22.414062 Z M 43.140625 22.554688 L 43.144531 22.554688 Z M 41.929688 22.777344 Z M 41.675781 24.007812 C 41.714844 24.128906 41.855469 24.367188 42.335938 24.453125 C 42.996094 24.566406 43.214844 24.28125 43.28125 24.132812 C 43.148438 24.113281 42.917969 24.046875 42.789062 23.851562 C 42.652344 23.652344 42.65625 23.378906 42.796875 23.03125 C 42.816406 22.984375 42.855469 22.953125 42.90625 22.945312 C 43.085938 22.917969 43.207031 22.855469 43.230469 22.777344 C 43.246094 22.726562 43.242188 22.683594 43.222656 22.660156 C 43.207031 22.640625 43.179688 22.628906 43.144531 22.628906 C 43.144531 22.628906 43.140625 22.628906 43.140625 22.628906 C 43.105469 22.628906 43.070312 22.617188 43.046875 22.589844 C 43.019531 22.5625 43.007812 22.527344 43.011719 22.488281 L 43.015625 22.445312 C 43.035156 22.3125 43.058594 22.085938 42.957031 21.996094 C 42.675781 21.75 42.546875 21.707031 42.488281 21.710938 C 42.472656 21.714844 42.464844 21.71875 42.453125 21.730469 C 42.429688 21.757812 42.40625 21.800781 42.378906 21.84375 C 42.296875 21.972656 42.183594 22.148438 41.992188 22.238281 L 42.039062 22.355469 C 42.0625 22.40625 42.042969 22.492188 42.027344 22.527344 C 42.023438 22.539062 42.015625 22.554688 42.007812 22.574219 C 41.988281 22.621094 41.941406 22.726562 41.933594 22.769531 C 41.964844 22.796875 42.082031 22.867188 42.195312 22.921875 C 42.230469 22.933594 42.246094 22.96875 42.238281 23.003906 L 42.054688 23.851562 C 42.050781 23.878906 42.03125 23.945312 41.980469 23.976562 C 41.960938 23.988281 41.941406 23.992188 41.917969 23.992188 Z M 42.617188 24.628906 C 42.527344 24.628906 42.421875 24.621094 42.308594 24.601562 C 41.539062 24.464844 41.507812 23.964844 41.503906 23.945312 C 41.503906 23.902344 41.535156 23.867188 41.578125 23.863281 L 41.898438 23.839844 C 41.902344 23.835938 41.90625 23.828125 41.90625 23.820312 L 42.078125 23.03125 C 41.964844 22.976562 41.816406 22.894531 41.785156 22.820312 C 41.765625 22.769531 41.785156 22.699219 41.867188 22.511719 L 41.886719 22.46875 C 41.890625 22.453125 41.898438 22.421875 41.894531 22.410156 L 41.84375 22.277344 C 41.828125 22.246094 41.828125 22.207031 41.839844 22.171875 C 41.851562 22.144531 41.875 22.121094 41.902344 22.109375 C 42.070312 22.046875 42.164062 21.894531 42.246094 21.761719 C 42.277344 21.714844 42.304688 21.671875 42.335938 21.636719 C 42.367188 21.589844 42.417969 21.566406 42.476562 21.558594 C 42.609375 21.546875 42.789062 21.648438 43.058594 21.882812 C 43.222656 22.023438 43.191406 22.300781 43.171875 22.464844 L 43.167969 22.476562 C 43.238281 22.484375 43.300781 22.515625 43.34375 22.566406 C 43.394531 22.632812 43.40625 22.722656 43.375 22.820312 C 43.320312 23.007812 43.078125 23.070312 42.9375 23.09375 C 42.820312 23.386719 42.8125 23.613281 42.914062 23.765625 C 43.058594 23.984375 43.382812 23.992188 43.386719 23.992188 C 43.410156 23.992188 43.429688 24.003906 43.445312 24.019531 C 43.460938 24.039062 43.464844 24.0625 43.460938 24.082031 C 43.460938 24.089844 43.34375 24.628906 42.617188 24.628906 " fill-opacity="1" fill-rule="nonzero"></path><path fill="rgb(100%, 100%, 100%)" d="M 34.617188 23.523438 L 34.734375 24.15625 C 34.769531 24.355469 34.898438 24.527344 35.078125 24.617188 L 35.417969 24.792969 C 35.472656 24.820312 35.511719 24.871094 35.542969 24.925781 C 35.609375 25.050781 35.691406 25.246094 35.691406 25.246094 L 36.15625 25.015625 C 36.15625 25.015625 35.976562 24.800781 35.910156 24.730469 C 35.824219 24.640625 35.761719 24.527344 35.753906 24.402344 C 35.734375 24.007812 35.523438 23.714844 35.523438 23.714844 L 35.253906 23.960938 C 35.253906 23.960938 35.066406 23.847656 34.933594 23.550781 C 34.902344 23.480469 34.867188 23.429688 34.828125 23.394531 C 34.738281 23.308594 34.589844 23.398438 34.617188 23.523438 " fill-opacity="1" fill-rule="nonzero"></path><path fill="rgb(0%, 0%, 0%)" d="M 34.746094 23.4375 C 34.734375 23.4375 34.722656 23.441406 34.71875 23.445312 C 34.710938 23.449219 34.683594 23.46875 34.691406 23.503906 C 34.691406 23.503906 34.691406 23.507812 34.695312 23.507812 L 34.8125 24.144531 C 34.839844 24.320312 34.953125 24.472656 35.113281 24.550781 L 35.453125 24.726562 C 35.535156 24.765625 35.582031 24.839844 35.609375 24.890625 C 35.652344 24.96875 35.699219 25.074219 35.730469 25.144531 L 36.035156 24.992188 C 35.976562 24.921875 35.894531 24.824219 35.855469 24.785156 C 35.75 24.671875 35.6875 24.539062 35.679688 24.40625 C 35.667969 24.152344 35.566406 23.941406 35.507812 23.832031 L 35.304688 24.015625 C 35.28125 24.039062 35.242188 24.042969 35.210938 24.027344 C 35.203125 24.019531 35.007812 23.898438 34.863281 23.582031 C 34.839844 23.523438 34.808594 23.480469 34.777344 23.453125 C 34.765625 23.441406 34.753906 23.4375 34.746094 23.4375 Z M 35.691406 25.324219 C 35.683594 25.324219 35.671875 25.324219 35.664062 25.320312 C 35.644531 25.3125 35.628906 25.296875 35.621094 25.277344 C 35.621094 25.273438 35.539062 25.082031 35.472656 24.964844 C 35.445312 24.910156 35.414062 24.878906 35.382812 24.859375 L 35.042969 24.6875 C 34.839844 24.585938 34.699219 24.390625 34.660156 24.171875 L 34.542969 23.535156 C 34.523438 23.449219 34.5625 23.359375 34.640625 23.3125 C 34.722656 23.269531 34.816406 23.277344 34.882812 23.339844 C 34.929688 23.382812 34.96875 23.445312 35.003906 23.519531 C 35.085938 23.707031 35.191406 23.8125 35.25 23.863281 L 35.472656 23.65625 C 35.488281 23.644531 35.507812 23.636719 35.53125 23.636719 C 35.554688 23.640625 35.574219 23.652344 35.585938 23.667969 C 35.59375 23.683594 35.8125 23.988281 35.832031 24.398438 C 35.835938 24.496094 35.882812 24.59375 35.964844 24.679688 C 36.035156 24.75 36.207031 24.957031 36.214844 24.96875 C 36.230469 24.984375 36.234375 25.007812 36.230469 25.03125 C 36.226562 25.054688 36.210938 25.074219 36.191406 25.082031 L 35.726562 25.316406 C 35.714844 25.320312 35.703125 25.324219 35.691406 25.324219 " fill-opacity="1" fill-rule="nonzero"></path><path fill="rgb(0%, 0%, 0%)" d="M 27.867188 43.027344 C 27.585938 43.027344 27.300781 43.019531 27.019531 43 C 26.324219 42.960938 25.628906 42.871094 24.953125 42.730469 C 24.910156 42.722656 24.882812 42.683594 24.894531 42.640625 C 24.902344 42.601562 24.941406 42.574219 24.984375 42.582031 C 25.652344 42.71875 26.34375 42.808594 27.03125 42.851562 C 29.589844 43 32.160156 42.457031 34.460938 41.28125 C 34.496094 41.261719 34.542969 41.277344 34.5625 41.3125 C 34.582031 41.351562 34.566406 41.398438 34.53125 41.417969 C 32.457031 42.476562 30.171875 43.027344 27.867188 43.027344 " fill-opacity="1" fill-rule="nonzero"></path><path fill="rgb(0%, 0%, 0%)" d="M 27.449219 43.871094 C 27.101562 43.871094 26.75 43.863281 26.402344 43.84375 C 25.539062 43.792969 24.671875 43.679688 23.832031 43.507812 C 23.789062 43.496094 23.761719 43.457031 23.773438 43.417969 C 23.78125 43.375 23.820312 43.347656 23.863281 43.355469 C 24.695312 43.527344 25.554688 43.640625 26.410156 43.691406 C 29.597656 43.878906 32.796875 43.203125 35.660156 41.738281 C 35.695312 41.71875 35.742188 41.734375 35.761719 41.769531 C 35.78125 41.808594 35.765625 41.855469 35.730469 41.875 C 33.15625 43.1875 30.3125 43.871094 27.449219 43.871094 " fill-opacity="1" fill-rule="nonzero"></path><path fill="rgb(0%, 0%, 0%)" d="M 39.664062 7.699219 C 39.644531 7.699219 39.628906 7.691406 39.613281 7.679688 C 39.328125 7.449219 39.03125 7.222656 38.730469 7.011719 C 36.636719 5.542969 34.164062 4.65625 31.585938 4.453125 C 31.542969 4.449219 31.511719 4.410156 31.515625 4.371094 C 31.519531 4.328125 31.554688 4.296875 31.597656 4.300781 C 34.203125 4.507812 36.703125 5.402344 38.816406 6.886719 C 39.125 7.101562 39.425781 7.328125 39.710938 7.5625 C 39.742188 7.589844 39.75 7.640625 39.722656 7.671875 C 39.707031 7.691406 39.683594 7.699219 39.664062 7.699219 " fill-opacity="1" fill-rule="nonzero"></path><path fill="rgb(0%, 0%, 0%)" d="M 39.75 6.636719 C 39.734375 6.636719 39.71875 6.628906 39.703125 6.621094 C 37.097656 4.792969 34.019531 3.691406 30.808594 3.4375 C 30.765625 3.433594 30.734375 3.394531 30.738281 3.355469 C 30.742188 3.3125 30.777344 3.28125 30.820312 3.285156 C 34.058594 3.542969 37.164062 4.652344 39.792969 6.496094 C 39.828125 6.519531 39.835938 6.566406 39.8125 6.601562 C 39.796875 6.625 39.773438 6.636719 39.75 6.636719 " fill-opacity="1" fill-rule="nonzero"></path><path fill="rgb(0%, 0%, 0%)" d="M 22.40625 42.4375 C 22.222656 42.4375 22.074219 42.585938 22.074219 42.765625 C 22.074219 42.949219 22.222656 43.09375 22.40625 43.09375 C 22.585938 43.09375 22.734375 42.949219 22.734375 42.765625 C 22.734375 42.585938 22.585938 42.4375 22.40625 42.4375 Z M 22.40625 43.246094 C 22.136719 43.246094 21.921875 43.03125 21.921875 42.765625 C 21.921875 42.503906 22.136719 42.289062 22.40625 42.289062 C 22.671875 42.289062 22.890625 42.503906 22.890625 42.765625 C 22.890625 43.03125 22.671875 43.246094 22.40625 43.246094 " fill-opacity="1" fill-rule="nonzero"></path><path fill="rgb(0%, 0%, 0%)" d="M 46.140625 20.8125 C 46.121094 20.8125 46.101562 20.804688 46.085938 20.792969 L 45.863281 20.570312 C 45.832031 20.539062 45.832031 20.492188 45.863281 20.460938 C 45.890625 20.433594 45.941406 20.433594 45.96875 20.460938 L 46.195312 20.683594 C 46.222656 20.714844 46.222656 20.761719 46.195312 20.792969 C 46.179688 20.804688 46.160156 20.8125 46.140625 20.8125 " fill-opacity="1" fill-rule="nonzero"></path><path fill="rgb(0%, 0%, 0%)" d="M 46.921875 21.585938 C 46.902344 21.585938 46.882812 21.578125 46.867188 21.566406 L 46.644531 21.34375 C 46.613281 21.3125 46.613281 21.265625 46.644531 21.238281 C 46.671875 21.207031 46.722656 21.207031 46.75 21.238281 L 46.972656 21.457031 C 47.003906 21.488281 47.003906 21.535156 46.972656 21.566406 C 46.960938 21.578125 46.941406 21.585938 46.921875 21.585938 " fill-opacity="1" fill-rule="nonzero"></path><path fill="rgb(0%, 0%, 0%)" d="M 45.917969 21.585938 C 45.898438 21.585938 45.875 21.578125 45.863281 21.566406 C 45.832031 21.535156 45.832031 21.488281 45.863281 21.457031 L 46.085938 21.238281 C 46.113281 21.207031 46.164062 21.207031 46.195312 21.238281 C 46.222656 21.265625 46.222656 21.3125 46.195312 21.34375 L 45.96875 21.566406 C 45.957031 21.578125 45.9375 21.585938 45.917969 21.585938 " fill-opacity="1" fill-rule="nonzero"></path><path fill="rgb(0%, 0%, 0%)" d="M 46.695312 20.8125 C 46.675781 20.8125 46.65625 20.804688 46.644531 20.792969 C 46.613281 20.761719 46.613281 20.714844 46.644531 20.683594 L 46.867188 20.460938 C 46.894531 20.433594 46.945312 20.433594 46.972656 20.460938 C 47.003906 20.492188 47.003906 20.539062 46.972656 20.570312 L 46.75 20.792969 C 46.738281 20.804688 46.714844 20.8125 46.695312 20.8125 " fill-opacity="1" fill-rule="nonzero"></path><path fill="rgb(0%, 0%, 0%)" d="M 12.179688 16.3125 C 12.160156 16.3125 12.140625 16.304688 12.125 16.289062 L 11.902344 16.070312 C 11.871094 16.039062 11.871094 15.992188 11.902344 15.960938 C 11.933594 15.929688 11.980469 15.929688 12.011719 15.960938 L 12.234375 16.183594 C 12.265625 16.210938 12.265625 16.261719 12.234375 16.289062 C 12.21875 16.304688 12.199219 16.3125 12.179688 16.3125 " fill-opacity="1" fill-rule="nonzero"></path><path fill="rgb(0%, 0%, 0%)" d="M 12.960938 17.085938 C 12.941406 17.085938 12.921875 17.078125 12.90625 17.0625 L 12.683594 16.84375 C 12.652344 16.8125 12.652344 16.765625 12.683594 16.734375 C 12.714844 16.703125 12.761719 16.703125 12.792969 16.734375 L 13.015625 16.957031 C 13.046875 16.984375 13.046875 17.035156 13.015625 17.0625 C 13 17.078125 12.980469 17.085938 12.960938 17.085938 " fill-opacity="1" fill-rule="nonzero"></path><path fill="rgb(0%, 0%, 0%)" d="M 11.957031 17.085938 C 11.9375 17.085938 11.917969 17.078125 11.902344 17.0625 C 11.871094 17.035156 11.871094 16.984375 11.902344 16.957031 L 12.125 16.734375 C 12.15625 16.703125 12.203125 16.703125 12.234375 16.734375 C 12.265625 16.765625 12.265625 16.8125 12.234375 16.84375 L 12.011719 17.0625 C 11.996094 17.078125 11.976562 17.085938 11.957031 17.085938 " fill-opacity="1" fill-rule="nonzero"></path><path fill="rgb(0%, 0%, 0%)" d="M 12.738281 16.3125 C 12.71875 16.3125 12.699219 16.304688 12.683594 16.289062 C 12.652344 16.261719 12.652344 16.210938 12.683594 16.183594 L 12.90625 15.960938 C 12.9375 15.929688 12.984375 15.929688 13.015625 15.960938 C 13.046875 15.992188 13.046875 16.039062 13.015625 16.070312 L 12.792969 16.289062 C 12.777344 16.304688 12.757812 16.3125 12.738281 16.3125 " fill-opacity="1" fill-rule="nonzero"></path><path fill="rgb(100%, 100%, 100%)" d="M 13.257812 41.730469 L 13.113281 43.050781 L 13.960938 43.046875 L 14.296875 41.675781 L 13.257812 41.730469 " fill-opacity="1" fill-rule="nonzero"></path><path fill="rgb(0%, 0%, 0%)" d="M 13.324219 41.800781 L 13.199219 42.976562 L 13.898438 42.972656 L 14.199219 41.757812 Z M 13.113281 43.128906 C 13.089844 43.128906 13.070312 43.117188 13.054688 43.101562 C 13.042969 43.085938 13.035156 43.066406 13.035156 43.042969 L 13.179688 41.722656 C 13.183594 41.683594 13.214844 41.65625 13.253906 41.652344 L 14.292969 41.597656 C 14.316406 41.597656 14.339844 41.609375 14.355469 41.625 C 14.371094 41.644531 14.378906 41.667969 14.371094 41.691406 L 14.035156 43.066406 C 14.027344 43.101562 13.996094 43.125 13.960938 43.125 L 13.113281 43.128906 " fill-opacity="1" fill-rule="nonzero"></path><path fill="rgb(100%, 100%, 100%)" d="M 8.554688 41.757812 L 8.183594 42.777344 L 8.945312 42.984375 L 9.285156 42.085938 L 8.554688 41.757812 " fill-opacity="1" fill-rule="nonzero"></path><path fill="rgb(0%, 0%, 0%)" d="M 8.28125 42.726562 L 8.898438 42.894531 L 9.1875 42.125 L 8.601562 41.863281 Z M 8.945312 43.058594 C 8.9375 43.058594 8.929688 43.058594 8.925781 43.058594 L 8.164062 42.851562 C 8.140625 42.847656 8.125 42.832031 8.113281 42.8125 C 8.105469 42.792969 8.101562 42.773438 8.109375 42.753906 L 8.484375 41.734375 C 8.492188 41.714844 8.507812 41.699219 8.527344 41.691406 C 8.546875 41.679688 8.566406 41.679688 8.585938 41.691406 L 9.316406 42.015625 C 9.355469 42.03125 9.371094 42.074219 9.359375 42.113281 L 9.015625 43.011719 C 9.003906 43.042969 8.976562 43.058594 8.945312 43.058594 " fill-opacity="1" fill-rule="nonzero"></path><path fill="rgb(16.468811%, 0%, 49.01886%)" d="M 13 42.726562 C 12.972656 42.90625 12.929688 43.242188 12.921875 43.539062 C 12.917969 43.726562 13.054688 43.886719 13.238281 43.914062 C 13.75 43.984375 14.917969 44.070312 15.910156 43.988281 C 15.980469 43.980469 16.101562 43.933594 16.136719 43.757812 C 16.253906 43.164062 15.21875 43.019531 14.109375 42.5625 L 13.914062 42.753906 C 13.808594 42.855469 13.65625 42.882812 13.523438 42.824219 L 13.136719 42.648438 C 13.078125 42.621094 13.007812 42.660156 13 42.726562 " fill-opacity="1" fill-rule="nonzero"></path><path fill="rgb(0%, 0%, 0%)" d="M 13.074219 42.738281 C 13.050781 42.910156 13.007812 43.246094 13 43.542969 C 12.996094 43.691406 13.105469 43.816406 13.25 43.835938 C 13.777344 43.910156 14.921875 43.992188 15.90625 43.914062 C 15.925781 43.910156 16.03125 43.894531 16.058594 43.746094 C 16.132812 43.382812 15.683594 43.207031 14.886719 42.929688 C 14.652344 42.847656 14.390625 42.757812 14.125 42.652344 L 13.964844 42.808594 C 13.839844 42.929688 13.652344 42.964844 13.492188 42.890625 L 13.105469 42.71875 C 13.097656 42.714844 13.09375 42.71875 13.089844 42.71875 C 13.085938 42.722656 13.078125 42.726562 13.074219 42.738281 Z M 15.011719 44.097656 C 14.292969 44.097656 13.605469 44.042969 13.226562 43.988281 C 13.003906 43.957031 12.84375 43.761719 12.847656 43.539062 C 12.851562 43.234375 12.898438 42.894531 12.921875 42.71875 C 12.933594 42.660156 12.964844 42.613281 13.015625 42.585938 C 13.0625 42.558594 13.121094 42.558594 13.171875 42.582031 L 13.554688 42.753906 C 13.65625 42.800781 13.777344 42.777344 13.859375 42.699219 L 14.089844 42.472656 L 14.136719 42.492188 C 14.414062 42.605469 14.691406 42.699219 14.9375 42.785156 C 15.707031 43.054688 16.3125 43.261719 16.210938 43.773438 C 16.167969 43.972656 16.027344 44.054688 15.917969 44.0625 C 15.625 44.089844 15.316406 44.097656 15.011719 44.097656 " fill-opacity="1" fill-rule="nonzero"></path><path fill="rgb(100%, 100%, 100%)" d="M 12.925781 43.496094 C 12.925781 43.496094 12.921875 43.523438 12.921875 43.539062 C 12.917969 43.726562 13.054688 43.886719 13.238281 43.914062 C 13.75 43.984375 14.917969 44.070312 15.910156 43.988281 C 15.980469 43.980469 16.101562 43.933594 16.136719 43.757812 C 16.144531 43.707031 16.140625 43.609375 16.140625 43.609375 L 16.070312 43.613281 C 15.066406 43.652344 14.058594 43.617188 13.058594 43.507812 L 12.925781 43.496094 " fill-opacity="1" fill-rule="nonzero"></path><path fill="rgb(0%, 0%, 0%)" d="M 13 43.578125 C 13.015625 43.710938 13.117188 43.820312 13.25 43.835938 C 13.777344 43.910156 14.921875 43.992188 15.90625 43.914062 C 15.925781 43.910156 16.03125 43.894531 16.058594 43.746094 C 16.0625 43.730469 16.0625 43.710938 16.066406 43.6875 C 15.0625 43.730469 14.046875 43.695312 13.050781 43.585938 Z M 15.011719 44.097656 C 14.292969 44.097656 13.605469 44.042969 13.226562 43.988281 C 13.003906 43.957031 12.84375 43.761719 12.847656 43.539062 L 12.847656 43.492188 C 12.847656 43.472656 12.859375 43.449219 12.875 43.4375 C 12.890625 43.421875 12.910156 43.417969 12.933594 43.417969 L 13.070312 43.433594 C 14.0625 43.542969 15.070312 43.578125 16.066406 43.535156 L 16.136719 43.535156 C 16.179688 43.53125 16.214844 43.5625 16.21875 43.605469 C 16.21875 43.617188 16.222656 43.714844 16.210938 43.773438 C 16.167969 43.972656 16.027344 44.054688 15.917969 44.0625 C 15.625 44.089844 15.316406 44.097656 15.011719 44.097656 " fill-opacity="1" fill-rule="nonzero"></path><path fill="rgb(0%, 0%, 0%)" d="M 14.367188 43.296875 C 14.347656 43.296875 14.328125 43.289062 14.3125 43.277344 C 14.28125 43.246094 14.28125 43.199219 14.3125 43.167969 L 14.667969 42.796875 C 14.699219 42.765625 14.746094 42.765625 14.777344 42.792969 C 14.808594 42.824219 14.808594 42.871094 14.78125 42.902344 L 14.421875 43.273438 C 14.40625 43.289062 14.386719 43.296875 14.367188 43.296875 " fill-opacity="1" fill-rule="nonzero"></path><path fill="rgb(0%, 0%, 0%)" d="M 14.785156 43.414062 C 14.769531 43.414062 14.75 43.40625 14.738281 43.394531 C 14.703125 43.367188 14.699219 43.320312 14.726562 43.289062 L 15.042969 42.898438 C 15.070312 42.863281 15.121094 42.859375 15.152344 42.886719 C 15.1875 42.914062 15.191406 42.960938 15.164062 42.992188 L 14.84375 43.382812 C 14.828125 43.402344 14.808594 43.414062 14.785156 43.414062 " fill-opacity="1" fill-rule="nonzero"></path><path fill="rgb(16.468811%, 0%, 49.01886%)" d="M 8.199219 42.167969 C 8.117188 42.316406 7.921875 42.738281 7.816406 42.996094 C 7.753906 43.160156 7.820312 43.34375 7.96875 43.429688 C 8.394531 43.667969 9.480469 43.933594 10.375 44.199219 C 10.4375 44.21875 10.558594 44.21875 10.644531 44.078125 C 10.945312 43.601562 10.007812 43.199219 9.1875 42.421875 C 9.1875 42.421875 9.121094 42.457031 9.027344 42.480469 C 8.871094 42.515625 8.648438 42.449219 8.53125 42.332031 L 8.347656 42.148438 C 8.304688 42.101562 8.230469 42.113281 8.199219 42.167969 " fill-opacity="1" fill-rule="nonzero"></path><path fill="rgb(0%, 0%, 0%)" d="M 8.199219 42.167969 Z M 8.28125 42.195312 C 8.277344 42.195312 8.269531 42.199219 8.269531 42.203125 C 8.183594 42.351562 7.988281 42.777344 7.890625 43.023438 C 7.839844 43.152344 7.890625 43.296875 8.007812 43.363281 C 8.316406 43.535156 9.011719 43.734375 9.6875 43.921875 C 9.921875 43.992188 10.167969 44.058594 10.398438 44.128906 C 10.414062 44.132812 10.507812 44.152344 10.582031 44.039062 C 10.742188 43.777344 10.441406 43.53125 9.898438 43.113281 C 9.671875 42.9375 9.417969 42.742188 9.171875 42.511719 C 9.140625 42.523438 9.097656 42.539062 9.046875 42.550781 C 8.863281 42.597656 8.613281 42.523438 8.476562 42.386719 L 8.292969 42.199219 C 8.289062 42.199219 8.285156 42.195312 8.28125 42.195312 Z M 10.433594 44.285156 C 10.40625 44.285156 10.378906 44.28125 10.355469 44.273438 C 10.125 44.207031 9.878906 44.136719 9.644531 44.070312 C 8.929688 43.867188 8.257812 43.675781 7.933594 43.496094 C 7.75 43.390625 7.667969 43.167969 7.746094 42.96875 C 7.847656 42.710938 8.046875 42.285156 8.132812 42.132812 C 8.160156 42.085938 8.203125 42.054688 8.257812 42.046875 C 8.3125 42.039062 8.363281 42.054688 8.402344 42.09375 L 8.585938 42.28125 C 8.683594 42.378906 8.882812 42.4375 9.007812 42.40625 C 9.09375 42.382812 9.15625 42.355469 9.15625 42.355469 L 9.203125 42.332031 L 9.242188 42.367188 C 9.492188 42.605469 9.757812 42.8125 9.992188 42.992188 C 10.527344 43.402344 10.953125 43.730469 10.710938 44.117188 C 10.632812 44.242188 10.523438 44.285156 10.433594 44.285156 " fill-opacity="1" fill-rule="nonzero"></path><path fill="rgb(100%, 100%, 100%)" d="M 7.867188 42.894531 C 7.867188 42.894531 7.804688 43.019531 7.761719 43.113281 C 7.757812 43.117188 7.757812 43.121094 7.757812 43.121094 C 7.691406 43.285156 7.828125 43.425781 7.960938 43.535156 C 8.363281 43.867188 10.265625 44.203125 10.265625 44.203125 C 10.265625 44.203125 10.511719 44.273438 10.621094 44.140625 C 10.636719 44.121094 10.648438 44.089844 10.65625 44.0625 C 10.667969 44.03125 10.671875 44 10.671875 43.96875 L 10.675781 43.898438 C 8.144531 43.578125 7.867188 42.894531 7.867188 42.894531 " fill-opacity="1" fill-rule="nonzero"></path><path fill="rgb(0%, 0%, 0%)" d="M 7.878906 43.042969 C 7.863281 43.074219 7.847656 43.113281 7.832031 43.144531 L 7.828125 43.148438 C 7.792969 43.242188 7.847656 43.34375 8.007812 43.476562 C 8.394531 43.792969 10.261719 44.125 10.277344 44.128906 C 10.28125 44.128906 10.285156 44.128906 10.285156 44.132812 C 10.289062 44.132812 10.488281 44.183594 10.558594 44.09375 C 10.5625 44.089844 10.570312 44.078125 10.585938 44.035156 C 10.59375 44.015625 10.597656 43.992188 10.597656 43.96875 L 10.597656 43.964844 C 8.703125 43.714844 8.078125 43.257812 7.878906 43.042969 Z M 10.40625 44.296875 C 10.328125 44.296875 10.265625 44.28125 10.25 44.277344 C 10.132812 44.257812 8.320312 43.929688 7.910156 43.59375 C 7.824219 43.523438 7.589844 43.332031 7.6875 43.09375 C 7.6875 43.089844 7.6875 43.085938 7.691406 43.082031 C 7.734375 42.988281 7.796875 42.863281 7.796875 42.859375 C 7.8125 42.832031 7.839844 42.816406 7.871094 42.816406 C 7.898438 42.820312 7.925781 42.835938 7.9375 42.863281 C 7.945312 42.875 8.269531 43.515625 10.683594 43.820312 C 10.722656 43.828125 10.753906 43.859375 10.75 43.898438 L 10.75 43.972656 C 10.75 44.011719 10.742188 44.050781 10.730469 44.085938 C 10.714844 44.128906 10.699219 44.164062 10.679688 44.1875 C 10.609375 44.277344 10.5 44.296875 10.40625 44.296875 " fill-opacity="1" fill-rule="nonzero"></path><path fill="rgb(0%, 0%, 0%)" d="M 9.179688 42.957031 C 9.152344 42.957031 9.121094 42.941406 9.109375 42.910156 C 9.09375 42.875 9.109375 42.828125 9.148438 42.8125 L 9.472656 42.667969 C 9.511719 42.652344 9.558594 42.667969 9.574219 42.707031 C 9.59375 42.746094 9.574219 42.789062 9.535156 42.808594 L 9.210938 42.949219 C 9.199219 42.957031 9.191406 42.957031 9.179688 42.957031 " fill-opacity="1" fill-rule="nonzero"></path><path fill="rgb(0%, 0%, 0%)" d="M 9.507812 43.199219 C 9.476562 43.199219 9.449219 43.183594 9.4375 43.152344 C 9.421875 43.117188 9.4375 43.070312 9.476562 43.054688 L 9.761719 42.929688 C 9.800781 42.914062 9.84375 42.933594 9.863281 42.972656 C 9.878906 43.007812 9.859375 43.054688 9.820312 43.070312 L 9.539062 43.195312 C 9.527344 43.199219 9.519531 43.199219 9.507812 43.199219 " fill-opacity="1" fill-rule="nonzero"></path><path fill="rgb(0%, 0%, 0%)" d="M 10.417969 30.453125 C 10.417969 30.453125 10.171875 32.15625 10.15625 32.273438 C 10.136719 32.429688 8.492188 41.082031 8.355469 41.785156 C 8.355469 41.785156 9.085938 42.1875 9.535156 42.136719 C 9.535156 42.136719 12.035156 37.621094 12.640625 33.804688 C 13.242188 29.988281 13.109375 30.289062 13.109375 30.289062 L 10.417969 30.453125 " fill-opacity="1" fill-rule="nonzero"></path><path fill="rgb(0%, 0%, 0%)" d="M 11.566406 30.78125 C 11.566406 30.78125 11.320312 32.851562 11.953125 34.359375 C 12.582031 35.867188 13.292969 40.742188 13.054688 42.210938 C 13.054688 42.210938 13.9375 42.5 14.367188 42.351562 C 14.367188 42.351562 16.019531 35.046875 14.589844 30.910156 L 11.566406 30.78125 " fill-opacity="1" fill-rule="nonzero"></path><path fill="rgb(100%, 100%, 100%)" d="M 14.640625 21.972656 L 14.625 21.945312 C 14.5625 21.847656 14.523438 21.734375 14.496094 21.621094 C 14.476562 21.515625 14.445312 21.316406 14.394531 21.269531 C 14.25 21.125 13.671875 20.519531 13.054688 21.019531 C 12.574219 21.410156 12.835938 22.269531 12.9375 22.554688 C 12.960938 22.621094 12.96875 22.691406 12.960938 22.761719 C 12.960938 22.765625 12.960938 22.769531 12.960938 22.773438 L 12.808594 23.539062 C 12.785156 23.652344 12.835938 23.765625 12.929688 23.820312 L 12.984375 23.855469 C 13.101562 23.941406 13.320312 23.941406 13.460938 23.917969 C 13.566406 23.898438 13.640625 23.867188 13.703125 23.808594 C 13.765625 23.75 13.785156 23.695312 13.785156 23.609375 C 13.785156 23.609375 13.808594 22.992188 13.886719 23.019531 C 14.152344 23.109375 14.265625 23.050781 14.363281 22.847656 C 14.425781 22.714844 14.503906 22.515625 14.523438 22.242188 C 14.527344 22.214844 14.539062 22.1875 14.558594 22.167969 L 14.640625 22.078125 C 14.660156 22.046875 14.660156 22.007812 14.640625 21.972656 " fill-opacity="1" fill-rule="nonzero"></path><path fill="rgb(0%, 0%, 0%)" d="M 14.640625 22.078125 Z M 13.5625 20.902344 C 13.417969 20.902344 13.261719 20.949219 13.105469 21.078125 C 12.675781 21.425781 12.894531 22.210938 13.011719 22.53125 C 13.039062 22.605469 13.046875 22.691406 13.035156 22.773438 C 13.035156 22.777344 13.035156 22.785156 13.035156 22.789062 L 12.882812 23.554688 C 12.867188 23.632812 12.902344 23.714844 12.96875 23.757812 L 13.023438 23.789062 C 13.023438 23.789062 13.027344 23.792969 13.027344 23.792969 C 13.121094 23.859375 13.3125 23.863281 13.449219 23.839844 C 13.542969 23.824219 13.601562 23.800781 13.652344 23.753906 C 13.695312 23.714844 13.707031 23.679688 13.707031 23.609375 C 13.730469 23.027344 13.800781 22.976562 13.828125 22.960938 C 13.851562 22.941406 13.882812 22.9375 13.910156 22.949219 C 14.144531 23.027344 14.214844 22.980469 14.296875 22.8125 C 14.382812 22.632812 14.429688 22.445312 14.445312 22.238281 C 14.449219 22.191406 14.46875 22.148438 14.5 22.117188 L 14.578125 22.03125 C 14.578125 22.027344 14.578125 22.019531 14.578125 22.011719 L 14.558594 21.984375 C 14.496094 21.882812 14.449219 21.765625 14.421875 21.636719 L 14.414062 21.585938 C 14.398438 21.515625 14.367188 21.351562 14.339844 21.320312 L 14.324219 21.304688 C 14.203125 21.1875 13.914062 20.902344 13.5625 20.902344 Z M 13.296875 24.007812 C 13.167969 24.007812 13.035156 23.984375 12.941406 23.917969 L 12.890625 23.886719 C 12.769531 23.8125 12.703125 23.667969 12.730469 23.523438 L 12.886719 22.753906 C 12.890625 22.695312 12.886719 22.636719 12.867188 22.582031 C 12.738281 22.230469 12.503906 21.371094 13.007812 20.960938 C 13.4375 20.609375 13.917969 20.691406 14.433594 21.199219 L 14.445312 21.214844 C 14.503906 21.269531 14.53125 21.398438 14.5625 21.558594 L 14.574219 21.605469 C 14.597656 21.714844 14.636719 21.816406 14.691406 21.90625 L 14.707031 21.933594 C 14.742188 21.992188 14.742188 22.066406 14.703125 22.121094 C 14.699219 22.125 14.699219 22.125 14.695312 22.128906 L 14.613281 22.21875 C 14.605469 22.226562 14.601562 22.238281 14.601562 22.25 C 14.582031 22.476562 14.527344 22.679688 14.433594 22.878906 C 14.324219 23.113281 14.175781 23.179688 13.914062 23.109375 C 13.890625 23.199219 13.867188 23.421875 13.859375 23.613281 C 13.859375 23.707031 13.84375 23.785156 13.757812 23.863281 C 13.683594 23.933594 13.601562 23.96875 13.476562 23.992188 C 13.421875 24 13.359375 24.007812 13.296875 24.007812 " fill-opacity="1" fill-rule="nonzero"></path><path fill="rgb(0%, 0%, 0%)" d="M 13.558594 20.285156 C 13.761719 20.308594 13.972656 20.414062 14.078125 20.410156 C 14.246094 20.410156 14.3125 20.234375 14.535156 20.253906 C 14.804688 20.28125 14.875 20.421875 14.917969 20.605469 C 14.925781 20.632812 14.929688 20.667969 14.933594 20.703125 C 14.941406 21.175781 14.671875 21.308594 14.558594 21.34375 C 14.558594 21.34375 13.898438 21.4375 13.773438 21.488281 C 13.65625 21.535156 13.488281 21.679688 13.460938 21.964844 C 13.457031 22 13.429688 22.03125 13.394531 22.039062 C 13.351562 22.046875 13.3125 22.023438 13.300781 21.980469 C 13.265625 21.851562 13.175781 21.589844 13.046875 21.601562 C 12.882812 21.613281 12.777344 22.050781 13.074219 22.210938 C 13.167969 22.257812 13.210938 22.382812 13.167969 22.480469 C 13.136719 22.542969 13.046875 22.601562 12.945312 22.589844 C 12.886719 22.582031 12.839844 22.542969 12.800781 22.492188 C 12.640625 22.292969 12.253906 21.539062 12.355469 21.019531 C 12.480469 20.394531 13.285156 20.25 13.558594 20.285156 " fill-opacity="1" fill-rule="nonzero"></path><path fill="rgb(0%, 0%, 0%)" d="M 13.875 23.082031 C 13.863281 23.082031 13.855469 23.078125 13.847656 23.074219 C 13.835938 23.074219 13.605469 22.980469 13.488281 22.78125 C 13.46875 22.746094 13.480469 22.703125 13.511719 22.683594 C 13.546875 22.664062 13.589844 22.675781 13.609375 22.707031 C 13.703125 22.867188 13.898438 22.945312 13.898438 22.945312 C 13.9375 22.957031 13.953125 23 13.941406 23.035156 C 13.929688 23.0625 13.902344 23.082031 13.875 23.082031 " fill-opacity="1" fill-rule="nonzero"></path><path fill="rgb(16.468811%, 0%, 49.01886%)" d="M 19.480469 27.683594 C 19.660156 27.851562 20.425781 27.191406 20.3125 26.96875 C 20.085938 26.523438 19.144531 25.472656 17.980469 24.804688 C 16.542969 23.980469 15.3125 23.894531 14.300781 23.882812 C 14.195312 23.882812 13.707031 23.445312 12.832031 23.496094 C 12.582031 23.511719 12.335938 23.578125 12.179688 23.777344 C 12.15625 23.808594 12.121094 23.824219 12.085938 23.820312 C 11.066406 23.78125 10.472656 24.101562 10.363281 24.164062 C 9.414062 24.722656 7.273438 26.738281 6.691406 28.378906 C 5.820312 30.84375 6.609375 32.589844 6.933594 33.101562 C 6.984375 33.1875 7.105469 33.1875 7.164062 33.109375 L 7.550781 32.550781 C 7.550781 32.550781 7.339844 31.488281 8.117188 30.039062 C 9.101562 28.203125 11.105469 25.917969 10.566406 29.070312 C 10.496094 29.492188 10.386719 30 10.304688 30.507812 C 10.21875 31.070312 10.386719 31.640625 10.910156 31.828125 C 11.542969 32.058594 12.378906 32 12.699219 31.972656 C 13.242188 31.925781 13.832031 31.878906 14.292969 31.679688 C 14.464844 31.605469 14.652344 31.460938 14.785156 31.351562 C 14.890625 31.261719 14.941406 31.125 14.921875 30.984375 C 14.859375 30.601562 14.75 29.765625 14.789062 29 C 14.824219 28.335938 15.140625 26.367188 15.546875 26.402344 C 15.707031 26.417969 16.898438 26.515625 17.871094 26.785156 C 18.667969 27.003906 19.214844 27.429688 19.480469 27.683594 " fill-opacity="1" fill-rule="nonzero"></path><path fill="rgb(100%, 56.858826%, 30.198669%)" d="M 21.859375 32.226562 L 11.03125 37.628906 C 10.839844 37.726562 10.605469 37.648438 10.507812 37.457031 L 6.648438 29.855469 C 6.550781 29.664062 6.628906 29.433594 6.824219 29.335938 L 17.648438 23.933594 C 17.839844 23.835938 18.078125 23.914062 18.171875 24.105469 L 22.03125 31.707031 C 22.128906 31.898438 22.050781 32.128906 21.859375 32.226562 " fill-opacity="1" fill-rule="nonzero"></path><path fill="rgb(100%, 100%, 100%)" d="M 9.445312 35.289062 L 10.144531 31.519531 C 10.261719 31.011719 10.703125 30.746094 11.164062 30.90625 L 13.039062 31.558594 L 13.820312 30.070312 C 13.925781 29.925781 14.085938 29.847656 14.261719 29.859375 L 21.335938 30.386719 L 21.996094 31.652344 C 22.113281 31.875 22.023438 32.144531 21.800781 32.257812 L 11.226562 37.566406 C 10.957031 37.699219 10.632812 37.59375 10.496094 37.328125 L 9.445312 35.289062 " fill-opacity="1" fill-rule="nonzero"></path><path fill="rgb(100%, 100%, 100%)" d="M 17.441406 26.625 C 17.441406 27.050781 17.09375 27.394531 16.660156 27.394531 C 16.230469 27.394531 15.882812 27.050781 15.882812 26.625 C 15.882812 26.195312 16.230469 25.851562 16.660156 25.851562 C 17.09375 25.851562 17.441406 26.195312 17.441406 26.625 " fill-opacity="1" fill-rule="nonzero"></path><path fill="rgb(0%, 0%, 0%)" d="M 17.824219 23.96875 C 17.777344 23.96875 17.726562 23.980469 17.683594 24.003906 L 6.855469 29.402344 C 6.703125 29.480469 6.640625 29.667969 6.71875 29.820312 L 10.574219 37.421875 C 10.613281 37.496094 10.679688 37.550781 10.757812 37.578125 C 10.835938 37.605469 10.921875 37.597656 10.996094 37.5625 L 21.824219 32.160156 C 21.898438 32.121094 21.953125 32.058594 21.980469 31.980469 C 22.007812 31.898438 22 31.816406 21.960938 31.742188 L 18.105469 24.140625 C 18.066406 24.066406 18.003906 24.011719 17.921875 23.984375 C 17.890625 23.972656 17.855469 23.96875 17.824219 23.96875 Z M 10.855469 37.746094 C 10.808594 37.746094 10.757812 37.738281 10.710938 37.722656 C 10.589844 37.683594 10.496094 37.601562 10.4375 37.492188 L 6.582031 29.890625 C 6.464844 29.660156 6.558594 29.382812 6.789062 29.269531 L 17.613281 23.867188 C 17.726562 23.808594 17.851562 23.800781 17.972656 23.839844 C 18.089844 23.878906 18.1875 23.960938 18.242188 24.070312 L 22.101562 31.671875 C 22.15625 31.78125 22.164062 31.910156 22.125 32.027344 C 22.085938 32.144531 22.003906 32.238281 21.890625 32.296875 L 11.066406 37.695312 C 11 37.730469 10.929688 37.746094 10.855469 37.746094 " fill-opacity="1" fill-rule="nonzero"></path><path fill="rgb(100%, 100%, 100%)" d="M 7.664062 32.390625 C 7.664062 32.390625 8.074219 32.5625 8.203125 32.671875 C 8.332031 32.777344 8.710938 33.089844 8.726562 33.195312 C 8.738281 33.300781 8.570312 33.367188 8.316406 33.164062 C 8.175781 33.050781 8.082031 32.988281 8.023438 32.953125 C 8.007812 32.941406 7.984375 32.964844 7.996094 32.984375 C 8.054688 33.085938 8.175781 33.292969 8.296875 33.386719 C 8.460938 33.519531 8.945312 33.832031 8.835938 34.054688 C 8.734375 34.253906 8.304688 34.160156 7.804688 33.832031 C 7.707031 33.769531 7.621094 33.6875 7.554688 33.59375 C 7.445312 33.445312 7.273438 33.21875 7.152344 33.121094 L 7.664062 32.390625 " fill-opacity="1" fill-rule="nonzero"></path><path fill="rgb(0%, 0%, 0%)" d="M 7.253906 33.109375 C 7.371094 33.222656 7.515625 33.410156 7.617188 33.550781 C 7.683594 33.640625 7.757812 33.714844 7.847656 33.769531 C 8.195312 34 8.527344 34.117188 8.691406 34.074219 C 8.730469 34.0625 8.753906 34.046875 8.765625 34.019531 C 8.835938 33.886719 8.484375 33.621094 8.332031 33.511719 C 8.300781 33.488281 8.273438 33.464844 8.25 33.445312 C 8.121094 33.34375 7.992188 33.136719 7.929688 33.019531 C 7.90625 32.980469 7.914062 32.933594 7.945312 32.902344 C 7.980469 32.871094 8.027344 32.867188 8.066406 32.890625 C 8.121094 32.921875 8.21875 32.988281 8.367188 33.105469 C 8.527344 33.230469 8.621094 33.226562 8.644531 33.210938 C 8.648438 33.210938 8.648438 33.210938 8.648438 33.207031 C 8.636719 33.167969 8.546875 33.058594 8.175781 32.746094 L 8.15625 32.726562 C 8.070312 32.65625 7.828125 32.542969 7.691406 32.484375 Z M 8.617188 34.234375 C 8.402344 34.234375 8.09375 34.113281 7.761719 33.898438 C 7.660156 33.832031 7.570312 33.742188 7.492188 33.640625 C 7.425781 33.550781 7.230469 33.28125 7.101562 33.183594 C 7.070312 33.15625 7.066406 33.113281 7.089844 33.078125 L 7.597656 32.347656 C 7.621094 32.316406 7.660156 32.304688 7.691406 32.320312 C 7.734375 32.339844 8.121094 32.5 8.253906 32.613281 L 8.277344 32.628906 C 8.648438 32.941406 8.789062 33.09375 8.800781 33.1875 C 8.808594 33.253906 8.777344 33.3125 8.71875 33.34375 C 8.609375 33.40625 8.441406 33.359375 8.269531 33.222656 C 8.246094 33.207031 8.226562 33.1875 8.207031 33.171875 C 8.25 33.234375 8.296875 33.289062 8.34375 33.328125 C 8.367188 33.34375 8.394531 33.367188 8.425781 33.390625 C 8.664062 33.570312 9.027344 33.839844 8.902344 34.085938 C 8.871094 34.152344 8.8125 34.199219 8.730469 34.21875 C 8.695312 34.230469 8.660156 34.234375 8.617188 34.234375 " fill-opacity="1" fill-rule="nonzero"></path><path fill="rgb(100%, 100%, 100%)" d="M 19.78125 27.171875 C 19.78125 27.171875 19.925781 27.136719 20.082031 27.078125 C 20.199219 27.039062 20.328125 27.074219 20.40625 27.167969 C 20.40625 27.167969 20.40625 27.167969 20.410156 27.171875 C 20.90625 27.757812 21.125 28.441406 21.046875 28.65625 C 21.042969 28.667969 21.039062 28.675781 21.03125 28.6875 C 20.96875 28.785156 20.871094 28.792969 20.792969 28.707031 C 20.777344 28.691406 20.308594 27.957031 20.308594 27.957031 C 20.273438 27.886719 20.203125 27.875 20.164062 27.945312 L 20.136719 27.996094 C 20.082031 28.113281 19.980469 28.171875 19.917969 28.15625 C 19.847656 28.136719 19.785156 28.078125 19.824219 27.953125 L 19.996094 27.566406 C 20.019531 27.5 19.78125 27.171875 19.78125 27.171875 " fill-opacity="1" fill-rule="nonzero"></path><path fill="rgb(0%, 0%, 0%)" d="M 19.925781 27.558594 L 19.929688 27.558594 Z M 20.371094 27.921875 C 20.550781 28.203125 20.828125 28.636719 20.851562 28.664062 C 20.859375 28.675781 20.882812 28.699219 20.910156 28.695312 C 20.929688 28.695312 20.953125 28.675781 20.972656 28.648438 C 20.976562 28.640625 20.980469 28.636719 20.980469 28.632812 C 21.039062 28.472656 20.867188 27.824219 20.355469 27.214844 C 20.292969 27.140625 20.195312 27.117188 20.105469 27.148438 C 20.027344 27.171875 19.953125 27.195312 19.898438 27.214844 C 20.09375 27.5 20.074219 27.5625 20.066406 27.589844 L 20.0625 27.59375 L 19.890625 27.976562 C 19.882812 28 19.878906 28.035156 19.890625 28.054688 C 19.902344 28.074219 19.921875 28.082031 19.9375 28.085938 C 19.953125 28.089844 20.027344 28.0625 20.074219 27.96875 L 20.101562 27.910156 C 20.128906 27.859375 20.175781 27.824219 20.230469 27.828125 C 20.285156 27.828125 20.339844 27.863281 20.371094 27.921875 Z M 20.90625 28.835938 C 20.847656 28.835938 20.789062 28.808594 20.742188 28.753906 C 20.734375 28.75 20.722656 28.734375 20.25 27.992188 L 20.246094 27.988281 C 20.242188 27.980469 20.234375 27.972656 20.230469 27.96875 C 20.230469 27.972656 20.230469 27.972656 20.226562 27.976562 L 20.199219 28.03125 C 20.136719 28.164062 20.003906 28.25 19.902344 28.222656 C 19.839844 28.207031 19.792969 28.171875 19.765625 28.125 C 19.738281 28.070312 19.734375 28.003906 19.757812 27.929688 L 19.757812 27.921875 L 19.925781 27.550781 C 19.914062 27.5 19.816406 27.339844 19.722656 27.214844 L 19.664062 27.128906 L 19.761719 27.105469 C 19.765625 27.101562 19.90625 27.066406 20.058594 27.011719 C 20.203125 26.964844 20.363281 27.003906 20.460938 27.121094 C 20.949219 27.695312 21.207031 28.417969 21.113281 28.679688 C 21.109375 28.695312 21.101562 28.710938 21.089844 28.726562 C 21.046875 28.792969 20.988281 28.832031 20.921875 28.835938 C 20.917969 28.835938 20.910156 28.835938 20.90625 28.835938 " fill-opacity="1" fill-rule="nonzero"></path></svg>