<svg xmlns="http://www.w3.org/2000/svg" xmlns:xlink="http://www.w3.org/1999/xlink" width="69" viewBox="0 0 51.75 47.25" height="63" preserveAspectRatio="xMidYMid meet"><defs><clipPath id="id1"><path d="M 3 40 L 50.441406 40 L 50.441406 41.765625 L 3 41.765625 Z M 3 40 " clip-rule="nonzero"></path></clipPath><clipPath id="id2"><path d="M 46 33 L 50.441406 33 L 50.441406 37 L 46 37 Z M 46 33 " clip-rule="nonzero"></path></clipPath><clipPath id="id3"><path d="M 2 4.671875 L 10 4.671875 L 10 8 L 2 8 Z M 2 4.671875 " clip-rule="nonzero"></path></clipPath><clipPath id="id4"><path d="M 1.476562 18 L 8 18 L 8 24 L 1.476562 24 Z M 1.476562 18 " clip-rule="nonzero"></path></clipPath></defs><g clip-path="url(#id1)"><path fill="rgb(80.778503%, 43.919373%, 29.798889%)" d="M 3.765625 40.15625 L 50.441406 40.15625 L 50.441406 41.753906 L 3.765625 41.753906 Z M 3.765625 40.15625 " fill-opacity="1" fill-rule="nonzero"></path></g><path fill="rgb(81.959534%, 86.268616%, 97.24884%)" d="M 37.636719 29.652344 C 37.636719 29.707031 37.535156 29.753906 37.328125 29.777344 L 36.800781 29.777344 C 36.59375 29.753906 36.488281 29.707031 36.488281 29.648438 C 36.488281 29.59375 36.59375 29.546875 36.800781 29.523438 L 37.328125 29.523438 C 37.535156 29.546875 37.636719 29.59375 37.636719 29.652344 Z M 37.636719 29.652344 " fill-opacity="1" fill-rule="nonzero"></path><path fill="rgb(81.959534%, 86.268616%, 97.24884%)" d="M 39.933594 29.652344 C 39.933594 29.707031 39.828125 29.753906 39.621094 29.777344 L 39.09375 29.777344 C 38.886719 29.753906 38.785156 29.707031 38.785156 29.648438 C 38.785156 29.59375 38.886719 29.546875 39.09375 29.523438 L 39.621094 29.523438 C 39.828125 29.546875 39.933594 29.59375 39.933594 29.652344 Z M 39.933594 29.652344 " fill-opacity="1" fill-rule="nonzero"></path><path fill="rgb(81.959534%, 86.268616%, 97.24884%)" d="M 42.226562 29.652344 C 42.226562 29.707031 42.125 29.753906 41.917969 29.777344 L 41.390625 29.777344 C 41.183594 29.753906 41.078125 29.707031 41.078125 29.648438 C 41.078125 29.59375 41.183594 29.546875 41.390625 29.523438 L 41.917969 29.523438 C 42.125 29.546875 42.226562 29.59375 42.226562 29.652344 Z M 42.226562 29.652344 " fill-opacity="1" fill-rule="nonzero"></path><path fill="rgb(81.959534%, 86.268616%, 97.24884%)" d="M 44.496094 29.621094 C 44.511719 29.621094 44.527344 29.632812 44.542969 29.648438 L 44.546875 29.65625 L 44.496094 29.699219 C 44.449219 29.734375 44.355469 29.761719 44.210938 29.777344 L 43.683594 29.777344 C 43.476562 29.753906 43.375 29.707031 43.375 29.648438 C 43.375 29.59375 43.476562 29.546875 43.683594 29.523438 L 44.210938 29.523438 C 44.355469 29.539062 44.449219 29.566406 44.496094 29.601562 L 44.445312 29.648438 C 44.460938 29.632812 44.476562 29.621094 44.496094 29.621094 Z M 44.496094 29.621094 " fill-opacity="1" fill-rule="nonzero"></path><path fill="rgb(81.959534%, 86.268616%, 97.24884%)" d="M 44.496094 27.351562 C 44.550781 27.351562 44.601562 27.453125 44.621094 27.660156 L 44.621094 28.179688 C 44.601562 28.386719 44.550781 28.488281 44.496094 28.488281 C 44.4375 28.488281 44.390625 28.386719 44.367188 28.179688 L 44.367188 27.660156 C 44.390625 27.453125 44.4375 27.351562 44.496094 27.351562 Z M 44.496094 27.351562 " fill-opacity="1" fill-rule="nonzero"></path><path fill="rgb(81.959534%, 86.268616%, 97.24884%)" d="M 44.496094 25.082031 C 44.550781 25.082031 44.601562 25.183594 44.621094 25.390625 L 44.621094 25.910156 C 44.601562 26.117188 44.550781 26.21875 44.496094 26.21875 C 44.4375 26.21875 44.390625 26.117188 44.367188 25.910156 L 44.367188 25.390625 C 44.390625 25.183594 44.4375 25.082031 44.496094 25.082031 Z M 44.496094 25.082031 " fill-opacity="1" fill-rule="nonzero"></path><path fill="rgb(81.959534%, 86.268616%, 97.24884%)" d="M 44.496094 22.8125 C 44.550781 22.8125 44.601562 22.914062 44.621094 23.121094 L 44.621094 23.640625 C 44.601562 23.847656 44.550781 23.949219 44.496094 23.949219 C 44.4375 23.949219 44.390625 23.847656 44.367188 23.640625 L 44.367188 23.121094 C 44.390625 22.914062 44.4375 22.8125 44.496094 22.8125 Z M 44.496094 22.8125 " fill-opacity="1" fill-rule="nonzero"></path><path fill="rgb(81.959534%, 86.268616%, 97.24884%)" d="M 44.496094 20.542969 C 44.550781 20.542969 44.601562 20.644531 44.621094 20.851562 L 44.621094 21.371094 C 44.601562 21.578125 44.550781 21.679688 44.496094 21.679688 C 44.4375 21.679688 44.390625 21.578125 44.367188 21.371094 L 44.367188 20.851562 C 44.390625 20.644531 44.4375 20.542969 44.496094 20.542969 Z M 44.496094 20.542969 " fill-opacity="1" fill-rule="nonzero"></path><path fill="rgb(81.959534%, 86.268616%, 97.24884%)" d="M 44.496094 18.277344 C 44.550781 18.277344 44.601562 18.378906 44.621094 18.582031 L 44.621094 19.105469 C 44.601562 19.308594 44.550781 19.410156 44.496094 19.410156 C 44.4375 19.410156 44.390625 19.308594 44.367188 19.105469 L 44.367188 18.582031 C 44.390625 18.378906 44.4375 18.277344 44.496094 18.277344 Z M 44.496094 18.277344 " fill-opacity="1" fill-rule="nonzero"></path><path fill="rgb(81.959534%, 86.268616%, 97.24884%)" d="M 44.496094 16.007812 C 44.550781 16.007812 44.601562 16.109375 44.621094 16.3125 L 44.621094 16.835938 C 44.601562 17.039062 44.550781 17.140625 44.496094 17.140625 C 44.4375 17.140625 44.390625 17.039062 44.367188 16.835938 L 44.367188 16.3125 C 44.390625 16.109375 44.4375 16.007812 44.496094 16.007812 Z M 44.496094 16.007812 " fill-opacity="1" fill-rule="nonzero"></path><path fill="rgb(81.959534%, 86.268616%, 97.24884%)" d="M 42.976562 15.234375 C 42.976562 15.179688 43.078125 15.132812 43.289062 15.109375 L 43.816406 15.109375 C 44.023438 15.132812 44.125 15.179688 44.125 15.238281 C 44.125 15.292969 44.023438 15.339844 43.816406 15.363281 L 43.289062 15.363281 C 43.078125 15.339844 42.976562 15.292969 42.976562 15.234375 Z M 42.976562 15.234375 " fill-opacity="1" fill-rule="nonzero"></path><path fill="rgb(81.959534%, 86.268616%, 97.24884%)" d="M 40.683594 15.234375 C 40.683594 15.179688 40.785156 15.132812 40.992188 15.109375 L 41.519531 15.109375 C 41.726562 15.132812 41.828125 15.179688 41.828125 15.238281 C 41.828125 15.292969 41.726562 15.339844 41.519531 15.363281 L 40.992188 15.363281 C 40.785156 15.339844 40.683594 15.292969 40.683594 15.234375 Z M 40.683594 15.234375 " fill-opacity="1" fill-rule="nonzero"></path><path fill="rgb(81.959534%, 86.268616%, 97.24884%)" d="M 38.386719 15.234375 C 38.386719 15.179688 38.488281 15.132812 38.695312 15.109375 L 39.226562 15.109375 C 39.433594 15.132812 39.535156 15.179688 39.535156 15.238281 C 39.535156 15.292969 39.433594 15.339844 39.226562 15.363281 L 38.695312 15.363281 C 38.488281 15.339844 38.386719 15.292969 38.386719 15.234375 Z M 38.386719 15.234375 " fill-opacity="1" fill-rule="nonzero"></path><path fill="rgb(81.959534%, 86.268616%, 97.24884%)" d="M 36.09375 15.234375 C 36.09375 15.179688 36.195312 15.132812 36.402344 15.109375 L 36.929688 15.109375 C 37.136719 15.132812 37.238281 15.179688 37.238281 15.238281 C 37.238281 15.292969 37.136719 15.339844 36.929688 15.363281 L 36.402344 15.363281 C 36.195312 15.339844 36.09375 15.292969 36.09375 15.234375 Z M 36.09375 15.234375 " fill-opacity="1" fill-rule="nonzero"></path><path fill="rgb(81.959534%, 86.268616%, 97.24884%)" d="M 33.796875 15.234375 C 33.796875 15.179688 33.898438 15.132812 34.105469 15.109375 L 34.632812 15.109375 C 34.84375 15.132812 34.945312 15.179688 34.945312 15.238281 C 34.945312 15.292969 34.84375 15.339844 34.632812 15.363281 L 34.105469 15.363281 C 33.898438 15.339844 33.796875 15.292969 33.796875 15.234375 Z M 33.796875 15.234375 " fill-opacity="1" fill-rule="nonzero"></path><path fill="rgb(81.959534%, 86.268616%, 97.24884%)" d="M 31.5 15.234375 C 31.5 15.179688 31.605469 15.132812 31.8125 15.109375 L 32.339844 15.109375 C 32.546875 15.132812 32.648438 15.179688 32.648438 15.238281 C 32.648438 15.292969 32.546875 15.339844 32.339844 15.363281 L 31.8125 15.363281 C 31.605469 15.339844 31.5 15.292969 31.5 15.234375 Z M 31.5 15.234375 " fill-opacity="1" fill-rule="nonzero"></path><path fill="rgb(81.959534%, 86.268616%, 97.24884%)" d="M 29.207031 15.234375 C 29.207031 15.179688 29.308594 15.132812 29.515625 15.109375 L 30.042969 15.109375 C 30.25 15.132812 30.355469 15.179688 30.355469 15.238281 C 30.355469 15.292969 30.25 15.339844 30.042969 15.363281 L 29.515625 15.363281 C 29.308594 15.339844 29.207031 15.292969 29.207031 15.234375 Z M 29.207031 15.234375 " fill-opacity="1" fill-rule="nonzero"></path><path fill="rgb(81.959534%, 86.268616%, 97.24884%)" d="M 27.335938 14.816406 C 27.363281 14.816406 27.390625 14.84375 27.414062 14.894531 C 27.425781 14.917969 27.433594 14.949219 27.441406 14.988281 C 27.445312 15.007812 27.449219 15.03125 27.457031 15.050781 C 27.457031 15.0625 27.457031 15.074219 27.460938 15.085938 C 27.460938 15.097656 27.464844 15.113281 27.464844 15.109375 L 27.75 15.109375 C 27.957031 15.132812 28.058594 15.179688 28.058594 15.238281 C 28.058594 15.292969 27.957031 15.339844 27.75 15.363281 L 27.207031 15.363281 L 27.207031 15.136719 C 27.210938 15.105469 27.210938 15.097656 27.210938 15.085938 C 27.214844 15.074219 27.214844 15.0625 27.21875 15.050781 C 27.222656 15.03125 27.226562 15.007812 27.230469 14.988281 C 27.238281 14.949219 27.25 14.917969 27.261719 14.894531 C 27.28125 14.84375 27.308594 14.816406 27.335938 14.816406 Z M 27.335938 14.816406 " fill-opacity="1" fill-rule="nonzero"></path><path fill="rgb(81.959534%, 86.268616%, 97.24884%)" d="M 27.335938 12.546875 C 27.390625 12.546875 27.441406 12.648438 27.464844 12.855469 L 27.464844 13.375 C 27.441406 13.582031 27.390625 13.683594 27.335938 13.683594 C 27.28125 13.683594 27.230469 13.582031 27.207031 13.375 L 27.207031 12.855469 C 27.230469 12.648438 27.28125 12.546875 27.335938 12.546875 Z M 27.335938 12.546875 " fill-opacity="1" fill-rule="nonzero"></path><path fill="rgb(81.959534%, 86.268616%, 97.24884%)" d="M 27.335938 10.277344 C 27.390625 10.277344 27.441406 10.378906 27.464844 10.585938 L 27.464844 11.105469 C 27.441406 11.3125 27.390625 11.414062 27.335938 11.414062 C 27.28125 11.414062 27.230469 11.3125 27.207031 11.105469 L 27.207031 10.585938 C 27.230469 10.378906 27.28125 10.277344 27.335938 10.277344 Z M 27.335938 10.277344 " fill-opacity="1" fill-rule="nonzero"></path><path fill="rgb(81.959534%, 86.268616%, 97.24884%)" d="M 27.335938 8.007812 C 27.390625 8.007812 27.441406 8.109375 27.464844 8.316406 L 27.464844 8.835938 C 27.441406 9.042969 27.390625 9.144531 27.335938 9.144531 C 27.28125 9.144531 27.230469 9.042969 27.207031 8.835938 L 27.207031 8.316406 C 27.230469 8.109375 27.28125 8.007812 27.335938 8.007812 Z M 27.335938 8.007812 " fill-opacity="1" fill-rule="nonzero"></path><path fill="rgb(81.959534%, 86.268616%, 97.24884%)" d="M 26.71875 6.347656 C 26.71875 6.292969 26.824219 6.246094 27.03125 6.222656 L 27.464844 6.222656 L 27.464844 6.570312 C 27.441406 6.773438 27.390625 6.875 27.335938 6.875 C 27.28125 6.875 27.230469 6.773438 27.207031 6.570312 L 27.207031 6.476562 L 27.03125 6.476562 C 26.824219 6.453125 26.71875 6.40625 26.71875 6.347656 Z M 26.71875 6.347656 " fill-opacity="1" fill-rule="nonzero"></path><path fill="rgb(81.959534%, 86.268616%, 97.24884%)" d="M 24.425781 6.347656 C 24.425781 6.292969 24.527344 6.246094 24.734375 6.222656 L 25.261719 6.222656 C 25.46875 6.246094 25.570312 6.292969 25.570312 6.351562 C 25.570312 6.40625 25.46875 6.453125 25.261719 6.476562 L 24.734375 6.476562 C 24.527344 6.453125 24.425781 6.40625 24.425781 6.347656 Z M 24.425781 6.347656 " fill-opacity="1" fill-rule="nonzero"></path><path fill="rgb(81.959534%, 86.268616%, 97.24884%)" d="M 22.128906 6.347656 C 22.128906 6.292969 22.230469 6.246094 22.441406 6.222656 L 22.96875 6.222656 C 23.175781 6.246094 23.277344 6.292969 23.277344 6.351562 C 23.277344 6.40625 23.175781 6.453125 22.96875 6.476562 L 22.441406 6.476562 C 22.230469 6.453125 22.128906 6.40625 22.128906 6.347656 Z M 22.128906 6.347656 " fill-opacity="1" fill-rule="nonzero"></path><path fill="rgb(81.959534%, 86.268616%, 97.24884%)" d="M 19.835938 6.347656 C 19.835938 6.292969 19.9375 6.246094 20.144531 6.222656 L 20.671875 6.222656 C 20.878906 6.246094 20.980469 6.292969 20.980469 6.351562 C 20.980469 6.40625 20.878906 6.453125 20.671875 6.476562 L 20.144531 6.476562 C 19.9375 6.453125 19.835938 6.40625 19.835938 6.347656 Z M 19.835938 6.347656 " fill-opacity="1" fill-rule="nonzero"></path><path fill="rgb(81.959534%, 86.268616%, 97.24884%)" d="M 17.539062 6.347656 C 17.539062 6.292969 17.640625 6.246094 17.847656 6.222656 L 18.375 6.222656 C 18.585938 6.246094 18.6875 6.292969 18.6875 6.351562 C 18.6875 6.40625 18.585938 6.453125 18.375 6.476562 L 17.847656 6.476562 C 17.640625 6.453125 17.539062 6.40625 17.539062 6.347656 Z M 17.539062 6.347656 " fill-opacity="1" fill-rule="nonzero"></path><path fill="rgb(81.959534%, 86.268616%, 97.24884%)" d="M 15.246094 6.347656 C 15.246094 6.292969 15.347656 6.246094 15.554688 6.222656 L 16.082031 6.222656 C 16.289062 6.246094 16.390625 6.292969 16.390625 6.351562 C 16.390625 6.40625 16.289062 6.453125 16.082031 6.476562 L 15.554688 6.476562 C 15.347656 6.453125 15.246094 6.40625 15.246094 6.347656 Z M 15.246094 6.347656 " fill-opacity="1" fill-rule="nonzero"></path><path fill="rgb(81.959534%, 86.268616%, 97.24884%)" d="M 12.949219 6.347656 C 12.949219 6.292969 13.050781 6.246094 13.257812 6.222656 L 13.785156 6.222656 C 13.992188 6.246094 14.097656 6.292969 14.097656 6.351562 C 14.097656 6.40625 13.992188 6.453125 13.785156 6.476562 L 13.257812 6.476562 C 13.050781 6.453125 12.949219 6.40625 12.949219 6.347656 Z M 12.949219 6.347656 " fill-opacity="1" fill-rule="nonzero"></path><path fill="rgb(81.959534%, 86.268616%, 97.24884%)" d="M 10.652344 6.347656 C 10.652344 6.292969 10.757812 6.246094 10.964844 6.222656 L 11.492188 6.222656 C 11.699219 6.246094 11.800781 6.292969 11.800781 6.351562 C 11.800781 6.40625 11.699219 6.453125 11.492188 6.476562 L 10.964844 6.476562 C 10.757812 6.453125 10.652344 6.40625 10.652344 6.347656 Z M 10.652344 6.347656 " fill-opacity="1" fill-rule="nonzero"></path><path fill="rgb(81.959534%, 86.268616%, 97.24884%)" d="M 8.359375 6.347656 C 8.359375 6.292969 8.460938 6.246094 8.667969 6.222656 L 9.195312 6.222656 C 9.402344 6.246094 9.507812 6.292969 9.507812 6.351562 C 9.507812 6.40625 9.402344 6.453125 9.195312 6.476562 L 8.667969 6.476562 C 8.460938 6.453125 8.359375 6.40625 8.359375 6.347656 Z M 8.359375 6.347656 " fill-opacity="1" fill-rule="nonzero"></path><path fill="rgb(81.959534%, 86.268616%, 97.24884%)" d="M 6.0625 6.347656 C 6.0625 6.292969 6.167969 6.246094 6.375 6.222656 L 6.902344 6.222656 C 7.109375 6.246094 7.210938 6.292969 7.210938 6.351562 C 7.210938 6.40625 7.109375 6.453125 6.902344 6.476562 L 6.375 6.476562 C 6.167969 6.453125 6.0625 6.40625 6.0625 6.347656 Z M 6.0625 6.347656 " fill-opacity="1" fill-rule="nonzero"></path><path fill="rgb(81.959534%, 86.268616%, 97.24884%)" d="M 4.285156 6.859375 C 4.230469 6.859375 4.179688 6.757812 4.15625 6.554688 L 4.15625 6.222656 L 4.605469 6.222656 C 4.8125 6.246094 4.917969 6.292969 4.917969 6.351562 C 4.917969 6.40625 4.8125 6.453125 4.605469 6.476562 L 4.414062 6.476562 L 4.414062 6.554688 C 4.390625 6.757812 4.339844 6.859375 4.285156 6.859375 Z M 4.285156 6.859375 " fill-opacity="1" fill-rule="nonzero"></path><path fill="rgb(81.959534%, 86.268616%, 97.24884%)" d="M 4.285156 9.128906 C 4.230469 9.128906 4.179688 9.027344 4.15625 8.824219 L 4.15625 8.300781 C 4.179688 8.097656 4.230469 7.996094 4.285156 7.996094 C 4.339844 7.996094 4.390625 8.097656 4.414062 8.300781 L 4.414062 8.824219 C 4.390625 9.027344 4.339844 9.128906 4.285156 9.128906 Z M 4.285156 9.128906 " fill-opacity="1" fill-rule="nonzero"></path><path fill="rgb(81.959534%, 86.268616%, 97.24884%)" d="M 4.285156 11.398438 C 4.230469 11.398438 4.179688 11.296875 4.15625 11.09375 L 4.15625 10.570312 C 4.179688 10.367188 4.230469 10.265625 4.285156 10.265625 C 4.339844 10.265625 4.390625 10.367188 4.414062 10.570312 L 4.414062 11.09375 C 4.390625 11.296875 4.339844 11.398438 4.285156 11.398438 Z M 4.285156 11.398438 " fill-opacity="1" fill-rule="nonzero"></path><path fill="rgb(81.959534%, 86.268616%, 97.24884%)" d="M 4.285156 13.667969 C 4.230469 13.667969 4.179688 13.566406 4.15625 13.363281 L 4.15625 12.839844 C 4.179688 12.636719 4.230469 12.535156 4.285156 12.535156 C 4.339844 12.535156 4.390625 12.636719 4.414062 12.839844 L 4.414062 13.363281 C 4.390625 13.566406 4.339844 13.667969 4.285156 13.667969 Z M 4.285156 13.667969 " fill-opacity="1" fill-rule="nonzero"></path><path fill="rgb(81.959534%, 86.268616%, 97.24884%)" d="M 4.285156 15.9375 C 4.230469 15.9375 4.179688 15.835938 4.15625 15.632812 L 4.15625 15.109375 C 4.179688 14.90625 4.230469 14.804688 4.285156 14.804688 C 4.339844 14.804688 4.390625 14.90625 4.414062 15.109375 L 4.414062 15.632812 C 4.390625 15.835938 4.339844 15.9375 4.285156 15.9375 Z M 4.285156 15.9375 " fill-opacity="1" fill-rule="nonzero"></path><path fill="rgb(81.959534%, 86.268616%, 97.24884%)" d="M 4.285156 18.207031 C 4.230469 18.207031 4.179688 18.105469 4.15625 17.898438 L 4.15625 17.378906 C 4.179688 17.171875 4.230469 17.070312 4.285156 17.070312 C 4.339844 17.070312 4.390625 17.171875 4.414062 17.378906 L 4.414062 17.898438 C 4.390625 18.105469 4.339844 18.207031 4.285156 18.207031 Z M 4.285156 18.207031 " fill-opacity="1" fill-rule="nonzero"></path><path fill="rgb(81.959534%, 86.268616%, 97.24884%)" d="M 4.285156 20.476562 C 4.230469 20.476562 4.179688 20.375 4.15625 20.167969 L 4.15625 19.648438 C 4.179688 19.441406 4.230469 19.339844 4.285156 19.339844 C 4.339844 19.339844 4.390625 19.441406 4.414062 19.648438 L 4.414062 20.167969 C 4.390625 20.375 4.339844 20.476562 4.285156 20.476562 Z M 4.285156 20.476562 " fill-opacity="1" fill-rule="nonzero"></path><path fill="rgb(99.609375%, 78.819275%, 67.449951%)" d="M 28.609375 27.5625 C 28.609375 27.5625 30.367188 29.546875 30.628906 29.472656 C 30.890625 29.394531 34.195312 24.484375 34.195312 24.484375 C 34.195312 24.484375 33.765625 22.324219 34.359375 22.441406 C 34.953125 22.558594 34.90625 23.570312 34.90625 23.570312 C 34.90625 23.570312 36.714844 20.070312 37.449219 21.761719 C 38.1875 23.453125 36.238281 25.214844 36.238281 25.214844 C 36.238281 25.214844 33.527344 34.703125 30.726562 34.929688 C 27.921875 35.152344 25.578125 31.507812 25.578125 31.507812 L 25.578125 29.863281 Z M 28.609375 27.5625 " fill-opacity="1" fill-rule="nonzero"></path><path fill="rgb(99.609375%, 78.819275%, 67.449951%)" d="M 9.640625 33.742188 C 9.621094 33.757812 9.121094 34.238281 9.121094 34.238281 L 4.558594 32.875 L 4.289062 32.792969 C 4.195312 31.171875 5.921875 29.433594 6.472656 29.03125 C 6.957031 30.546875 7.949219 32.464844 9.320312 33.515625 C 9.425781 33.597656 9.53125 33.671875 9.640625 33.742188 Z M 9.640625 33.742188 " fill-opacity="1" fill-rule="nonzero"></path><path fill="rgb(100%, 67.059326%, 56.469727%)" d="M 9.320312 33.515625 C 9.179688 33.429688 9.035156 33.351562 8.886719 33.277344 C 8.324219 33.007812 7.722656 32.824219 7.105469 32.730469 C 6.410156 32.625 5.695312 32.632812 5.007812 32.769531 C 4.855469 32.796875 4.707031 32.835938 4.558594 32.875 L 4.289062 32.792969 C 4.195312 31.171875 5.921875 29.433594 6.472656 29.03125 C 6.957031 30.546875 7.949219 32.464844 9.320312 33.515625 Z M 9.320312 33.515625 " fill-opacity="0.498" fill-rule="nonzero"></path><path fill="rgb(39.219666%, 82.749939%, 100%)" d="M 28.902344 27.363281 C 28.433594 30.402344 25.578125 31.507812 25.578125 31.507812 L 25.578125 40.183594 L 9.640625 40.183594 L 9.835938 36.5 L 9.96875 33.972656 C 9.960938 33.96875 9.953125 33.964844 9.945312 33.960938 C 9.742188 33.859375 9.550781 33.75 9.367188 33.632812 C 7.832031 32.652344 6.847656 31.105469 6.328125 29.472656 C 6.253906 29.242188 6.191406 29.007812 6.136719 28.773438 C 6.136719 28.773438 6.203125 28.652344 6.335938 28.441406 C 7.230469 27.027344 11.074219 21.578125 17.304688 21.578125 C 21.28125 21.578125 24.039062 22.773438 25.867188 24.078125 C 28.054688 25.640625 28.902344 27.363281 28.902344 27.363281 Z M 28.902344 27.363281 " fill-opacity="1" fill-rule="nonzero"></path><path fill="rgb(7.449341%, 69.40918%, 88.62915%)" d="M 12.484375 29.378906 C 12.390625 29.394531 12.121094 30.046875 12.066406 30.148438 C 11.929688 30.402344 11.789062 30.65625 11.648438 30.914062 C 11.152344 31.828125 10.652344 32.746094 10.152344 33.660156 C 10.097656 33.761719 10.027344 33.863281 9.945312 33.960938 C 9.742188 33.859375 9.550781 33.75 9.367188 33.632812 C 7.832031 32.652344 6.847656 31.105469 6.328125 29.472656 C 6.253906 29.242188 6.191406 29.007812 6.136719 28.773438 C 6.136719 28.773438 6.203125 28.652344 6.335938 28.441406 C 8.238281 29.332031 10.402344 29.675781 12.484375 29.378906 Z M 12.484375 29.378906 " fill-opacity="1" fill-rule="nonzero"></path><path fill="rgb(7.449341%, 69.40918%, 88.62915%)" d="M 28.902344 27.363281 C 28.433594 30.402344 25.578125 31.507812 25.578125 31.507812 L 25.578125 40.1875 L 9.640625 40.1875 L 9.835938 36.5 C 13.234375 38.433594 22.511719 34.9375 25.867188 24.078125 C 28.054688 25.640625 28.902344 27.363281 28.902344 27.363281 Z M 28.902344 27.363281 " fill-opacity="1" fill-rule="nonzero"></path><path fill="rgb(99.609375%, 78.819275%, 67.449951%)" d="M 17.136719 23.160156 C 14.261719 22.851562 15.425781 21.492188 15.425781 21.492188 C 15.847656 21.171875 15.929688 20.472656 15.882812 19.882812 C 15.851562 19.5625 15.785156 19.273438 15.714844 19.097656 C 16.328125 19.75 17.28125 19.847656 18.734375 19.617188 C 19.003906 19.574219 19.242188 19.898438 19.453125 19.757812 C 19.449219 19.832031 19.449219 19.9375 19.453125 20.066406 C 19.46875 20.546875 19.613281 21.265625 20.082031 21.582031 C 21.925781 22.824219 19.710938 23.441406 17.136719 23.160156 Z M 17.136719 23.160156 " fill-opacity="1" fill-rule="nonzero"></path><path fill="rgb(100%, 67.059326%, 56.469727%)" d="M 19.453125 20.066406 C 19.390625 20.117188 19.328125 20.167969 19.261719 20.214844 C 19.050781 20.355469 18.8125 20.453125 18.542969 20.496094 C 17.347656 20.683594 16.488281 20.367188 15.882812 19.882812 C 15.851562 19.5625 15.785156 19.273438 15.714844 19.097656 C 16.328125 19.75 17.28125 19.847656 18.734375 19.617188 C 19.003906 19.574219 19.242188 19.898438 19.453125 19.757812 C 19.449219 19.832031 19.449219 19.9375 19.453125 20.066406 Z M 19.453125 20.066406 " fill-opacity="0.498" fill-rule="nonzero"></path><path fill="rgb(99.609375%, 78.819275%, 67.449951%)" d="M 19.46875 19.757812 C 19.257812 19.898438 19.019531 19.996094 18.75 20.039062 C 17.296875 20.269531 16.34375 19.75 15.730469 19.097656 L 15.726562 19.097656 C 15.066406 18.398438 14.800781 17.546875 14.738281 17.316406 C 14.726562 17.277344 14.722656 17.257812 14.722656 17.257812 C 14.722656 17.257812 15.65625 16.214844 15.855469 15.816406 C 15.855469 15.816406 15.855469 15.816406 15.855469 15.8125 C 15.882812 15.761719 15.898438 15.726562 15.894531 15.699219 L 15.894531 15.667969 C 16.027344 15.210938 16.539062 13.859375 18.066406 13.585938 C 18.0625 13.582031 18.0625 13.582031 18.0625 13.582031 C 16.527344 13.851562 16.011719 15.210938 15.878906 15.667969 C 15.871094 15.28125 15.960938 12.445312 17.636719 12.273438 C 19.128906 12.117188 20.441406 13.570312 20.839844 14.042969 C 20.84375 14.042969 20.851562 14.042969 20.859375 14.042969 C 20.933594 14.136719 20.976562 14.191406 20.976562 14.191406 C 20.976562 14.191406 21.253906 18.550781 19.46875 19.757812 Z M 19.46875 19.757812 " fill-opacity="1" fill-rule="nonzero"></path><path fill="rgb(22.749329%, 25.489807%, 27.449036%)" d="M 22.292969 12.585938 C 22 13.875 21.417969 14.101562 20.839844 14.042969 C 20.277344 13.992188 19.722656 13.667969 19.449219 13.816406 C 18.90625 14.109375 17.980469 14.058594 17.980469 14.058594 C 18.421875 13.785156 18.0625 13.582031 18.0625 13.582031 C 16.527344 13.851562 16.007812 15.210938 15.878906 15.667969 C 15.855469 15.742188 15.84375 15.792969 15.839844 15.8125 C 15.839844 15.8125 15.839844 15.8125 15.839844 15.816406 C 15.640625 16.214844 14.707031 17.257812 14.707031 17.257812 C 14.707031 17.257812 14.710938 17.277344 14.722656 17.316406 C 14.675781 17.242188 13.175781 16.199219 13.183594 13.175781 C 13.1875 11.324219 14.890625 9.074219 16.804688 9.429688 C 17.171875 9.5 17.617188 9.5625 18.097656 9.636719 C 18.746094 9.742188 19.457031 9.871094 20.109375 10.0625 C 21.496094 10.472656 22.609375 11.175781 22.292969 12.585938 Z M 22.292969 12.585938 " fill-opacity="1" fill-rule="nonzero"></path><path fill="rgb(30.979919%, 17.649841%, 16.859436%)" d="M 17.207031 18.375 C 17.242188 18.34375 17.359375 18.453125 17.625 18.59375 C 17.84375 18.722656 18.097656 18.792969 18.355469 18.796875 C 18.65625 18.816406 18.8125 18.78125 18.824219 18.828125 C 18.839844 18.859375 18.695312 18.972656 18.351562 18.988281 C 18.0625 18.984375 17.773438 18.902344 17.527344 18.757812 C 17.242188 18.566406 17.179688 18.394531 17.207031 18.375 Z M 17.207031 18.375 " fill-opacity="1" fill-rule="nonzero"></path><path fill="rgb(30.979919%, 17.649841%, 16.859436%)" d="M 18.558594 18.078125 C 18.558594 18.054688 18.609375 18.042969 18.703125 18.035156 C 18.792969 18.019531 18.9375 18.015625 19.039062 17.910156 C 19.136719 17.820312 19.125 17.734375 19.027344 17.601562 C 18.929688 17.464844 18.851562 17.304688 18.800781 17.140625 C 18.75 16.945312 18.753906 16.789062 18.769531 16.691406 C 18.785156 16.59375 18.808594 16.546875 18.828125 16.550781 C 18.878906 16.550781 18.867188 16.746094 18.984375 17.085938 C 19.03125 17.230469 19.097656 17.367188 19.1875 17.496094 C 19.230469 17.5625 19.292969 17.644531 19.300781 17.761719 C 19.304688 17.878906 19.246094 17.984375 19.171875 18.050781 C 19.078125 18.128906 18.972656 18.15625 18.890625 18.160156 C 18.808594 18.167969 18.746094 18.15625 18.695312 18.148438 C 18.597656 18.125 18.554688 18.097656 18.558594 18.078125 Z M 18.558594 18.078125 " fill-opacity="1" fill-rule="nonzero"></path><path fill="rgb(30.979919%, 17.649841%, 16.859436%)" d="M 20.011719 15.0625 C 19.984375 15.097656 19.902344 15.0625 19.761719 15.039062 C 19.640625 15.007812 19.511719 15.019531 19.402344 15.074219 C 19.265625 15.121094 19.191406 15.167969 19.15625 15.140625 C 19.128906 15.121094 19.148438 15.007812 19.316406 14.902344 C 19.46875 14.828125 19.648438 14.8125 19.808594 14.855469 C 20 14.929688 20.039062 15.035156 20.011719 15.0625 Z M 20.011719 15.0625 " fill-opacity="1" fill-rule="nonzero"></path><path fill="rgb(30.979919%, 17.649841%, 16.859436%)" d="M 16.828125 15.753906 C 16.792969 15.753906 16.742188 15.628906 16.855469 15.425781 C 16.96875 15.265625 17.15625 15.160156 17.351562 15.144531 C 17.589844 15.148438 17.671875 15.253906 17.652344 15.285156 C 17.632812 15.328125 17.535156 15.304688 17.371094 15.335938 C 17.226562 15.347656 17.097656 15.421875 17.015625 15.539062 C 16.902344 15.664062 16.875 15.757812 16.828125 15.753906 Z M 16.828125 15.753906 " fill-opacity="1" fill-rule="nonzero"></path><path fill="rgb(30.979919%, 17.649841%, 16.859436%)" d="M 20.109375 16.191406 C 20.109375 16.3125 20.078125 16.417969 20.015625 16.503906 C 19.957031 16.589844 19.882812 16.632812 19.800781 16.632812 C 19.714844 16.632812 19.640625 16.589844 19.582031 16.503906 C 19.519531 16.417969 19.488281 16.3125 19.488281 16.191406 C 19.488281 16.066406 19.519531 15.964844 19.582031 15.878906 C 19.640625 15.789062 19.714844 15.746094 19.800781 15.746094 C 19.882812 15.746094 19.957031 15.789062 20.015625 15.878906 C 20.078125 15.964844 20.109375 16.066406 20.109375 16.191406 Z M 20.109375 16.191406 " fill-opacity="1" fill-rule="nonzero"></path><path fill="rgb(30.979919%, 17.649841%, 16.859436%)" d="M 17.859375 16.375 C 17.859375 16.496094 17.828125 16.601562 17.765625 16.6875 C 17.707031 16.773438 17.632812 16.816406 17.550781 16.816406 C 17.464844 16.816406 17.390625 16.773438 17.332031 16.6875 C 17.269531 16.601562 17.242188 16.496094 17.242188 16.375 C 17.242188 16.25 17.269531 16.148438 17.332031 16.058594 C 17.390625 15.972656 17.464844 15.929688 17.550781 15.929688 C 17.632812 15.929688 17.707031 15.972656 17.765625 16.058594 C 17.828125 16.148438 17.859375 16.25 17.859375 16.375 Z M 17.859375 16.375 " fill-opacity="1" fill-rule="nonzero"></path><path fill="rgb(100%, 100%, 100%)" d="M 7.097656 28.960938 C 7.160156 28.941406 7.304688 29.375 7.769531 30.148438 C 8.152344 30.8125 8.652344 31.410156 9.238281 31.90625 C 9.921875 32.503906 10.324219 32.722656 10.292969 32.78125 C 10.273438 32.820312 9.8125 32.683594 9.070312 32.097656 C 8.460938 31.585938 7.941406 30.964844 7.546875 30.277344 C 7.105469 29.445312 7.054688 28.972656 7.097656 28.960938 Z M 7.097656 28.960938 " fill-opacity="1" fill-rule="nonzero"></path><path fill="rgb(29.019165%, 32.159424%, 34.509277%)" d="M 26.0625 29.863281 C 26.03125 29.804688 26.328125 29.667969 26.765625 29.230469 C 27.148438 28.867188 27.425781 28.402344 27.566406 27.898438 C 27.75 27.308594 27.730469 26.984375 27.796875 26.984375 C 27.839844 26.976562 27.964844 27.308594 27.816406 27.96875 C 27.664062 28.515625 27.359375 29.015625 26.945312 29.410156 C 26.429688 29.855469 26.074219 29.90625 26.0625 29.863281 Z M 26.0625 29.863281 " fill-opacity="1" fill-rule="nonzero"></path><path fill="rgb(29.019165%, 32.159424%, 34.509277%)" d="M 14.230469 40.1875 L 34.578125 40.1875 L 34.839844 39.191406 L 14.230469 39.191406 C 14.117188 39.191406 14.027344 39.28125 14.027344 39.394531 L 14.027344 39.984375 C 14.027344 40.097656 14.117188 40.1875 14.230469 40.1875 Z M 14.230469 40.1875 " fill-opacity="1" fill-rule="nonzero"></path><path fill="rgb(22.749329%, 25.489807%, 27.449036%)" d="M 23.425781 27.109375 L 38.078125 27.109375 C 38.363281 27.109375 38.570312 27.386719 38.484375 27.65625 L 34.839844 39.191406 L 19.613281 39.191406 Z M 23.425781 27.109375 " fill-opacity="1" fill-rule="nonzero"></path><path fill="rgb(18.03894%, 21.179199%, 22.749329%)" d="M 18.679688 39.195312 L 19.609375 39.195312 L 23.429688 27.113281 L 22.808594 27.113281 C 22.621094 27.113281 22.457031 27.230469 22.402344 27.40625 Z M 18.679688 39.195312 " fill-opacity="1" fill-rule="nonzero"></path><path fill="rgb(18.03894%, 21.179199%, 22.749329%)" d="M 29.777344 32.738281 C 29.914062 32.804688 30.035156 32.902344 30.128906 33.03125 C 30.226562 33.15625 30.292969 33.308594 30.332031 33.476562 C 30.371094 33.648438 30.375 33.824219 30.351562 34.007812 C 30.324219 34.195312 30.269531 34.375 30.183594 34.546875 C 30.097656 34.71875 29.992188 34.875 29.859375 35.007812 C 29.726562 35.140625 29.582031 35.246094 29.421875 35.320312 C 29.261719 35.394531 29.101562 35.433594 28.941406 35.4375 C 28.78125 35.441406 28.628906 35.410156 28.492188 35.34375 C 28.351562 35.277344 28.234375 35.179688 28.136719 35.050781 C 28.042969 34.921875 27.972656 34.773438 27.9375 34.605469 C 27.898438 34.433594 27.890625 34.257812 27.917969 34.070312 C 27.941406 33.886719 27.996094 33.707031 28.082031 33.535156 C 28.167969 33.359375 28.277344 33.207031 28.410156 33.074219 C 28.539062 32.9375 28.6875 32.835938 28.84375 32.761719 C 29.003906 32.683594 29.164062 32.644531 29.324219 32.640625 C 29.488281 32.636719 29.636719 32.667969 29.777344 32.738281 Z M 29.777344 32.738281 " fill-opacity="1" fill-rule="nonzero"></path><path fill="rgb(99.609375%, 78.819275%, 67.449951%)" d="M 18.570312 39.464844 C 18.507812 39.765625 18.230469 39.976562 17.824219 40.121094 C 16.121094 40.71875 12.136719 40.121094 12.136719 40.121094 C 12.136719 40.121094 11.0625 39.648438 9.707031 38.847656 C 7.457031 37.515625 4.433594 35.277344 4.289062 32.792969 L 9.121094 34.238281 C 9.121094 34.238281 9.449219 34.59375 9.910156 35.085938 C 10.980469 36.234375 12.761719 38.144531 12.800781 38.144531 C 12.863281 38.128906 15.058594 37.488281 15.320312 37.988281 C 15.566406 38.453125 14.09375 38.90625 13.910156 38.960938 C 14.246094 38.890625 18.878906 37.945312 18.570312 39.464844 Z M 18.570312 39.464844 " fill-opacity="1" fill-rule="nonzero"></path><path fill="rgb(81.959534%, 86.268616%, 97.24884%)" d="M 20.109375 10.0625 C 19.066406 10.234375 16.605469 10.761719 15.621094 11.976562 C 14.855469 12.921875 14.835938 15.046875 14.890625 15.78125 L 14.019531 15.847656 C 14.007812 15.726562 13.804688 12.839844 14.941406 11.433594 C 15.660156 10.546875 16.945312 9.984375 18.097656 9.636719 C 18.746094 9.742188 19.457031 9.871094 20.109375 10.0625 Z M 20.109375 10.0625 " fill-opacity="1" fill-rule="nonzero"></path><path fill="rgb(99.609375%, 29.798889%, 25.099182%)" d="M 16.046875 16.777344 C 16.046875 16.988281 16.015625 17.195312 15.945312 17.390625 C 15.878906 17.589844 15.785156 17.761719 15.660156 17.914062 C 15.535156 18.0625 15.390625 18.179688 15.230469 18.261719 C 15.066406 18.34375 14.898438 18.382812 14.722656 18.382812 C 14.546875 18.382812 14.378906 18.34375 14.21875 18.261719 C 14.054688 18.179688 13.910156 18.0625 13.789062 17.914062 C 13.664062 17.761719 13.566406 17.589844 13.5 17.390625 C 13.433594 17.195312 13.398438 16.988281 13.398438 16.777344 C 13.398438 16.5625 13.433594 16.359375 13.5 16.164062 C 13.566406 15.964844 13.664062 15.792969 13.789062 15.640625 C 13.910156 15.492188 14.054688 15.375 14.21875 15.292969 C 14.378906 15.210938 14.546875 15.171875 14.722656 15.171875 C 14.898438 15.171875 15.066406 15.210938 15.230469 15.292969 C 15.390625 15.375 15.535156 15.492188 15.660156 15.640625 C 15.785156 15.792969 15.878906 15.964844 15.945312 16.164062 C 16.015625 16.359375 16.046875 16.5625 16.046875 16.777344 Z M 16.046875 16.777344 " fill-opacity="1" fill-rule="nonzero"></path><path fill="rgb(81.959534%, 86.268616%, 97.24884%)" d="M 15.28125 16.777344 C 15.28125 16.9375 15.253906 17.089844 15.203125 17.238281 C 15.152344 17.382812 15.082031 17.515625 14.988281 17.625 C 14.898438 17.738281 14.789062 17.824219 14.667969 17.886719 C 14.546875 17.949219 14.421875 17.976562 14.289062 17.976562 C 14.160156 17.976562 14.03125 17.949219 13.910156 17.886719 C 13.789062 17.824219 13.683594 17.738281 13.589844 17.625 C 13.496094 17.515625 13.425781 17.382812 13.375 17.238281 C 13.324219 17.089844 13.300781 16.9375 13.300781 16.777344 C 13.300781 16.617188 13.324219 16.464844 13.375 16.316406 C 13.425781 16.171875 13.496094 16.039062 13.589844 15.929688 C 13.683594 15.816406 13.789062 15.730469 13.910156 15.667969 C 14.03125 15.605469 14.160156 15.578125 14.289062 15.578125 C 14.421875 15.578125 14.546875 15.605469 14.667969 15.667969 C 14.789062 15.730469 14.898438 15.816406 14.988281 15.929688 C 15.082031 16.039062 15.152344 16.171875 15.203125 16.316406 C 15.253906 16.464844 15.28125 16.617188 15.28125 16.777344 Z M 15.28125 16.777344 " fill-opacity="1" fill-rule="nonzero"></path><path fill="rgb(99.609375%, 29.798889%, 25.099182%)" d="M 42.667969 35.863281 C 42.65625 35.769531 42.574219 35.699219 42.476562 35.699219 L 38.296875 35.699219 C 38.199219 35.699219 38.117188 35.769531 38.105469 35.863281 C 38.097656 35.941406 38.09375 36.023438 38.089844 36.109375 C 37.886719 36.136719 37.683594 36.203125 37.519531 36.34375 C 37.300781 36.539062 37.203125 36.839844 37.226562 37.230469 C 37.285156 38.214844 38.296875 38.859375 38.851562 39.140625 C 39.046875 39.523438 39.273438 39.859375 39.519531 40.101562 C 39.554688 40.136719 39.601562 40.15625 39.652344 40.15625 L 41.121094 40.15625 C 41.171875 40.15625 41.21875 40.136719 41.253906 40.101562 C 42.09375 39.269531 42.683594 37.402344 42.683594 36.1875 C 42.683594 36.070312 42.675781 35.964844 42.667969 35.863281 Z M 37.597656 37.207031 C 37.582031 36.933594 37.640625 36.738281 37.773438 36.621094 C 37.859375 36.542969 37.976562 36.503906 38.101562 36.484375 C 38.144531 37.117188 38.320312 37.871094 38.589844 38.554688 C 38.132812 38.257812 37.636719 37.796875 37.597656 37.207031 Z M 37.597656 37.207031 " fill-opacity="1" fill-rule="nonzero"></path><path fill="rgb(99.609375%, 48.239136%, 45.098877%)" d="M 42.683594 36.1875 C 42.683594 37.402344 42.09375 39.269531 41.253906 40.101562 C 41.21875 40.136719 41.167969 40.15625 41.117188 40.15625 L 39.652344 40.15625 C 39.601562 40.15625 39.554688 40.136719 39.519531 40.101562 C 39.464844 40.046875 39.410156 39.992188 39.359375 39.929688 L 40.769531 39.929688 C 40.820312 39.929688 40.871094 39.910156 40.90625 39.875 C 41.742188 39.042969 42.335938 37.175781 42.335938 35.960938 C 42.335938 35.867188 42.328125 35.78125 42.320312 35.699219 L 42.476562 35.699219 C 42.574219 35.699219 42.65625 35.769531 42.664062 35.863281 C 42.675781 35.964844 42.683594 36.070312 42.683594 36.1875 Z M 42.683594 36.1875 " fill-opacity="1" fill-rule="nonzero"></path><path fill="rgb(89.408875%, 92.549133%, 97.648621%)" d="M 40.855469 35.25 C 40.851562 35.269531 40.792969 35.289062 40.691406 35.246094 C 40.585938 35.203125 40.453125 35.078125 40.390625 34.863281 C 40.347656 34.679688 40.378906 34.5 40.414062 34.335938 C 40.453125 34.175781 40.503906 34.019531 40.527344 33.875 C 40.609375 33.523438 40.519531 33.363281 40.566406 33.335938 C 40.585938 33.324219 40.632812 33.355469 40.683594 33.449219 C 40.730469 33.542969 40.765625 33.707031 40.738281 33.90625 C 40.710938 34.078125 40.65625 34.234375 40.625 34.386719 C 40.589844 34.535156 40.570312 34.6875 40.601562 34.816406 C 40.628906 34.976562 40.703125 35.082031 40.757812 35.140625 C 40.816406 35.199219 40.863281 35.222656 40.855469 35.25 Z M 40.855469 35.25 " fill-opacity="1" fill-rule="nonzero"></path><path fill="rgb(89.408875%, 92.549133%, 97.648621%)" d="M 39.941406 34.574219 C 39.894531 34.546875 40.03125 34.367188 39.886719 34.011719 C 39.78125 33.714844 39.488281 33.472656 39.347656 33.101562 C 39.28125 32.882812 39.308594 32.691406 39.363281 32.589844 C 39.417969 32.484375 39.480469 32.457031 39.496094 32.46875 C 39.539062 32.496094 39.40625 32.675781 39.550781 33.03125 C 39.65625 33.332031 39.949219 33.570312 40.085938 33.941406 C 40.15625 34.164062 40.125 34.351562 40.070312 34.457031 C 40.015625 34.5625 39.957031 34.585938 39.941406 34.574219 Z M 39.941406 34.574219 " fill-opacity="1" fill-rule="nonzero"></path><path fill="rgb(44.309998%, 77.648926%, 52.938843%)" d="M 45.890625 32.390625 C 45.929688 32.601562 46.015625 32.804688 46.023438 33.015625 C 46.03125 33.230469 45.921875 33.472656 45.710938 33.519531 C 45.550781 33.558594 45.355469 33.480469 45.234375 33.585938 C 45.160156 33.648438 45.144531 33.757812 45.167969 33.847656 C 45.1875 33.941406 45.242188 34.023438 45.289062 34.105469 C 45.484375 34.449219 45.601562 34.835938 45.625 35.226562 C 45.644531 35.527344 45.613281 35.832031 45.628906 36.132812 C 45.640625 36.34375 45.621094 36.53125 45.765625 36.707031 C 45.847656 36.800781 45.964844 36.871094 46.09375 36.875 C 46.222656 36.882812 46.355469 36.820312 46.417969 36.710938 C 46.492188 36.574219 46.457031 36.40625 46.449219 36.253906 C 46.4375 35.996094 46.519531 35.726562 46.6875 35.53125 C 46.824219 35.371094 47.011719 35.199219 46.964844 34.996094 C 46.941406 34.90625 46.878906 34.832031 46.851562 34.746094 C 46.777344 34.527344 46.941406 34.304688 47.109375 34.144531 C 47.273438 33.984375 47.46875 33.8125 47.480469 33.585938 C 47.492188 33.40625 47.382812 33.242188 47.261719 33.105469 C 47.140625 32.96875 47.003906 32.839844 46.9375 32.671875 C 46.855469 32.464844 46.898438 32.226562 46.945312 32.007812 C 46.992188 31.789062 47.042969 31.554688 46.96875 31.339844 C 46.917969 31.191406 46.746094 31 46.566406 31.015625 C 46.425781 31.03125 46.277344 31.230469 46.191406 31.328125 C 45.949219 31.621094 45.828125 32.015625 45.890625 32.390625 Z M 45.890625 32.390625 " fill-opacity="1" fill-rule="nonzero"></path><path fill="rgb(38.038635%, 72.938538%, 46.269226%)" d="M 45.960938 37.972656 C 45.921875 37.453125 45.917969 36.941406 45.9375 36.429688 C 45.964844 35.914062 46.015625 35.402344 46.113281 34.898438 C 46.214844 34.394531 46.34375 33.898438 46.453125 33.398438 C 46.5625 32.898438 46.617188 32.375 46.464844 31.878906 C 46.625 32.371094 46.578125 32.902344 46.476562 33.402344 C 46.375 33.90625 46.25 34.402344 46.160156 34.90625 C 45.980469 35.914062 45.96875 36.949219 46.050781 37.960938 Z M 45.960938 37.972656 " fill-opacity="1" fill-rule="nonzero"></path><g clip-path="url(#id2)"><path fill="rgb(48.629761%, 81.959534%, 58.039856%)" d="M 50.085938 33.90625 C 50.074219 34.015625 49.960938 34.082031 49.851562 34.105469 C 49.742188 34.121094 49.628906 34.113281 49.523438 34.140625 C 49.417969 34.171875 49.3125 34.261719 49.328125 34.367188 C 49.335938 34.445312 49.410156 34.503906 49.425781 34.582031 C 49.445312 34.660156 49.40625 34.75 49.347656 34.804688 C 49.28125 34.863281 49.203125 34.898438 49.128906 34.929688 C 48.894531 35.027344 48.664062 35.125 48.433594 35.21875 C 48.363281 35.25 48.292969 35.28125 48.234375 35.328125 C 48.175781 35.378906 48.132812 35.453125 48.136719 35.53125 C 48.152344 35.671875 48.316406 35.75 48.386719 35.867188 C 48.472656 36.011719 48.417969 36.199219 48.300781 36.308594 C 48.183594 36.425781 48.015625 36.46875 47.851562 36.488281 C 47.6875 36.503906 47.519531 36.496094 47.355469 36.515625 C 47.117188 36.542969 46.878906 36.628906 46.679688 36.769531 C 46.621094 36.808594 46.5 36.957031 46.460938 36.847656 C 46.4375 36.789062 46.445312 36.710938 46.425781 36.648438 C 46.410156 36.578125 46.390625 36.511719 46.367188 36.4375 C 46.304688 36.246094 46.230469 36.054688 46.210938 35.851562 C 46.199219 35.648438 46.25 35.433594 46.402344 35.296875 C 46.492188 35.214844 46.613281 35.167969 46.714844 35.105469 C 46.820312 35.042969 46.921875 34.945312 46.929688 34.824219 C 46.9375 34.699219 46.847656 34.59375 46.792969 34.484375 C 46.734375 34.371094 46.714844 34.210938 46.824219 34.144531 C 46.929688 34.078125 47.066406 34.152344 47.144531 34.246094 C 47.226562 34.335938 47.292969 34.445312 47.410156 34.488281 C 47.542969 34.527344 47.683594 34.453125 47.773438 34.347656 C 47.867188 34.246094 47.925781 34.121094 48.007812 34.015625 C 48.1875 33.777344 48.488281 33.648438 48.789062 33.605469 C 49.085938 33.558594 49.390625 33.597656 49.695312 33.628906 C 49.78125 33.640625 49.878906 33.648438 49.953125 33.695312 C 50.03125 33.734375 50.09375 33.820312 50.085938 33.90625 Z M 50.085938 33.90625 " fill-opacity="1" fill-rule="nonzero"></path></g><path fill="rgb(38.038635%, 72.938538%, 46.269226%)" d="M 46.277344 37.898438 C 46.269531 37.472656 46.386719 37.070312 46.535156 36.6875 C 46.691406 36.304688 46.890625 35.945312 47.121094 35.605469 C 47.585938 34.929688 48.1875 34.324219 48.921875 33.945312 C 48.195312 34.34375 47.621094 34.960938 47.179688 35.640625 C 46.957031 35.980469 46.773438 36.34375 46.632812 36.722656 C 46.496094 37.101562 46.394531 37.5 46.410156 37.890625 L 46.410156 37.894531 C 46.414062 37.933594 46.382812 37.964844 46.347656 37.964844 C 46.308594 37.96875 46.277344 37.9375 46.277344 37.902344 C 46.277344 37.902344 46.277344 37.898438 46.277344 37.898438 Z M 46.277344 37.898438 " fill-opacity="1" fill-rule="nonzero"></path><path fill="rgb(48.629761%, 81.959534%, 58.039856%)" d="M 42.007812 33.90625 C 42.019531 34.015625 42.132812 34.082031 42.242188 34.105469 C 42.351562 34.121094 42.464844 34.113281 42.570312 34.140625 C 42.675781 34.171875 42.78125 34.261719 42.765625 34.367188 C 42.757812 34.445312 42.683594 34.503906 42.664062 34.582031 C 42.648438 34.660156 42.6875 34.75 42.746094 34.804688 C 42.8125 34.863281 42.886719 34.898438 42.964844 34.929688 C 43.199219 35.027344 43.429688 35.125 43.660156 35.21875 C 43.730469 35.25 43.800781 35.28125 43.859375 35.328125 C 43.917969 35.378906 43.960938 35.453125 43.957031 35.53125 C 43.941406 35.671875 43.777344 35.75 43.707031 35.867188 C 43.621094 36.011719 43.675781 36.199219 43.792969 36.308594 C 43.910156 36.425781 44.078125 36.46875 44.242188 36.488281 C 44.40625 36.503906 44.574219 36.496094 44.738281 36.515625 C 44.976562 36.542969 45.214844 36.628906 45.414062 36.769531 C 45.472656 36.808594 45.59375 36.957031 45.632812 36.847656 C 45.65625 36.789062 45.648438 36.710938 45.667969 36.648438 C 45.683594 36.578125 45.703125 36.511719 45.726562 36.4375 C 45.789062 36.246094 45.863281 36.054688 45.882812 35.851562 C 45.894531 35.648438 45.84375 35.433594 45.691406 35.296875 C 45.601562 35.214844 45.480469 35.167969 45.378906 35.105469 C 45.273438 35.042969 45.171875 34.945312 45.164062 34.824219 C 45.15625 34.699219 45.246094 34.59375 45.300781 34.484375 C 45.359375 34.371094 45.378906 34.210938 45.269531 34.144531 C 45.164062 34.078125 45.027344 34.152344 44.949219 34.246094 C 44.867188 34.335938 44.800781 34.445312 44.683594 34.488281 C 44.550781 34.527344 44.410156 34.453125 44.320312 34.347656 C 44.226562 34.246094 44.167969 34.121094 44.085938 34.015625 C 43.90625 33.777344 43.605469 33.648438 43.304688 33.605469 C 43.007812 33.558594 42.703125 33.597656 42.398438 33.628906 C 42.3125 33.640625 42.214844 33.648438 42.140625 33.695312 C 42.0625 33.734375 42 33.820312 42.007812 33.90625 Z M 42.007812 33.90625 " fill-opacity="1" fill-rule="nonzero"></path><path fill="rgb(38.038635%, 72.938538%, 46.269226%)" d="M 45.816406 37.898438 C 45.824219 37.472656 45.707031 37.070312 45.558594 36.6875 C 45.402344 36.304688 45.203125 35.945312 44.972656 35.605469 C 44.507812 34.929688 43.90625 34.324219 43.171875 33.945312 C 43.898438 34.34375 44.472656 34.960938 44.914062 35.640625 C 45.132812 35.980469 45.320312 36.34375 45.460938 36.722656 C 45.597656 37.101562 45.699219 37.5 45.683594 37.890625 L 45.683594 37.894531 C 45.679688 37.933594 45.710938 37.964844 45.746094 37.964844 C 45.785156 37.96875 45.816406 37.9375 45.816406 37.902344 C 45.816406 37.902344 45.816406 37.898438 45.816406 37.898438 Z M 45.816406 37.898438 " fill-opacity="1" fill-rule="nonzero"></path><path fill="rgb(89.408875%, 92.549133%, 97.648621%)" d="M 47.410156 38.0625 L 46.957031 40.070312 C 46.949219 40.121094 46.902344 40.15625 46.847656 40.15625 L 45.273438 40.15625 C 45.21875 40.15625 45.171875 40.121094 45.164062 40.070312 L 45.160156 40.042969 L 44.707031 38.0625 C 44.691406 37.992188 44.746094 37.929688 44.8125 37.929688 L 47.308594 37.929688 C 47.375 37.929688 47.429688 37.992188 47.410156 38.0625 Z M 47.410156 38.0625 " fill-opacity="1" fill-rule="nonzero"></path><path fill="rgb(73.329163%, 79.219055%, 91.758728%)" d="M 47.410156 38.0625 L 46.957031 40.070312 C 46.949219 40.121094 46.902344 40.15625 46.847656 40.15625 L 45.273438 40.15625 C 45.21875 40.15625 45.171875 40.121094 45.164062 40.070312 L 45.160156 40.042969 C 45.484375 39.910156 45.792969 39.738281 46.066406 39.519531 C 46.589844 39.105469 46.996094 38.550781 47.226562 37.929688 L 47.308594 37.929688 C 47.375 37.929688 47.429688 37.992188 47.410156 38.0625 Z M 47.410156 38.0625 " fill-opacity="1" fill-rule="nonzero"></path><path fill="rgb(73.329163%, 79.219055%, 91.758728%)" d="M 45.265625 15.320312 C 45.265625 15.527344 45.191406 15.707031 45.039062 15.859375 C 44.890625 16.007812 44.707031 16.082031 44.496094 16.082031 C 44.28125 16.082031 44.101562 16.007812 43.949219 15.859375 C 43.796875 15.707031 43.722656 15.527344 43.722656 15.320312 C 43.722656 15.109375 43.796875 14.929688 43.949219 14.78125 C 44.101562 14.632812 44.28125 14.558594 44.496094 14.558594 C 44.707031 14.558594 44.890625 14.632812 45.039062 14.78125 C 45.191406 14.929688 45.265625 15.109375 45.265625 15.320312 Z M 45.265625 15.320312 " fill-opacity="1" fill-rule="nonzero"></path><path fill="rgb(73.329163%, 79.219055%, 91.758728%)" d="M 45.265625 29.492188 C 45.265625 29.703125 45.191406 29.882812 45.039062 30.03125 C 44.890625 30.179688 44.707031 30.253906 44.496094 30.253906 C 44.28125 30.253906 44.101562 30.179688 43.949219 30.03125 C 43.796875 29.882812 43.722656 29.703125 43.722656 29.492188 C 43.722656 29.28125 43.796875 29.101562 43.949219 28.953125 C 44.101562 28.804688 44.28125 28.730469 44.496094 28.730469 C 44.707031 28.730469 44.890625 28.804688 45.039062 28.953125 C 45.191406 29.101562 45.265625 29.28125 45.265625 29.492188 Z M 45.265625 29.492188 " fill-opacity="1" fill-rule="nonzero"></path><path fill="rgb(95.289612%, 96.469116%, 99.21875%)" d="M 47.480469 22.03125 C 47.480469 22.445312 47.402344 22.84375 47.242188 23.230469 C 47.078125 23.613281 46.851562 23.953125 46.554688 24.246094 C 46.257812 24.539062 45.914062 24.765625 45.523438 24.925781 C 45.136719 25.085938 44.730469 25.164062 44.3125 25.164062 C 43.890625 25.164062 43.484375 25.085938 43.097656 24.925781 C 42.710938 24.765625 42.367188 24.539062 42.070312 24.246094 C 41.773438 23.953125 41.542969 23.613281 41.382812 23.230469 C 41.222656 22.84375 41.140625 22.445312 41.140625 22.03125 C 41.140625 21.613281 41.222656 21.214844 41.382812 20.832031 C 41.542969 20.445312 41.773438 20.105469 42.070312 19.8125 C 42.367188 19.519531 42.710938 19.292969 43.097656 19.132812 C 43.484375 18.972656 43.890625 18.894531 44.3125 18.894531 C 44.730469 18.894531 45.136719 18.972656 45.523438 19.132812 C 45.914062 19.292969 46.257812 19.519531 46.554688 19.8125 C 46.851562 20.105469 47.078125 20.445312 47.242188 20.832031 C 47.402344 21.214844 47.480469 21.613281 47.480469 22.03125 Z M 47.480469 22.03125 " fill-opacity="1" fill-rule="nonzero"></path><path fill="rgb(93.328857%, 59.609985%, 30.979919%)" d="M 45.773438 21.410156 C 45.773438 22.835938 44.3125 24.195312 44.3125 24.195312 C 44.3125 24.195312 42.847656 22.835938 42.847656 21.410156 C 42.847656 20.613281 43.503906 19.964844 44.3125 19.964844 C 45.121094 19.964844 45.773438 20.613281 45.773438 21.410156 Z M 45.773438 21.410156 " fill-opacity="1" fill-rule="nonzero"></path><path fill="rgb(95.289612%, 96.469116%, 99.21875%)" d="M 45.113281 21.433594 C 45.113281 21.652344 45.035156 21.839844 44.878906 21.996094 C 44.722656 22.148438 44.53125 22.226562 44.3125 22.226562 C 44.089844 22.226562 43.902344 22.148438 43.746094 21.996094 C 43.589844 21.839844 43.507812 21.652344 43.507812 21.433594 C 43.507812 21.214844 43.589844 21.027344 43.746094 20.875 C 43.902344 20.71875 44.089844 20.640625 44.3125 20.640625 C 44.53125 20.640625 44.722656 20.71875 44.878906 20.875 C 45.035156 21.027344 45.113281 21.214844 45.113281 21.433594 Z M 45.113281 21.433594 " fill-opacity="1" fill-rule="nonzero"></path><path fill="rgb(89.408875%, 92.549133%, 97.648621%)" d="M 31.429688 14.753906 C 31.429688 15.191406 31.347656 15.613281 31.175781 16.015625 C 31.007812 16.421875 30.765625 16.777344 30.453125 17.085938 C 30.140625 17.394531 29.78125 17.632812 29.371094 17.800781 C 28.964844 17.96875 28.539062 18.050781 28.09375 18.050781 C 27.652344 18.050781 27.226562 17.96875 26.820312 17.800781 C 26.410156 17.632812 26.050781 17.394531 25.734375 17.085938 C 25.421875 16.777344 25.183594 16.421875 25.011719 16.015625 C 24.84375 15.613281 24.757812 15.191406 24.757812 14.753906 C 24.757812 14.316406 24.84375 13.894531 25.011719 13.492188 C 25.183594 13.089844 25.421875 12.730469 25.734375 12.421875 C 26.050781 12.113281 26.410156 11.875 26.820312 11.707031 C 27.226562 11.539062 27.652344 11.457031 28.09375 11.457031 C 28.539062 11.457031 28.964844 11.539062 29.371094 11.707031 C 29.78125 11.875 30.140625 12.113281 30.453125 12.421875 C 30.765625 12.730469 31.007812 13.089844 31.175781 13.492188 C 31.347656 13.894531 31.429688 14.316406 31.429688 14.753906 Z M 31.429688 14.753906 " fill-opacity="1" fill-rule="nonzero"></path><path fill="rgb(73.329163%, 79.219055%, 91.758728%)" d="M 30.023438 14.753906 C 30.023438 15.007812 29.972656 15.25 29.875 15.484375 C 29.777344 15.714844 29.636719 15.921875 29.457031 16.101562 C 29.277344 16.28125 29.070312 16.417969 28.832031 16.515625 C 28.597656 16.609375 28.351562 16.660156 28.09375 16.660156 C 27.839844 16.660156 27.59375 16.609375 27.359375 16.515625 C 27.121094 16.417969 26.914062 16.28125 26.734375 16.101562 C 26.550781 15.921875 26.414062 15.714844 26.316406 15.484375 C 26.21875 15.25 26.167969 15.007812 26.167969 14.753906 C 26.167969 14.5 26.21875 14.257812 26.316406 14.023438 C 26.414062 13.792969 26.550781 13.585938 26.734375 13.40625 C 26.914062 13.230469 27.121094 13.089844 27.359375 12.996094 C 27.59375 12.898438 27.839844 12.847656 28.09375 12.847656 C 28.351562 12.847656 28.597656 12.898438 28.832031 12.996094 C 29.070312 13.089844 29.277344 13.230469 29.457031 13.40625 C 29.636719 13.585938 29.777344 13.792969 29.875 14.023438 C 29.972656 14.257812 30.023438 14.5 30.023438 14.753906 Z M 30.023438 14.753906 " fill-opacity="1" fill-rule="nonzero"></path><path fill="rgb(73.329163%, 79.219055%, 91.758728%)" d="M 30.667969 14.753906 C 30.667969 15.09375 30.605469 15.417969 30.472656 15.730469 C 30.34375 16.039062 30.15625 16.316406 29.914062 16.554688 C 29.675781 16.792969 29.394531 16.976562 29.082031 17.105469 C 28.765625 17.234375 28.4375 17.300781 28.09375 17.300781 C 27.753906 17.300781 27.425781 17.234375 27.109375 17.105469 C 26.792969 16.976562 26.515625 16.792969 26.273438 16.554688 C 26.03125 16.316406 25.847656 16.039062 25.714844 15.730469 C 25.585938 15.417969 25.519531 15.09375 25.519531 14.753906 C 25.519531 14.417969 25.585938 14.09375 25.714844 13.78125 C 25.847656 13.46875 26.03125 13.191406 26.273438 12.953125 C 26.515625 12.714844 26.792969 12.53125 27.109375 12.402344 C 27.425781 12.273438 27.753906 12.207031 28.09375 12.207031 C 28.4375 12.207031 28.765625 12.273438 29.082031 12.402344 C 29.394531 12.53125 29.675781 12.714844 29.914062 12.953125 C 30.15625 13.191406 30.34375 13.46875 30.472656 13.78125 C 30.605469 14.09375 30.667969 14.417969 30.667969 14.753906 Z M 30.667969 14.753906 " fill-opacity="1" fill-rule="nonzero"></path><path fill="rgb(100%, 100%, 100%)" d="M 30.164062 14.753906 C 30.164062 15.027344 30.113281 15.285156 30.007812 15.539062 C 29.902344 15.789062 29.753906 16.007812 29.558594 16.199219 C 29.363281 16.394531 29.140625 16.539062 28.886719 16.644531 C 28.632812 16.75 28.371094 16.800781 28.09375 16.800781 C 27.820312 16.800781 27.558594 16.75 27.304688 16.644531 C 27.050781 16.539062 26.824219 16.394531 26.632812 16.199219 C 26.4375 16.007812 26.289062 15.789062 26.183594 15.539062 C 26.078125 15.285156 26.027344 15.027344 26.027344 14.753906 C 26.027344 14.484375 26.078125 14.222656 26.183594 13.972656 C 26.289062 13.71875 26.4375 13.5 26.632812 13.308594 C 26.824219 13.117188 27.050781 12.96875 27.304688 12.863281 C 27.558594 12.761719 27.820312 12.707031 28.09375 12.707031 C 28.371094 12.707031 28.632812 12.761719 28.886719 12.863281 C 29.140625 12.96875 29.363281 13.117188 29.558594 13.308594 C 29.753906 13.5 29.902344 13.71875 30.007812 13.972656 C 30.113281 14.222656 30.164062 14.484375 30.164062 14.753906 Z M 30.164062 14.753906 " fill-opacity="1" fill-rule="nonzero"></path><path fill="rgb(29.019165%, 32.159424%, 34.509277%)" d="M 29.105469 14.941406 L 28.027344 14.941406 C 27.964844 14.941406 27.914062 14.890625 27.914062 14.828125 L 27.914062 13.332031 C 27.914062 13.269531 27.964844 13.21875 28.027344 13.21875 C 28.089844 13.21875 28.140625 13.269531 28.140625 13.332031 L 28.140625 14.71875 L 29.105469 14.71875 C 29.167969 14.71875 29.21875 14.765625 29.21875 14.828125 C 29.21875 14.890625 29.167969 14.941406 29.105469 14.941406 Z M 29.105469 14.941406 " fill-opacity="1" fill-rule="nonzero"></path><path fill="rgb(81.959534%, 86.268616%, 97.24884%)" d="M 11.734375 6.503906 L 11.734375 8.664062 C 11.734375 8.96875 11.484375 9.21875 11.171875 9.21875 L 5.664062 9.21875 C 5.351562 9.21875 5.101562 8.96875 5.101562 8.664062 L 5.101562 6.503906 C 5.101562 6.199219 5.351562 5.949219 5.664062 5.949219 L 11.171875 5.949219 C 11.484375 5.949219 11.734375 6.199219 11.734375 6.503906 Z M 11.734375 6.503906 " fill-opacity="1" fill-rule="nonzero"></path><path fill="rgb(81.959534%, 86.268616%, 97.24884%)" d="M 11.054688 9.21875 L 11.054688 10.148438 L 9.773438 9.21875 Z M 11.054688 9.21875 " fill-opacity="1" fill-rule="nonzero"></path><path fill="rgb(100%, 100%, 100%)" d="M 10.152344 6.898438 L 7.285156 6.898438 C 7.230469 6.898438 7.1875 6.851562 7.1875 6.800781 C 7.1875 6.746094 7.230469 6.703125 7.285156 6.703125 L 10.152344 6.703125 C 10.207031 6.703125 10.25 6.746094 10.25 6.800781 C 10.25 6.851562 10.207031 6.898438 10.152344 6.898438 Z M 10.152344 6.898438 " fill-opacity="1" fill-rule="nonzero"></path><path fill="rgb(100%, 100%, 100%)" d="M 10.152344 7.683594 L 8.949219 7.683594 C 8.894531 7.683594 8.851562 7.636719 8.851562 7.585938 C 8.851562 7.53125 8.894531 7.488281 8.949219 7.488281 L 10.152344 7.488281 C 10.207031 7.488281 10.25 7.53125 10.25 7.585938 C 10.25 7.636719 10.207031 7.683594 10.152344 7.683594 Z M 10.152344 7.683594 " fill-opacity="1" fill-rule="nonzero"></path><path fill="rgb(100%, 100%, 100%)" d="M 8.226562 7.683594 L 6.089844 7.683594 C 6.035156 7.683594 5.992188 7.636719 5.992188 7.585938 C 5.992188 7.53125 6.035156 7.488281 6.089844 7.488281 L 8.226562 7.488281 C 8.28125 7.488281 8.324219 7.53125 8.324219 7.585938 C 8.324219 7.636719 8.28125 7.683594 8.226562 7.683594 Z M 8.226562 7.683594 " fill-opacity="1" fill-rule="nonzero"></path><path fill="rgb(100%, 100%, 100%)" d="M 10.09375 8.464844 L 7.671875 8.464844 C 7.617188 8.464844 7.574219 8.421875 7.574219 8.371094 C 7.574219 8.316406 7.617188 8.273438 7.671875 8.273438 L 10.09375 8.273438 C 10.144531 8.273438 10.191406 8.316406 10.191406 8.371094 C 10.191406 8.421875 10.144531 8.464844 10.09375 8.464844 Z M 10.09375 8.464844 " fill-opacity="1" fill-rule="nonzero"></path><g clip-path="url(#id3)"><path fill="rgb(44.309998%, 77.648926%, 52.938843%)" d="M 2.773438 5.238281 L 2.773438 7.398438 C 2.773438 7.703125 3.027344 7.953125 3.335938 7.953125 L 8.847656 7.953125 C 9.15625 7.953125 9.40625 7.703125 9.40625 7.398438 L 9.40625 5.238281 C 9.40625 4.933594 9.15625 4.6875 8.847656 4.6875 L 3.335938 4.6875 C 3.027344 4.6875 2.773438 4.933594 2.773438 5.238281 Z M 2.773438 5.238281 " fill-opacity="1" fill-rule="nonzero"></path></g><path fill="rgb(44.309998%, 77.648926%, 52.938843%)" d="M 3.453125 7.953125 L 3.453125 8.882812 L 4.734375 7.953125 Z M 3.453125 7.953125 " fill-opacity="1" fill-rule="nonzero"></path><path fill="rgb(100%, 100%, 100%)" d="M 4.355469 5.632812 L 7.222656 5.632812 C 7.277344 5.632812 7.324219 5.589844 7.324219 5.535156 C 7.324219 5.480469 7.277344 5.4375 7.222656 5.4375 L 4.355469 5.4375 C 4.300781 5.4375 4.257812 5.480469 4.257812 5.535156 C 4.257812 5.589844 4.300781 5.632812 4.355469 5.632812 Z M 4.355469 5.632812 " fill-opacity="1" fill-rule="nonzero"></path><path fill="rgb(100%, 100%, 100%)" d="M 4.355469 6.417969 L 5.558594 6.417969 C 5.613281 6.417969 5.65625 6.371094 5.65625 6.320312 C 5.65625 6.265625 5.613281 6.222656 5.558594 6.222656 L 4.355469 6.222656 C 4.300781 6.222656 4.257812 6.265625 4.257812 6.320312 C 4.257812 6.371094 4.300781 6.417969 4.355469 6.417969 Z M 4.355469 6.417969 " fill-opacity="1" fill-rule="nonzero"></path><path fill="rgb(100%, 100%, 100%)" d="M 6.28125 6.417969 L 8.417969 6.417969 C 8.472656 6.417969 8.515625 6.371094 8.515625 6.320312 C 8.515625 6.265625 8.472656 6.222656 8.417969 6.222656 L 6.28125 6.222656 C 6.226562 6.222656 6.183594 6.265625 6.183594 6.320312 C 6.183594 6.371094 6.226562 6.417969 6.28125 6.417969 Z M 6.28125 6.417969 " fill-opacity="1" fill-rule="nonzero"></path><path fill="rgb(100%, 100%, 100%)" d="M 4.417969 7.199219 L 6.835938 7.199219 C 6.890625 7.199219 6.933594 7.15625 6.933594 7.105469 C 6.933594 7.050781 6.890625 7.007812 6.835938 7.007812 L 4.417969 7.007812 C 4.363281 7.007812 4.320312 7.050781 4.320312 7.105469 C 4.320312 7.15625 4.363281 7.199219 4.417969 7.199219 Z M 4.417969 7.199219 " fill-opacity="1" fill-rule="nonzero"></path><g clip-path="url(#id4)"><path fill="rgb(95.289612%, 96.469116%, 99.21875%)" d="M 7.160156 18.988281 L 7.160156 22.976562 C 7.160156 23.308594 6.886719 23.582031 6.546875 23.582031 L 2.089844 23.582031 C 1.75 23.582031 1.476562 23.308594 1.476562 22.976562 L 1.476562 18.988281 C 1.476562 18.652344 1.75 18.382812 2.089844 18.382812 L 6.546875 18.382812 C 6.886719 18.382812 7.160156 18.652344 7.160156 18.988281 Z M 7.160156 18.988281 " fill-opacity="1" fill-rule="nonzero"></path></g><path fill="rgb(100%, 81.17981%, 23.919678%)" d="M 5.574219 22.796875 C 5.546875 22.796875 5.519531 22.792969 5.492188 22.78125 C 4.1875 22.265625 3.140625 21.230469 2.617188 19.9375 C 2.597656 19.886719 2.597656 19.824219 2.621094 19.769531 C 2.644531 19.714844 2.691406 19.671875 2.746094 19.648438 L 2.925781 19.585938 L 3.375 19.417969 C 3.402344 19.40625 3.425781 19.402344 3.453125 19.402344 C 3.546875 19.402344 3.628906 19.457031 3.660156 19.539062 C 3.75 19.753906 3.851562 19.949219 3.960938 20.128906 C 4.007812 20.203125 4.007812 20.300781 3.953125 20.371094 C 3.867188 20.5 3.78125 20.628906 3.703125 20.769531 C 3.972656 21.128906 4.289062 21.441406 4.648438 21.707031 C 4.792969 21.625 4.929688 21.542969 5.058594 21.457031 C 5.097656 21.433594 5.140625 21.417969 5.183594 21.417969 C 5.226562 21.417969 5.265625 21.429688 5.300781 21.453125 C 5.484375 21.5625 5.683594 21.664062 5.894531 21.75 C 6.007812 21.792969 6.0625 21.917969 6.019531 22.03125 L 5.785156 22.652344 C 5.753906 22.738281 5.667969 22.796875 5.574219 22.796875 Z M 5.574219 22.796875 " fill-opacity="1" fill-rule="nonzero"></path></svg>