<svg xmlns="http://www.w3.org/2000/svg" xmlns:xlink="http://www.w3.org/1999/xlink" width="69" viewBox="0 0 51.75 47.25" height="63" preserveAspectRatio="xMidYMid meet"><defs><clipPath id="id1"><path d="M 1.335938 5.652344 L 50.296875 5.652344 L 50.296875 41.261719 L 1.335938 41.261719 Z M 1.335938 5.652344 " clip-rule="nonzero"></path></clipPath><clipPath id="id2"><path d="M 1.335938 5.652344 L 50.296875 5.652344 L 50.296875 10 L 1.335938 10 Z M 1.335938 5.652344 " clip-rule="nonzero"></path></clipPath><clipPath id="id3"><path d="M 1.335938 30 L 50.296875 30 L 50.296875 38 L 1.335938 38 Z M 1.335938 30 " clip-rule="nonzero"></path></clipPath><clipPath id="id4"><path d="M 1.335938 30 L 50.296875 30 L 50.296875 39 L 1.335938 39 Z M 1.335938 30 " clip-rule="nonzero"></path></clipPath></defs><g clip-path="url(#id1)"><path fill="rgb(100%, 100%, 100%)" d="M 48.878906 41.117188 L 2.753906 41.117188 C 2.050781 41.117188 1.480469 40.542969 1.480469 39.835938 L 1.480469 7.085938 C 1.480469 6.378906 2.050781 5.800781 2.753906 5.800781 L 48.878906 5.800781 C 49.578125 5.800781 50.148438 6.378906 50.148438 7.085938 L 50.148438 39.835938 C 50.148438 40.542969 49.578125 41.117188 48.878906 41.117188 Z M 48.878906 41.117188 " fill-opacity="1" fill-rule="nonzero"></path><path fill="rgb(9.799194%, 1.959229%, 35.688782%)" d="M 48.882812 41.265625 L 2.746094 41.265625 C 1.96875 41.265625 1.335938 40.625 1.335938 39.84375 L 1.335938 7.078125 C 1.335938 6.292969 1.96875 5.65625 2.746094 5.65625 L 48.882812 5.65625 C 49.664062 5.65625 50.296875 6.292969 50.296875 7.078125 L 50.296875 39.84375 C 50.296875 40.625 49.664062 41.265625 48.882812 41.265625 Z M 2.746094 5.949219 C 2.128906 5.949219 1.625 6.457031 1.625 7.078125 L 1.625 39.84375 C 1.625 40.464844 2.128906 40.96875 2.746094 40.96875 L 48.882812 40.96875 C 49.5 40.96875 50.003906 40.464844 50.003906 39.84375 L 50.003906 7.078125 C 50.003906 6.457031 49.5 5.949219 48.882812 5.949219 Z M 2.746094 5.949219 " fill-opacity="1" fill-rule="nonzero"></path></g><g clip-path="url(#id2)"><path fill="rgb(94.898987%, 54.119873%, 55.288696%)" d="M 50.148438 7.078125 C 50.148438 6.375 49.582031 5.800781 48.882812 5.800781 L 2.746094 5.800781 C 2.046875 5.800781 1.480469 6.375 1.480469 7.078125 L 1.480469 9.707031 L 50.148438 9.707031 Z M 50.148438 7.078125 " fill-opacity="1" fill-rule="nonzero"></path><path fill="rgb(9.799194%, 1.959229%, 35.688782%)" d="M 50.148438 9.855469 L 1.480469 9.855469 C 1.398438 9.855469 1.335938 9.789062 1.335938 9.707031 L 1.335938 7.078125 C 1.335938 6.292969 1.96875 5.65625 2.746094 5.65625 L 48.882812 5.65625 C 49.664062 5.65625 50.296875 6.292969 50.296875 7.078125 L 50.296875 9.707031 C 50.296875 9.789062 50.230469 9.855469 50.148438 9.855469 Z M 1.625 9.5625 L 50.003906 9.5625 L 50.003906 7.078125 C 50.003906 6.457031 49.5 5.949219 48.882812 5.949219 L 2.746094 5.949219 C 2.128906 5.949219 1.625 6.457031 1.625 7.078125 Z M 1.625 9.5625 " fill-opacity="1" fill-rule="nonzero"></path></g><path fill="rgb(100%, 100%, 100%)" d="M 4.921875 7.859375 C 4.921875 8.085938 4.839844 8.277344 4.683594 8.4375 C 4.523438 8.597656 4.332031 8.675781 4.109375 8.675781 C 3.886719 8.675781 3.695312 8.597656 3.535156 8.4375 C 3.378906 8.277344 3.296875 8.085938 3.296875 7.859375 C 3.296875 7.632812 3.378906 7.441406 3.535156 7.28125 C 3.695312 7.121094 3.886719 7.042969 4.109375 7.042969 C 4.332031 7.042969 4.523438 7.121094 4.683594 7.28125 C 4.839844 7.441406 4.921875 7.632812 4.921875 7.859375 Z M 4.921875 7.859375 " fill-opacity="1" fill-rule="nonzero"></path><path fill="rgb(9.799194%, 1.959229%, 35.688782%)" d="M 4.109375 8.824219 C 3.582031 8.824219 3.152344 8.390625 3.152344 7.859375 C 3.152344 7.328125 3.582031 6.894531 4.109375 6.894531 C 4.636719 6.894531 5.066406 7.328125 5.066406 7.859375 C 5.066406 8.390625 4.636719 8.824219 4.109375 8.824219 Z M 4.109375 7.191406 C 3.742188 7.191406 3.445312 7.492188 3.445312 7.859375 C 3.445312 8.230469 3.742188 8.53125 4.109375 8.53125 C 4.476562 8.53125 4.773438 8.230469 4.773438 7.859375 C 4.773438 7.492188 4.476562 7.191406 4.109375 7.191406 Z M 4.109375 7.191406 " fill-opacity="1" fill-rule="nonzero"></path><path fill="rgb(96.469116%, 74.119568%, 23.139954%)" d="M 7.464844 7.859375 C 7.464844 8.085938 7.382812 8.277344 7.226562 8.4375 C 7.066406 8.597656 6.875 8.675781 6.652344 8.675781 C 6.429688 8.675781 6.238281 8.597656 6.078125 8.4375 C 5.921875 8.277344 5.839844 8.085938 5.839844 7.859375 C 5.839844 7.632812 5.921875 7.441406 6.078125 7.28125 C 6.238281 7.121094 6.429688 7.042969 6.652344 7.042969 C 6.875 7.042969 7.066406 7.121094 7.226562 7.28125 C 7.382812 7.441406 7.464844 7.632812 7.464844 7.859375 Z M 7.464844 7.859375 " fill-opacity="1" fill-rule="nonzero"></path><path fill="rgb(9.799194%, 1.959229%, 35.688782%)" d="M 6.652344 8.824219 C 6.125 8.824219 5.695312 8.390625 5.695312 7.859375 C 5.695312 7.328125 6.125 6.894531 6.652344 6.894531 C 7.179688 6.894531 7.609375 7.328125 7.609375 7.859375 C 7.609375 8.390625 7.179688 8.824219 6.652344 8.824219 Z M 6.652344 7.191406 C 6.285156 7.191406 5.988281 7.492188 5.988281 7.859375 C 5.988281 8.230469 6.285156 8.53125 6.652344 8.53125 C 7.019531 8.53125 7.316406 8.230469 7.316406 7.859375 C 7.316406 7.492188 7.019531 7.191406 6.652344 7.191406 Z M 6.652344 7.191406 " fill-opacity="1" fill-rule="nonzero"></path><path fill="rgb(92.549133%, 56.079102%, 23.529053%)" d="M 10.007812 7.859375 C 10.007812 8.085938 9.925781 8.277344 9.769531 8.4375 C 9.609375 8.597656 9.417969 8.675781 9.195312 8.675781 C 8.972656 8.675781 8.78125 8.597656 8.621094 8.4375 C 8.464844 8.277344 8.382812 8.085938 8.382812 7.859375 C 8.382812 7.632812 8.464844 7.441406 8.621094 7.28125 C 8.78125 7.121094 8.972656 7.042969 9.195312 7.042969 C 9.417969 7.042969 9.609375 7.121094 9.769531 7.28125 C 9.925781 7.441406 10.007812 7.632812 10.007812 7.859375 Z M 10.007812 7.859375 " fill-opacity="1" fill-rule="nonzero"></path><path fill="rgb(9.799194%, 1.959229%, 35.688782%)" d="M 9.195312 8.824219 C 8.667969 8.824219 8.238281 8.390625 8.238281 7.859375 C 8.238281 7.328125 8.667969 6.894531 9.195312 6.894531 C 9.722656 6.894531 10.152344 7.328125 10.152344 7.859375 C 10.152344 8.390625 9.722656 8.824219 9.195312 8.824219 Z M 9.195312 7.191406 C 8.828125 7.191406 8.53125 7.492188 8.53125 7.859375 C 8.53125 8.230469 8.828125 8.53125 9.195312 8.53125 C 9.5625 8.53125 9.859375 8.230469 9.859375 7.859375 C 9.859375 7.492188 9.5625 7.191406 9.195312 7.191406 Z M 9.195312 7.191406 " fill-opacity="1" fill-rule="nonzero"></path><g clip-path="url(#id3)"><path fill="rgb(94.898987%, 54.119873%, 55.288696%)" d="M 1.480469 30.824219 L 50.148438 30.824219 L 50.148438 37.886719 L 1.480469 37.886719 Z M 1.480469 30.824219 " fill-opacity="1" fill-rule="nonzero"></path></g><g clip-path="url(#id4)"><path fill="rgb(9.799194%, 1.959229%, 35.688782%)" d="M 50.148438 38.035156 L 1.480469 38.035156 C 1.398438 38.035156 1.335938 37.96875 1.335938 37.886719 L 1.335938 30.824219 C 1.335938 30.742188 1.398438 30.675781 1.480469 30.675781 L 50.148438 30.675781 C 50.230469 30.675781 50.296875 30.742188 50.296875 30.824219 L 50.296875 37.886719 C 50.296875 37.96875 50.230469 38.035156 50.148438 38.035156 Z M 1.625 37.738281 L 50.003906 37.738281 L 50.003906 30.972656 L 1.625 30.972656 Z M 1.625 37.738281 " fill-opacity="1" fill-rule="nonzero"></path></g><path fill="rgb(9.799194%, 1.959229%, 35.688782%)" d="M 20.417969 13.246094 L 10.894531 13.246094 C 10.402344 13.246094 10.007812 13.644531 10.007812 14.140625 L 10.007812 32.78125 C 10.007812 33.273438 10.402344 33.675781 10.894531 33.675781 L 20.417969 33.675781 C 20.90625 33.675781 21.304688 33.273438 21.304688 32.78125 L 21.304688 14.140625 C 21.304688 13.644531 20.90625 13.246094 20.417969 13.246094 Z M 20.417969 13.246094 " fill-opacity="1" fill-rule="nonzero"></path><path fill="rgb(9.799194%, 1.959229%, 35.688782%)" d="M 20.421875 33.820312 L 10.886719 33.820312 C 10.320312 33.820312 9.859375 33.355469 9.859375 32.785156 L 9.859375 14.132812 C 9.859375 13.5625 10.320312 13.097656 10.886719 13.097656 L 20.421875 13.097656 C 20.988281 13.097656 21.449219 13.5625 21.449219 14.132812 L 21.449219 32.785156 C 21.449219 33.355469 20.988281 33.820312 20.421875 33.820312 Z M 10.886719 13.390625 C 10.484375 13.390625 10.152344 13.726562 10.152344 14.132812 L 10.152344 32.785156 C 10.152344 33.195312 10.484375 33.527344 10.886719 33.527344 L 20.421875 33.527344 C 20.828125 33.527344 21.15625 33.195312 21.15625 32.785156 L 21.15625 14.132812 C 21.15625 13.726562 20.828125 13.390625 20.421875 13.390625 Z M 10.886719 13.390625 " fill-opacity="1" fill-rule="nonzero"></path><path fill="rgb(100%, 100%, 100%)" d="M 10.785156 32.785156 L 10.785156 14.136719 C 10.785156 14.078125 10.832031 14.03125 10.890625 14.03125 L 20.421875 14.03125 C 20.480469 14.03125 20.523438 14.078125 20.523438 14.136719 L 20.523438 32.785156 C 20.523438 32.84375 20.480469 32.890625 20.421875 32.890625 L 10.890625 32.890625 C 10.832031 32.890625 10.785156 32.84375 10.785156 32.785156 Z M 10.785156 32.785156 " fill-opacity="1" fill-rule="nonzero"></path><path fill="rgb(9.799194%, 1.959229%, 35.688782%)" d="M 20.421875 33.039062 L 10.886719 33.039062 C 10.75 33.039062 10.640625 32.925781 10.640625 32.785156 L 10.640625 14.132812 C 10.640625 13.996094 10.75 13.882812 10.886719 13.882812 L 20.421875 13.882812 C 20.558594 13.882812 20.671875 13.996094 20.671875 14.132812 L 20.671875 32.785156 C 20.671875 32.925781 20.558594 33.039062 20.421875 33.039062 Z M 10.929688 32.742188 L 20.378906 32.742188 L 20.378906 14.175781 L 10.929688 14.175781 Z M 10.929688 32.742188 " fill-opacity="1" fill-rule="nonzero"></path><path fill="rgb(100%, 100%, 100%)" d="M 12.824219 19.621094 C 13.15625 17.277344 14.867188 15.382812 16.59375 14.03125 L 10.886719 14.03125 C 10.832031 14.03125 10.785156 14.078125 10.785156 14.132812 L 10.785156 32.785156 C 10.785156 32.785156 12.976562 30.242188 13.277344 27.84375 C 13.578125 25.449219 12.121094 24.621094 12.824219 19.621094 Z M 12.824219 19.621094 " fill-opacity="1" fill-rule="nonzero"></path><path fill="rgb(9.799194%, 1.959229%, 35.688782%)" d="M 10.785156 32.933594 C 10.769531 32.933594 10.75 32.929688 10.734375 32.921875 C 10.675781 32.902344 10.640625 32.847656 10.640625 32.785156 L 10.640625 14.132812 C 10.640625 13.996094 10.75 13.882812 10.886719 13.882812 L 16.59375 13.882812 C 16.65625 13.882812 16.710938 13.921875 16.730469 13.984375 C 16.75 14.042969 16.730469 14.109375 16.683594 14.144531 C 14.488281 15.863281 13.242188 17.714844 12.96875 19.640625 C 12.554688 22.59375 12.902344 24.089844 13.183594 25.296875 C 13.378906 26.140625 13.546875 26.867188 13.421875 27.863281 C 13.117188 30.277344 10.984375 32.777344 10.894531 32.882812 C 10.867188 32.914062 10.828125 32.933594 10.785156 32.933594 Z M 10.929688 14.175781 L 10.929688 32.371094 C 11.511719 31.621094 12.902344 29.664062 13.132812 27.824219 C 13.25 26.882812 13.085938 26.179688 12.898438 25.363281 C 12.613281 24.132812 12.257812 22.605469 12.679688 19.601562 C 12.949219 17.695312 14.125 15.871094 16.175781 14.175781 Z M 12.824219 19.621094 Z M 12.824219 19.621094 " fill-opacity="1" fill-rule="nonzero"></path><path fill="rgb(96.469116%, 74.119568%, 23.139954%)" d="M 14.71875 28.914062 C 15.769531 26.742188 14.652344 25.488281 16.914062 20.980469 C 17.675781 19.457031 19.046875 18.386719 20.523438 17.636719 L 20.523438 14.132812 C 20.523438 14.078125 20.480469 14.03125 20.421875 14.03125 L 16.59375 14.03125 C 14.867188 15.382812 13.15625 17.277344 12.824219 19.621094 C 12.121094 24.621094 13.578125 25.449219 13.277344 27.84375 C 12.976562 30.242188 10.785156 32.785156 10.785156 32.785156 C 10.785156 32.785156 13.671875 31.085938 14.71875 28.914062 Z M 14.71875 28.914062 " fill-opacity="1" fill-rule="nonzero"></path><path fill="rgb(9.799194%, 1.959229%, 35.688782%)" d="M 10.785156 32.933594 C 10.742188 32.933594 10.703125 32.914062 10.671875 32.878906 C 10.628906 32.824219 10.628906 32.742188 10.675781 32.6875 C 10.695312 32.664062 12.839844 30.148438 13.132812 27.824219 C 13.25 26.882812 13.085938 26.179688 12.898438 25.363281 C 12.613281 24.132812 12.257812 22.605469 12.679688 19.601562 C 12.960938 17.59375 14.25 15.679688 16.503906 13.914062 C 16.527344 13.894531 16.558594 13.882812 16.59375 13.882812 L 20.421875 13.882812 C 20.558594 13.882812 20.671875 13.996094 20.671875 14.132812 L 20.671875 17.636719 C 20.671875 17.695312 20.640625 17.746094 20.589844 17.769531 C 18.894531 18.628906 17.703125 19.730469 17.042969 21.046875 C 15.710938 23.707031 15.5625 25.238281 15.441406 26.46875 C 15.359375 27.332031 15.285156 28.074219 14.851562 28.976562 C 13.792969 31.164062 10.976562 32.84375 10.859375 32.914062 C 10.835938 32.925781 10.808594 32.933594 10.785156 32.933594 Z M 16.644531 14.175781 C 14.476562 15.886719 13.238281 17.726562 12.96875 19.640625 C 12.554688 22.59375 12.902344 24.089844 13.183594 25.296875 C 13.378906 26.140625 13.546875 26.867188 13.421875 27.863281 C 13.210938 29.527344 12.132812 31.234375 11.453125 32.167969 C 12.371094 31.515625 13.898438 30.277344 14.589844 28.847656 C 15 27.996094 15.070312 27.273438 15.152344 26.4375 C 15.273438 25.183594 15.421875 23.625 16.78125 20.914062 C 17.460938 19.5625 18.671875 18.429688 20.378906 17.546875 L 20.378906 14.175781 Z M 16.644531 14.175781 " fill-opacity="1" fill-rule="nonzero"></path><path fill="rgb(94.898987%, 54.119873%, 55.288696%)" d="M 15.746094 30.390625 C 14.058594 32.109375 10.785156 32.785156 10.785156 32.785156 C 10.785156 32.84375 10.832031 32.890625 10.886719 32.890625 L 20.421875 32.890625 C 20.480469 32.890625 20.523438 32.84375 20.523438 32.785156 L 20.523438 23.421875 C 20.464844 23.476562 20.40625 23.53125 20.351562 23.589844 C 16.773438 27.125 17.433594 28.675781 15.746094 30.390625 Z M 15.746094 30.390625 " fill-opacity="1" fill-rule="nonzero"></path><path fill="rgb(9.799194%, 1.959229%, 35.688782%)" d="M 20.421875 33.039062 L 10.886719 33.039062 C 10.75 33.039062 10.640625 32.925781 10.640625 32.785156 C 10.640625 32.714844 10.6875 32.65625 10.753906 32.640625 C 10.789062 32.636719 14.007812 31.953125 15.640625 30.289062 C 16.304688 29.613281 16.601562 28.953125 16.941406 28.1875 C 17.457031 27.039062 18.097656 25.609375 20.25 23.484375 C 20.308594 23.425781 20.367188 23.371094 20.425781 23.3125 C 20.46875 23.273438 20.53125 23.265625 20.585938 23.289062 C 20.636719 23.3125 20.671875 23.367188 20.671875 23.421875 L 20.671875 32.785156 C 20.671875 32.925781 20.558594 33.039062 20.421875 33.039062 Z M 11.554688 32.742188 L 20.378906 32.742188 L 20.378906 23.765625 C 18.328125 25.816406 17.707031 27.195312 17.210938 28.308594 C 16.855469 29.101562 16.550781 29.78125 15.847656 30.496094 C 14.628906 31.738281 12.632812 32.4375 11.554688 32.742188 Z M 15.746094 30.390625 Z M 15.746094 30.390625 " fill-opacity="1" fill-rule="nonzero"></path><path fill="rgb(92.549133%, 56.079102%, 23.529053%)" d="M 16.914062 20.980469 C 14.652344 25.488281 15.769531 26.742188 14.71875 28.914062 C 13.671875 31.085938 10.785156 32.785156 10.785156 32.785156 C 10.785156 32.785156 14.058594 32.109375 15.746094 30.390625 C 17.433594 28.675781 16.773438 27.125 20.351562 23.589844 C 20.40625 23.53125 20.464844 23.476562 20.523438 23.421875 L 20.523438 17.636719 C 19.046875 18.386719 17.675781 19.457031 16.914062 20.980469 Z M 16.914062 20.980469 " fill-opacity="1" fill-rule="nonzero"></path><path fill="rgb(9.799194%, 1.959229%, 35.688782%)" d="M 10.785156 32.933594 C 10.726562 32.933594 10.671875 32.894531 10.648438 32.839844 C 10.625 32.769531 10.648438 32.695312 10.710938 32.660156 C 10.738281 32.640625 13.570312 30.953125 14.589844 28.847656 C 15 27.996094 15.070312 27.273438 15.152344 26.4375 C 15.273438 25.183594 15.421875 23.625 16.78125 20.914062 C 17.472656 19.539062 18.707031 18.394531 20.460938 17.507812 C 20.503906 17.484375 20.558594 17.484375 20.601562 17.511719 C 20.644531 17.539062 20.671875 17.585938 20.671875 17.636719 L 20.671875 23.421875 C 20.671875 23.464844 20.652344 23.503906 20.625 23.53125 C 20.566406 23.585938 20.507812 23.640625 20.453125 23.695312 C 18.34375 25.78125 17.714844 27.183594 17.210938 28.308594 C 16.855469 29.101562 16.550781 29.78125 15.847656 30.496094 C 14.152344 32.226562 10.949219 32.902344 10.8125 32.929688 C 10.804688 32.933594 10.792969 32.933594 10.785156 32.933594 Z M 17.042969 21.046875 C 15.710938 23.707031 15.5625 25.238281 15.441406 26.46875 C 15.359375 27.332031 15.285156 28.074219 14.851562 28.976562 C 14.121094 30.488281 12.554688 31.753906 11.617188 32.414062 C 12.691406 32.097656 14.53125 31.417969 15.640625 30.289062 C 16.304688 29.613281 16.601562 28.953125 16.941406 28.1875 C 17.457031 27.039062 18.097656 25.609375 20.25 23.484375 C 20.292969 23.441406 20.335938 23.398438 20.378906 23.359375 L 20.378906 17.878906 C 18.796875 18.722656 17.675781 19.785156 17.042969 21.046875 Z M 17.042969 21.046875 " fill-opacity="1" fill-rule="nonzero"></path><path fill="rgb(94.898987%, 54.119873%, 55.288696%)" d="M 28.777344 18.746094 L 28.777344 17.753906 L 28.03125 17.753906 L 28.03125 17.003906 L 27.046875 17.003906 L 27.046875 17.753906 L 26.144531 17.753906 L 26.144531 17.003906 L 25.160156 17.003906 L 25.160156 17.753906 L 24.414062 17.753906 L 24.414062 18.746094 L 25.160156 18.746094 L 25.160156 19.65625 L 24.414062 19.65625 L 24.414062 20.648438 L 25.160156 20.648438 L 25.160156 21.398438 L 26.144531 21.398438 L 26.144531 20.648438 L 27.046875 20.648438 L 27.046875 21.398438 L 28.03125 21.398438 L 28.03125 20.648438 L 28.777344 20.648438 L 28.777344 19.65625 L 28.03125 19.65625 L 28.03125 18.746094 Z M 27.046875 19.65625 L 26.144531 19.65625 L 26.144531 18.746094 L 27.046875 18.746094 Z M 27.046875 19.65625 " fill-opacity="1" fill-rule="nonzero"></path><path fill="rgb(9.799194%, 1.959229%, 35.688782%)" d="M 28.03125 21.546875 L 27.046875 21.546875 C 26.96875 21.546875 26.902344 21.480469 26.902344 21.398438 L 26.902344 20.792969 L 26.289062 20.792969 L 26.289062 21.398438 C 26.289062 21.480469 26.222656 21.546875 26.144531 21.546875 L 25.160156 21.546875 C 25.082031 21.546875 25.015625 21.480469 25.015625 21.398438 L 25.015625 20.792969 L 24.414062 20.792969 C 24.335938 20.792969 24.269531 20.726562 24.269531 20.648438 L 24.269531 19.65625 C 24.269531 19.574219 24.335938 19.507812 24.414062 19.507812 L 25.015625 19.507812 L 25.015625 18.894531 L 24.414062 18.894531 C 24.335938 18.894531 24.269531 18.828125 24.269531 18.746094 L 24.269531 17.753906 C 24.269531 17.675781 24.335938 17.609375 24.414062 17.609375 L 25.015625 17.609375 L 25.015625 17.003906 C 25.015625 16.921875 25.082031 16.855469 25.160156 16.855469 L 26.144531 16.855469 C 26.222656 16.855469 26.289062 16.921875 26.289062 17.003906 L 26.289062 17.609375 L 26.902344 17.609375 L 26.902344 17.003906 C 26.902344 16.921875 26.96875 16.855469 27.046875 16.855469 L 28.03125 16.855469 C 28.109375 16.855469 28.175781 16.921875 28.175781 17.003906 L 28.175781 17.609375 L 28.777344 17.609375 C 28.859375 17.609375 28.921875 17.675781 28.921875 17.753906 L 28.921875 18.746094 C 28.921875 18.828125 28.859375 18.894531 28.777344 18.894531 L 28.175781 18.894531 L 28.175781 19.507812 L 28.777344 19.507812 C 28.859375 19.507812 28.921875 19.574219 28.921875 19.65625 L 28.921875 20.648438 C 28.921875 20.726562 28.859375 20.792969 28.777344 20.792969 L 28.175781 20.792969 L 28.175781 21.398438 C 28.175781 21.480469 28.109375 21.546875 28.03125 21.546875 Z M 27.195312 21.253906 L 27.882812 21.253906 L 27.882812 20.648438 C 27.882812 20.566406 27.949219 20.5 28.03125 20.5 L 28.632812 20.5 L 28.632812 19.804688 L 28.03125 19.804688 C 27.949219 19.804688 27.882812 19.738281 27.882812 19.65625 L 27.882812 18.746094 C 27.882812 18.664062 27.949219 18.597656 28.03125 18.597656 L 28.632812 18.597656 L 28.632812 17.902344 L 28.03125 17.902344 C 27.949219 17.902344 27.882812 17.835938 27.882812 17.753906 L 27.882812 17.148438 L 27.195312 17.148438 L 27.195312 17.753906 C 27.195312 17.835938 27.128906 17.902344 27.046875 17.902344 L 26.144531 17.902344 C 26.0625 17.902344 25.996094 17.835938 25.996094 17.753906 L 25.996094 17.148438 L 25.308594 17.148438 L 25.308594 17.753906 C 25.308594 17.835938 25.242188 17.902344 25.160156 17.902344 L 24.5625 17.902344 L 24.5625 18.597656 L 25.160156 18.597656 C 25.242188 18.597656 25.308594 18.664062 25.308594 18.746094 L 25.308594 19.65625 C 25.308594 19.738281 25.242188 19.804688 25.160156 19.804688 L 24.5625 19.804688 L 24.5625 20.5 L 25.160156 20.5 C 25.242188 20.5 25.308594 20.566406 25.308594 20.648438 L 25.308594 21.253906 L 25.996094 21.253906 L 25.996094 20.648438 C 25.996094 20.566406 26.0625 20.5 26.144531 20.5 L 27.046875 20.5 C 27.128906 20.5 27.195312 20.566406 27.195312 20.648438 Z M 27.046875 19.804688 L 26.144531 19.804688 C 26.0625 19.804688 25.996094 19.738281 25.996094 19.65625 L 25.996094 18.746094 C 25.996094 18.664062 26.0625 18.597656 26.144531 18.597656 L 27.046875 18.597656 C 27.128906 18.597656 27.195312 18.664062 27.195312 18.746094 L 27.195312 19.65625 C 27.195312 19.738281 27.128906 19.804688 27.046875 19.804688 Z M 26.289062 19.507812 L 26.902344 19.507812 L 26.902344 18.894531 L 26.289062 18.894531 Z M 26.289062 19.507812 " fill-opacity="1" fill-rule="nonzero"></path><path fill="rgb(94.898987%, 54.119873%, 55.288696%)" d="M 29.324219 20.53125 L 30.109375 20.039062 C 30.339844 20.417969 30.726562 20.636719 31.136719 20.636719 C 31.457031 20.636719 31.703125 20.539062 31.703125 20.292969 C 31.703125 20.042969 31.390625 19.949219 31.003906 19.851562 C 30.363281 19.6875 29.507812 19.519531 29.507812 18.625 C 29.507812 17.816406 30.113281 17.375 31.003906 17.375 C 31.835938 17.375 32.332031 17.761719 32.644531 18.148438 L 31.933594 18.734375 C 31.71875 18.46875 31.335938 18.238281 30.996094 18.238281 C 30.695312 18.238281 30.542969 18.339844 30.542969 18.527344 C 30.542969 18.789062 30.847656 18.886719 31.234375 18.980469 C 31.878906 19.136719 32.734375 19.332031 32.734375 20.21875 C 32.734375 20.851562 32.296875 21.472656 31.085938 21.472656 C 30.191406 21.472656 29.65625 21.070312 29.324219 20.53125 Z M 29.324219 20.53125 " fill-opacity="1" fill-rule="nonzero"></path><path fill="rgb(9.799194%, 1.959229%, 35.688782%)" d="M 31.085938 21.621094 C 30.25 21.621094 29.617188 21.28125 29.199219 20.605469 C 29.179688 20.574219 29.171875 20.535156 29.179688 20.496094 C 29.191406 20.457031 29.214844 20.425781 29.246094 20.40625 L 30.03125 19.914062 C 30.0625 19.890625 30.101562 19.886719 30.140625 19.894531 C 30.179688 19.902344 30.210938 19.925781 30.230469 19.960938 C 30.433594 20.292969 30.773438 20.488281 31.136719 20.488281 C 31.292969 20.488281 31.554688 20.464844 31.554688 20.292969 C 31.554688 20.164062 31.339844 20.085938 30.96875 19.992188 L 30.863281 19.96875 C 30.230469 19.808594 29.363281 19.585938 29.363281 18.625 C 29.363281 17.761719 29.992188 17.226562 31.003906 17.226562 C 31.722656 17.226562 32.3125 17.503906 32.757812 18.054688 C 32.808594 18.117188 32.800781 18.210938 32.738281 18.261719 L 32.027344 18.847656 C 32 18.875 31.960938 18.886719 31.921875 18.882812 C 31.882812 18.878906 31.847656 18.859375 31.824219 18.828125 C 31.613281 18.570312 31.265625 18.386719 30.996094 18.386719 C 30.792969 18.386719 30.6875 18.433594 30.6875 18.527344 C 30.6875 18.667969 30.894531 18.742188 31.269531 18.839844 L 31.289062 18.84375 C 31.925781 18.996094 32.882812 19.226562 32.882812 20.21875 C 32.882812 20.898438 32.410156 21.621094 31.085938 21.621094 Z M 29.527344 20.574219 C 29.890625 21.082031 30.402344 21.328125 31.085938 21.328125 C 32.027344 21.328125 32.589844 20.914062 32.589844 20.21875 C 32.589844 19.515625 31.996094 19.316406 31.222656 19.128906 L 31.203125 19.125 C 30.84375 19.035156 30.394531 18.921875 30.394531 18.527344 C 30.394531 18.394531 30.453125 18.089844 30.996094 18.089844 C 31.355469 18.089844 31.71875 18.304688 31.949219 18.535156 L 32.4375 18.128906 C 32.058594 17.71875 31.585938 17.519531 31.003906 17.519531 C 30.160156 17.519531 29.65625 17.933594 29.65625 18.625 C 29.65625 19.304688 30.183594 19.492188 30.933594 19.683594 L 31.039062 19.707031 C 31.398438 19.796875 31.847656 19.910156 31.847656 20.292969 C 31.847656 20.441406 31.777344 20.785156 31.136719 20.785156 C 30.71875 20.785156 30.328125 20.582031 30.066406 20.238281 Z M 29.527344 20.574219 " fill-opacity="1" fill-rule="nonzero"></path><path fill="rgb(94.898987%, 54.119873%, 55.288696%)" d="M 34.21875 17.433594 L 35.203125 17.433594 L 36.59375 21.398438 L 35.523438 21.398438 L 35.285156 20.664062 L 34.050781 20.664062 L 33.796875 21.398438 L 32.832031 21.398438 Z M 35.046875 19.90625 L 34.683594 18.808594 L 34.675781 18.808594 L 34.296875 19.90625 Z M 35.046875 19.90625 " fill-opacity="1" fill-rule="nonzero"></path><path fill="rgb(9.799194%, 1.959229%, 35.688782%)" d="M 36.59375 21.546875 L 35.523438 21.546875 C 35.457031 21.546875 35.402344 21.503906 35.382812 21.445312 L 35.175781 20.808594 L 34.152344 20.808594 L 33.933594 21.449219 C 33.914062 21.507812 33.855469 21.546875 33.796875 21.546875 L 32.832031 21.546875 C 32.785156 21.546875 32.738281 21.523438 32.710938 21.484375 C 32.683594 21.445312 32.675781 21.394531 32.691406 21.351562 L 34.082031 17.382812 C 34.101562 17.324219 34.15625 17.285156 34.21875 17.285156 L 35.203125 17.285156 C 35.265625 17.285156 35.320312 17.324219 35.34375 17.382812 L 36.730469 21.351562 C 36.746094 21.394531 36.738281 21.445312 36.710938 21.484375 C 36.683594 21.523438 36.640625 21.546875 36.59375 21.546875 Z M 35.628906 21.253906 L 36.386719 21.253906 L 35.101562 17.578125 L 34.320312 17.578125 L 33.035156 21.253906 L 33.691406 21.253906 L 33.910156 20.613281 C 33.933594 20.554688 33.988281 20.515625 34.050781 20.515625 L 35.285156 20.515625 C 35.347656 20.515625 35.402344 20.554688 35.421875 20.617188 Z M 35.046875 20.050781 L 34.296875 20.050781 C 34.25 20.050781 34.207031 20.027344 34.179688 19.988281 C 34.152344 19.953125 34.144531 19.902344 34.160156 19.855469 L 34.535156 18.761719 C 34.558594 18.703125 34.613281 18.664062 34.675781 18.664062 L 34.683594 18.664062 C 34.746094 18.664062 34.804688 18.703125 34.824219 18.765625 L 35.183594 19.859375 C 35.199219 19.902344 35.191406 19.953125 35.164062 19.992188 C 35.136719 20.027344 35.09375 20.050781 35.046875 20.050781 Z M 34.503906 19.757812 L 34.84375 19.757812 L 34.675781 19.253906 Z M 34.503906 19.757812 " fill-opacity="1" fill-rule="nonzero"></path><path fill="rgb(94.898987%, 54.119873%, 55.288696%)" d="M 37.011719 17.449219 L 38.070312 17.449219 L 38.070312 20.539062 L 39.71875 20.539062 L 39.71875 21.398438 L 37.011719 21.398438 Z M 37.011719 17.449219 " fill-opacity="1" fill-rule="nonzero"></path><path fill="rgb(9.799194%, 1.959229%, 35.688782%)" d="M 39.71875 21.546875 L 37.011719 21.546875 C 36.929688 21.546875 36.863281 21.480469 36.863281 21.398438 L 36.863281 17.449219 C 36.863281 17.367188 36.929688 17.300781 37.011719 17.300781 L 38.070312 17.300781 C 38.152344 17.300781 38.214844 17.367188 38.214844 17.449219 L 38.214844 20.394531 L 39.71875 20.394531 C 39.796875 20.394531 39.863281 20.457031 39.863281 20.539062 L 39.863281 21.398438 C 39.863281 21.480469 39.796875 21.546875 39.71875 21.546875 Z M 37.15625 21.253906 L 39.570312 21.253906 L 39.570312 20.6875 L 38.070312 20.6875 C 37.988281 20.6875 37.925781 20.621094 37.925781 20.539062 L 37.925781 17.59375 L 37.15625 17.59375 Z M 37.15625 21.253906 " fill-opacity="1" fill-rule="nonzero"></path><path fill="rgb(94.898987%, 54.119873%, 55.288696%)" d="M 40.164062 17.449219 L 42.960938 17.449219 L 42.960938 18.335938 L 41.222656 18.335938 L 41.222656 18.976562 L 42.460938 18.976562 L 42.460938 19.808594 L 41.222656 19.808594 L 41.222656 20.539062 L 43.050781 20.539062 L 43.050781 21.398438 L 40.164062 21.398438 Z M 40.164062 17.449219 " fill-opacity="1" fill-rule="nonzero"></path><path fill="rgb(9.799194%, 1.959229%, 35.688782%)" d="M 43.050781 21.546875 L 40.164062 21.546875 C 40.082031 21.546875 40.015625 21.480469 40.015625 21.398438 L 40.015625 17.449219 C 40.015625 17.367188 40.082031 17.300781 40.164062 17.300781 L 42.960938 17.300781 C 43.039062 17.300781 43.105469 17.367188 43.105469 17.449219 L 43.105469 18.335938 C 43.105469 18.417969 43.039062 18.480469 42.960938 18.480469 L 41.367188 18.480469 L 41.367188 18.828125 L 42.460938 18.828125 C 42.542969 18.828125 42.609375 18.894531 42.609375 18.976562 L 42.609375 19.808594 C 42.609375 19.890625 42.542969 19.957031 42.460938 19.957031 L 41.367188 19.957031 L 41.367188 20.394531 L 43.050781 20.394531 C 43.132812 20.394531 43.195312 20.457031 43.195312 20.539062 L 43.195312 21.398438 C 43.195312 21.480469 43.132812 21.546875 43.050781 21.546875 Z M 40.308594 21.253906 L 42.90625 21.253906 L 42.90625 20.6875 L 41.222656 20.6875 C 41.140625 20.6875 41.078125 20.621094 41.078125 20.539062 L 41.078125 19.808594 C 41.078125 19.726562 41.140625 19.660156 41.222656 19.660156 L 42.316406 19.660156 L 42.316406 19.121094 L 41.222656 19.121094 C 41.140625 19.121094 41.078125 19.058594 41.078125 18.976562 L 41.078125 18.335938 C 41.078125 18.253906 41.140625 18.1875 41.222656 18.1875 L 42.8125 18.1875 L 42.8125 17.59375 L 40.308594 17.59375 Z M 40.308594 21.253906 " fill-opacity="1" fill-rule="nonzero"></path><path fill="rgb(96.469116%, 74.119568%, 23.139954%)" d="M 28.460938 28.9375 L 25.25 28.9375 C 24.789062 28.9375 24.414062 28.5625 24.414062 28.097656 L 24.414062 24.859375 C 24.414062 24.394531 24.789062 24.019531 25.25 24.019531 L 28.460938 24.019531 C 28.921875 24.019531 29.296875 24.394531 29.296875 24.859375 L 29.296875 28.097656 C 29.296875 28.5625 28.921875 28.9375 28.460938 28.9375 Z M 28.460938 28.9375 " fill-opacity="1" fill-rule="nonzero"></path><path fill="rgb(9.799194%, 1.959229%, 35.688782%)" d="M 28.464844 29.085938 L 25.242188 29.085938 C 24.707031 29.085938 24.269531 28.644531 24.269531 28.101562 L 24.269531 24.851562 C 24.269531 24.3125 24.707031 23.871094 25.242188 23.871094 L 28.464844 23.871094 C 29.003906 23.871094 29.441406 24.3125 29.441406 24.851562 L 29.441406 28.101562 C 29.441406 28.644531 29.003906 29.085938 28.464844 29.085938 Z M 25.242188 24.164062 C 24.867188 24.164062 24.5625 24.472656 24.5625 24.851562 L 24.5625 28.101562 C 24.5625 28.480469 24.867188 28.789062 25.242188 28.789062 L 28.464844 28.789062 C 28.84375 28.789062 29.148438 28.480469 29.148438 28.101562 L 29.148438 24.851562 C 29.148438 24.472656 28.84375 24.164062 28.464844 24.164062 Z M 25.242188 24.164062 " fill-opacity="1" fill-rule="nonzero"></path><path fill="rgb(92.549133%, 56.079102%, 23.529053%)" d="M 34.878906 28.9375 L 31.664062 28.9375 C 31.207031 28.9375 30.832031 28.5625 30.832031 28.097656 L 30.832031 24.859375 C 30.832031 24.394531 31.207031 24.019531 31.664062 24.019531 L 34.878906 24.019531 C 35.339844 24.019531 35.714844 24.394531 35.714844 24.859375 L 35.714844 28.097656 C 35.714844 28.5625 35.339844 28.9375 34.878906 28.9375 Z M 34.878906 28.9375 " fill-opacity="1" fill-rule="nonzero"></path><path fill="rgb(9.799194%, 1.959229%, 35.688782%)" d="M 34.882812 29.085938 L 31.660156 29.085938 C 31.125 29.085938 30.6875 28.644531 30.6875 28.101562 L 30.6875 24.851562 C 30.6875 24.3125 31.125 23.871094 31.660156 23.871094 L 34.882812 23.871094 C 35.421875 23.871094 35.859375 24.3125 35.859375 24.851562 L 35.859375 28.101562 C 35.859375 28.644531 35.421875 29.085938 34.882812 29.085938 Z M 31.660156 24.164062 C 31.285156 24.164062 30.976562 24.472656 30.976562 24.851562 L 30.976562 28.101562 C 30.976562 28.480469 31.285156 28.789062 31.660156 28.789062 L 34.882812 28.789062 C 35.261719 28.789062 35.566406 28.480469 35.566406 28.101562 L 35.566406 24.851562 C 35.566406 24.472656 35.261719 24.164062 34.882812 24.164062 Z M 31.660156 24.164062 " fill-opacity="1" fill-rule="nonzero"></path><path fill="rgb(100%, 100%, 100%)" d="M 41.296875 28.9375 L 38.082031 28.9375 C 37.621094 28.9375 37.25 28.5625 37.25 28.097656 L 37.25 24.859375 C 37.25 24.394531 37.621094 24.019531 38.082031 24.019531 L 41.296875 24.019531 C 41.757812 24.019531 42.128906 24.394531 42.128906 24.859375 L 42.128906 28.097656 C 42.128906 28.5625 41.757812 28.9375 41.296875 28.9375 Z M 41.296875 28.9375 " fill-opacity="1" fill-rule="nonzero"></path><path fill="rgb(9.799194%, 1.959229%, 35.688782%)" d="M 41.300781 29.085938 L 38.078125 29.085938 C 37.539062 29.085938 37.101562 28.644531 37.101562 28.101562 L 37.101562 24.851562 C 37.101562 24.3125 37.539062 23.871094 38.078125 23.871094 L 41.300781 23.871094 C 41.839844 23.871094 42.277344 24.3125 42.277344 24.851562 L 42.277344 28.101562 C 42.277344 28.644531 41.839844 29.085938 41.300781 29.085938 Z M 38.078125 24.164062 C 37.703125 24.164062 37.394531 24.472656 37.394531 24.851562 L 37.394531 28.101562 C 37.394531 28.480469 37.703125 28.789062 38.078125 28.789062 L 41.300781 28.789062 C 41.679688 28.789062 41.984375 28.480469 41.984375 28.101562 L 41.984375 24.851562 C 41.984375 24.472656 41.679688 24.164062 41.300781 24.164062 Z M 38.078125 24.164062 " fill-opacity="1" fill-rule="nonzero"></path><path fill="rgb(96.469116%, 74.119568%, 23.139954%)" d="M 43.214844 26.476562 C 43.214844 26.621094 43.1875 26.761719 43.132812 26.894531 C 43.078125 27.03125 43 27.148438 42.898438 27.25 C 42.796875 27.351562 42.679688 27.429688 42.546875 27.488281 C 42.414062 27.542969 42.273438 27.570312 42.128906 27.570312 C 41.988281 27.570312 41.847656 27.542969 41.714844 27.488281 C 41.582031 27.429688 41.464844 27.351562 41.363281 27.25 C 41.261719 27.148438 41.183594 27.03125 41.128906 26.894531 C 41.074219 26.761719 41.046875 26.621094 41.046875 26.476562 C 41.046875 26.332031 41.074219 26.191406 41.128906 26.058594 C 41.183594 25.925781 41.261719 25.808594 41.363281 25.703125 C 41.464844 25.601562 41.582031 25.523438 41.714844 25.46875 C 41.847656 25.414062 41.988281 25.386719 42.128906 25.386719 C 42.273438 25.386719 42.414062 25.414062 42.546875 25.46875 C 42.679688 25.523438 42.796875 25.601562 42.898438 25.703125 C 43 25.808594 43.078125 25.925781 43.132812 26.058594 C 43.1875 26.191406 43.214844 26.332031 43.214844 26.476562 Z M 43.214844 26.476562 " fill-opacity="1" fill-rule="nonzero"></path><path fill="rgb(9.799194%, 1.959229%, 35.688782%)" d="M 42.128906 27.71875 C 41.453125 27.71875 40.898438 27.160156 40.898438 26.476562 C 40.898438 25.792969 41.453125 25.238281 42.128906 25.238281 C 42.808594 25.238281 43.359375 25.792969 43.359375 26.476562 C 43.359375 27.160156 42.808594 27.71875 42.128906 27.71875 Z M 42.128906 25.53125 C 41.613281 25.53125 41.191406 25.957031 41.191406 26.476562 C 41.191406 27 41.613281 27.421875 42.128906 27.421875 C 42.648438 27.421875 43.070312 27 43.070312 26.476562 C 43.070312 25.957031 42.648438 25.53125 42.128906 25.53125 Z M 42.128906 25.53125 " fill-opacity="1" fill-rule="nonzero"></path><path fill="rgb(9.799194%, 1.959229%, 35.688782%)" d="M 42.679688 26.625 L 41.605469 26.625 C 41.527344 26.625 41.460938 26.558594 41.460938 26.476562 C 41.460938 26.394531 41.527344 26.332031 41.605469 26.332031 L 42.679688 26.332031 C 42.761719 26.332031 42.824219 26.394531 42.824219 26.476562 C 42.824219 26.558594 42.761719 26.625 42.679688 26.625 Z M 42.679688 26.625 " fill-opacity="1" fill-rule="nonzero"></path><path fill="rgb(9.799194%, 1.959229%, 35.688782%)" d="M 42.3125 26.996094 C 42.273438 26.996094 42.234375 26.984375 42.207031 26.953125 C 42.148438 26.894531 42.148438 26.804688 42.207031 26.746094 L 42.472656 26.476562 L 42.207031 26.210938 C 42.148438 26.152344 42.148438 26.058594 42.207031 26 C 42.265625 25.945312 42.355469 25.945312 42.414062 26 L 42.78125 26.375 C 42.839844 26.429688 42.839844 26.523438 42.78125 26.582031 L 42.414062 26.953125 C 42.386719 26.984375 42.347656 26.996094 42.3125 26.996094 Z M 42.3125 26.996094 " fill-opacity="1" fill-rule="nonzero"></path><path fill="rgb(100%, 100%, 100%)" d="M 8.898438 19 C 8.898438 19.113281 8.859375 19.207031 8.78125 19.289062 C 8.703125 19.367188 8.605469 19.40625 8.496094 19.40625 C 8.386719 19.40625 8.289062 19.367188 8.210938 19.289062 C 8.132812 19.207031 8.09375 19.113281 8.09375 19 C 8.09375 18.890625 8.132812 18.792969 8.210938 18.714844 C 8.289062 18.636719 8.386719 18.597656 8.496094 18.597656 C 8.605469 18.597656 8.703125 18.636719 8.78125 18.714844 C 8.859375 18.792969 8.898438 18.890625 8.898438 19 Z M 8.898438 19 " fill-opacity="1" fill-rule="nonzero"></path><path fill="rgb(96.469116%, 74.119568%, 23.139954%)" d="M 8.496094 19.554688 C 8.195312 19.554688 7.949219 19.304688 7.949219 19 C 7.949219 18.695312 8.195312 18.449219 8.496094 18.449219 C 8.796875 18.449219 9.042969 18.695312 9.042969 19 C 9.042969 19.304688 8.796875 19.554688 8.496094 19.554688 Z M 8.496094 18.742188 C 8.355469 18.742188 8.238281 18.859375 8.238281 19 C 8.238281 19.144531 8.355469 19.257812 8.496094 19.257812 C 8.636719 19.257812 8.75 19.144531 8.75 19 C 8.75 18.859375 8.636719 18.742188 8.496094 18.742188 Z M 8.496094 18.742188 " fill-opacity="1" fill-rule="nonzero"></path><path fill="rgb(100%, 100%, 100%)" d="M 23.382812 13 C 23.382812 13.15625 23.328125 13.289062 23.21875 13.398438 C 23.109375 13.507812 22.976562 13.566406 22.824219 13.566406 C 22.667969 13.566406 22.535156 13.507812 22.425781 13.398438 C 22.316406 13.289062 22.261719 13.15625 22.261719 13 C 22.261719 12.84375 22.316406 12.710938 22.425781 12.601562 C 22.535156 12.488281 22.667969 12.433594 22.824219 12.433594 C 22.976562 12.433594 23.109375 12.488281 23.21875 12.601562 C 23.328125 12.710938 23.382812 12.84375 23.382812 13 Z M 23.382812 13 " fill-opacity="1" fill-rule="nonzero"></path><path fill="rgb(96.469116%, 74.119568%, 23.139954%)" d="M 22.824219 13.710938 C 22.433594 13.710938 22.117188 13.390625 22.117188 13 C 22.117188 12.605469 22.433594 12.289062 22.824219 12.289062 C 23.210938 12.289062 23.527344 12.605469 23.527344 13 C 23.527344 13.390625 23.210938 13.710938 22.824219 13.710938 Z M 22.824219 12.582031 C 22.59375 12.582031 22.40625 12.769531 22.40625 13 C 22.40625 13.230469 22.59375 13.417969 22.824219 13.417969 C 23.050781 13.417969 23.238281 13.230469 23.238281 13 C 23.238281 12.769531 23.050781 12.582031 22.824219 12.582031 Z M 22.824219 12.582031 " fill-opacity="1" fill-rule="nonzero"></path><path fill="rgb(94.898987%, 54.119873%, 55.288696%)" d="M 8.496094 23.53125 C 8.414062 23.53125 8.351562 23.464844 8.351562 23.386719 L 8.351562 21.898438 C 8.351562 21.820312 8.414062 21.753906 8.496094 21.753906 C 8.578125 21.753906 8.640625 21.820312 8.640625 21.898438 L 8.640625 23.386719 C 8.640625 23.464844 8.578125 23.53125 8.496094 23.53125 Z M 8.496094 23.53125 " fill-opacity="1" fill-rule="nonzero"></path><path fill="rgb(94.898987%, 54.119873%, 55.288696%)" d="M 9.234375 22.789062 L 7.757812 22.789062 C 7.679688 22.789062 7.613281 22.722656 7.613281 22.640625 C 7.613281 22.5625 7.679688 22.496094 7.757812 22.496094 L 9.234375 22.496094 C 9.3125 22.496094 9.378906 22.5625 9.378906 22.640625 C 9.378906 22.722656 9.3125 22.789062 9.234375 22.789062 Z M 9.234375 22.789062 " fill-opacity="1" fill-rule="nonzero"></path><path fill="rgb(96.469116%, 74.119568%, 23.139954%)" d="M 22.824219 29.816406 C 22.742188 29.816406 22.675781 29.75 22.675781 29.667969 L 22.675781 28.183594 C 22.675781 28.101562 22.742188 28.035156 22.824219 28.035156 C 22.902344 28.035156 22.96875 28.101562 22.96875 28.183594 L 22.96875 29.667969 C 22.96875 29.75 22.902344 29.816406 22.824219 29.816406 Z M 22.824219 29.816406 " fill-opacity="1" fill-rule="nonzero"></path><path fill="rgb(96.469116%, 74.119568%, 23.139954%)" d="M 23.558594 29.074219 L 22.085938 29.074219 C 22.003906 29.074219 21.941406 29.007812 21.941406 28.925781 C 21.941406 28.84375 22.003906 28.777344 22.085938 28.777344 L 23.558594 28.777344 C 23.640625 28.777344 23.707031 28.84375 23.707031 28.925781 C 23.707031 29.007812 23.640625 29.074219 23.558594 29.074219 Z M 23.558594 29.074219 " fill-opacity="1" fill-rule="nonzero"></path><path fill="rgb(9.799194%, 1.959229%, 35.688782%)" d="M 13.988281 34.929688 L 9.792969 34.929688 C 9.710938 34.929688 9.648438 34.863281 9.648438 34.78125 C 9.648438 34.703125 9.710938 34.636719 9.792969 34.636719 L 13.988281 34.636719 C 14.070312 34.636719 14.136719 34.703125 14.136719 34.78125 C 14.136719 34.863281 14.070312 34.929688 13.988281 34.929688 Z M 13.988281 34.929688 " fill-opacity="1" fill-rule="nonzero"></path><path fill="rgb(9.799194%, 1.959229%, 35.688782%)" d="M 12.765625 35.988281 L 9.792969 35.988281 C 9.710938 35.988281 9.648438 35.921875 9.648438 35.839844 C 9.648438 35.761719 9.710938 35.695312 9.792969 35.695312 L 12.765625 35.695312 C 12.847656 35.695312 12.914062 35.761719 12.914062 35.839844 C 12.914062 35.921875 12.847656 35.988281 12.765625 35.988281 Z M 12.765625 35.988281 " fill-opacity="1" fill-rule="nonzero"></path><path fill="rgb(9.799194%, 1.959229%, 35.688782%)" d="M 12.277344 37.046875 L 9.792969 37.046875 C 9.710938 37.046875 9.648438 36.980469 9.648438 36.898438 C 9.648438 36.816406 9.710938 36.753906 9.792969 36.753906 L 12.277344 36.753906 C 12.359375 36.753906 12.421875 36.816406 12.421875 36.898438 C 12.421875 36.980469 12.359375 37.046875 12.277344 37.046875 Z M 12.277344 37.046875 " fill-opacity="1" fill-rule="nonzero"></path><path fill="rgb(94.898987%, 54.119873%, 55.288696%)" d="M 46.632812 14.230469 C 46.632812 14.5 46.582031 14.761719 46.480469 15.011719 C 46.378906 15.261719 46.230469 15.480469 46.042969 15.671875 C 45.851562 15.863281 45.632812 16.007812 45.386719 16.113281 C 45.140625 16.214844 44.882812 16.265625 44.613281 16.265625 C 44.34375 16.265625 44.085938 16.214844 43.839844 16.113281 C 43.59375 16.007812 43.375 15.863281 43.183594 15.671875 C 42.996094 15.480469 42.847656 15.261719 42.746094 15.011719 C 42.644531 14.761719 42.59375 14.5 42.59375 14.230469 C 42.59375 13.960938 42.644531 13.703125 42.746094 13.453125 C 42.847656 13.203125 42.996094 12.984375 43.183594 12.792969 C 43.375 12.601562 43.59375 12.453125 43.839844 12.351562 C 44.085938 12.246094 44.34375 12.195312 44.613281 12.195312 C 44.882812 12.195312 45.140625 12.246094 45.386719 12.351562 C 45.632812 12.453125 45.851562 12.601562 46.042969 12.792969 C 46.230469 12.984375 46.378906 13.203125 46.480469 13.453125 C 46.582031 13.703125 46.632812 13.960938 46.632812 14.230469 Z M 46.632812 14.230469 " fill-opacity="1" fill-rule="nonzero"></path><path fill="rgb(9.799194%, 1.959229%, 35.688782%)" d="M 44.613281 16.414062 C 43.417969 16.414062 42.445312 15.433594 42.445312 14.230469 C 42.445312 13.027344 43.417969 12.046875 44.613281 12.046875 C 45.808594 12.046875 46.78125 13.027344 46.78125 14.230469 C 46.78125 15.433594 45.808594 16.414062 44.613281 16.414062 Z M 44.613281 12.34375 C 43.578125 12.34375 42.738281 13.191406 42.738281 14.230469 C 42.738281 15.273438 43.578125 16.121094 44.613281 16.121094 C 45.648438 16.121094 46.488281 15.273438 46.488281 14.230469 C 46.488281 13.191406 45.648438 12.34375 44.613281 12.34375 Z M 44.613281 12.34375 " fill-opacity="1" fill-rule="nonzero"></path><path fill="rgb(96.469116%, 74.119568%, 23.139954%)" d="M 45.554688 18.457031 L 44.601562 16.953125 L 45.367188 15.34375 L 46.320312 16.847656 Z M 45.554688 18.457031 " fill-opacity="1" fill-rule="nonzero"></path><path fill="rgb(9.799194%, 1.959229%, 35.688782%)" d="M 45.554688 18.605469 C 45.503906 18.605469 45.457031 18.578125 45.429688 18.539062 L 44.476562 17.03125 C 44.449219 16.988281 44.445312 16.933594 44.46875 16.890625 L 45.234375 15.28125 C 45.257812 15.230469 45.304688 15.199219 45.359375 15.195312 C 45.410156 15.191406 45.460938 15.21875 45.492188 15.265625 L 46.445312 16.769531 C 46.46875 16.8125 46.472656 16.867188 46.453125 16.914062 L 45.683594 18.523438 C 45.660156 18.570312 45.613281 18.601562 45.5625 18.605469 C 45.558594 18.605469 45.554688 18.605469 45.554688 18.605469 Z M 44.765625 16.941406 L 45.535156 18.15625 L 46.152344 16.859375 L 45.386719 15.644531 Z M 44.765625 16.941406 " fill-opacity="1" fill-rule="nonzero"></path><path fill="rgb(92.549133%, 56.079102%, 23.529053%)" d="M 45.554688 18.457031 L 47.578125 18.335938 L 48.34375 16.726562 L 46.320312 16.847656 Z M 45.554688 18.457031 " fill-opacity="1" fill-rule="nonzero"></path><path fill="rgb(9.799194%, 1.959229%, 35.688782%)" d="M 45.554688 18.605469 C 45.503906 18.605469 45.460938 18.582031 45.433594 18.539062 C 45.402344 18.496094 45.398438 18.441406 45.421875 18.394531 L 46.1875 16.785156 C 46.210938 16.738281 46.257812 16.703125 46.3125 16.703125 L 48.335938 16.578125 C 48.386719 16.574219 48.4375 16.601562 48.464844 16.644531 C 48.496094 16.6875 48.5 16.742188 48.476562 16.789062 L 47.710938 18.398438 C 47.6875 18.449219 47.640625 18.480469 47.585938 18.484375 L 45.5625 18.605469 C 45.558594 18.605469 45.554688 18.605469 45.554688 18.605469 Z M 46.414062 16.992188 L 45.792969 18.296875 L 47.484375 18.195312 L 48.105469 16.886719 Z M 46.414062 16.992188 " fill-opacity="1" fill-rule="nonzero"></path><path fill="rgb(100%, 100%, 100%)" d="M 45.367188 15.34375 L 47.390625 15.21875 L 48.34375 16.726562 L 46.320312 16.847656 Z M 45.367188 15.34375 " fill-opacity="1" fill-rule="nonzero"></path><path fill="rgb(9.799194%, 1.959229%, 35.688782%)" d="M 46.320312 16.996094 C 46.269531 16.996094 46.222656 16.96875 46.195312 16.925781 L 45.242188 15.421875 C 45.214844 15.378906 45.214844 15.324219 45.238281 15.277344 C 45.261719 15.230469 45.308594 15.199219 45.359375 15.195312 L 47.382812 15.074219 C 47.4375 15.070312 47.484375 15.097656 47.515625 15.140625 L 48.46875 16.648438 C 48.496094 16.691406 48.5 16.746094 48.472656 16.792969 C 48.449219 16.839844 48.40625 16.871094 48.351562 16.871094 L 46.328125 16.996094 C 46.324219 16.996094 46.324219 16.996094 46.320312 16.996094 Z M 45.625 15.476562 L 46.398438 16.695312 L 48.085938 16.59375 L 47.316406 15.371094 Z M 45.625 15.476562 " fill-opacity="1" fill-rule="nonzero"></path><path fill="rgb(94.898987%, 54.119873%, 55.288696%)" d="M 6.796875 15.976562 C 6.617188 15.976562 6.449219 15.90625 6.320312 15.777344 C 6.171875 15.628906 5.929688 15.628906 5.777344 15.777344 C 5.652344 15.90625 5.480469 15.976562 5.300781 15.976562 C 5.121094 15.976562 4.953125 15.90625 4.824219 15.777344 C 4.675781 15.628906 4.433594 15.628906 4.28125 15.777344 C 4.15625 15.90625 3.984375 15.976562 3.804688 15.976562 C 3.625 15.976562 3.457031 15.90625 3.328125 15.777344 C 3.183594 15.632812 2.929688 15.632812 2.785156 15.777344 C 2.730469 15.835938 2.636719 15.835938 2.578125 15.777344 C 2.523438 15.71875 2.523438 15.628906 2.578125 15.570312 C 2.84375 15.304688 3.269531 15.304688 3.535156 15.570312 C 3.679688 15.714844 3.929688 15.714844 4.074219 15.570312 C 4.339844 15.304688 4.765625 15.304688 5.03125 15.570312 C 5.175781 15.714844 5.425781 15.714844 5.570312 15.570312 C 5.699219 15.441406 5.867188 15.371094 6.050781 15.371094 C 6.230469 15.371094 6.398438 15.441406 6.527344 15.570312 C 6.671875 15.714844 6.921875 15.714844 7.066406 15.570312 C 7.332031 15.304688 7.757812 15.304688 8.023438 15.570312 C 8.078125 15.628906 8.078125 15.71875 8.023438 15.777344 C 7.964844 15.835938 7.875 15.835938 7.816406 15.777344 C 7.671875 15.632812 7.417969 15.632812 7.273438 15.777344 C 7.148438 15.90625 6.976562 15.976562 6.796875 15.976562 Z M 6.796875 15.976562 " fill-opacity="1" fill-rule="nonzero"></path><path fill="rgb(94.898987%, 54.119873%, 55.288696%)" d="M 7.699219 17.164062 C 7.519531 17.164062 7.347656 17.09375 7.222656 16.964844 C 7.074219 16.8125 6.828125 16.8125 6.679688 16.964844 C 6.550781 17.09375 6.382812 17.164062 6.203125 17.164062 C 6.023438 17.164062 5.851562 17.09375 5.726562 16.964844 C 5.574219 16.8125 5.332031 16.816406 5.183594 16.964844 C 5.054688 17.09375 4.886719 17.164062 4.707031 17.164062 C 4.527344 17.164062 4.355469 17.09375 4.230469 16.964844 C 4.078125 16.8125 3.835938 16.816406 3.6875 16.964844 C 3.628906 17.023438 3.539062 17.023438 3.480469 16.964844 C 3.425781 16.90625 3.425781 16.8125 3.480469 16.757812 C 3.746094 16.492188 4.171875 16.492188 4.4375 16.757812 C 4.582031 16.902344 4.832031 16.902344 4.976562 16.757812 C 5.242188 16.492188 5.667969 16.492188 5.933594 16.757812 C 6.078125 16.902344 6.328125 16.902344 6.472656 16.757812 C 6.738281 16.492188 7.164062 16.492188 7.429688 16.757812 C 7.574219 16.902344 7.824219 16.902344 7.96875 16.757812 C 8.027344 16.699219 8.121094 16.699219 8.175781 16.757812 C 8.234375 16.8125 8.234375 16.90625 8.175781 16.964844 C 8.046875 17.09375 7.878906 17.164062 7.699219 17.164062 Z M 7.699219 17.164062 " fill-opacity="1" fill-rule="nonzero"></path><path fill="rgb(94.898987%, 54.119873%, 55.288696%)" d="M 47.328125 23.171875 C 47.148438 23.171875 46.980469 23.097656 46.851562 22.972656 C 46.707031 22.824219 46.453125 22.824219 46.308594 22.972656 C 46.183594 23.097656 46.011719 23.171875 45.832031 23.171875 C 45.652344 23.171875 45.484375 23.097656 45.355469 22.972656 C 45.210938 22.824219 44.957031 22.824219 44.8125 22.972656 C 44.6875 23.097656 44.515625 23.171875 44.335938 23.171875 C 44.15625 23.171875 43.988281 23.097656 43.859375 22.972656 C 43.714844 22.824219 43.460938 22.824219 43.316406 22.972656 C 43.261719 23.027344 43.167969 23.027344 43.109375 22.972656 C 43.054688 22.914062 43.054688 22.820312 43.109375 22.761719 C 43.375 22.496094 43.804688 22.496094 44.066406 22.761719 C 44.210938 22.910156 44.460938 22.910156 44.609375 22.761719 C 44.871094 22.496094 45.300781 22.496094 45.5625 22.761719 C 45.707031 22.910156 45.960938 22.910156 46.105469 22.761719 C 46.367188 22.496094 46.796875 22.496094 47.058594 22.761719 C 47.203125 22.910156 47.457031 22.910156 47.601562 22.761719 C 47.863281 22.496094 48.292969 22.496094 48.554688 22.761719 C 48.613281 22.820312 48.613281 22.914062 48.554688 22.972656 C 48.496094 23.027344 48.40625 23.027344 48.347656 22.972656 C 48.199219 22.820312 47.957031 22.820312 47.804688 22.972656 C 47.679688 23.097656 47.507812 23.171875 47.328125 23.171875 Z M 47.328125 23.171875 " fill-opacity="1" fill-rule="nonzero"></path><path fill="rgb(94.898987%, 54.119873%, 55.288696%)" d="M 43.960938 24.355469 C 43.78125 24.355469 43.613281 24.285156 43.484375 24.15625 C 43.429688 24.101562 43.429688 24.007812 43.484375 23.949219 C 43.542969 23.890625 43.636719 23.890625 43.691406 23.949219 C 43.835938 24.09375 44.089844 24.09375 44.234375 23.949219 C 44.496094 23.683594 44.925781 23.683594 45.1875 23.949219 C 45.335938 24.101562 45.582031 24.101562 45.730469 23.949219 C 45.992188 23.683594 46.421875 23.683594 46.683594 23.949219 C 46.832031 24.101562 47.078125 24.101562 47.226562 23.949219 C 47.488281 23.683594 47.917969 23.683594 48.179688 23.949219 C 48.238281 24.007812 48.238281 24.101562 48.179688 24.15625 C 48.125 24.214844 48.03125 24.214844 47.972656 24.15625 C 47.824219 24.007812 47.582031 24.007812 47.433594 24.15625 C 47.167969 24.421875 46.742188 24.421875 46.476562 24.15625 C 46.328125 24.007812 46.085938 24.007812 45.9375 24.15625 C 45.671875 24.421875 45.246094 24.421875 44.980469 24.15625 C 44.832031 24.007812 44.589844 24.007812 44.441406 24.15625 C 44.3125 24.285156 44.144531 24.355469 43.960938 24.355469 Z M 43.960938 24.355469 " fill-opacity="1" fill-rule="nonzero"></path><path fill="rgb(100%, 100%, 100%)" d="M 47.363281 27.671875 C 47.363281 27.839844 47.304688 27.984375 47.1875 28.101562 C 47.070312 28.21875 46.929688 28.28125 46.761719 28.28125 C 46.59375 28.28125 46.453125 28.21875 46.335938 28.101562 C 46.21875 27.984375 46.160156 27.839844 46.160156 27.671875 C 46.160156 27.503906 46.21875 27.359375 46.335938 27.242188 C 46.453125 27.125 46.59375 27.0625 46.761719 27.0625 C 46.929688 27.0625 47.070312 27.125 47.1875 27.242188 C 47.304688 27.359375 47.363281 27.503906 47.363281 27.671875 Z M 47.363281 27.671875 " fill-opacity="1" fill-rule="nonzero"></path><path fill="rgb(92.549133%, 56.079102%, 23.529053%)" d="M 46.761719 28.425781 C 46.347656 28.425781 46.011719 28.089844 46.011719 27.671875 C 46.011719 27.253906 46.347656 26.917969 46.761719 26.917969 C 47.175781 26.917969 47.511719 27.253906 47.511719 27.671875 C 47.511719 28.089844 47.175781 28.425781 46.761719 28.425781 Z M 46.761719 27.210938 C 46.511719 27.210938 46.304688 27.417969 46.304688 27.671875 C 46.304688 27.925781 46.511719 28.132812 46.761719 28.132812 C 47.015625 28.132812 47.21875 27.925781 47.21875 27.671875 C 47.21875 27.417969 47.015625 27.210938 46.761719 27.210938 Z M 46.761719 27.210938 " fill-opacity="1" fill-rule="nonzero"></path><path fill="rgb(92.549133%, 56.079102%, 23.529053%)" d="M 5.933594 28.324219 C 5.519531 28.324219 5.183594 27.984375 5.183594 27.570312 C 5.183594 27.152344 5.519531 26.816406 5.933594 26.816406 C 6.34375 26.816406 6.679688 27.152344 6.679688 27.570312 C 6.679688 27.984375 6.34375 28.324219 5.933594 28.324219 Z M 5.933594 27.109375 C 5.679688 27.109375 5.476562 27.316406 5.476562 27.570312 C 5.476562 27.824219 5.679688 28.03125 5.933594 28.03125 C 6.183594 28.03125 6.390625 27.824219 6.390625 27.570312 C 6.390625 27.316406 6.183594 27.109375 5.933594 27.109375 Z M 5.933594 27.109375 " fill-opacity="1" fill-rule="nonzero"></path><path fill="rgb(100%, 100%, 100%)" d="M 36.0625 13.246094 L 25.394531 13.246094 C 24.851562 13.246094 24.414062 13.6875 24.414062 14.234375 C 24.414062 14.777344 24.851562 15.21875 25.394531 15.21875 L 36.0625 15.21875 C 36.601562 15.21875 37.039062 14.777344 37.039062 14.234375 C 37.039062 13.6875 36.601562 13.246094 36.0625 13.246094 Z M 36.0625 13.246094 " fill-opacity="1" fill-rule="nonzero"></path><path fill="rgb(9.799194%, 1.959229%, 35.688782%)" d="M 36.0625 15.367188 L 25.394531 15.367188 C 24.773438 15.367188 24.269531 14.859375 24.269531 14.234375 C 24.269531 13.605469 24.773438 13.097656 25.394531 13.097656 L 36.0625 13.097656 C 36.679688 13.097656 37.1875 13.605469 37.1875 14.234375 C 37.1875 14.859375 36.679688 15.367188 36.0625 15.367188 Z M 25.394531 13.390625 C 24.933594 13.390625 24.5625 13.769531 24.5625 14.234375 C 24.5625 14.695312 24.933594 15.074219 25.394531 15.074219 L 36.0625 15.074219 C 36.519531 15.074219 36.894531 14.695312 36.894531 14.234375 C 36.894531 13.769531 36.519531 13.390625 36.0625 13.390625 Z M 25.394531 13.390625 " fill-opacity="1" fill-rule="nonzero"></path><path fill="rgb(100%, 100%, 100%)" d="M 24.925781 32.082031 L 30.214844 32.082031 L 30.214844 35.613281 L 24.925781 35.613281 Z M 24.925781 32.082031 " fill-opacity="1" fill-rule="nonzero"></path><path fill="rgb(9.799194%, 1.959229%, 35.688782%)" d="M 30.214844 35.761719 L 24.925781 35.761719 C 24.847656 35.761719 24.78125 35.695312 24.78125 35.613281 L 24.78125 32.082031 C 24.78125 32 24.847656 31.933594 24.925781 31.933594 L 30.214844 31.933594 C 30.296875 31.933594 30.363281 32 30.363281 32.082031 L 30.363281 35.613281 C 30.363281 35.695312 30.296875 35.761719 30.214844 35.761719 Z M 25.074219 35.464844 L 30.070312 35.464844 L 30.070312 32.230469 L 25.074219 32.230469 Z M 25.074219 35.464844 " fill-opacity="1" fill-rule="nonzero"></path><path fill="rgb(96.469116%, 74.119568%, 23.139954%)" d="M 24.574219 35.613281 L 30.800781 35.613281 L 30.800781 36.429688 L 24.574219 36.429688 Z M 24.574219 35.613281 " fill-opacity="1" fill-rule="nonzero"></path><path fill="rgb(9.799194%, 1.959229%, 35.688782%)" d="M 30.800781 36.578125 L 24.574219 36.578125 C 24.492188 36.578125 24.429688 36.511719 24.429688 36.429688 L 24.429688 35.613281 C 24.429688 35.53125 24.492188 35.464844 24.574219 35.464844 L 30.800781 35.464844 C 30.878906 35.464844 30.945312 35.53125 30.945312 35.613281 L 30.945312 36.429688 C 30.945312 36.511719 30.878906 36.578125 30.800781 36.578125 Z M 24.71875 36.28125 L 30.652344 36.28125 L 30.652344 35.761719 L 24.71875 35.761719 Z M 24.71875 36.28125 " fill-opacity="1" fill-rule="nonzero"></path><path fill="rgb(96.469116%, 74.119568%, 23.139954%)" d="M 32.644531 33.042969 L 30.800781 33.042969 L 30.800781 36.429688 L 33.742188 36.429688 L 33.742188 34.152344 C 33.3125 33.71875 33.074219 33.476562 32.644531 33.042969 Z M 32.644531 33.042969 " fill-opacity="1" fill-rule="nonzero"></path><path fill="rgb(9.799194%, 1.959229%, 35.688782%)" d="M 33.742188 36.578125 L 30.800781 36.578125 C 30.71875 36.578125 30.652344 36.511719 30.652344 36.429688 L 30.652344 33.042969 C 30.652344 32.964844 30.71875 32.898438 30.800781 32.898438 L 32.648438 32.898438 C 32.6875 32.898438 32.726562 32.914062 32.753906 32.941406 L 33.847656 34.042969 C 33.875 34.070312 33.886719 34.105469 33.886719 34.144531 L 33.886719 36.429688 C 33.886719 36.511719 33.824219 36.578125 33.742188 36.578125 Z M 30.945312 36.28125 L 33.597656 36.28125 L 33.597656 34.207031 L 32.589844 33.191406 L 30.945312 33.191406 Z M 30.945312 36.28125 " fill-opacity="1" fill-rule="nonzero"></path><path fill="rgb(92.549133%, 56.079102%, 23.529053%)" d="M 31.382812 34.855469 L 31.382812 33.632812 L 32.40625 33.632812 L 33.160156 34.390625 L 33.160156 34.855469 Z M 31.382812 34.855469 " fill-opacity="1" fill-rule="nonzero"></path><path fill="rgb(9.799194%, 1.959229%, 35.688782%)" d="M 33.160156 35 L 31.382812 35 C 31.304688 35 31.238281 34.933594 31.238281 34.855469 L 31.238281 33.632812 C 31.238281 33.550781 31.304688 33.484375 31.382812 33.484375 L 32.40625 33.484375 C 32.445312 33.484375 32.484375 33.5 32.511719 33.527344 L 33.261719 34.285156 C 33.289062 34.3125 33.304688 34.351562 33.304688 34.390625 L 33.304688 34.855469 C 33.304688 34.933594 33.238281 35 33.160156 35 Z M 31.53125 34.707031 L 33.011719 34.707031 L 33.011719 34.449219 L 32.347656 33.78125 L 31.53125 33.78125 Z M 31.53125 34.707031 " fill-opacity="1" fill-rule="nonzero"></path><path fill="rgb(92.549133%, 56.079102%, 23.529053%)" d="M 32.390625 36.429688 C 32.390625 36.550781 32.351562 36.652344 32.265625 36.738281 C 32.179688 36.824219 32.078125 36.867188 31.960938 36.867188 C 31.839844 36.867188 31.738281 36.824219 31.652344 36.738281 C 31.566406 36.652344 31.527344 36.550781 31.527344 36.429688 C 31.527344 36.308594 31.566406 36.207031 31.652344 36.121094 C 31.738281 36.035156 31.839844 35.992188 31.960938 35.992188 C 32.078125 35.992188 32.179688 36.035156 32.265625 36.121094 C 32.351562 36.207031 32.390625 36.308594 32.390625 36.429688 Z M 32.390625 36.429688 " fill-opacity="1" fill-rule="nonzero"></path><path fill="rgb(9.799194%, 1.959229%, 35.688782%)" d="M 31.960938 37.015625 C 31.640625 37.015625 31.378906 36.753906 31.378906 36.429688 C 31.378906 36.109375 31.640625 35.847656 31.960938 35.847656 C 32.277344 35.847656 32.539062 36.109375 32.539062 36.429688 C 32.539062 36.753906 32.277344 37.015625 31.960938 37.015625 Z M 31.960938 36.140625 C 31.800781 36.140625 31.671875 36.269531 31.671875 36.429688 C 31.671875 36.589844 31.800781 36.71875 31.960938 36.71875 C 32.117188 36.71875 32.246094 36.589844 32.246094 36.429688 C 32.246094 36.269531 32.117188 36.140625 31.960938 36.140625 Z M 31.960938 36.140625 " fill-opacity="1" fill-rule="nonzero"></path><path fill="rgb(92.549133%, 56.079102%, 23.529053%)" d="M 29.699219 36.429688 C 29.699219 36.550781 29.65625 36.652344 29.574219 36.738281 C 29.488281 36.824219 29.386719 36.867188 29.265625 36.867188 C 29.148438 36.867188 29.046875 36.824219 28.960938 36.738281 C 28.875 36.652344 28.832031 36.550781 28.832031 36.429688 C 28.832031 36.308594 28.875 36.207031 28.960938 36.121094 C 29.046875 36.035156 29.148438 35.992188 29.265625 35.992188 C 29.386719 35.992188 29.488281 36.035156 29.574219 36.121094 C 29.65625 36.207031 29.699219 36.308594 29.699219 36.429688 Z M 29.699219 36.429688 " fill-opacity="1" fill-rule="nonzero"></path><path fill="rgb(9.799194%, 1.959229%, 35.688782%)" d="M 29.265625 37.015625 C 28.949219 37.015625 28.6875 36.753906 28.6875 36.429688 C 28.6875 36.109375 28.949219 35.847656 29.265625 35.847656 C 29.585938 35.847656 29.847656 36.109375 29.847656 36.429688 C 29.847656 36.753906 29.585938 37.015625 29.265625 37.015625 Z M 29.265625 36.140625 C 29.109375 36.140625 28.980469 36.269531 28.980469 36.429688 C 28.980469 36.589844 29.109375 36.71875 29.265625 36.71875 C 29.425781 36.71875 29.554688 36.589844 29.554688 36.429688 C 29.554688 36.269531 29.425781 36.140625 29.265625 36.140625 Z M 29.265625 36.140625 " fill-opacity="1" fill-rule="nonzero"></path><path fill="rgb(92.549133%, 56.079102%, 23.529053%)" d="M 26.214844 36.429688 C 26.214844 36.550781 26.171875 36.652344 26.089844 36.738281 C 26.003906 36.824219 25.902344 36.867188 25.78125 36.867188 C 25.664062 36.867188 25.5625 36.824219 25.476562 36.738281 C 25.390625 36.652344 25.347656 36.550781 25.347656 36.429688 C 25.347656 36.308594 25.390625 36.207031 25.476562 36.121094 C 25.5625 36.035156 25.664062 35.992188 25.78125 35.992188 C 25.902344 35.992188 26.003906 36.035156 26.089844 36.121094 C 26.171875 36.207031 26.214844 36.308594 26.214844 36.429688 Z M 26.214844 36.429688 " fill-opacity="1" fill-rule="nonzero"></path><path fill="rgb(9.799194%, 1.959229%, 35.688782%)" d="M 25.78125 37.015625 C 25.464844 37.015625 25.203125 36.753906 25.203125 36.429688 C 25.203125 36.109375 25.464844 35.847656 25.78125 35.847656 C 26.101562 35.847656 26.363281 36.109375 26.363281 36.429688 C 26.363281 36.753906 26.101562 37.015625 25.78125 37.015625 Z M 25.78125 36.140625 C 25.625 36.140625 25.496094 36.269531 25.496094 36.429688 C 25.496094 36.589844 25.625 36.71875 25.78125 36.71875 C 25.941406 36.71875 26.070312 36.589844 26.070312 36.429688 C 26.070312 36.269531 25.941406 36.140625 25.78125 36.140625 Z M 25.78125 36.140625 " fill-opacity="1" fill-rule="nonzero"></path><path fill="rgb(9.799194%, 1.959229%, 35.688782%)" d="M 41.957031 36.335938 L 35.714844 36.335938 C 35.632812 36.335938 35.566406 36.269531 35.566406 36.191406 C 35.566406 36.109375 35.632812 36.042969 35.714844 36.042969 L 41.957031 36.042969 C 42.035156 36.042969 42.101562 36.109375 42.101562 36.191406 C 42.101562 36.269531 42.035156 36.335938 41.957031 36.335938 Z M 41.957031 36.335938 " fill-opacity="1" fill-rule="nonzero"></path><path fill="rgb(9.799194%, 1.959229%, 35.688782%)" d="M 39.910156 32.445312 L 35.714844 32.445312 C 35.632812 32.445312 35.566406 32.378906 35.566406 32.296875 C 35.566406 32.214844 35.632812 32.148438 35.714844 32.148438 L 39.910156 32.148438 C 39.988281 32.148438 40.054688 32.214844 40.054688 32.296875 C 40.054688 32.378906 39.988281 32.445312 39.910156 32.445312 Z M 39.910156 32.445312 " fill-opacity="1" fill-rule="nonzero"></path><path fill="rgb(9.799194%, 1.959229%, 35.688782%)" d="M 38.6875 33.503906 L 35.714844 33.503906 C 35.632812 33.503906 35.566406 33.4375 35.566406 33.355469 C 35.566406 33.273438 35.632812 33.207031 35.714844 33.207031 L 38.6875 33.207031 C 38.765625 33.207031 38.832031 33.273438 38.832031 33.355469 C 38.832031 33.4375 38.765625 33.503906 38.6875 33.503906 Z M 38.6875 33.503906 " fill-opacity="1" fill-rule="nonzero"></path><path fill="rgb(9.799194%, 1.959229%, 35.688782%)" d="M 38.195312 34.5625 L 35.714844 34.5625 C 35.632812 34.5625 35.566406 34.496094 35.566406 34.414062 C 35.566406 34.332031 35.632812 34.265625 35.714844 34.265625 L 38.195312 34.265625 C 38.277344 34.265625 38.34375 34.332031 38.34375 34.414062 C 38.34375 34.496094 38.277344 34.5625 38.195312 34.5625 Z M 38.195312 34.5625 " fill-opacity="1" fill-rule="nonzero"></path><path fill="rgb(100%, 100%, 100%)" d="M 8.496094 38.191406 C 8.496094 38.363281 8.464844 38.527344 8.398438 38.683594 C 8.332031 38.84375 8.242188 38.984375 8.121094 39.105469 C 8 39.226562 7.863281 39.320312 7.703125 39.382812 C 7.546875 39.449219 7.382812 39.484375 7.214844 39.484375 C 7.042969 39.484375 6.878906 39.449219 6.722656 39.382812 C 6.566406 39.320312 6.429688 39.226562 6.308594 39.105469 C 6.1875 38.984375 6.09375 38.84375 6.03125 38.683594 C 5.964844 38.527344 5.933594 38.363281 5.933594 38.191406 C 5.933594 38.019531 5.964844 37.855469 6.03125 37.695312 C 6.09375 37.539062 6.1875 37.398438 6.308594 37.277344 C 6.429688 37.15625 6.566406 37.0625 6.722656 36.996094 C 6.878906 36.933594 7.042969 36.898438 7.214844 36.898438 C 7.382812 36.898438 7.546875 36.933594 7.703125 36.996094 C 7.863281 37.0625 8 37.15625 8.121094 37.277344 C 8.242188 37.398438 8.332031 37.539062 8.398438 37.695312 C 8.464844 37.855469 8.496094 38.019531 8.496094 38.191406 Z M 8.496094 38.191406 " fill-opacity="1" fill-rule="nonzero"></path><path fill="rgb(9.799194%, 1.959229%, 35.688782%)" d="M 7.214844 39.628906 C 6.425781 39.628906 5.785156 38.984375 5.785156 38.191406 C 5.785156 37.398438 6.425781 36.753906 7.214844 36.753906 C 8 36.753906 8.640625 37.398438 8.640625 38.191406 C 8.640625 38.984375 8 39.628906 7.214844 39.628906 Z M 7.214844 37.046875 C 6.589844 37.046875 6.078125 37.558594 6.078125 38.191406 C 6.078125 38.820312 6.589844 39.335938 7.214844 39.335938 C 7.839844 39.335938 8.351562 38.820312 8.351562 38.191406 C 8.351562 37.558594 7.839844 37.046875 7.214844 37.046875 Z M 7.214844 37.046875 " fill-opacity="1" fill-rule="nonzero"></path><path fill="rgb(92.549133%, 56.079102%, 23.529053%)" d="M 6.191406 38.4375 L 3.902344 38.328125 L 2.785156 36.308594 L 5.078125 36.421875 Z M 6.191406 38.4375 " fill-opacity="1" fill-rule="nonzero"></path><path fill="rgb(9.799194%, 1.959229%, 35.688782%)" d="M 6.191406 38.585938 C 6.1875 38.585938 6.1875 38.585938 6.183594 38.585938 L 3.894531 38.476562 C 3.84375 38.472656 3.796875 38.445312 3.773438 38.402344 L 2.660156 36.382812 C 2.632812 36.335938 2.632812 36.277344 2.664062 36.230469 C 2.691406 36.1875 2.742188 36.160156 2.792969 36.164062 L 5.082031 36.273438 C 5.132812 36.277344 5.179688 36.304688 5.203125 36.347656 L 6.320312 38.367188 C 6.34375 38.414062 6.34375 38.472656 6.316406 38.515625 C 6.289062 38.558594 6.242188 38.585938 6.191406 38.585938 Z M 3.988281 38.1875 L 5.9375 38.28125 L 4.988281 36.5625 L 3.042969 36.46875 Z M 3.988281 38.1875 " fill-opacity="1" fill-rule="nonzero"></path><path fill="rgb(96.469116%, 74.119568%, 23.139954%)" d="M 6.191406 38.4375 L 7.574219 36.191406 L 6.460938 34.171875 L 5.078125 36.421875 Z M 6.191406 38.4375 " fill-opacity="1" fill-rule="nonzero"></path><path fill="rgb(9.799194%, 1.959229%, 35.688782%)" d="M 6.191406 38.585938 C 6.191406 38.585938 6.1875 38.585938 6.1875 38.585938 C 6.136719 38.585938 6.089844 38.554688 6.0625 38.511719 L 4.949219 36.492188 C 4.921875 36.445312 4.925781 36.386719 4.953125 36.34375 L 6.335938 34.09375 C 6.363281 34.050781 6.40625 34.027344 6.464844 34.027344 C 6.515625 34.027344 6.5625 34.054688 6.585938 34.101562 L 7.703125 36.121094 C 7.726562 36.167969 7.726562 36.226562 7.699219 36.269531 L 6.316406 38.515625 C 6.289062 38.558594 6.242188 38.585938 6.191406 38.585938 Z M 5.246094 36.425781 L 6.199219 38.148438 L 7.40625 36.1875 L 6.453125 34.464844 Z M 5.246094 36.425781 " fill-opacity="1" fill-rule="nonzero"></path><path fill="rgb(100%, 100%, 100%)" d="M 2.785156 36.308594 L 4.171875 34.0625 L 6.460938 34.171875 L 5.078125 36.421875 Z M 2.785156 36.308594 " fill-opacity="1" fill-rule="nonzero"></path><path fill="rgb(9.799194%, 1.959229%, 35.688782%)" d="M 5.078125 36.566406 C 5.074219 36.566406 5.070312 36.566406 5.070312 36.566406 L 2.78125 36.457031 C 2.726562 36.453125 2.679688 36.425781 2.65625 36.378906 C 2.632812 36.332031 2.636719 36.277344 2.664062 36.230469 L 4.046875 33.984375 C 4.074219 33.941406 4.125 33.914062 4.175781 33.917969 L 6.46875 34.027344 C 6.519531 34.027344 6.566406 34.058594 6.589844 34.105469 C 6.613281 34.152344 6.613281 34.207031 6.585938 34.25 L 5.199219 36.496094 C 5.175781 36.542969 5.128906 36.566406 5.078125 36.566406 Z M 3.042969 36.175781 L 4.996094 36.269531 L 6.207031 34.308594 L 4.25 34.214844 Z M 3.042969 36.175781 " fill-opacity="1" fill-rule="nonzero"></path></svg>