<svg xmlns="http://www.w3.org/2000/svg" xmlns:xlink="http://www.w3.org/1999/xlink" width="69" viewBox="0 0 51.75 47.25" height="63" preserveAspectRatio="xMidYMid meet"><defs><clipPath id="id1"><path d="M 6 40 L 13 40 L 13 45.476562 L 6 45.476562 Z M 6 40 " clip-rule="nonzero"></path></clipPath><clipPath id="id2"><path d="M 1.390625 31 L 18 31 L 18 43 L 1.390625 43 Z M 1.390625 31 " clip-rule="nonzero"></path></clipPath><clipPath id="id3"><path d="M 1.390625 31 L 19 31 L 19 43 L 1.390625 43 Z M 1.390625 31 " clip-rule="nonzero"></path></clipPath><clipPath id="id4"><path d="M 1.390625 39 L 18 39 L 18 43 L 1.390625 43 Z M 1.390625 39 " clip-rule="nonzero"></path></clipPath><clipPath id="id5"><path d="M 1.390625 39 L 19 39 L 19 43 L 1.390625 43 Z M 1.390625 39 " clip-rule="nonzero"></path></clipPath><clipPath id="id6"><path d="M 1.390625 32 L 18 32 L 18 36 L 1.390625 36 Z M 1.390625 32 " clip-rule="nonzero"></path></clipPath><clipPath id="id7"><path d="M 1.390625 33 L 18 33 L 18 37 L 1.390625 37 Z M 1.390625 33 " clip-rule="nonzero"></path></clipPath><clipPath id="id8"><path d="M 1.390625 34 L 18 34 L 18 37 L 1.390625 37 Z M 1.390625 34 " clip-rule="nonzero"></path></clipPath><clipPath id="id9"><path d="M 5 44 L 14 44 L 14 45.476562 L 5 45.476562 Z M 5 44 " clip-rule="nonzero"></path></clipPath><clipPath id="id10"><path d="M 5 44 L 15 44 L 15 45.476562 L 5 45.476562 Z M 5 44 " clip-rule="nonzero"></path></clipPath><clipPath id="id11"><path d="M 30 31 L 39 31 L 39 45.476562 L 30 45.476562 Z M 30 31 " clip-rule="nonzero"></path></clipPath><clipPath id="id12"><path d="M 30 43 L 39 43 L 39 45.476562 L 30 45.476562 Z M 30 43 " clip-rule="nonzero"></path></clipPath><clipPath id="id13"><path d="M 30 31 L 39 31 L 39 45.476562 L 30 45.476562 Z M 30 31 " clip-rule="nonzero"></path></clipPath><clipPath id="id14"><path d="M 30 43 L 39 43 L 39 45.476562 L 30 45.476562 Z M 30 43 " clip-rule="nonzero"></path></clipPath></defs><path fill="rgb(92.939758%, 68.238831%, 3.529358%)" d="M 32.335938 34.359375 L 24.761719 34.359375 C 24.660156 33.96875 24.386719 33.652344 24.027344 33.484375 L 24.027344 7.003906 L 22.871094 7.003906 L 22.871094 33.484375 C 22.511719 33.652344 22.242188 33.96875 22.136719 34.359375 L 15.027344 34.359375 L 15.027344 35.277344 L 22.222656 35.277344 C 22.4375 35.734375 22.90625 36.054688 23.449219 36.054688 C 23.992188 36.054688 24.460938 35.734375 24.679688 35.277344 L 32.335938 35.277344 L 32.335938 34.359375 " fill-opacity="1" fill-rule="nonzero"></path><path fill="rgb(13.729858%, 12.159729%, 12.548828%)" d="M 32.335938 34.359375 L 32.335938 34.1875 L 24.761719 34.1875 L 24.761719 34.359375 L 24.929688 34.316406 C 24.816406 33.875 24.507812 33.515625 24.101562 33.328125 L 24.027344 33.484375 L 24.203125 33.484375 L 24.203125 6.832031 L 22.699219 6.832031 L 22.699219 33.484375 L 22.871094 33.484375 L 22.796875 33.328125 C 22.394531 33.515625 22.085938 33.875 21.96875 34.316406 L 22.136719 34.359375 L 22.136719 34.1875 L 14.855469 34.1875 L 14.855469 35.449219 L 22.222656 35.449219 L 22.222656 35.277344 L 22.066406 35.351562 C 22.308594 35.867188 22.835938 36.226562 23.449219 36.226562 C 24.0625 36.226562 24.589844 35.867188 24.835938 35.351562 L 24.679688 35.277344 L 24.679688 35.449219 L 32.507812 35.449219 L 32.507812 34.1875 L 32.335938 34.1875 L 32.335938 34.359375 L 32.164062 34.359375 L 32.164062 35.105469 L 24.570312 35.105469 L 24.523438 35.203125 C 24.332031 35.605469 23.925781 35.882812 23.449219 35.882812 C 22.976562 35.882812 22.570312 35.605469 22.378906 35.203125 L 22.332031 35.105469 L 15.199219 35.105469 L 15.199219 34.53125 L 22.269531 34.53125 L 22.304688 34.402344 C 22.394531 34.0625 22.632812 33.785156 22.945312 33.636719 L 23.046875 33.59375 L 23.046875 7.179688 L 23.855469 7.179688 L 23.855469 33.59375 L 23.957031 33.636719 C 24.269531 33.785156 24.503906 34.0625 24.597656 34.402344 L 24.628906 34.53125 L 32.335938 34.53125 L 32.335938 34.359375 L 32.164062 34.359375 L 32.335938 34.359375 " fill-opacity="1" fill-rule="nonzero"></path><path fill="rgb(13.328552%, 67.83905%, 88.238525%)" d="M 35.085938 13.945312 L 12.003906 13.945312 C 11.347656 13.945312 10.8125 13.414062 10.8125 12.761719 L 10.8125 7.972656 C 10.8125 7.324219 11.347656 6.789062 12.003906 6.789062 L 35.085938 6.789062 C 35.742188 6.789062 36.277344 7.324219 36.277344 7.972656 L 36.277344 12.761719 C 36.277344 13.414062 35.742188 13.945312 35.085938 13.945312 " fill-opacity="1" fill-rule="nonzero"></path><path fill="rgb(13.729858%, 12.159729%, 12.548828%)" d="M 35.085938 13.945312 L 35.085938 13.6875 L 12.003906 13.6875 C 11.75 13.6875 11.515625 13.585938 11.347656 13.414062 C 11.175781 13.246094 11.074219 13.015625 11.074219 12.761719 L 11.074219 7.972656 C 11.074219 7.71875 11.175781 7.488281 11.347656 7.320312 C 11.515625 7.152344 11.75 7.046875 12.003906 7.046875 L 35.085938 7.046875 C 35.339844 7.046875 35.574219 7.152344 35.742188 7.320312 C 35.914062 7.488281 36.019531 7.71875 36.019531 7.972656 L 36.019531 12.761719 C 36.019531 13.015625 35.914062 13.246094 35.742188 13.414062 C 35.574219 13.585938 35.339844 13.6875 35.085938 13.6875 L 35.085938 14.203125 C 35.886719 14.203125 36.539062 13.558594 36.539062 12.761719 L 36.539062 7.972656 C 36.539062 7.179688 35.886719 6.53125 35.085938 6.53125 L 12.003906 6.53125 C 11.203125 6.53125 10.554688 7.179688 10.550781 7.972656 L 10.550781 12.761719 C 10.554688 13.558594 11.203125 14.203125 12.003906 14.203125 L 35.085938 14.203125 L 35.085938 13.945312 " fill-opacity="1" fill-rule="nonzero"></path><path fill="rgb(100%, 100%, 100%)" d="M 34.503906 7.367188 L 16.695312 7.367188 C 16.515625 7.542969 16.273438 7.617188 19.183594 7.609375 L 34.433594 7.652344 C 35.109375 7.652344 35.738281 8.328125 35.738281 8.980469 L 35.738281 8.550781 C 35.738281 7.898438 35.183594 7.367188 34.503906 7.367188 " fill-opacity="1" fill-rule="nonzero"></path><path fill="rgb(8.628845%, 43.139648%, 58.428955%)" d="M 34.859375 13.6875 L 12.003906 13.6875 C 11.75 13.6875 11.515625 13.585938 11.347656 13.414062 C 11.296875 13.367188 11.253906 13.3125 11.214844 13.253906 C 11.421875 13.417969 11.679688 13.515625 11.960938 13.515625 L 34.757812 13.515625 C 34.789062 13.574219 34.824219 13.628906 34.859375 13.6875 " fill-opacity="1" fill-rule="nonzero"></path><path fill="rgb(13.729858%, 12.159729%, 12.548828%)" d="M 35.019531 13.945312 L 12.003906 13.945312 C 11.347656 13.945312 10.8125 13.414062 10.8125 12.761719 L 10.8125 12.640625 C 10.878906 12.886719 11.023438 13.097656 11.214844 13.253906 C 11.253906 13.3125 11.296875 13.367188 11.347656 13.414062 C 11.515625 13.585938 11.75 13.6875 12.003906 13.6875 L 34.859375 13.6875 C 34.910156 13.773438 34.964844 13.859375 35.019531 13.945312 " fill-opacity="1" fill-rule="nonzero"></path><path fill="rgb(63.919067%, 82.348633%, 83.139038%)" d="M 26.371094 9.058594 C 26.371094 9.3125 26.164062 9.519531 25.910156 9.519531 C 25.652344 9.519531 25.445312 9.3125 25.445312 9.058594 C 25.445312 8.804688 25.652344 8.601562 25.910156 8.601562 C 26.164062 8.601562 26.371094 8.804688 26.371094 9.058594 " fill-opacity="1" fill-rule="nonzero"></path><path fill="rgb(63.919067%, 82.348633%, 83.139038%)" d="M 28.164062 9.058594 C 28.164062 9.3125 27.957031 9.519531 27.703125 9.519531 C 27.445312 9.519531 27.238281 9.3125 27.238281 9.058594 C 27.238281 8.804688 27.445312 8.601562 27.703125 8.601562 C 27.957031 8.601562 28.164062 8.804688 28.164062 9.058594 " fill-opacity="1" fill-rule="nonzero"></path><path fill="rgb(63.919067%, 82.348633%, 83.139038%)" d="M 30.042969 9.058594 C 30.042969 9.3125 29.835938 9.519531 29.582031 9.519531 C 29.324219 9.519531 29.117188 9.3125 29.117188 9.058594 C 29.117188 8.804688 29.324219 8.601562 29.582031 8.601562 C 29.835938 8.601562 30.042969 8.804688 30.042969 9.058594 " fill-opacity="1" fill-rule="nonzero"></path><path fill="rgb(63.919067%, 82.348633%, 83.139038%)" d="M 31.835938 9.058594 C 31.835938 9.3125 31.628906 9.519531 31.375 9.519531 C 31.121094 9.519531 30.910156 9.3125 30.910156 9.058594 C 30.910156 8.804688 31.121094 8.601562 31.375 8.601562 C 31.628906 8.601562 31.835938 8.804688 31.835938 9.058594 " fill-opacity="1" fill-rule="nonzero"></path><path fill="rgb(63.919067%, 82.348633%, 83.139038%)" d="M 33.515625 9.058594 C 33.515625 9.3125 33.308594 9.519531 33.050781 9.519531 C 32.796875 9.519531 32.589844 9.3125 32.589844 9.058594 C 32.589844 8.804688 32.796875 8.601562 33.050781 8.601562 C 33.308594 8.601562 33.515625 8.804688 33.515625 9.058594 " fill-opacity="1" fill-rule="nonzero"></path><path fill="rgb(63.919067%, 82.348633%, 83.139038%)" d="M 35.308594 9.058594 C 35.308594 9.3125 35.101562 9.519531 34.84375 9.519531 C 34.589844 9.519531 34.382812 9.3125 34.382812 9.058594 C 34.382812 8.804688 34.589844 8.601562 34.84375 8.601562 C 35.101562 8.601562 35.308594 8.804688 35.308594 9.058594 " fill-opacity="1" fill-rule="nonzero"></path><path fill="rgb(63.919067%, 82.348633%, 83.139038%)" d="M 26.371094 11.863281 C 26.371094 12.113281 26.164062 12.320312 25.910156 12.320312 C 25.652344 12.320312 25.445312 12.113281 25.445312 11.863281 C 25.445312 11.605469 25.652344 11.402344 25.910156 11.402344 C 26.164062 11.402344 26.371094 11.605469 26.371094 11.863281 " fill-opacity="1" fill-rule="nonzero"></path><path fill="rgb(63.919067%, 82.348633%, 83.139038%)" d="M 28.164062 11.863281 C 28.164062 12.113281 27.957031 12.320312 27.703125 12.320312 C 27.445312 12.320312 27.238281 12.113281 27.238281 11.863281 C 27.238281 11.605469 27.445312 11.402344 27.703125 11.402344 C 27.957031 11.402344 28.164062 11.605469 28.164062 11.863281 " fill-opacity="1" fill-rule="nonzero"></path><path fill="rgb(63.919067%, 82.348633%, 83.139038%)" d="M 30.042969 11.863281 C 30.042969 12.113281 29.835938 12.320312 29.582031 12.320312 C 29.324219 12.320312 29.117188 12.113281 29.117188 11.863281 C 29.117188 11.605469 29.324219 11.402344 29.582031 11.402344 C 29.835938 11.402344 30.042969 11.605469 30.042969 11.863281 " fill-opacity="1" fill-rule="nonzero"></path><path fill="rgb(63.919067%, 82.348633%, 83.139038%)" d="M 31.835938 11.863281 C 31.835938 12.113281 31.628906 12.320312 31.375 12.320312 C 31.121094 12.320312 30.910156 12.113281 30.910156 11.863281 C 30.910156 11.605469 31.121094 11.402344 31.375 11.402344 C 31.628906 11.402344 31.835938 11.605469 31.835938 11.863281 " fill-opacity="1" fill-rule="nonzero"></path><path fill="rgb(63.919067%, 82.348633%, 83.139038%)" d="M 33.515625 11.863281 C 33.515625 12.113281 33.308594 12.320312 33.050781 12.320312 C 32.796875 12.320312 32.589844 12.113281 32.589844 11.863281 C 32.589844 11.605469 32.796875 11.402344 33.050781 11.402344 C 33.308594 11.402344 33.515625 11.605469 33.515625 11.863281 " fill-opacity="1" fill-rule="nonzero"></path><path fill="rgb(63.919067%, 82.348633%, 83.139038%)" d="M 35.308594 11.863281 C 35.308594 12.113281 35.101562 12.320312 34.84375 12.320312 C 34.589844 12.320312 34.382812 12.113281 34.382812 11.863281 C 34.382812 11.605469 34.589844 11.402344 34.84375 11.402344 C 35.101562 11.402344 35.308594 11.605469 35.308594 11.863281 " fill-opacity="1" fill-rule="nonzero"></path><path fill="rgb(63.919067%, 82.348633%, 83.139038%)" d="M 27.296875 10.480469 C 27.296875 10.734375 27.089844 10.941406 26.832031 10.941406 C 26.578125 10.941406 26.371094 10.734375 26.371094 10.480469 C 26.371094 10.226562 26.578125 10.023438 26.832031 10.023438 C 27.089844 10.023438 27.296875 10.226562 27.296875 10.480469 " fill-opacity="1" fill-rule="nonzero"></path><path fill="rgb(63.919067%, 82.348633%, 83.139038%)" d="M 29.175781 10.480469 C 29.175781 10.734375 28.96875 10.941406 28.714844 10.941406 C 28.457031 10.941406 28.25 10.734375 28.25 10.480469 C 28.25 10.226562 28.457031 10.023438 28.714844 10.023438 C 28.96875 10.023438 29.175781 10.226562 29.175781 10.480469 " fill-opacity="1" fill-rule="nonzero"></path><path fill="rgb(63.919067%, 82.348633%, 83.139038%)" d="M 30.941406 10.480469 C 30.941406 10.734375 30.734375 10.941406 30.476562 10.941406 C 30.222656 10.941406 30.015625 10.734375 30.015625 10.480469 C 30.015625 10.226562 30.222656 10.023438 30.476562 10.023438 C 30.734375 10.023438 30.941406 10.226562 30.941406 10.480469 " fill-opacity="1" fill-rule="nonzero"></path><path fill="rgb(63.919067%, 82.348633%, 83.139038%)" d="M 32.734375 10.480469 C 32.734375 10.734375 32.527344 10.941406 32.269531 10.941406 C 32.015625 10.941406 31.808594 10.734375 31.808594 10.480469 C 31.808594 10.226562 32.015625 10.023438 32.269531 10.023438 C 32.527344 10.023438 32.734375 10.226562 32.734375 10.480469 " fill-opacity="1" fill-rule="nonzero"></path><path fill="rgb(63.919067%, 82.348633%, 83.139038%)" d="M 34.527344 10.480469 C 34.527344 10.734375 34.320312 10.941406 34.0625 10.941406 C 33.808594 10.941406 33.601562 10.734375 33.601562 10.480469 C 33.601562 10.226562 33.808594 10.023438 34.0625 10.023438 C 34.320312 10.023438 34.527344 10.226562 34.527344 10.480469 " fill-opacity="1" fill-rule="nonzero"></path><path fill="rgb(94.509888%, 89.7995%, 0%)" d="M 14.398438 10.351562 C 14.398438 10.890625 13.957031 11.328125 13.414062 11.328125 C 12.871094 11.328125 12.433594 10.890625 12.433594 10.351562 C 12.433594 9.8125 12.871094 9.375 13.414062 9.375 C 13.957031 9.375 14.398438 9.8125 14.398438 10.351562 " fill-opacity="1" fill-rule="nonzero"></path><path fill="rgb(13.729858%, 12.159729%, 12.548828%)" d="M 14.398438 10.351562 L 14.222656 10.351562 C 14.222656 10.574219 14.132812 10.773438 13.988281 10.921875 C 13.839844 11.066406 13.640625 11.15625 13.414062 11.15625 C 13.191406 11.15625 12.988281 11.066406 12.84375 10.921875 C 12.695312 10.773438 12.605469 10.574219 12.605469 10.351562 C 12.605469 10.128906 12.695312 9.929688 12.84375 9.785156 C 12.988281 9.636719 13.191406 9.546875 13.414062 9.546875 C 13.640625 9.546875 13.839844 9.636719 13.988281 9.785156 C 14.132812 9.929688 14.222656 10.128906 14.222656 10.351562 L 14.570312 10.351562 C 14.570312 9.71875 14.054688 9.203125 13.414062 9.203125 C 12.777344 9.203125 12.257812 9.71875 12.257812 10.351562 C 12.257812 10.988281 12.777344 11.5 13.414062 11.5 C 14.054688 11.5 14.570312 10.988281 14.570312 10.351562 L 14.398438 10.351562 " fill-opacity="1" fill-rule="nonzero"></path><path fill="rgb(90.19928%, 33.329773%, 9.408569%)" d="M 17.289062 10.351562 C 17.289062 10.890625 16.851562 11.328125 16.308594 11.328125 C 15.765625 11.328125 15.324219 10.890625 15.324219 10.351562 C 15.324219 9.8125 15.765625 9.375 16.308594 9.375 C 16.851562 9.375 17.289062 9.8125 17.289062 10.351562 " fill-opacity="1" fill-rule="nonzero"></path><path fill="rgb(13.729858%, 12.159729%, 12.548828%)" d="M 17.289062 10.351562 L 17.117188 10.351562 C 17.117188 10.574219 17.027344 10.773438 16.878906 10.921875 C 16.734375 11.066406 16.53125 11.15625 16.308594 11.15625 C 16.082031 11.15625 15.882812 11.066406 15.734375 10.921875 C 15.585938 10.773438 15.496094 10.574219 15.496094 10.351562 C 15.496094 10.128906 15.585938 9.929688 15.734375 9.785156 C 15.882812 9.636719 16.082031 9.546875 16.308594 9.546875 C 16.53125 9.546875 16.734375 9.636719 16.878906 9.785156 C 17.027344 9.929688 17.117188 10.128906 17.117188 10.351562 L 17.464844 10.351562 C 17.464844 9.71875 16.945312 9.203125 16.308594 9.203125 C 15.667969 9.203125 15.148438 9.71875 15.148438 10.351562 C 15.148438 10.988281 15.667969 11.5 16.308594 11.5 C 16.945312 11.5 17.464844 10.988281 17.464844 10.351562 L 17.289062 10.351562 " fill-opacity="1" fill-rule="nonzero"></path><path fill="rgb(49.409485%, 76.858521%, 24.308777%)" d="M 20.066406 10.351562 C 20.066406 10.890625 19.625 11.328125 19.082031 11.328125 C 18.539062 11.328125 18.101562 10.890625 18.101562 10.351562 C 18.101562 9.8125 18.539062 9.375 19.082031 9.375 C 19.625 9.375 20.066406 9.8125 20.066406 10.351562 " fill-opacity="1" fill-rule="nonzero"></path><path fill="rgb(13.729858%, 12.159729%, 12.548828%)" d="M 20.066406 10.351562 L 19.894531 10.351562 C 19.894531 10.574219 19.800781 10.773438 19.65625 10.921875 C 19.507812 11.066406 19.308594 11.15625 19.082031 11.15625 C 18.859375 11.15625 18.65625 11.066406 18.511719 10.921875 C 18.363281 10.773438 18.273438 10.574219 18.273438 10.351562 C 18.273438 10.128906 18.363281 9.929688 18.511719 9.785156 C 18.65625 9.636719 18.859375 9.546875 19.082031 9.546875 C 19.308594 9.546875 19.507812 9.636719 19.65625 9.785156 C 19.800781 9.929688 19.894531 10.128906 19.894531 10.351562 L 20.242188 10.351562 C 20.242188 9.71875 19.722656 9.203125 19.082031 9.203125 C 18.445312 9.203125 17.925781 9.71875 17.925781 10.351562 C 17.925781 10.988281 18.445312 11.5 19.082031 11.5 C 19.722656 11.5 20.238281 10.988281 20.242188 10.351562 L 20.066406 10.351562 " fill-opacity="1" fill-rule="nonzero"></path><path fill="rgb(19.219971%, 44.309998%, 72.158813%)" d="M 35.085938 22.535156 L 12.003906 22.535156 C 11.347656 22.535156 10.8125 22.003906 10.8125 21.351562 L 10.8125 16.566406 C 10.8125 15.914062 11.347656 15.378906 12.003906 15.378906 L 35.085938 15.378906 C 35.742188 15.378906 36.277344 15.914062 36.277344 16.566406 L 36.277344 21.351562 C 36.277344 22.003906 35.742188 22.535156 35.085938 22.535156 " fill-opacity="1" fill-rule="nonzero"></path><path fill="rgb(13.729858%, 12.159729%, 12.548828%)" d="M 35.085938 22.535156 L 35.085938 22.277344 L 12.003906 22.277344 C 11.75 22.277344 11.515625 22.175781 11.347656 22.007812 C 11.175781 21.835938 11.074219 21.605469 11.074219 21.351562 L 11.074219 16.566406 C 11.074219 16.3125 11.175781 16.082031 11.347656 15.910156 C 11.515625 15.742188 11.75 15.640625 12.003906 15.640625 L 35.085938 15.640625 C 35.339844 15.640625 35.574219 15.742188 35.742188 15.910156 C 35.914062 16.082031 36.019531 16.3125 36.019531 16.566406 L 36.019531 21.351562 C 36.019531 21.605469 35.914062 21.835938 35.742188 22.007812 C 35.574219 22.175781 35.339844 22.277344 35.085938 22.277344 L 35.085938 22.796875 C 35.886719 22.792969 36.539062 22.148438 36.539062 21.351562 L 36.539062 16.566406 C 36.539062 15.769531 35.886719 15.121094 35.085938 15.121094 L 12.003906 15.121094 C 11.203125 15.121094 10.554688 15.769531 10.550781 16.566406 L 10.550781 21.351562 C 10.554688 22.148438 11.203125 22.792969 12.003906 22.796875 L 35.085938 22.796875 L 35.085938 22.535156 " fill-opacity="1" fill-rule="nonzero"></path><path fill="rgb(100%, 100%, 100%)" d="M 34.503906 15.957031 L 16.695312 15.957031 C 16.515625 16.136719 16.273438 16.207031 19.183594 16.199219 L 34.433594 16.242188 C 35.109375 16.242188 35.738281 16.921875 35.738281 17.574219 L 35.738281 17.140625 C 35.738281 16.488281 35.183594 15.957031 34.503906 15.957031 " fill-opacity="1" fill-rule="nonzero"></path><path fill="rgb(12.159729%, 27.839661%, 46.269226%)" d="M 35.085938 22.535156 L 35.085938 22.277344 L 12.003906 22.277344 C 11.75 22.277344 11.515625 22.175781 11.347656 22.007812 C 11.296875 21.957031 11.253906 21.902344 11.214844 21.84375 C 11.421875 22.007812 11.679688 22.105469 11.960938 22.105469 L 35.042969 22.105469 C 35.410156 22.105469 35.738281 21.9375 35.957031 21.679688 C 35.910156 21.800781 35.835938 21.914062 35.742188 22.007812 C 35.574219 22.175781 35.339844 22.277344 35.085938 22.277344 L 35.085938 22.535156 " fill-opacity="1" fill-rule="nonzero"></path><path fill="rgb(13.729858%, 12.159729%, 12.548828%)" d="M 35.085938 22.535156 L 35.085938 22.277344 C 35.339844 22.277344 35.574219 22.175781 35.742188 22.007812 C 35.835938 21.914062 35.910156 21.800781 35.957031 21.679688 C 36.128906 21.472656 36.234375 21.207031 36.234375 20.921875 L 36.234375 20.570312 C 36.261719 20.472656 36.277344 20.367188 36.277344 20.261719 L 36.277344 21.351562 C 36.277344 22.003906 35.742188 22.535156 35.085938 22.535156 M 35.085938 22.535156 L 12.003906 22.535156 C 11.347656 22.535156 10.8125 22.003906 10.8125 21.351562 L 10.8125 21.230469 C 10.878906 21.476562 11.023438 21.6875 11.214844 21.84375 C 11.253906 21.902344 11.296875 21.957031 11.347656 22.007812 C 11.515625 22.175781 11.75 22.277344 12.003906 22.277344 L 35.085938 22.277344 L 35.085938 22.535156 " fill-opacity="1" fill-rule="nonzero"></path><path fill="rgb(63.919067%, 82.348633%, 83.139038%)" d="M 26.371094 17.652344 C 26.371094 17.90625 26.164062 18.109375 25.910156 18.109375 C 25.652344 18.109375 25.445312 17.90625 25.445312 17.652344 C 25.445312 17.398438 25.652344 17.191406 25.910156 17.191406 C 26.164062 17.191406 26.371094 17.398438 26.371094 17.652344 " fill-opacity="1" fill-rule="nonzero"></path><path fill="rgb(63.919067%, 82.348633%, 83.139038%)" d="M 28.164062 17.652344 C 28.164062 17.90625 27.957031 18.109375 27.703125 18.109375 C 27.445312 18.109375 27.238281 17.90625 27.238281 17.652344 C 27.238281 17.398438 27.445312 17.191406 27.703125 17.191406 C 27.957031 17.191406 28.164062 17.398438 28.164062 17.652344 " fill-opacity="1" fill-rule="nonzero"></path><path fill="rgb(63.919067%, 82.348633%, 83.139038%)" d="M 30.042969 17.652344 C 30.042969 17.90625 29.835938 18.109375 29.582031 18.109375 C 29.324219 18.109375 29.117188 17.90625 29.117188 17.652344 C 29.117188 17.398438 29.324219 17.191406 29.582031 17.191406 C 29.835938 17.191406 30.042969 17.398438 30.042969 17.652344 " fill-opacity="1" fill-rule="nonzero"></path><path fill="rgb(63.919067%, 82.348633%, 83.139038%)" d="M 31.835938 17.652344 C 31.835938 17.90625 31.628906 18.109375 31.375 18.109375 C 31.121094 18.109375 30.910156 17.90625 30.910156 17.652344 C 30.910156 17.398438 31.121094 17.191406 31.375 17.191406 C 31.628906 17.191406 31.835938 17.398438 31.835938 17.652344 " fill-opacity="1" fill-rule="nonzero"></path><path fill="rgb(63.919067%, 82.348633%, 83.139038%)" d="M 33.515625 17.652344 C 33.515625 17.90625 33.308594 18.109375 33.050781 18.109375 C 32.796875 18.109375 32.589844 17.90625 32.589844 17.652344 C 32.589844 17.398438 32.796875 17.191406 33.050781 17.191406 C 33.308594 17.191406 33.515625 17.398438 33.515625 17.652344 " fill-opacity="1" fill-rule="nonzero"></path><path fill="rgb(63.919067%, 82.348633%, 83.139038%)" d="M 35.308594 17.652344 C 35.308594 17.90625 35.101562 18.109375 34.84375 18.109375 C 34.589844 18.109375 34.382812 17.90625 34.382812 17.652344 C 34.382812 17.398438 34.589844 17.191406 34.84375 17.191406 C 35.101562 17.191406 35.308594 17.398438 35.308594 17.652344 " fill-opacity="1" fill-rule="nonzero"></path><path fill="rgb(63.919067%, 82.348633%, 83.139038%)" d="M 26.371094 20.453125 C 26.371094 20.707031 26.164062 20.910156 25.910156 20.910156 C 25.652344 20.910156 25.445312 20.707031 25.445312 20.453125 C 25.445312 20.199219 25.652344 19.992188 25.910156 19.992188 C 26.164062 19.992188 26.371094 20.199219 26.371094 20.453125 " fill-opacity="1" fill-rule="nonzero"></path><path fill="rgb(63.919067%, 82.348633%, 83.139038%)" d="M 28.164062 20.453125 C 28.164062 20.707031 27.957031 20.910156 27.703125 20.910156 C 27.445312 20.910156 27.238281 20.707031 27.238281 20.453125 C 27.238281 20.199219 27.445312 19.992188 27.703125 19.992188 C 27.957031 19.992188 28.164062 20.199219 28.164062 20.453125 " fill-opacity="1" fill-rule="nonzero"></path><path fill="rgb(63.919067%, 82.348633%, 83.139038%)" d="M 30.042969 20.453125 C 30.042969 20.707031 29.835938 20.910156 29.582031 20.910156 C 29.324219 20.910156 29.117188 20.707031 29.117188 20.453125 C 29.117188 20.199219 29.324219 19.992188 29.582031 19.992188 C 29.835938 19.992188 30.042969 20.199219 30.042969 20.453125 " fill-opacity="1" fill-rule="nonzero"></path><path fill="rgb(63.919067%, 82.348633%, 83.139038%)" d="M 31.835938 20.453125 C 31.835938 20.707031 31.628906 20.910156 31.375 20.910156 C 31.121094 20.910156 30.910156 20.707031 30.910156 20.453125 C 30.910156 20.199219 31.121094 19.992188 31.375 19.992188 C 31.628906 19.992188 31.835938 20.199219 31.835938 20.453125 " fill-opacity="1" fill-rule="nonzero"></path><path fill="rgb(63.919067%, 82.348633%, 83.139038%)" d="M 33.515625 20.453125 C 33.515625 20.707031 33.308594 20.910156 33.050781 20.910156 C 32.796875 20.910156 32.589844 20.707031 32.589844 20.453125 C 32.589844 20.199219 32.796875 19.992188 33.050781 19.992188 C 33.308594 19.992188 33.515625 20.199219 33.515625 20.453125 " fill-opacity="1" fill-rule="nonzero"></path><path fill="rgb(63.919067%, 82.348633%, 83.139038%)" d="M 35.308594 20.453125 C 35.308594 20.707031 35.101562 20.910156 34.84375 20.910156 C 34.589844 20.910156 34.382812 20.707031 34.382812 20.453125 C 34.382812 20.199219 34.589844 19.992188 34.84375 19.992188 C 35.101562 19.992188 35.308594 20.199219 35.308594 20.453125 " fill-opacity="1" fill-rule="nonzero"></path><path fill="rgb(63.919067%, 82.348633%, 83.139038%)" d="M 27.296875 19.074219 C 27.296875 19.328125 27.089844 19.53125 26.832031 19.53125 C 26.578125 19.53125 26.371094 19.328125 26.371094 19.074219 C 26.371094 18.820312 26.578125 18.613281 26.832031 18.613281 C 27.089844 18.613281 27.296875 18.820312 27.296875 19.074219 " fill-opacity="1" fill-rule="nonzero"></path><path fill="rgb(63.919067%, 82.348633%, 83.139038%)" d="M 29.175781 19.074219 C 29.175781 19.328125 28.96875 19.53125 28.714844 19.53125 C 28.457031 19.53125 28.25 19.328125 28.25 19.074219 C 28.25 18.820312 28.457031 18.613281 28.714844 18.613281 C 28.96875 18.613281 29.175781 18.820312 29.175781 19.074219 " fill-opacity="1" fill-rule="nonzero"></path><path fill="rgb(63.919067%, 82.348633%, 83.139038%)" d="M 30.941406 19.074219 C 30.941406 19.328125 30.734375 19.53125 30.476562 19.53125 C 30.222656 19.53125 30.015625 19.328125 30.015625 19.074219 C 30.015625 18.820312 30.222656 18.613281 30.476562 18.613281 C 30.734375 18.613281 30.941406 18.820312 30.941406 19.074219 " fill-opacity="1" fill-rule="nonzero"></path><path fill="rgb(63.919067%, 82.348633%, 83.139038%)" d="M 32.734375 19.074219 C 32.734375 19.328125 32.527344 19.53125 32.269531 19.53125 C 32.015625 19.53125 31.808594 19.328125 31.808594 19.074219 C 31.808594 18.820312 32.015625 18.613281 32.269531 18.613281 C 32.527344 18.613281 32.734375 18.820312 32.734375 19.074219 " fill-opacity="1" fill-rule="nonzero"></path><path fill="rgb(63.919067%, 82.348633%, 83.139038%)" d="M 34.527344 19.074219 C 34.527344 19.328125 34.320312 19.53125 34.0625 19.53125 C 33.808594 19.53125 33.601562 19.328125 33.601562 19.074219 C 33.601562 18.820312 33.808594 18.613281 34.0625 18.613281 C 34.320312 18.613281 34.527344 18.820312 34.527344 19.074219 " fill-opacity="1" fill-rule="nonzero"></path><path fill="rgb(36.079407%, 75.289917%, 80.389404%)" d="M 14.398438 18.945312 C 14.398438 19.484375 13.957031 19.921875 13.414062 19.921875 C 12.871094 19.921875 12.433594 19.484375 12.433594 18.945312 C 12.433594 18.402344 12.871094 17.964844 13.414062 17.964844 C 13.957031 17.964844 14.398438 18.402344 14.398438 18.945312 " fill-opacity="1" fill-rule="nonzero"></path><path fill="rgb(13.729858%, 12.159729%, 12.548828%)" d="M 14.398438 18.945312 L 14.222656 18.945312 C 14.222656 19.167969 14.132812 19.367188 13.988281 19.511719 C 13.839844 19.660156 13.640625 19.75 13.414062 19.75 C 13.191406 19.75 12.988281 19.660156 12.84375 19.511719 C 12.695312 19.367188 12.605469 19.167969 12.605469 18.945312 C 12.605469 18.71875 12.695312 18.519531 12.84375 18.375 C 12.988281 18.230469 13.191406 18.140625 13.414062 18.140625 C 13.640625 18.140625 13.839844 18.230469 13.988281 18.375 C 14.132812 18.519531 14.222656 18.71875 14.222656 18.945312 L 14.570312 18.945312 C 14.570312 18.308594 14.054688 17.792969 13.414062 17.792969 C 12.777344 17.792969 12.257812 18.308594 12.257812 18.945312 C 12.257812 19.578125 12.777344 20.09375 13.414062 20.09375 C 14.054688 20.09375 14.570312 19.578125 14.570312 18.945312 L 14.398438 18.945312 " fill-opacity="1" fill-rule="nonzero"></path><path fill="rgb(92.939758%, 68.238831%, 3.529358%)" d="M 17.289062 18.945312 C 17.289062 19.484375 16.851562 19.921875 16.308594 19.921875 C 15.765625 19.921875 15.324219 19.484375 15.324219 18.945312 C 15.324219 18.402344 15.765625 17.964844 16.308594 17.964844 C 16.851562 17.964844 17.289062 18.402344 17.289062 18.945312 " fill-opacity="1" fill-rule="nonzero"></path><path fill="rgb(13.729858%, 12.159729%, 12.548828%)" d="M 17.289062 18.945312 L 17.117188 18.945312 C 17.117188 19.167969 17.027344 19.367188 16.878906 19.511719 C 16.734375 19.660156 16.53125 19.75 16.308594 19.75 C 16.082031 19.75 15.882812 19.660156 15.734375 19.511719 C 15.585938 19.367188 15.496094 19.167969 15.496094 18.945312 C 15.496094 18.71875 15.585938 18.519531 15.734375 18.375 C 15.882812 18.230469 16.082031 18.140625 16.308594 18.140625 C 16.53125 18.140625 16.734375 18.230469 16.878906 18.375 C 17.027344 18.519531 17.117188 18.71875 17.117188 18.945312 L 17.464844 18.945312 C 17.464844 18.308594 16.945312 17.792969 16.308594 17.792969 C 15.667969 17.792969 15.148438 18.308594 15.148438 18.945312 C 15.148438 19.578125 15.667969 20.09375 16.308594 20.09375 C 16.945312 20.09375 17.464844 19.578125 17.464844 18.945312 L 17.289062 18.945312 " fill-opacity="1" fill-rule="nonzero"></path><path fill="rgb(49.409485%, 79.219055%, 75.689697%)" d="M 20.066406 18.945312 C 20.066406 19.484375 19.625 19.921875 19.082031 19.921875 C 18.539062 19.921875 18.101562 19.484375 18.101562 18.945312 C 18.101562 18.402344 18.539062 17.964844 19.082031 17.964844 C 19.625 17.964844 20.066406 18.402344 20.066406 18.945312 " fill-opacity="1" fill-rule="nonzero"></path><path fill="rgb(13.729858%, 12.159729%, 12.548828%)" d="M 20.066406 18.945312 L 19.894531 18.945312 C 19.894531 19.167969 19.800781 19.367188 19.65625 19.511719 C 19.507812 19.660156 19.308594 19.75 19.082031 19.75 C 18.859375 19.75 18.65625 19.660156 18.511719 19.511719 C 18.363281 19.367188 18.273438 19.167969 18.273438 18.945312 C 18.273438 18.71875 18.363281 18.519531 18.511719 18.375 C 18.65625 18.230469 18.859375 18.140625 19.082031 18.140625 C 19.308594 18.140625 19.507812 18.230469 19.65625 18.375 C 19.800781 18.519531 19.894531 18.71875 19.894531 18.945312 L 20.242188 18.945312 C 20.242188 18.308594 19.722656 17.792969 19.082031 17.792969 C 18.445312 17.792969 17.925781 18.308594 17.925781 18.945312 C 17.925781 19.578125 18.445312 20.09375 19.082031 20.09375 C 19.722656 20.09375 20.242188 19.578125 20.242188 18.945312 L 20.066406 18.945312 " fill-opacity="1" fill-rule="nonzero"></path><path fill="rgb(13.328552%, 67.83905%, 88.238525%)" d="M 35.085938 31.15625 L 12.003906 31.15625 C 11.347656 31.15625 10.8125 30.625 10.8125 29.972656 L 10.8125 25.183594 C 10.8125 24.535156 11.347656 24 12.003906 24 L 35.085938 24 C 35.742188 24 36.277344 24.535156 36.277344 25.183594 L 36.277344 29.972656 C 36.277344 30.625 35.742188 31.15625 35.085938 31.15625 " fill-opacity="1" fill-rule="nonzero"></path><path fill="rgb(13.729858%, 12.159729%, 12.548828%)" d="M 35.085938 31.15625 L 35.085938 30.898438 L 12.003906 30.898438 C 11.75 30.898438 11.515625 30.792969 11.347656 30.625 C 11.175781 30.457031 11.074219 30.226562 11.074219 29.972656 L 11.074219 25.183594 C 11.074219 24.929688 11.175781 24.699219 11.347656 24.53125 C 11.515625 24.363281 11.75 24.257812 12.003906 24.257812 L 35.085938 24.257812 C 35.339844 24.257812 35.574219 24.363281 35.742188 24.53125 C 35.914062 24.699219 36.019531 24.929688 36.019531 25.183594 L 36.019531 29.972656 C 36.019531 30.226562 35.914062 30.457031 35.742188 30.625 C 35.574219 30.792969 35.339844 30.898438 35.085938 30.898438 L 35.085938 31.414062 C 35.886719 31.414062 36.539062 30.765625 36.539062 29.972656 L 36.539062 25.183594 C 36.539062 24.390625 35.886719 23.742188 35.085938 23.742188 L 12.003906 23.742188 C 11.203125 23.742188 10.554688 24.390625 10.550781 25.183594 L 10.550781 29.972656 C 10.554688 30.765625 11.203125 31.414062 12.003906 31.414062 L 35.085938 31.414062 L 35.085938 31.15625 " fill-opacity="1" fill-rule="nonzero"></path><path fill="rgb(100%, 100%, 100%)" d="M 34.503906 24.574219 L 16.695312 24.574219 C 16.515625 24.753906 16.273438 24.828125 19.183594 24.820312 L 34.433594 24.863281 C 35.109375 24.863281 35.738281 25.539062 35.738281 26.191406 L 35.738281 25.761719 C 35.738281 25.109375 35.183594 24.574219 34.503906 24.574219 " fill-opacity="1" fill-rule="nonzero"></path><path fill="rgb(8.628845%, 43.139648%, 58.428955%)" d="M 35.085938 31.15625 L 35.085938 30.898438 L 12.003906 30.898438 C 11.75 30.898438 11.515625 30.792969 11.347656 30.625 C 11.296875 30.578125 11.253906 30.523438 11.214844 30.464844 C 11.421875 30.628906 11.679688 30.726562 11.960938 30.726562 L 35.042969 30.726562 C 35.410156 30.726562 35.738281 30.558594 35.957031 30.296875 C 35.910156 30.421875 35.835938 30.53125 35.742188 30.625 C 35.574219 30.792969 35.339844 30.898438 35.085938 30.898438 L 35.085938 31.15625 " fill-opacity="1" fill-rule="nonzero"></path><path fill="rgb(13.729858%, 12.159729%, 12.548828%)" d="M 35.085938 31.15625 L 35.085938 30.898438 C 35.339844 30.898438 35.574219 30.792969 35.742188 30.625 C 35.835938 30.53125 35.910156 30.421875 35.957031 30.296875 C 36.128906 30.09375 36.234375 29.828125 36.234375 29.542969 L 36.234375 29.191406 C 36.261719 29.09375 36.277344 28.988281 36.277344 28.878906 L 36.277344 29.972656 C 36.277344 30.625 35.742188 31.15625 35.085938 31.15625 M 35.085938 31.15625 L 12.003906 31.15625 C 11.347656 31.15625 10.8125 30.625 10.8125 29.972656 L 10.8125 29.851562 C 10.878906 30.09375 11.023438 30.308594 11.214844 30.464844 C 11.253906 30.523438 11.296875 30.578125 11.347656 30.625 C 11.515625 30.792969 11.75 30.898438 12.003906 30.898438 L 35.085938 30.898438 L 35.085938 31.15625 " fill-opacity="1" fill-rule="nonzero"></path><path fill="rgb(63.919067%, 82.348633%, 83.139038%)" d="M 26.371094 26.269531 C 26.371094 26.523438 26.164062 26.730469 25.910156 26.730469 C 25.652344 26.730469 25.445312 26.523438 25.445312 26.269531 C 25.445312 26.015625 25.652344 25.8125 25.910156 25.8125 C 26.164062 25.8125 26.371094 26.015625 26.371094 26.269531 " fill-opacity="1" fill-rule="nonzero"></path><path fill="rgb(63.919067%, 82.348633%, 83.139038%)" d="M 28.164062 26.269531 C 28.164062 26.523438 27.957031 26.730469 27.703125 26.730469 C 27.445312 26.730469 27.238281 26.523438 27.238281 26.269531 C 27.238281 26.015625 27.445312 25.8125 27.703125 25.8125 C 27.957031 25.8125 28.164062 26.015625 28.164062 26.269531 " fill-opacity="1" fill-rule="nonzero"></path><path fill="rgb(63.919067%, 82.348633%, 83.139038%)" d="M 30.042969 26.269531 C 30.042969 26.523438 29.835938 26.730469 29.582031 26.730469 C 29.324219 26.730469 29.117188 26.523438 29.117188 26.269531 C 29.117188 26.015625 29.324219 25.8125 29.582031 25.8125 C 29.835938 25.8125 30.042969 26.015625 30.042969 26.269531 " fill-opacity="1" fill-rule="nonzero"></path><path fill="rgb(63.919067%, 82.348633%, 83.139038%)" d="M 31.835938 26.269531 C 31.835938 26.523438 31.628906 26.730469 31.375 26.730469 C 31.121094 26.730469 30.910156 26.523438 30.910156 26.269531 C 30.910156 26.015625 31.121094 25.8125 31.375 25.8125 C 31.628906 25.8125 31.835938 26.015625 31.835938 26.269531 " fill-opacity="1" fill-rule="nonzero"></path><path fill="rgb(63.919067%, 82.348633%, 83.139038%)" d="M 33.515625 26.269531 C 33.515625 26.523438 33.308594 26.730469 33.050781 26.730469 C 32.796875 26.730469 32.589844 26.523438 32.589844 26.269531 C 32.589844 26.015625 32.796875 25.8125 33.050781 25.8125 C 33.308594 25.8125 33.515625 26.015625 33.515625 26.269531 " fill-opacity="1" fill-rule="nonzero"></path><path fill="rgb(63.919067%, 82.348633%, 83.139038%)" d="M 35.308594 26.269531 C 35.308594 26.523438 35.101562 26.730469 34.84375 26.730469 C 34.589844 26.730469 34.382812 26.523438 34.382812 26.269531 C 34.382812 26.015625 34.589844 25.8125 34.84375 25.8125 C 35.101562 25.8125 35.308594 26.015625 35.308594 26.269531 " fill-opacity="1" fill-rule="nonzero"></path><path fill="rgb(63.919067%, 82.348633%, 83.139038%)" d="M 26.371094 29.070312 C 26.371094 29.324219 26.164062 29.53125 25.910156 29.53125 C 25.652344 29.53125 25.445312 29.324219 25.445312 29.070312 C 25.445312 28.816406 25.652344 28.613281 25.910156 28.613281 C 26.164062 28.613281 26.371094 28.816406 26.371094 29.070312 " fill-opacity="1" fill-rule="nonzero"></path><path fill="rgb(63.919067%, 82.348633%, 83.139038%)" d="M 28.164062 29.070312 C 28.164062 29.324219 27.957031 29.53125 27.703125 29.53125 C 27.445312 29.53125 27.238281 29.324219 27.238281 29.070312 C 27.238281 28.816406 27.445312 28.613281 27.703125 28.613281 C 27.957031 28.613281 28.164062 28.816406 28.164062 29.070312 " fill-opacity="1" fill-rule="nonzero"></path><path fill="rgb(63.919067%, 82.348633%, 83.139038%)" d="M 30.042969 29.070312 C 30.042969 29.324219 29.835938 29.53125 29.582031 29.53125 C 29.324219 29.53125 29.117188 29.324219 29.117188 29.070312 C 29.117188 28.816406 29.324219 28.613281 29.582031 28.613281 C 29.835938 28.613281 30.042969 28.816406 30.042969 29.070312 " fill-opacity="1" fill-rule="nonzero"></path><path fill="rgb(63.919067%, 82.348633%, 83.139038%)" d="M 31.835938 29.070312 C 31.835938 29.324219 31.628906 29.53125 31.375 29.53125 C 31.121094 29.53125 30.910156 29.324219 30.910156 29.070312 C 30.910156 28.816406 31.121094 28.613281 31.375 28.613281 C 31.628906 28.613281 31.835938 28.816406 31.835938 29.070312 " fill-opacity="1" fill-rule="nonzero"></path><path fill="rgb(63.919067%, 82.348633%, 83.139038%)" d="M 33.515625 29.070312 C 33.515625 29.324219 33.308594 29.53125 33.050781 29.53125 C 32.796875 29.53125 32.589844 29.324219 32.589844 29.070312 C 32.589844 28.816406 32.796875 28.613281 33.050781 28.613281 C 33.308594 28.613281 33.515625 28.816406 33.515625 29.070312 " fill-opacity="1" fill-rule="nonzero"></path><path fill="rgb(63.919067%, 82.348633%, 83.139038%)" d="M 35.308594 29.070312 C 35.308594 29.324219 35.101562 29.53125 34.84375 29.53125 C 34.589844 29.53125 34.382812 29.324219 34.382812 29.070312 C 34.382812 28.816406 34.589844 28.613281 34.84375 28.613281 C 35.101562 28.613281 35.308594 28.816406 35.308594 29.070312 " fill-opacity="1" fill-rule="nonzero"></path><path fill="rgb(63.919067%, 82.348633%, 83.139038%)" d="M 27.296875 27.691406 C 27.296875 27.945312 27.089844 28.152344 26.832031 28.152344 C 26.578125 28.152344 26.371094 27.945312 26.371094 27.691406 C 26.371094 27.4375 26.578125 27.234375 26.832031 27.234375 C 27.089844 27.234375 27.296875 27.4375 27.296875 27.691406 " fill-opacity="1" fill-rule="nonzero"></path><path fill="rgb(63.919067%, 82.348633%, 83.139038%)" d="M 29.175781 27.691406 C 29.175781 27.945312 28.96875 28.152344 28.714844 28.152344 C 28.457031 28.152344 28.25 27.945312 28.25 27.691406 C 28.25 27.4375 28.457031 27.234375 28.714844 27.234375 C 28.96875 27.234375 29.175781 27.4375 29.175781 27.691406 " fill-opacity="1" fill-rule="nonzero"></path><path fill="rgb(63.919067%, 82.348633%, 83.139038%)" d="M 30.941406 27.691406 C 30.941406 27.945312 30.734375 28.152344 30.476562 28.152344 C 30.222656 28.152344 30.015625 27.945312 30.015625 27.691406 C 30.015625 27.4375 30.222656 27.234375 30.476562 27.234375 C 30.734375 27.234375 30.941406 27.4375 30.941406 27.691406 " fill-opacity="1" fill-rule="nonzero"></path><path fill="rgb(63.919067%, 82.348633%, 83.139038%)" d="M 32.734375 27.691406 C 32.734375 27.945312 32.527344 28.152344 32.269531 28.152344 C 32.015625 28.152344 31.808594 27.945312 31.808594 27.691406 C 31.808594 27.4375 32.015625 27.234375 32.269531 27.234375 C 32.527344 27.234375 32.734375 27.4375 32.734375 27.691406 " fill-opacity="1" fill-rule="nonzero"></path><path fill="rgb(63.919067%, 82.348633%, 83.139038%)" d="M 34.527344 27.691406 C 34.527344 27.945312 34.320312 28.152344 34.0625 28.152344 C 33.808594 28.152344 33.601562 27.945312 33.601562 27.691406 C 33.601562 27.4375 33.808594 27.234375 34.0625 27.234375 C 34.320312 27.234375 34.527344 27.4375 34.527344 27.691406 " fill-opacity="1" fill-rule="nonzero"></path><path fill="rgb(49.409485%, 76.858521%, 24.308777%)" d="M 14.398438 27.5625 C 14.398438 28.101562 13.957031 28.539062 13.414062 28.539062 C 12.871094 28.539062 12.433594 28.101562 12.433594 27.5625 C 12.433594 27.023438 12.871094 26.585938 13.414062 26.585938 C 13.957031 26.585938 14.398438 27.023438 14.398438 27.5625 " fill-opacity="1" fill-rule="nonzero"></path><path fill="rgb(13.729858%, 12.159729%, 12.548828%)" d="M 14.398438 27.5625 L 14.222656 27.5625 C 14.222656 27.785156 14.132812 27.984375 13.988281 28.132812 C 13.839844 28.277344 13.640625 28.367188 13.414062 28.367188 C 13.191406 28.367188 12.988281 28.277344 12.84375 28.132812 C 12.695312 27.984375 12.605469 27.785156 12.605469 27.5625 C 12.605469 27.339844 12.695312 27.140625 12.84375 26.996094 C 12.988281 26.847656 13.191406 26.757812 13.414062 26.757812 C 13.640625 26.757812 13.839844 26.847656 13.988281 26.996094 C 14.132812 27.140625 14.222656 27.339844 14.222656 27.5625 L 14.570312 27.5625 C 14.570312 26.929688 14.054688 26.414062 13.414062 26.414062 C 12.777344 26.414062 12.257812 26.929688 12.257812 27.5625 C 12.257812 28.199219 12.777344 28.710938 13.414062 28.710938 C 14.054688 28.710938 14.570312 28.199219 14.570312 27.5625 L 14.398438 27.5625 " fill-opacity="1" fill-rule="nonzero"></path><path fill="rgb(41.958618%, 72.158813%, 59.609985%)" d="M 17.289062 27.5625 C 17.289062 28.101562 16.851562 28.539062 16.308594 28.539062 C 15.765625 28.539062 15.324219 28.101562 15.324219 27.5625 C 15.324219 27.023438 15.765625 26.585938 16.308594 26.585938 C 16.851562 26.585938 17.289062 27.023438 17.289062 27.5625 " fill-opacity="1" fill-rule="nonzero"></path><path fill="rgb(13.729858%, 12.159729%, 12.548828%)" d="M 17.289062 27.5625 L 17.117188 27.5625 C 17.117188 27.785156 17.027344 27.984375 16.878906 28.132812 C 16.734375 28.277344 16.53125 28.367188 16.308594 28.367188 C 16.082031 28.367188 15.882812 28.277344 15.734375 28.132812 C 15.585938 27.984375 15.496094 27.785156 15.496094 27.5625 C 15.496094 27.339844 15.585938 27.140625 15.734375 26.996094 C 15.882812 26.847656 16.082031 26.757812 16.308594 26.757812 C 16.53125 26.757812 16.734375 26.847656 16.878906 26.996094 C 17.027344 27.140625 17.117188 27.339844 17.117188 27.5625 L 17.464844 27.5625 C 17.464844 26.929688 16.945312 26.414062 16.308594 26.414062 C 15.667969 26.414062 15.148438 26.929688 15.148438 27.5625 C 15.148438 28.199219 15.667969 28.710938 16.308594 28.710938 C 16.945312 28.710938 17.464844 28.199219 17.464844 27.5625 L 17.289062 27.5625 " fill-opacity="1" fill-rule="nonzero"></path><path fill="rgb(82.348633%, 90.589905%, 89.408875%)" d="M 20.355469 27.5625 C 20.355469 28.101562 19.914062 28.539062 19.371094 28.539062 C 18.828125 28.539062 18.390625 28.101562 18.390625 27.5625 C 18.390625 27.023438 18.828125 26.585938 19.371094 26.585938 C 19.914062 26.585938 20.355469 27.023438 20.355469 27.5625 " fill-opacity="1" fill-rule="nonzero"></path><path fill="rgb(13.729858%, 12.159729%, 12.548828%)" d="M 20.355469 27.5625 L 20.183594 27.5625 C 20.183594 27.785156 20.09375 27.988281 19.945312 28.132812 C 19.796875 28.277344 19.597656 28.367188 19.371094 28.367188 C 19.148438 28.367188 18.945312 28.277344 18.800781 28.132812 C 18.652344 27.988281 18.5625 27.785156 18.5625 27.5625 C 18.5625 27.339844 18.652344 27.140625 18.800781 26.996094 C 18.945312 26.847656 19.148438 26.757812 19.371094 26.757812 C 19.597656 26.757812 19.796875 26.847656 19.945312 26.996094 C 20.09375 27.140625 20.183594 27.339844 20.183594 27.5625 L 20.527344 27.5625 C 20.527344 26.929688 20.011719 26.414062 19.371094 26.414062 C 18.734375 26.414062 18.214844 26.929688 18.214844 27.5625 C 18.214844 28.199219 18.734375 28.710938 19.371094 28.710938 C 20.011719 28.710938 20.527344 28.199219 20.527344 27.5625 L 20.355469 27.5625 " fill-opacity="1" fill-rule="nonzero"></path><path fill="rgb(13.729858%, 12.159729%, 12.548828%)" d="M 38.5 3.214844 C 34.886719 4.859375 33.292969 9.121094 34.949219 12.710938 C 36.605469 16.304688 40.894531 17.886719 44.507812 16.238281 C 48.125 14.59375 49.714844 10.332031 48.058594 6.742188 C 46.402344 3.152344 42.113281 1.570312 38.5 3.214844 M 44.734375 16.726562 C 40.847656 18.496094 36.242188 16.792969 34.460938 12.933594 C 32.679688 9.074219 34.390625 4.496094 38.277344 2.726562 C 42.160156 0.957031 46.769531 2.660156 48.550781 6.519531 C 50.328125 10.378906 48.617188 14.957031 44.734375 16.726562 " fill-opacity="1" fill-rule="nonzero"></path><path fill="rgb(100%, 100%, 100%)" d="M 41.515625 16.890625 C 39.28125 16.890625 37.125 15.855469 35.75 14.042969 C 36.21875 13.804688 36.539062 13.320312 36.539062 12.761719 L 36.539062 7.972656 C 36.539062 7.179688 35.886719 6.53125 35.085938 6.53125 L 35.054688 6.53125 C 35.761719 5.117188 36.945312 3.921875 38.5 3.214844 C 39.472656 2.773438 40.488281 2.5625 41.492188 2.5625 C 44.226562 2.5625 46.847656 4.117188 48.058594 6.742188 C 49.714844 10.332031 48.125 14.59375 44.507812 16.238281 C 43.539062 16.679688 42.519531 16.890625 41.515625 16.890625 " fill-opacity="1" fill-rule="nonzero"></path><path fill="rgb(30.589294%, 74.508667%, 90.589905%)" d="M 35.359375 13.472656 C 35.207031 13.230469 35.070312 12.976562 34.949219 12.710938 C 34.890625 12.582031 34.832031 12.449219 34.78125 12.316406 C 34.800781 12.320312 34.824219 12.320312 34.84375 12.320312 C 35.101562 12.320312 35.308594 12.113281 35.308594 11.863281 C 35.308594 11.605469 35.101562 11.402344 34.84375 11.402344 C 34.722656 11.402344 34.609375 11.449219 34.523438 11.527344 C 34.464844 11.292969 34.414062 11.058594 34.378906 10.820312 C 34.46875 10.738281 34.527344 10.617188 34.527344 10.480469 C 34.527344 10.316406 34.4375 10.167969 34.304688 10.089844 C 34.261719 9.261719 34.367188 8.445312 34.601562 7.664062 C 35.210938 7.765625 35.738281 8.382812 35.738281 8.980469 L 35.738281 8.550781 C 35.738281 7.960938 35.285156 7.46875 34.695312 7.378906 C 34.734375 7.269531 34.777344 7.15625 34.820312 7.046875 L 35.085938 7.046875 C 35.339844 7.046875 35.574219 7.152344 35.742188 7.320312 C 35.914062 7.488281 36.019531 7.71875 36.019531 7.972656 L 36.019531 12.761719 C 36.019531 12.875 35.996094 12.984375 35.957031 13.085938 C 35.804688 13.269531 35.59375 13.40625 35.359375 13.472656 M 34.84375 8.601562 C 34.589844 8.601562 34.382812 8.804688 34.382812 9.058594 C 34.382812 9.3125 34.589844 9.519531 34.84375 9.519531 C 35.101562 9.519531 35.308594 9.3125 35.308594 9.058594 C 35.308594 8.804688 35.101562 8.601562 34.84375 8.601562 " fill-opacity="1" fill-rule="nonzero"></path><path fill="rgb(31.759644%, 30.589294%, 30.979919%)" d="M 35.75 14.042969 C 35.695312 13.972656 35.644531 13.902344 35.59375 13.832031 C 35.996094 13.640625 36.277344 13.234375 36.277344 12.761719 L 36.277344 11.667969 C 36.277344 11.777344 36.261719 11.882812 36.234375 11.980469 L 36.234375 12.332031 C 36.234375 12.617188 36.128906 12.882812 35.957031 13.085938 C 35.996094 12.984375 36.019531 12.875 36.019531 12.761719 L 36.019531 7.972656 C 36.019531 7.71875 35.914062 7.488281 35.742188 7.320312 C 35.574219 7.152344 35.339844 7.046875 35.085938 7.046875 L 34.820312 7.046875 C 34.890625 6.871094 34.96875 6.699219 35.054688 6.53125 L 35.085938 6.53125 C 35.886719 6.53125 36.539062 7.179688 36.539062 7.972656 L 36.539062 12.761719 C 36.539062 13.320312 36.21875 13.804688 35.75 14.042969 " fill-opacity="1" fill-rule="nonzero"></path><path fill="rgb(100%, 100%, 100%)" d="M 35.738281 8.980469 C 35.738281 8.382812 35.210938 7.765625 34.601562 7.664062 C 34.632812 7.570312 34.664062 7.472656 34.695312 7.378906 C 35.285156 7.46875 35.738281 7.960938 35.738281 8.550781 L 35.738281 8.980469 " fill-opacity="1" fill-rule="nonzero"></path><path fill="rgb(22.349548%, 53.729248%, 66.668701%)" d="M 35.449219 13.613281 C 35.417969 13.566406 35.386719 13.519531 35.359375 13.472656 C 35.59375 13.40625 35.804688 13.269531 35.957031 13.085938 C 35.910156 13.210938 35.835938 13.324219 35.742188 13.414062 C 35.660156 13.5 35.558594 13.566406 35.449219 13.613281 " fill-opacity="1" fill-rule="nonzero"></path><path fill="rgb(31.759644%, 30.589294%, 30.979919%)" d="M 35.59375 13.832031 C 35.542969 13.761719 35.496094 13.6875 35.449219 13.613281 C 35.558594 13.566406 35.660156 13.5 35.742188 13.414062 C 35.835938 13.324219 35.910156 13.210938 35.957031 13.085938 C 36.128906 12.882812 36.234375 12.617188 36.234375 12.332031 L 36.234375 11.980469 C 36.261719 11.882812 36.277344 11.777344 36.277344 11.667969 L 36.277344 12.761719 C 36.277344 13.234375 35.996094 13.640625 35.59375 13.832031 " fill-opacity="1" fill-rule="nonzero"></path><path fill="rgb(71.369934%, 85.879517%, 86.268616%)" d="M 34.84375 9.519531 C 34.589844 9.519531 34.382812 9.3125 34.382812 9.058594 C 34.382812 8.804688 34.589844 8.601562 34.84375 8.601562 C 35.101562 8.601562 35.308594 8.804688 35.308594 9.058594 C 35.308594 9.3125 35.101562 9.519531 34.84375 9.519531 " fill-opacity="1" fill-rule="nonzero"></path><path fill="rgb(71.369934%, 85.879517%, 86.268616%)" d="M 34.84375 12.320312 C 34.824219 12.320312 34.800781 12.320312 34.78125 12.316406 C 34.679688 12.054688 34.59375 11.792969 34.523438 11.527344 C 34.609375 11.449219 34.722656 11.402344 34.84375 11.402344 C 35.101562 11.402344 35.308594 11.605469 35.308594 11.863281 C 35.308594 12.113281 35.101562 12.320312 34.84375 12.320312 " fill-opacity="1" fill-rule="nonzero"></path><path fill="rgb(71.369934%, 85.879517%, 86.268616%)" d="M 34.378906 10.820312 C 34.339844 10.578125 34.316406 10.332031 34.304688 10.089844 C 34.4375 10.167969 34.527344 10.316406 34.527344 10.480469 C 34.527344 10.617188 34.46875 10.738281 34.378906 10.820312 " fill-opacity="1" fill-rule="nonzero"></path><path fill="rgb(31.759644%, 30.589294%, 30.979919%)" d="M 41.507812 17.160156 C 38.675781 17.160156 35.964844 15.550781 34.703125 12.824219 C 32.984375 9.09375 34.632812 4.679688 38.386719 2.972656 C 39.398438 2.511719 40.457031 2.292969 41.5 2.292969 C 44.335938 2.292969 47.046875 3.902344 48.304688 6.628906 C 50.027344 10.363281 48.378906 14.773438 44.621094 16.480469 C 43.613281 16.941406 42.550781 17.160156 41.507812 17.160156 M 35.75 14.042969 C 37.125 15.855469 39.28125 16.890625 41.515625 16.890625 C 42.519531 16.890625 43.539062 16.679688 44.507812 16.238281 C 48.125 14.59375 49.714844 10.332031 48.058594 6.742188 C 46.847656 4.117188 44.226562 2.5625 41.492188 2.5625 C 40.488281 2.5625 39.472656 2.773438 38.5 3.214844 C 36.945312 3.921875 35.761719 5.117188 35.054688 6.53125 C 34.96875 6.699219 34.890625 6.871094 34.820312 7.046875 C 34.777344 7.15625 34.734375 7.269531 34.695312 7.378906 C 34.664062 7.472656 34.632812 7.570312 34.601562 7.664062 C 34.367188 8.445312 34.261719 9.261719 34.304688 10.089844 C 34.316406 10.332031 34.339844 10.578125 34.378906 10.820312 C 34.414062 11.058594 34.464844 11.292969 34.523438 11.527344 C 34.59375 11.792969 34.679688 12.054688 34.78125 12.316406 C 34.832031 12.449219 34.890625 12.582031 34.949219 12.710938 C 35.070312 12.976562 35.207031 13.230469 35.359375 13.472656 C 35.386719 13.519531 35.417969 13.566406 35.449219 13.613281 C 35.496094 13.6875 35.542969 13.761719 35.59375 13.832031 C 35.644531 13.902344 35.695312 13.972656 35.75 14.042969 " fill-opacity="1" fill-rule="nonzero"></path><path fill="rgb(100%, 100%, 100%)" d="M 45.035156 16.496094 C 44.761719 16.636719 44.355469 16.753906 44.050781 16.851562 C 44.089844 16.992188 44.242188 17.296875 44.277344 17.363281 L 44.796875 18.496094 C 45.023438 18.988281 45.609375 19.203125 46.101562 18.976562 L 46.1875 18.9375 C 46.679688 18.714844 46.894531 18.132812 46.671875 17.644531 L 46.148438 16.511719 C 46.101562 16.410156 45.949219 16.070312 45.855469 15.941406 C 45.617188 16.171875 45.363281 16.328125 45.035156 16.496094 " fill-opacity="1" fill-rule="nonzero"></path><path fill="rgb(13.729858%, 12.159729%, 12.548828%)" d="M 44.226562 16.9375 C 44.269531 17.042969 44.332031 17.171875 44.367188 17.242188 C 44.382812 17.273438 44.390625 17.296875 44.398438 17.308594 L 44.921875 18.441406 C 45.117188 18.863281 45.621094 19.050781 46.046875 18.855469 L 46.128906 18.816406 C 46.554688 18.625 46.742188 18.121094 46.546875 17.699219 L 46.007812 16.527344 C 45.96875 16.441406 45.894531 16.277344 45.824219 16.148438 C 45.589844 16.351562 45.335938 16.492188 45.097656 16.617188 C 44.859375 16.738281 44.53125 16.839844 44.246094 16.929688 Z M 46.242188 19.058594 L 46.15625 19.097656 C 45.597656 19.355469 44.933594 19.109375 44.675781 18.550781 L 44.125 17.359375 C 44.042969 17.191406 43.953125 17 43.921875 16.886719 C 43.902344 16.820312 43.941406 16.746094 44.007812 16.726562 L 44.164062 16.675781 C 44.441406 16.589844 44.753906 16.492188 44.972656 16.378906 C 45.277344 16.222656 45.527344 16.070312 45.757812 15.84375 C 45.785156 15.816406 45.824219 15.804688 45.863281 15.804688 C 45.902344 15.808594 45.9375 15.828125 45.960938 15.859375 C 46.058594 15.988281 46.1875 16.277344 46.253906 16.417969 L 46.792969 17.589844 C 47.050781 18.144531 46.804688 18.804688 46.242188 19.058594 " fill-opacity="1" fill-rule="nonzero"></path><path fill="rgb(100%, 100%, 100%)" d="M 44.175781 18.5625 L 44.1875 18.59375 L 46.152344 22.855469 C 46.523438 23.660156 47.488281 24.015625 48.296875 23.648438 L 48.359375 23.617188 C 49.167969 23.25 49.527344 22.292969 49.15625 21.488281 L 47.191406 17.226562 L 47.171875 17.199219 L 44.175781 18.5625 " fill-opacity="1" fill-rule="nonzero"></path><path fill="rgb(13.729858%, 12.159729%, 12.548828%)" d="M 44.351562 18.628906 L 46.277344 22.800781 C 46.617188 23.539062 47.5 23.863281 48.242188 23.523438 L 48.300781 23.496094 C 49.046875 23.160156 49.375 22.28125 49.03125 21.542969 L 47.109375 17.375 Z M 48.414062 23.742188 L 48.351562 23.769531 C 47.476562 24.167969 46.433594 23.785156 46.03125 22.910156 L 44.066406 18.652344 L 44.054688 18.625 C 44.023438 18.558594 44.050781 18.472656 44.117188 18.441406 L 47.117188 17.078125 C 47.183594 17.046875 47.261719 17.074219 47.292969 17.140625 C 47.304688 17.15625 47.308594 17.164062 47.3125 17.171875 L 49.277344 21.433594 C 49.679688 22.304688 49.292969 23.339844 48.414062 23.742188 " fill-opacity="1" fill-rule="nonzero"></path><g clip-path="url(#id1)"><path fill="rgb(11.369324%, 25.489807%, 42.349243%)" d="M 12.601562 45.007812 L 6.972656 45.007812 L 7.667969 40.710938 L 11.847656 40.710938 L 12.601562 45.007812 " fill-opacity="1" fill-rule="nonzero"></path><path fill="rgb(13.729858%, 12.159729%, 12.548828%)" d="M 7.089844 44.910156 L 12.484375 44.910156 L 11.761719 40.8125 L 7.753906 40.8125 Z M 12.601562 45.109375 L 6.972656 45.109375 C 6.941406 45.109375 6.914062 45.09375 6.894531 45.074219 C 6.875 45.050781 6.867188 45.023438 6.871094 44.992188 L 7.570312 40.695312 C 7.578125 40.648438 7.617188 40.613281 7.667969 40.613281 L 11.847656 40.613281 C 11.894531 40.613281 11.9375 40.648438 11.945312 40.695312 L 12.699219 44.992188 C 12.707031 45.019531 12.699219 45.050781 12.679688 45.074219 C 12.660156 45.09375 12.632812 45.109375 12.601562 45.109375 " fill-opacity="1" fill-rule="nonzero"></path></g><g clip-path="url(#id2)"><path fill="rgb(40.388489%, 76.469421%, 89.7995%)" d="M 17.21875 31.890625 L 2.285156 31.890625 C 1.855469 31.890625 1.503906 32.238281 1.503906 32.664062 L 1.503906 41.695312 C 1.503906 42.121094 1.855469 42.46875 2.285156 42.46875 L 17.21875 42.46875 C 17.652344 42.46875 18 42.121094 18 41.695312 L 18 32.664062 C 18 32.238281 17.652344 31.890625 17.21875 31.890625 " fill-opacity="1" fill-rule="nonzero"></path></g><g clip-path="url(#id3)"><path fill="rgb(13.729858%, 12.159729%, 12.548828%)" d="M 2.285156 31.988281 C 1.910156 31.988281 1.605469 32.292969 1.605469 32.664062 L 1.605469 41.695312 C 1.605469 42.066406 1.910156 42.371094 2.285156 42.371094 L 17.21875 42.371094 C 17.59375 42.371094 17.898438 42.066406 17.898438 41.695312 L 17.898438 32.664062 C 17.898438 32.292969 17.59375 31.988281 17.21875 31.988281 L 2.285156 31.988281 M 17.21875 42.570312 L 2.285156 42.570312 C 1.800781 42.570312 1.402344 42.175781 1.402344 41.695312 L 1.402344 32.664062 C 1.402344 32.179688 1.800781 31.789062 2.285156 31.789062 L 17.21875 31.789062 C 17.707031 31.789062 18.101562 32.179688 18.101562 32.664062 L 18.101562 41.695312 C 18.101562 42.175781 17.707031 42.570312 17.21875 42.570312 " fill-opacity="1" fill-rule="nonzero"></path></g><g clip-path="url(#id4)"><path fill="rgb(19.219971%, 44.309998%, 72.158813%)" d="M 17.898438 39.671875 L 1.605469 39.671875 C 1.546875 39.671875 1.503906 39.71875 1.503906 39.773438 L 1.503906 41.695312 C 1.503906 42.121094 1.855469 42.46875 2.285156 42.46875 L 17.21875 42.46875 C 17.652344 42.46875 18 42.121094 18 41.695312 L 18 39.773438 C 18 39.71875 17.957031 39.671875 17.898438 39.671875 " fill-opacity="1" fill-rule="nonzero"></path></g><g clip-path="url(#id5)"><path fill="rgb(13.729858%, 12.159729%, 12.548828%)" d="M 1.605469 39.773438 L 1.605469 41.695312 C 1.605469 42.066406 1.910156 42.371094 2.285156 42.371094 L 17.21875 42.371094 C 17.59375 42.371094 17.898438 42.066406 17.898438 41.695312 L 17.898438 39.773438 Z M 17.21875 42.570312 L 2.285156 42.570312 C 1.800781 42.570312 1.402344 42.175781 1.402344 41.695312 L 1.402344 39.773438 C 1.402344 39.664062 1.492188 39.574219 1.605469 39.574219 L 17.898438 39.574219 C 18.011719 39.574219 18.101562 39.664062 18.101562 39.773438 L 18.101562 41.695312 C 18.101562 42.175781 17.707031 42.570312 17.21875 42.570312 " fill-opacity="1" fill-rule="nonzero"></path></g><g clip-path="url(#id6)"><path fill="rgb(63.139343%, 85.488892%, 93.328857%)" d="M 17.898438 35.308594 L 1.648438 33.375 L 1.648438 32.847656 L 17.898438 34.785156 L 17.898438 35.308594 " fill-opacity="1" fill-rule="nonzero"></path></g><path fill="rgb(13.729858%, 12.159729%, 12.548828%)" d="M 17.921875 35.3125 L 17.898438 35.308594 L 17.898438 34.785156 L 17.921875 34.789062 L 17.921875 35.3125 " fill-opacity="1" fill-rule="nonzero"></path><g clip-path="url(#id7)"><path fill="rgb(63.139343%, 85.488892%, 93.328857%)" d="M 17.898438 36.128906 L 1.648438 34.195312 L 1.648438 33.671875 L 17.898438 35.605469 L 17.898438 36.128906 " fill-opacity="1" fill-rule="nonzero"></path></g><path fill="rgb(13.729858%, 12.159729%, 12.548828%)" d="M 17.921875 36.132812 L 17.898438 36.128906 L 17.898438 35.605469 L 17.921875 35.609375 L 17.921875 36.132812 " fill-opacity="1" fill-rule="nonzero"></path><g clip-path="url(#id8)"><path fill="rgb(63.139343%, 85.488892%, 93.328857%)" d="M 17.898438 36.972656 L 1.648438 35.039062 L 1.648438 34.515625 L 17.898438 36.449219 L 17.898438 36.972656 " fill-opacity="1" fill-rule="nonzero"></path></g><path fill="rgb(13.729858%, 12.159729%, 12.548828%)" d="M 17.921875 36.976562 L 17.898438 36.972656 L 17.898438 36.449219 L 17.921875 36.453125 L 17.921875 36.976562 " fill-opacity="1" fill-rule="nonzero"></path><g clip-path="url(#id9)"><path fill="rgb(19.219971%, 44.309998%, 72.158813%)" d="M 13.550781 45.375 L 5.824219 45.375 C 5.605469 45.375 5.429688 45.195312 5.429688 44.980469 L 5.429688 44.9375 C 5.429688 44.722656 5.605469 44.546875 5.824219 44.546875 L 13.550781 44.546875 C 13.769531 44.546875 13.945312 44.722656 13.945312 44.9375 L 13.945312 44.980469 C 13.945312 45.195312 13.769531 45.375 13.550781 45.375 " fill-opacity="1" fill-rule="nonzero"></path></g><g clip-path="url(#id10)"><path fill="rgb(13.729858%, 12.159729%, 12.548828%)" d="M 5.84375 44.644531 C 5.671875 44.644531 5.527344 44.785156 5.527344 44.960938 C 5.527344 45.132812 5.671875 45.273438 5.84375 45.273438 L 13.53125 45.273438 C 13.703125 45.273438 13.84375 45.132812 13.84375 44.960938 C 13.84375 44.785156 13.703125 44.644531 13.53125 44.644531 Z M 13.53125 45.472656 L 5.84375 45.472656 C 5.5625 45.472656 5.328125 45.242188 5.328125 44.960938 C 5.328125 44.675781 5.5625 44.449219 5.84375 44.449219 L 13.53125 44.449219 C 13.8125 44.449219 14.042969 44.675781 14.042969 44.960938 C 14.042969 45.242188 13.8125 45.472656 13.53125 45.472656 " fill-opacity="1" fill-rule="nonzero"></path></g><path fill="rgb(100%, 100%, 98.81897%)" d="M 17.667969 39.113281 C 17.613281 39.113281 17.566406 39.070312 17.566406 39.015625 L 17.566406 33.347656 C 17.566406 32.496094 16.636719 32.351562 16.546875 32.339844 L 12.09375 32.339844 C 12.039062 32.339844 11.996094 32.292969 11.996094 32.238281 C 11.996094 32.183594 12.039062 32.140625 12.09375 32.140625 L 16.566406 32.140625 C 16.578125 32.144531 17.765625 32.296875 17.765625 33.347656 L 17.765625 39.015625 C 17.765625 39.070312 17.722656 39.113281 17.667969 39.113281 " fill-opacity="1" fill-rule="nonzero"></path><g clip-path="url(#id11)"><path fill="rgb(19.219971%, 44.309998%, 72.158813%)" d="M 37.359375 31.753906 L 31.695312 31.753906 C 31.195312 31.753906 30.789062 32.160156 30.789062 32.65625 L 30.789062 44.210938 C 30.789062 44.707031 31.195312 45.109375 31.695312 45.109375 L 37.359375 45.109375 C 37.855469 45.109375 38.261719 44.707031 38.261719 44.210938 L 38.261719 32.65625 C 38.261719 32.160156 37.855469 31.753906 37.359375 31.753906 " fill-opacity="1" fill-rule="nonzero"></path><path fill="rgb(13.729858%, 12.159729%, 12.548828%)" d="M 37.359375 31.753906 L 37.359375 31.695312 L 31.695312 31.695312 C 31.164062 31.695312 30.730469 32.125 30.730469 32.65625 L 30.730469 44.210938 C 30.730469 44.738281 31.164062 45.167969 31.695312 45.171875 L 37.359375 45.171875 C 37.890625 45.167969 38.324219 44.738281 38.324219 44.210938 L 38.324219 32.65625 C 38.324219 32.125 37.890625 31.695312 37.359375 31.695312 L 37.359375 31.816406 C 37.589844 31.816406 37.800781 31.910156 37.953125 32.0625 C 38.105469 32.214844 38.203125 32.425781 38.203125 32.65625 L 38.203125 44.210938 C 38.203125 44.441406 38.105469 44.648438 37.953125 44.800781 C 37.800781 44.953125 37.589844 45.046875 37.359375 45.046875 L 31.695312 45.046875 C 31.464844 45.046875 31.253906 44.953125 31.097656 44.800781 C 30.945312 44.648438 30.851562 44.441406 30.851562 44.210938 L 30.851562 32.65625 C 30.851562 32.425781 30.945312 32.214844 31.097656 32.0625 C 31.253906 31.910156 31.464844 31.816406 31.695312 31.816406 L 37.359375 31.816406 L 37.359375 31.753906 " fill-opacity="1" fill-rule="nonzero"></path></g><path fill="rgb(40.388489%, 76.469421%, 89.7995%)" d="M 37.152344 32.238281 L 31.902344 32.238281 C 31.4375 32.238281 31.0625 32.613281 31.0625 33.074219 L 31.0625 43.789062 C 31.0625 44.25 31.4375 44.625 31.902344 44.625 L 37.152344 44.625 C 37.617188 44.625 37.992188 44.25 37.992188 43.789062 L 37.992188 33.074219 C 37.992188 32.613281 37.617188 32.238281 37.152344 32.238281 " fill-opacity="1" fill-rule="nonzero"></path><path fill="rgb(13.729858%, 12.159729%, 12.548828%)" d="M 37.152344 32.238281 L 37.152344 32.179688 L 31.902344 32.179688 C 31.40625 32.179688 31 32.578125 31 33.074219 L 31 43.789062 C 31 44.285156 31.40625 44.683594 31.902344 44.6875 L 37.152344 44.6875 C 37.648438 44.683594 38.054688 44.285156 38.054688 43.789062 L 38.054688 33.074219 C 38.054688 32.578125 37.648438 32.179688 37.152344 32.179688 L 37.152344 32.300781 C 37.367188 32.300781 37.5625 32.386719 37.703125 32.527344 C 37.84375 32.667969 37.929688 32.859375 37.929688 33.074219 L 37.929688 43.789062 C 37.929688 44.003906 37.84375 44.195312 37.703125 44.335938 C 37.5625 44.476562 37.367188 44.5625 37.152344 44.5625 L 31.902344 44.5625 C 31.6875 44.5625 31.492188 44.476562 31.351562 44.335938 C 31.210938 44.195312 31.125 44.003906 31.125 43.789062 L 31.125 33.074219 C 31.125 32.859375 31.210938 32.667969 31.351562 32.527344 C 31.492188 32.386719 31.6875 32.300781 31.902344 32.300781 L 37.152344 32.300781 L 37.152344 32.238281 " fill-opacity="1" fill-rule="nonzero"></path><g clip-path="url(#id12)"><path fill="rgb(19.219971%, 44.309998%, 72.158813%)" d="M 30.789062 43.136719 L 30.789062 44.210938 C 30.789062 44.707031 31.195312 45.109375 31.695312 45.109375 L 37.359375 45.109375 C 37.855469 45.109375 38.261719 44.707031 38.261719 44.210938 L 38.261719 43.136719 L 30.789062 43.136719 " fill-opacity="1" fill-rule="nonzero"></path><path fill="rgb(13.729858%, 12.159729%, 12.548828%)" d="M 30.789062 43.136719 L 30.730469 43.136719 L 30.730469 44.210938 C 30.730469 44.738281 31.164062 45.167969 31.695312 45.171875 L 37.359375 45.171875 C 37.890625 45.167969 38.324219 44.738281 38.324219 44.210938 L 38.324219 43.136719 C 38.324219 43.121094 38.316406 43.105469 38.308594 43.09375 C 38.296875 43.082031 38.28125 43.074219 38.261719 43.074219 L 30.789062 43.074219 C 30.773438 43.074219 30.757812 43.082031 30.746094 43.09375 C 30.734375 43.105469 30.730469 43.121094 30.730469 43.136719 L 30.789062 43.136719 L 30.789062 43.199219 L 38.203125 43.199219 L 38.203125 44.210938 C 38.203125 44.441406 38.105469 44.648438 37.953125 44.800781 C 37.800781 44.953125 37.589844 45.046875 37.359375 45.046875 L 31.695312 45.046875 C 31.464844 45.046875 31.253906 44.953125 31.097656 44.800781 C 30.945312 44.648438 30.851562 44.441406 30.851562 44.210938 L 30.851562 43.136719 L 30.789062 43.136719 L 30.789062 43.199219 L 30.789062 43.136719 " fill-opacity="1" fill-rule="nonzero"></path></g><path fill="rgb(10.198975%, 22.749329%, 38.42926%)" d="M 32.765625 43.757812 L 31.914062 43.757812 C 31.796875 43.757812 31.703125 43.851562 31.703125 43.96875 L 31.703125 44.242188 C 31.703125 44.355469 31.796875 44.453125 31.914062 44.453125 L 32.765625 44.453125 C 32.882812 44.453125 32.976562 44.355469 32.976562 44.242188 L 32.976562 43.96875 C 32.976562 43.851562 32.882812 43.757812 32.765625 43.757812 " fill-opacity="1" fill-rule="nonzero"></path><path fill="rgb(13.729858%, 12.159729%, 12.548828%)" d="M 32.765625 43.757812 L 32.765625 43.699219 L 31.914062 43.699219 C 31.765625 43.699219 31.640625 43.820312 31.640625 43.96875 L 31.640625 44.242188 C 31.640625 44.390625 31.765625 44.511719 31.914062 44.511719 L 32.765625 44.511719 C 32.917969 44.511719 33.039062 44.390625 33.039062 44.242188 L 33.039062 43.96875 C 33.039062 43.820312 32.917969 43.699219 32.765625 43.699219 L 32.765625 43.820312 C 32.847656 43.820312 32.914062 43.886719 32.914062 43.96875 L 32.914062 44.242188 C 32.914062 44.324219 32.847656 44.390625 32.765625 44.390625 L 31.914062 44.390625 C 31.832031 44.390625 31.765625 44.324219 31.765625 44.242188 L 31.765625 43.96875 C 31.765625 43.886719 31.832031 43.820312 31.914062 43.820312 L 32.765625 43.820312 L 32.765625 43.757812 " fill-opacity="1" fill-rule="nonzero"></path><path fill="rgb(10.198975%, 22.749329%, 38.42926%)" d="M 37.257812 43.757812 L 36.40625 43.757812 C 36.289062 43.757812 36.195312 43.851562 36.195312 43.96875 L 36.195312 44.242188 C 36.195312 44.355469 36.289062 44.453125 36.40625 44.453125 L 37.257812 44.453125 C 37.375 44.453125 37.46875 44.355469 37.46875 44.242188 L 37.46875 43.96875 C 37.46875 43.851562 37.375 43.757812 37.257812 43.757812 " fill-opacity="1" fill-rule="nonzero"></path><path fill="rgb(13.729858%, 12.159729%, 12.548828%)" d="M 37.257812 43.757812 L 37.257812 43.699219 L 36.40625 43.699219 C 36.253906 43.699219 36.132812 43.820312 36.132812 43.96875 L 36.132812 44.242188 C 36.132812 44.390625 36.253906 44.511719 36.40625 44.511719 L 37.257812 44.511719 C 37.40625 44.511719 37.53125 44.390625 37.53125 44.242188 L 37.53125 43.96875 C 37.53125 43.820312 37.40625 43.699219 37.257812 43.699219 L 37.257812 43.820312 C 37.339844 43.820312 37.40625 43.886719 37.40625 43.96875 L 37.40625 44.242188 C 37.40625 44.324219 37.339844 44.390625 37.257812 44.390625 L 36.40625 44.390625 C 36.324219 44.390625 36.257812 44.324219 36.257812 44.242188 L 36.257812 43.96875 C 36.257812 43.886719 36.324219 43.820312 36.40625 43.820312 L 37.257812 43.820312 L 37.257812 43.757812 " fill-opacity="1" fill-rule="nonzero"></path><path fill="rgb(10.198975%, 22.749329%, 38.42926%)" d="M 35.019531 44.132812 C 35.019531 44.402344 34.796875 44.625 34.523438 44.625 C 34.25 44.625 34.027344 44.402344 34.027344 44.132812 C 34.027344 43.859375 34.25 43.636719 34.523438 43.636719 C 34.796875 43.636719 35.019531 43.859375 35.019531 44.132812 " fill-opacity="1" fill-rule="nonzero"></path><path fill="rgb(13.729858%, 12.159729%, 12.548828%)" d="M 35.019531 44.132812 L 34.960938 44.132812 C 34.957031 44.371094 34.765625 44.5625 34.523438 44.5625 C 34.285156 44.5625 34.089844 44.371094 34.089844 44.132812 C 34.089844 43.894531 34.285156 43.699219 34.523438 43.699219 C 34.765625 43.699219 34.957031 43.894531 34.960938 44.132812 L 35.082031 44.132812 C 35.082031 43.824219 34.832031 43.578125 34.523438 43.578125 C 34.21875 43.578125 33.96875 43.824219 33.96875 44.132812 C 33.96875 44.4375 34.21875 44.6875 34.523438 44.6875 C 34.832031 44.6875 35.082031 44.4375 35.082031 44.132812 L 35.019531 44.132812 " fill-opacity="1" fill-rule="nonzero"></path><g clip-path="url(#id13)"><path fill="rgb(19.219971%, 44.309998%, 72.158813%)" d="M 37.359375 31.753906 L 31.695312 31.753906 C 31.195312 31.753906 30.789062 32.160156 30.789062 32.65625 L 30.789062 44.210938 C 30.789062 44.707031 31.195312 45.109375 31.695312 45.109375 L 37.359375 45.109375 C 37.855469 45.109375 38.261719 44.707031 38.261719 44.210938 L 38.261719 32.65625 C 38.261719 32.160156 37.855469 31.753906 37.359375 31.753906 " fill-opacity="1" fill-rule="nonzero"></path><path fill="rgb(13.729858%, 12.159729%, 12.548828%)" d="M 37.359375 31.753906 L 37.359375 31.695312 L 31.695312 31.695312 C 31.164062 31.695312 30.730469 32.125 30.730469 32.65625 L 30.730469 44.210938 C 30.730469 44.738281 31.164062 45.167969 31.695312 45.171875 L 37.359375 45.171875 C 37.890625 45.167969 38.324219 44.738281 38.324219 44.210938 L 38.324219 32.65625 C 38.324219 32.125 37.890625 31.695312 37.359375 31.695312 L 37.359375 31.816406 C 37.589844 31.816406 37.800781 31.910156 37.953125 32.0625 C 38.105469 32.214844 38.203125 32.425781 38.203125 32.65625 L 38.203125 44.210938 C 38.203125 44.441406 38.105469 44.648438 37.953125 44.800781 C 37.800781 44.953125 37.589844 45.046875 37.359375 45.046875 L 31.695312 45.046875 C 31.464844 45.046875 31.253906 44.953125 31.097656 44.800781 C 30.945312 44.648438 30.851562 44.441406 30.851562 44.210938 L 30.851562 32.65625 C 30.851562 32.425781 30.945312 32.214844 31.097656 32.0625 C 31.253906 31.910156 31.464844 31.816406 31.695312 31.816406 L 37.359375 31.816406 L 37.359375 31.753906 " fill-opacity="1" fill-rule="nonzero"></path></g><path fill="rgb(40.388489%, 76.469421%, 89.7995%)" d="M 37.152344 32.238281 L 31.902344 32.238281 C 31.4375 32.238281 31.0625 32.613281 31.0625 33.074219 L 31.0625 43.789062 C 31.0625 44.25 31.4375 44.625 31.902344 44.625 L 37.152344 44.625 C 37.617188 44.625 37.992188 44.25 37.992188 43.789062 L 37.992188 33.074219 C 37.992188 32.613281 37.617188 32.238281 37.152344 32.238281 " fill-opacity="1" fill-rule="nonzero"></path><path fill="rgb(13.729858%, 12.159729%, 12.548828%)" d="M 37.152344 32.238281 L 37.152344 32.179688 L 31.902344 32.179688 C 31.40625 32.179688 31 32.578125 31 33.074219 L 31 43.789062 C 31 44.285156 31.40625 44.683594 31.902344 44.6875 L 37.152344 44.6875 C 37.648438 44.683594 38.054688 44.285156 38.054688 43.789062 L 38.054688 33.074219 C 38.054688 32.578125 37.648438 32.179688 37.152344 32.179688 L 37.152344 32.300781 C 37.367188 32.300781 37.5625 32.386719 37.703125 32.527344 C 37.84375 32.667969 37.929688 32.859375 37.929688 33.074219 L 37.929688 43.789062 C 37.929688 44.003906 37.84375 44.195312 37.703125 44.335938 C 37.5625 44.476562 37.367188 44.5625 37.152344 44.5625 L 31.902344 44.5625 C 31.6875 44.5625 31.492188 44.476562 31.351562 44.335938 C 31.210938 44.195312 31.125 44.003906 31.125 43.789062 L 31.125 33.074219 C 31.125 32.859375 31.210938 32.667969 31.351562 32.527344 C 31.492188 32.386719 31.6875 32.300781 31.902344 32.300781 L 37.152344 32.300781 L 37.152344 32.238281 " fill-opacity="1" fill-rule="nonzero"></path><g clip-path="url(#id14)"><path fill="rgb(19.219971%, 44.309998%, 72.158813%)" d="M 30.789062 43.136719 L 30.789062 44.210938 C 30.789062 44.707031 31.195312 45.109375 31.695312 45.109375 L 37.359375 45.109375 C 37.855469 45.109375 38.261719 44.707031 38.261719 44.210938 L 38.261719 43.136719 L 30.789062 43.136719 " fill-opacity="1" fill-rule="nonzero"></path><path fill="rgb(13.729858%, 12.159729%, 12.548828%)" d="M 30.789062 43.136719 L 30.730469 43.136719 L 30.730469 44.210938 C 30.730469 44.738281 31.164062 45.167969 31.695312 45.171875 L 37.359375 45.171875 C 37.890625 45.167969 38.324219 44.738281 38.324219 44.210938 L 38.324219 43.136719 C 38.324219 43.121094 38.316406 43.105469 38.308594 43.09375 C 38.296875 43.082031 38.28125 43.074219 38.261719 43.074219 L 30.789062 43.074219 C 30.773438 43.074219 30.757812 43.082031 30.746094 43.09375 C 30.734375 43.105469 30.730469 43.121094 30.730469 43.136719 L 30.789062 43.136719 L 30.789062 43.199219 L 38.203125 43.199219 L 38.203125 44.210938 C 38.203125 44.441406 38.105469 44.648438 37.953125 44.800781 C 37.800781 44.953125 37.589844 45.046875 37.359375 45.046875 L 31.695312 45.046875 C 31.464844 45.046875 31.253906 44.953125 31.097656 44.800781 C 30.945312 44.648438 30.851562 44.441406 30.851562 44.210938 L 30.851562 43.136719 L 30.789062 43.136719 L 30.789062 43.199219 L 30.789062 43.136719 " fill-opacity="1" fill-rule="nonzero"></path></g><path fill="rgb(63.139343%, 85.488892%, 93.328857%)" d="M 37.929688 34.886719 L 31.125 33.875 L 31.125 33.304688 L 37.929688 34.320312 L 37.929688 34.886719 " fill-opacity="1" fill-rule="nonzero"></path><path fill="rgb(13.729858%, 12.159729%, 12.548828%)" d="M 38.054688 34.90625 L 37.929688 34.886719 L 37.929688 34.320312 L 38.054688 34.335938 L 38.054688 34.90625 M 31.125 33.875 L 31.070312 33.863281 L 31.070312 33.296875 L 31.125 33.304688 L 31.125 33.875 " fill-opacity="1" fill-rule="nonzero"></path><path fill="rgb(63.139343%, 85.488892%, 93.328857%)" d="M 37.929688 35.777344 L 31.125 34.761719 L 31.125 34.195312 L 37.929688 35.207031 L 37.929688 35.777344 " fill-opacity="1" fill-rule="nonzero"></path><path fill="rgb(13.729858%, 12.159729%, 12.548828%)" d="M 38.054688 35.796875 L 37.929688 35.777344 L 37.929688 35.207031 L 38.054688 35.226562 L 38.054688 35.796875 M 31.125 34.761719 L 31.070312 34.753906 L 31.070312 34.1875 L 31.125 34.195312 L 31.125 34.761719 " fill-opacity="1" fill-rule="nonzero"></path><path fill="rgb(63.139343%, 85.488892%, 93.328857%)" d="M 37.929688 36.691406 L 31.125 35.679688 L 31.125 35.109375 L 37.929688 36.125 L 37.929688 36.691406 " fill-opacity="1" fill-rule="nonzero"></path><path fill="rgb(13.729858%, 12.159729%, 12.548828%)" d="M 38.054688 36.710938 L 37.929688 36.691406 L 37.929688 36.125 L 38.054688 36.140625 L 38.054688 36.710938 M 31.125 35.679688 L 31.070312 35.671875 L 31.070312 35.101562 L 31.125 35.109375 L 31.125 35.679688 " fill-opacity="1" fill-rule="nonzero"></path><path fill="rgb(10.198975%, 22.749329%, 38.42926%)" d="M 32.765625 43.757812 L 31.914062 43.757812 C 31.796875 43.757812 31.703125 43.851562 31.703125 43.96875 L 31.703125 44.242188 C 31.703125 44.355469 31.796875 44.453125 31.914062 44.453125 L 32.765625 44.453125 C 32.882812 44.453125 32.976562 44.355469 32.976562 44.242188 L 32.976562 43.96875 C 32.976562 43.851562 32.882812 43.757812 32.765625 43.757812 " fill-opacity="1" fill-rule="nonzero"></path><path fill="rgb(13.729858%, 12.159729%, 12.548828%)" d="M 32.765625 43.757812 L 32.765625 43.699219 L 31.914062 43.699219 C 31.765625 43.699219 31.640625 43.820312 31.640625 43.96875 L 31.640625 44.242188 C 31.640625 44.390625 31.765625 44.511719 31.914062 44.511719 L 32.765625 44.511719 C 32.917969 44.511719 33.039062 44.390625 33.039062 44.242188 L 33.039062 43.96875 C 33.039062 43.820312 32.917969 43.699219 32.765625 43.699219 L 32.765625 43.820312 C 32.847656 43.820312 32.914062 43.886719 32.914062 43.96875 L 32.914062 44.242188 C 32.914062 44.324219 32.847656 44.390625 32.765625 44.390625 L 31.914062 44.390625 C 31.832031 44.390625 31.765625 44.324219 31.765625 44.242188 L 31.765625 43.96875 C 31.765625 43.886719 31.832031 43.820312 31.914062 43.820312 L 32.765625 43.820312 L 32.765625 43.757812 " fill-opacity="1" fill-rule="nonzero"></path><path fill="rgb(10.198975%, 22.749329%, 38.42926%)" d="M 37.257812 43.757812 L 36.40625 43.757812 C 36.289062 43.757812 36.195312 43.851562 36.195312 43.96875 L 36.195312 44.242188 C 36.195312 44.355469 36.289062 44.453125 36.40625 44.453125 L 37.257812 44.453125 C 37.375 44.453125 37.46875 44.355469 37.46875 44.242188 L 37.46875 43.96875 C 37.46875 43.851562 37.375 43.757812 37.257812 43.757812 " fill-opacity="1" fill-rule="nonzero"></path><path fill="rgb(13.729858%, 12.159729%, 12.548828%)" d="M 37.257812 43.757812 L 37.257812 43.699219 L 36.40625 43.699219 C 36.253906 43.699219 36.132812 43.820312 36.132812 43.96875 L 36.132812 44.242188 C 36.132812 44.390625 36.253906 44.511719 36.40625 44.511719 L 37.257812 44.511719 C 37.40625 44.511719 37.53125 44.390625 37.53125 44.242188 L 37.53125 43.96875 C 37.53125 43.820312 37.40625 43.699219 37.257812 43.699219 L 37.257812 43.820312 C 37.339844 43.820312 37.40625 43.886719 37.40625 43.96875 L 37.40625 44.242188 C 37.40625 44.324219 37.339844 44.390625 37.257812 44.390625 L 36.40625 44.390625 C 36.324219 44.390625 36.257812 44.324219 36.257812 44.242188 L 36.257812 43.96875 C 36.257812 43.886719 36.324219 43.820312 36.40625 43.820312 L 37.257812 43.820312 L 37.257812 43.757812 " fill-opacity="1" fill-rule="nonzero"></path><path fill="rgb(10.198975%, 22.749329%, 38.42926%)" d="M 35.019531 44.132812 C 35.019531 44.402344 34.796875 44.625 34.523438 44.625 C 34.25 44.625 34.027344 44.402344 34.027344 44.132812 C 34.027344 43.859375 34.25 43.636719 34.523438 43.636719 C 34.796875 43.636719 35.019531 43.859375 35.019531 44.132812 " fill-opacity="1" fill-rule="nonzero"></path><path fill="rgb(13.729858%, 12.159729%, 12.548828%)" d="M 35.019531 44.132812 L 34.960938 44.132812 C 34.957031 44.371094 34.765625 44.5625 34.523438 44.5625 C 34.285156 44.5625 34.089844 44.371094 34.089844 44.132812 C 34.089844 43.894531 34.285156 43.699219 34.523438 43.699219 C 34.765625 43.699219 34.957031 43.894531 34.960938 44.132812 L 35.082031 44.132812 C 35.082031 43.824219 34.832031 43.578125 34.523438 43.578125 C 34.21875 43.578125 33.96875 43.824219 33.96875 44.132812 C 33.96875 44.4375 34.21875 44.6875 34.523438 44.6875 C 34.832031 44.6875 35.082031 44.4375 35.082031 44.132812 L 35.019531 44.132812 " fill-opacity="1" fill-rule="nonzero"></path></svg>