<svg xmlns="http://www.w3.org/2000/svg" xmlns:xlink="http://www.w3.org/1999/xlink" width="69" viewBox="0 0 51.75 47.25" height="63" preserveAspectRatio="xMidYMid meet"><defs><clipPath id="id1"><path d="M 2 0.871094 L 49.453125 0.871094 L 49.453125 46.125 L 2 46.125 Z M 2 0.871094 " clip-rule="nonzero"></path></clipPath></defs><path fill="rgb(9.799194%, 1.959229%, 35.688782%)" d="M 29.195312 37.015625 L 20.949219 37.015625 C 19.625 37.015625 18.542969 38.109375 18.542969 39.453125 C 18.542969 40.800781 19.625 41.890625 20.949219 41.890625 L 29.195312 41.890625 C 30.519531 41.890625 31.59375 40.800781 31.59375 39.453125 C 31.59375 38.109375 30.519531 37.015625 29.195312 37.015625 Z M 29.195312 37.015625 " fill-opacity="1" fill-rule="nonzero"></path><g clip-path="url(#id1)"><path fill="rgb(9.799194%, 1.959229%, 35.688782%)" d="M 48.976562 6.90625 L 47.867188 1.4375 C 47.824219 1.136719 47.519531 0.875 47.1875 0.875 C 32.863281 0.875 18.546875 0.875 4.164062 0.875 C 3.808594 0.875 3.5625 1.132812 3.484375 1.4375 L 2.382812 6.90625 C 2.179688 7.886719 2.363281 8.894531 2.867188 9.742188 C 2.867188 15.53125 2.867188 34.144531 2.867188 43.191406 C 2.867188 44.808594 4.164062 46.121094 5.761719 46.121094 L 44.382812 46.121094 C 45.980469 46.121094 47.277344 44.808594 47.277344 43.191406 C 47.277344 37.640625 47.277344 18.257812 47.277344 11.007812 C 48.546875 10.195312 49.316406 8.578125 48.976562 6.90625 Z M 45.890625 43.191406 C 45.890625 44.035156 45.207031 44.714844 44.382812 44.714844 L 5.761719 44.714844 C 4.929688 44.714844 4.253906 44.035156 4.253906 43.191406 L 4.253906 34.191406 C 23.25 34.191406 26.527344 34.191406 45.890625 34.191406 Z M 9.507812 2.28125 C 9.5 2.351562 8.800781 7.117188 8.800781 7.191406 C 8.699219 7.757812 8.722656 9.503906 6.988281 10.101562 C 5.117188 10.734375 3.355469 9.046875 3.742188 7.1875 C 3.757812 7.113281 4.75 2.207031 4.734375 2.28125 Z M 34.710938 7.488281 C 34.839844 8.972656 33.679688 10.234375 32.210938 10.234375 L 32.128906 10.234375 C 30.773438 10.234375 29.671875 9.164062 29.625 7.769531 C 29.597656 6.875 29.457031 1.964844 29.464844 2.28125 C 29.667969 2.28125 34.496094 2.28125 34.257812 2.28125 Z M 22.136719 26.875 C 22.242188 26.988281 24.328125 29.265625 24.398438 29.304688 L 24.398438 32.722656 L 17.523438 32.714844 L 17.523438 30.253906 C 17.523438 28.386719 19.023438 26.875 20.859375 26.875 Z M 21.144531 17.332031 L 22.375 16.3125 C 23.765625 18.082031 25.914062 18.207031 28.507812 18.476562 L 28.507812 20.78125 C 28.507812 22.890625 26.789062 24.511719 24.824219 24.511719 C 22.867188 24.511719 21.144531 22.894531 21.144531 20.78125 Z M 25.558594 25.855469 L 25.558594 26.671875 C 25.628906 26.671875 26.050781 26.671875 25.980469 26.671875 L 24.871094 27.929688 L 23.699219 26.671875 C 23.769531 26.671875 24.15625 26.671875 24.085938 26.671875 L 24.085938 25.855469 C 24.558594 25.9375 25.074219 25.941406 25.558594 25.855469 Z M 21.734375 7.769531 C 21.6875 9.175781 20.570312 10.234375 19.230469 10.234375 L 19.140625 10.234375 C 17.679688 10.234375 16.511719 8.964844 16.640625 7.488281 L 17.09375 2.28125 C 17.199219 2.28125 21.980469 2.28125 21.886719 2.28125 C 21.886719 2.351562 21.726562 8.132812 21.734375 7.769531 Z M 43.15625 32.785156 L 33.515625 32.785156 L 33.515625 30.261719 C 33.515625 27.621094 31.394531 25.46875 28.785156 25.46875 C 28.625 25.464844 26.886719 25.425781 26.996094 25.425781 L 26.996094 25.421875 C 28.410156 24.746094 29.464844 23.425781 29.785156 21.828125 C 29.785156 21.828125 29.785156 21.824219 29.785156 21.824219 C 31.242188 21.21875 31.585938 19.273438 30.367188 18.203125 L 30.367188 15.644531 C 30.367188 11.34375 19.285156 11.335938 19.285156 15.644531 L 19.285156 18.207031 C 18.046875 19.304688 18.4375 21.230469 19.867188 21.824219 C 19.867188 21.824219 19.867188 21.828125 19.867188 21.828125 C 20.1875 23.417969 21.242188 24.738281 22.652344 25.414062 L 22.652344 25.425781 C 22.578125 25.429688 20.746094 25.472656 20.859375 25.46875 C 18.257812 25.46875 16.136719 27.613281 16.136719 30.253906 L 16.136719 32.785156 L 6.988281 32.785156 L 6.988281 11.554688 C 7.828125 11.375 8.578125 10.917969 9.125 10.277344 L 9.714844 10.277344 C 11.300781 12.121094 14.148438 12.074219 15.671875 10.277344 L 16.199219 10.277344 C 16.21875 10.304688 16.238281 10.332031 16.265625 10.363281 C 17.824219 12.085938 20.648438 12.085938 22.179688 10.277344 C 22.25 10.277344 22.761719 10.277344 22.691406 10.277344 C 22.734375 10.332031 22.78125 10.390625 22.839844 10.445312 C 24.359375 12.042969 26.984375 12.046875 28.519531 10.445312 C 28.570312 10.390625 28.625 10.332031 28.667969 10.277344 C 28.738281 10.277344 29.242188 10.277344 29.171875 10.277344 C 30.726562 12.09375 33.539062 12.078125 35.085938 10.363281 C 35.113281 10.332031 35.132812 10.304688 35.15625 10.277344 L 35.683594 10.277344 C 37.21875 12.089844 40.082031 12.105469 41.636719 10.277344 L 42.230469 10.277344 C 42.488281 10.585938 42.808594 10.851562 43.15625 11.066406 Z M 45.160156 10.234375 C 44 10.234375 42.875 9.394531 42.683594 8.0625 C 42.671875 7.992188 41.785156 1.890625 41.84375 2.28125 L 46.625 2.28125 C 46.636719 2.351562 47.683594 7.515625 47.617188 7.1875 C 47.925781 8.726562 46.777344 10.234375 45.160156 10.234375 Z M 45.160156 10.234375 " fill-opacity="1" fill-rule="nonzero"></path></g></svg>