<svg xmlns="http://www.w3.org/2000/svg" xmlns:xlink="http://www.w3.org/1999/xlink" width="69" viewBox="0 0 51.75 47.25" height="63" preserveAspectRatio="xMidYMid meet"><defs><clipPath id="id1"><path d="M 1.046875 9.25 L 50.691406 9.25 L 50.691406 44.925781 L 1.046875 44.925781 Z M 1.046875 9.25 " clip-rule="nonzero"></path></clipPath><clipPath id="id2"><path d="M 19 1.898438 L 23 1.898438 L 23 10 L 19 10 Z M 19 1.898438 " clip-rule="nonzero"></path></clipPath></defs><g clip-path="url(#id1)"><path fill="rgb(9.799194%, 1.959229%, 35.688782%)" d="M 49.742188 33.097656 C 49.71875 33.265625 49.632812 33.414062 49.496094 33.515625 L 44.742188 37.042969 C 44.628906 37.128906 44.558594 37.261719 44.554688 37.402344 L 44.308594 43.347656 C 44.308594 43.492188 44.277344 43.609375 44.191406 43.71875 C 44.09375 43.859375 43.949219 43.953125 43.789062 43.980469 C 43.625 44.011719 43.460938 43.96875 43.324219 43.871094 L 38.554688 40.382812 C 38.472656 40.320312 38.375 40.292969 38.277344 40.292969 C 38.234375 40.292969 38.191406 40.296875 38.148438 40.308594 L 32.59375 41.894531 C 32.53125 41.894531 32.472656 41.90625 32.417969 41.929688 C 32.335938 41.960938 32.234375 41.957031 32.121094 41.917969 C 31.792969 41.808594 31.605469 41.445312 31.699219 41.113281 L 32.597656 38.269531 L 33.125 38.523438 C 33.492188 38.710938 33.898438 38.769531 34.277344 38.703125 C 35.371094 38.554688 36.148438 37.53125 36.003906 36.417969 L 35.015625 29.058594 L 36.585938 29.046875 C 36.726562 29.042969 36.863281 28.976562 36.949219 28.863281 L 40.585938 24.203125 C 40.585938 24.203125 40.585938 24.203125 40.589844 24.203125 C 40.671875 24.09375 40.773438 24.019531 40.917969 23.980469 C 41.0625 23.925781 41.222656 23.933594 41.363281 24.003906 C 41.515625 24.082031 41.632812 24.214844 41.6875 24.382812 L 43.53125 30.042969 C 43.578125 30.179688 43.679688 30.285156 43.816406 30.335938 L 49.332031 32.40625 C 49.433594 32.433594 49.542969 32.519531 49.625 32.632812 C 49.726562 32.765625 49.769531 32.929688 49.742188 33.097656 Z M 26.070312 34.035156 C 25.941406 33.972656 25.789062 33.972656 25.65625 34.035156 L 18.203125 37.675781 C 18.070312 37.742188 17.929688 37.777344 17.792969 37.785156 C 17.652344 37.796875 17.511719 37.777344 17.375 37.726562 C 17.109375 37.632812 16.890625 37.433594 16.761719 37.15625 C 16.710938 37.058594 16.679688 36.953125 16.664062 36.84375 C 16.652344 36.738281 16.652344 36.621094 16.675781 36.503906 L 17.71875 28.65625 C 17.71875 28.652344 17.71875 28.648438 17.71875 28.648438 L 17.777344 28.222656 C 17.792969 28.082031 17.75 27.9375 17.652344 27.835938 L 11.925781 21.777344 C 11.730469 21.570312 11.625 21.296875 11.632812 21.003906 C 11.636719 20.710938 11.757812 20.4375 11.976562 20.226562 C 12.132812 20.070312 12.328125 19.976562 12.585938 19.945312 L 20.675781 18.453125 C 20.816406 18.425781 20.9375 18.339844 21.003906 18.210938 L 24.917969 10.820312 C 25.058594 10.558594 25.289062 10.375 25.5625 10.292969 C 25.660156 10.265625 25.757812 10.25 25.855469 10.25 C 26.03125 10.25 26.210938 10.296875 26.378906 10.390625 C 26.566406 10.488281 26.710938 10.628906 26.832031 10.839844 L 30.742188 18.210938 C 30.808594 18.339844 30.929688 18.425781 31.074219 18.453125 L 39.207031 19.941406 C 39.804688 20.0625 40.191406 20.621094 40.085938 21.210938 C 40.046875 21.4375 39.960938 21.621094 39.816406 21.777344 L 34.078125 27.835938 C 33.980469 27.9375 33.933594 28.082031 33.953125 28.222656 L 34.007812 28.644531 C 34.007812 28.648438 34.007812 28.652344 34.007812 28.65625 L 35.070312 36.539062 C 35.148438 37.148438 34.746094 37.6875 34.128906 37.769531 C 33.933594 37.808594 33.734375 37.777344 33.539062 37.675781 L 33.496094 37.65625 Z M 20.027344 41.113281 C 20.136719 41.449219 19.953125 41.808594 19.605469 41.925781 C 19.503906 41.960938 19.398438 41.960938 19.296875 41.925781 C 19.246094 41.90625 19.175781 41.894531 19.144531 41.898438 L 13.597656 40.308594 C 13.460938 40.269531 13.308594 40.296875 13.191406 40.382812 L 8.402344 43.875 C 8.269531 43.96875 8.109375 44.007812 7.949219 43.980469 C 7.78125 43.953125 7.636719 43.863281 7.539062 43.722656 C 7.460938 43.609375 7.417969 43.476562 7.417969 43.328125 L 7.191406 37.40625 C 7.1875 37.261719 7.117188 37.128906 7.003906 37.042969 L 2.242188 33.511719 C 2.109375 33.414062 2.019531 33.273438 1.996094 33.109375 C 1.964844 32.941406 2.007812 32.765625 2.097656 32.640625 C 2.167969 32.550781 2.277344 32.441406 2.453125 32.394531 L 7.914062 30.335938 C 8.046875 30.285156 8.152344 30.179688 8.195312 30.042969 L 10.058594 24.378906 C 10.113281 24.210938 10.226562 24.082031 10.375 24.003906 C 10.453125 23.96875 10.535156 23.945312 10.625 23.945312 C 10.699219 23.945312 10.78125 23.960938 10.867188 23.992188 C 10.953125 24.015625 11.058594 24.097656 11.140625 24.203125 C 11.140625 24.203125 11.140625 24.203125 11.144531 24.207031 L 14.796875 28.867188 C 14.882812 28.980469 15.019531 29.042969 15.160156 29.046875 L 16.714844 29.058594 L 15.746094 36.355469 C 15.671875 36.773438 15.730469 37.191406 15.914062 37.566406 C 16.148438 38.066406 16.554688 38.4375 17.0625 38.617188 C 17.257812 38.6875 17.460938 38.714844 17.664062 38.722656 C 17.683594 38.722656 17.707031 38.734375 17.726562 38.734375 C 17.746094 38.734375 17.761719 38.726562 17.78125 38.726562 C 17.875 38.722656 17.96875 38.710938 18.0625 38.695312 C 18.109375 38.6875 18.15625 38.683594 18.203125 38.671875 C 18.34375 38.636719 18.480469 38.589844 18.613281 38.527344 L 19.132812 38.273438 Z M 50.386719 32.078125 C 50.191406 31.800781 49.894531 31.582031 49.625 31.511719 L 44.355469 29.53125 L 42.582031 24.089844 C 42.453125 23.683594 42.160156 23.34375 41.777344 23.15625 C 41.398438 22.972656 40.980469 22.949219 40.640625 23.078125 C 40.339844 23.15625 40.054688 23.347656 39.84375 23.625 L 36.347656 28.105469 L 35.109375 28.117188 L 40.507812 22.421875 C 40.777344 22.121094 40.945312 21.78125 41.011719 21.371094 C 41.207031 20.273438 40.496094 19.242188 39.386719 19.015625 L 31.464844 17.566406 L 27.660156 10.390625 C 27.65625 10.386719 27.65625 10.382812 27.652344 10.378906 C 27.445312 10.007812 27.15625 9.730469 26.820312 9.558594 C 26.355469 9.300781 25.8125 9.238281 25.300781 9.386719 C 24.78125 9.539062 24.351562 9.886719 24.085938 10.371094 L 20.28125 17.566406 L 12.445312 19.011719 C 12.007812 19.0625 11.613281 19.253906 11.320312 19.554688 C 10.925781 19.925781 10.703125 20.433594 10.691406 20.984375 C 10.675781 21.527344 10.875 22.039062 11.246094 22.425781 L 16.621094 28.117188 L 15.394531 28.105469 L 11.882812 23.625 C 11.675781 23.355469 11.402344 23.160156 11.148438 23.09375 C 10.753906 22.949219 10.332031 22.976562 9.957031 23.160156 C 9.578125 23.347656 9.292969 23.679688 9.164062 24.085938 L 7.371094 29.53125 L 2.171875 31.496094 C 1.863281 31.570312 1.589844 31.761719 1.347656 32.070312 C 1.101562 32.414062 0.996094 32.847656 1.066406 33.265625 C 1.132812 33.675781 1.359375 34.039062 1.691406 34.273438 L 6.261719 37.667969 L 6.476562 43.347656 C 6.476562 43.664062 6.578125 43.988281 6.765625 44.257812 C 7.011719 44.613281 7.375 44.84375 7.796875 44.914062 C 7.882812 44.925781 7.964844 44.933594 8.050781 44.933594 C 8.375 44.933594 8.691406 44.832031 8.957031 44.636719 L 13.5625 41.28125 L 19.007812 42.839844 C 19.042969 42.851562 19.085938 42.855469 19.125 42.855469 C 19.390625 42.917969 19.667969 42.90625 19.914062 42.816406 C 20.734375 42.546875 21.1875 41.65625 20.925781 40.828125 L 19.988281 37.855469 L 25.863281 34.984375 L 31.742188 37.851562 L 30.796875 40.839844 C 30.558594 41.679688 31.011719 42.546875 31.816406 42.808594 C 32.070312 42.902344 32.347656 42.917969 32.605469 42.855469 C 32.644531 42.855469 32.683594 42.851562 32.722656 42.839844 L 38.183594 41.28125 L 42.773438 44.636719 C 43.046875 44.832031 43.363281 44.933594 43.6875 44.933594 C 43.773438 44.933594 43.863281 44.925781 43.949219 44.910156 C 44.359375 44.839844 44.71875 44.609375 44.945312 44.28125 C 45.144531 44.027344 45.25 43.707031 45.25 43.367188 L 45.484375 37.667969 L 50.054688 34.273438 C 50.394531 34.023438 50.617188 33.652344 50.675781 33.230469 C 50.734375 32.8125 50.628906 32.398438 50.386719 32.078125 " fill-opacity="1" fill-rule="nonzero"></path></g><path fill="rgb(9.799194%, 1.959229%, 35.688782%)" d="M 31.242188 10.238281 C 31.28125 10.25 31.324219 10.253906 31.363281 10.253906 C 31.570312 10.253906 31.761719 10.113281 31.816406 9.902344 L 33.644531 2.882812 C 33.707031 2.628906 33.558594 2.371094 33.308594 2.308594 C 33.058594 2.242188 32.800781 2.390625 32.734375 2.644531 L 30.90625 9.664062 C 30.839844 9.914062 30.992188 10.171875 31.242188 10.238281 " fill-opacity="1" fill-rule="nonzero"></path><path fill="rgb(9.799194%, 1.959229%, 35.688782%)" d="M 37.652344 16.332031 C 37.707031 16.546875 37.898438 16.6875 38.109375 16.6875 C 38.148438 16.6875 38.1875 16.683594 38.222656 16.671875 L 43.738281 15.277344 C 43.992188 15.214844 44.144531 14.957031 44.082031 14.703125 C 44.019531 14.453125 43.757812 14.296875 43.511719 14.363281 L 37.992188 15.757812 C 37.742188 15.824219 37.589844 16.078125 37.652344 16.332031 " fill-opacity="1" fill-rule="nonzero"></path><path fill="rgb(9.799194%, 1.959229%, 35.688782%)" d="M 33.347656 14.578125 C 33.441406 14.675781 33.566406 14.726562 33.691406 14.726562 C 33.808594 14.726562 33.921875 14.683594 34.015625 14.597656 L 39.660156 9.277344 C 39.851562 9.097656 39.859375 8.800781 39.679688 8.609375 C 39.503906 8.417969 39.207031 8.410156 39.015625 8.589844 L 33.371094 13.910156 C 33.179688 14.089844 33.171875 14.386719 33.347656 14.578125 " fill-opacity="1" fill-rule="nonzero"></path><g clip-path="url(#id2)"><path fill="rgb(9.799194%, 1.959229%, 35.688782%)" d="M 21.195312 9.5625 C 21.253906 9.773438 21.441406 9.914062 21.652344 9.914062 C 21.691406 9.914062 21.730469 9.910156 21.773438 9.898438 C 22.023438 9.832031 22.171875 9.574219 22.105469 9.320312 L 20.261719 2.304688 C 20.195312 2.050781 19.941406 1.902344 19.6875 1.96875 C 19.433594 2.035156 19.285156 2.292969 19.351562 2.542969 L 21.195312 9.5625 " fill-opacity="1" fill-rule="nonzero"></path></g><path fill="rgb(9.799194%, 1.959229%, 35.688782%)" d="M 8.300781 13.976562 L 13.839844 15.390625 C 13.878906 15.398438 13.917969 15.40625 13.957031 15.40625 C 14.164062 15.40625 14.355469 15.261719 14.410156 15.050781 C 14.472656 14.796875 14.324219 14.539062 14.070312 14.476562 L 8.535156 13.0625 C 8.285156 12.996094 8.027344 13.148438 7.964844 13.402344 C 7.898438 13.652344 8.050781 13.910156 8.300781 13.976562 " fill-opacity="1" fill-rule="nonzero"></path><path fill="rgb(9.799194%, 1.959229%, 35.688782%)" d="M 18.609375 13.632812 C 18.699219 13.71875 18.8125 13.761719 18.929688 13.761719 C 19.054688 13.761719 19.179688 13.714844 19.273438 13.613281 C 19.453125 13.425781 19.441406 13.128906 19.253906 12.949219 L 13.605469 7.609375 C 13.417969 7.429688 13.117188 7.4375 12.941406 7.628906 C 12.761719 7.816406 12.773438 8.117188 12.960938 8.292969 L 18.609375 13.632812 " fill-opacity="1" fill-rule="nonzero"></path></svg>