<svg xmlns="http://www.w3.org/2000/svg" xmlns:xlink="http://www.w3.org/1999/xlink" width="69" viewBox="0 0 51.75 47.25" height="63" preserveAspectRatio="xMidYMid meet"><defs><clipPath id="id1"><path d="M 1.5 3 L 10 3 L 10 14 L 1.5 14 Z M 1.5 3 " clip-rule="nonzero"></path></clipPath><clipPath id="id2"><path d="M 34 27 L 50.460938 27 L 50.460938 43.785156 L 34 43.785156 Z M 34 27 " clip-rule="nonzero"></path></clipPath></defs><g clip-path="url(#id1)"><path fill="rgb(9.799194%, 1.959229%, 35.688782%)" d="M 3.488281 6.507812 C 4.878906 4.726562 6.773438 3.554688 9.125 3.117188 C 9.394531 3.066406 9.492188 3.121094 9.496094 3.390625 C 9.5 3.660156 9.691406 3.988281 9.550781 4.171875 C 9.429688 4.328125 9.070312 4.300781 8.816406 4.363281 C 4.964844 5.285156 2.40625 8.886719 2.789062 12.871094 C 2.816406 13.144531 2.765625 13.265625 2.488281 13.253906 C 2.472656 13.253906 2.460938 13.253906 2.449219 13.257812 C 1.648438 13.371094 1.636719 13.371094 1.597656 12.542969 C 1.496094 10.351562 2.105469 8.375 3.488281 6.507812 " fill-opacity="1" fill-rule="nonzero"></path></g><path fill="rgb(9.799194%, 1.959229%, 35.688782%)" d="M 5.308594 7.878906 C 6.324219 6.574219 7.726562 5.707031 9.460938 5.363281 C 9.703125 5.3125 9.800781 5.355469 9.8125 5.613281 C 9.820312 5.882812 9.972656 6.203125 9.875 6.40625 C 9.78125 6.601562 9.40625 6.546875 9.15625 6.617188 C 6.511719 7.378906 4.808594 9.839844 5.050781 12.585938 C 5.070312 12.835938 5.019531 12.9375 4.773438 12.933594 C 4.691406 12.933594 4.609375 12.953125 4.523438 12.964844 C 3.902344 13.050781 3.894531 13.050781 3.867188 12.40625 C 3.800781 10.765625 4.257812 9.285156 5.308594 7.878906 " fill-opacity="1" fill-rule="nonzero"></path><path fill="rgb(9.799194%, 1.959229%, 35.688782%)" d="M 7.214844 9.140625 C 7.761719 8.425781 8.679688 7.863281 9.796875 7.613281 C 10.023438 7.566406 10.117188 7.601562 10.128906 7.847656 C 10.144531 8.121094 10.296875 8.429688 10.207031 8.644531 C 10.121094 8.851562 9.75 8.804688 9.511719 8.898438 C 8.101562 9.441406 7.214844 10.777344 7.316406 12.28125 C 7.335938 12.550781 7.25 12.613281 7.023438 12.613281 C 6.941406 12.613281 6.859375 12.636719 6.777344 12.644531 C 6.148438 12.734375 6.144531 12.734375 6.144531 12.113281 C 6.144531 11.085938 6.445312 10.160156 7.214844 9.140625 " fill-opacity="1" fill-rule="nonzero"></path><path fill="rgb(90.19928%, 45.098877%, 9.799194%)" d="M 25.6875 27.890625 C 25.226562 27.890625 24.839844 27.773438 24.707031 27.273438 C 24.550781 26.6875 24.9375 26.261719 25.644531 26.253906 C 26.761719 26.242188 27.878906 26.25 28.996094 26.25 C 30.09375 26.25 31.195312 26.246094 32.292969 26.253906 C 32.964844 26.257812 33.324219 26.539062 33.332031 27.050781 C 33.347656 27.585938 32.972656 27.886719 32.28125 27.890625 C 30.085938 27.890625 27.886719 27.890625 25.6875 27.890625 Z M 28.03125 33.316406 C 27.992188 34.234375 27.300781 34.886719 26.378906 34.90625 C 25.777344 34.917969 25.171875 34.90625 24.570312 34.90625 C 24.019531 34.90625 23.472656 34.910156 22.921875 34.90625 C 21.859375 34.902344 21.15625 34.230469 21.125 33.171875 C 21.105469 32.605469 21.101562 32.039062 21.125 31.476562 C 21.167969 30.464844 21.835938 29.804688 22.855469 29.785156 C 24.007812 29.769531 25.160156 29.769531 26.3125 29.785156 C 27.375 29.804688 28.015625 30.453125 28.039062 31.511719 C 28.050781 32.113281 28.058594 32.714844 28.03125 33.316406 Z M 19.199219 33.449219 C 19.09375 34.332031 18.421875 34.890625 17.527344 34.90625 C 17.511719 34.90625 17.492188 34.90625 17.476562 34.90625 C 16.605469 34.90625 15.734375 34.90625 14.867188 34.90625 C 13.996094 34.90625 13.128906 34.914062 12.257812 34.90625 C 11.265625 34.894531 10.5625 34.191406 10.550781 33.199219 C 10.542969 32.613281 10.542969 32.03125 10.550781 31.449219 C 10.566406 30.53125 11.21875 29.8125 12.140625 29.796875 C 13.96875 29.765625 15.796875 29.769531 17.621094 29.796875 C 18.476562 29.808594 19.097656 30.386719 19.199219 31.226562 C 19.285156 31.964844 19.285156 32.710938 19.199219 33.449219 Z M 10.554688 14.652344 C 10.570312 13.292969 11.667969 12.21875 13.039062 12.203125 C 13.964844 12.195312 14.886719 12.203125 15.808594 12.203125 C 16.710938 12.203125 17.617188 12.195312 18.523438 12.203125 C 19.890625 12.222656 20.96875 13.304688 20.980469 14.671875 C 20.992188 15.910156 20.992188 17.148438 20.980469 18.386719 C 20.96875 19.648438 20.023438 20.734375 18.765625 20.800781 C 16.761719 20.90625 14.753906 20.910156 12.753906 20.796875 C 11.523438 20.726562 10.574219 19.648438 10.554688 18.417969 C 10.535156 17.160156 10.539062 15.90625 10.554688 14.652344 Z M 22.664062 27.429688 C 22.464844 27.800781 22.121094 27.894531 21.722656 27.894531 C 20.039062 27.886719 18.355469 27.890625 16.671875 27.890625 C 14.972656 27.890625 13.273438 27.894531 11.570312 27.890625 C 10.894531 27.886719 10.480469 27.5 10.554688 26.957031 C 10.617188 26.507812 10.96875 26.253906 11.582031 26.253906 C 13.28125 26.246094 14.980469 26.25 16.683594 26.25 C 18.367188 26.25 20.050781 26.242188 21.734375 26.253906 C 22.53125 26.257812 22.980469 26.835938 22.664062 27.429688 Z M 29.945312 15.683594 C 29.964844 14.726562 30.582031 14.066406 31.539062 13.957031 C 31.628906 13.949219 31.714844 13.941406 31.804688 13.941406 C 35.8125 13.941406 39.816406 13.941406 43.824219 13.941406 C 44.523438 13.941406 45.109375 14.164062 45.46875 14.804688 C 45.613281 15.054688 45.695312 15.316406 45.691406 15.609375 C 45.683594 16.195312 45.691406 16.777344 45.6875 17.359375 C 45.675781 18.375 44.972656 19.085938 43.949219 19.089844 C 41.894531 19.097656 39.835938 19.089844 37.78125 19.089844 C 35.792969 19.089844 33.808594 19.09375 31.824219 19.089844 C 30.636719 19.089844 29.949219 18.40625 29.941406 17.21875 C 29.941406 16.707031 29.933594 16.195312 29.945312 15.683594 Z M 32.5625 36.097656 C 32.5625 35.664062 32.5625 35.226562 32.5625 34.789062 C 32.589844 34.574219 32.617188 34.355469 32.648438 34.140625 C 32.875 32.605469 33.425781 31.199219 34.359375 29.949219 C 34.96875 29.132812 35.65625 28.449219 36.425781 27.890625 C 36.359375 27.886719 36.292969 27.890625 36.226562 27.886719 C 35.613281 27.882812 35.261719 27.574219 35.257812 27.074219 C 35.25 26.574219 35.597656 26.257812 36.214844 26.253906 C 37.601562 26.246094 38.988281 26.246094 40.375 26.25 C 40.667969 26.203125 40.964844 26.164062 41.257812 26.125 C 41.699219 26.125 42.136719 26.125 42.574219 26.125 C 42.867188 26.164062 43.164062 26.191406 43.457031 26.242188 C 45.011719 26.511719 46.402344 27.101562 47.605469 28.03125 C 47.605469 23.132812 47.605469 18.234375 47.605469 13.335938 C 47.605469 11.390625 46.5 10.292969 44.542969 10.292969 C 33.589844 10.292969 22.640625 10.292969 11.6875 10.292969 C 9.742188 10.292969 8.632812 11.398438 8.632812 13.347656 C 8.628906 20.15625 8.628906 26.964844 8.632812 33.773438 C 8.632812 35.710938 9.75 36.820312 11.703125 36.820312 C 12.484375 36.820312 13.265625 36.816406 14.046875 36.820312 L 17.605469 36.820312 C 22.625 36.820312 27.644531 36.820312 32.667969 36.820312 C 32.628906 36.582031 32.597656 36.339844 32.5625 36.097656 " fill-opacity="1" fill-rule="nonzero"></path><g clip-path="url(#id2)"><path fill="rgb(9.799194%, 1.959229%, 35.688782%)" d="M 37.199219 35.078125 C 37.199219 35.488281 37.335938 35.761719 37.574219 35.996094 C 38.511719 36.929688 39.445312 37.859375 40.378906 38.792969 C 40.953125 39.363281 41.648438 39.355469 42.222656 38.773438 C 43.121094 37.855469 44.019531 36.941406 44.921875 36.027344 C 45.644531 35.289062 46.371094 34.554688 47.097656 33.824219 C 47.421875 33.492188 47.546875 33.101562 47.40625 32.65625 C 47.160156 31.867188 46.140625 31.597656 45.5 32.257812 C 44.257812 33.535156 42.996094 34.792969 41.742188 36.0625 C 41.421875 36.386719 41.125 36.386719 40.796875 36.0625 C 40.230469 35.5 39.667969 34.925781 39.09375 34.371094 C 38.746094 34.03125 38.324219 33.957031 37.882812 34.140625 C 37.441406 34.324219 37.222656 34.679688 37.199219 35.078125 Z M 41.773438 27.671875 C 42.144531 27.671875 42.515625 27.671875 42.886719 27.671875 C 43.136719 27.703125 43.386719 27.730469 43.632812 27.773438 C 45.375 28.074219 46.871094 28.847656 48.078125 30.140625 C 49.785156 31.972656 50.472656 34.148438 50.160156 36.628906 C 49.980469 38.054688 49.429688 39.347656 48.507812 40.457031 C 46.617188 42.730469 44.175781 43.691406 41.234375 43.347656 C 39.917969 43.191406 38.722656 42.691406 37.660156 41.902344 C 35.984375 40.65625 34.9375 39.003906 34.550781 36.949219 C 34.5 36.667969 34.46875 36.382812 34.425781 36.101562 C 34.425781 35.730469 34.425781 35.363281 34.425781 34.992188 C 34.449219 34.808594 34.46875 34.628906 34.5 34.445312 C 34.6875 33.148438 35.15625 31.957031 35.945312 30.902344 C 37.199219 29.222656 38.855469 28.179688 40.925781 27.796875 C 41.207031 27.742188 41.492188 27.710938 41.773438 27.671875 " fill-opacity="1" fill-rule="nonzero"></path></g></svg>