<svg xmlns="http://www.w3.org/2000/svg" xmlns:xlink="http://www.w3.org/1999/xlink" width="69" viewBox="0 0 51.75 47.25" height="63" preserveAspectRatio="xMidYMid meet"><defs><clipPath id="id1"><path d="M 4 1.09375 L 48 1.09375 L 48 31 L 4 31 Z M 4 1.09375 " clip-rule="nonzero"></path></clipPath><clipPath id="id2"><path d="M 17 42 L 35 42 L 35 45.605469 L 17 45.605469 Z M 17 42 " clip-rule="nonzero"></path></clipPath><clipPath id="id3"><path d="M 34 34 L 47 34 L 47 45.605469 L 34 45.605469 Z M 34 34 " clip-rule="nonzero"></path></clipPath><clipPath id="id4"><path d="M 1.058594 44 L 3 44 L 3 45.605469 L 1.058594 45.605469 Z M 1.058594 44 " clip-rule="nonzero"></path></clipPath><clipPath id="id5"><path d="M 48 44 L 50.761719 44 L 50.761719 45.605469 L 48 45.605469 Z M 48 44 " clip-rule="nonzero"></path></clipPath><clipPath id="id6"><path d="M 4 1.09375 L 48 1.09375 L 48 45.605469 L 4 45.605469 Z M 4 1.09375 " clip-rule="nonzero"></path></clipPath></defs><path fill="rgb(70.979309%, 84.709167%, 99.609375%)" d="M 47.109375 30.132812 L 47.109375 33.976562 C 47.109375 35.089844 46.347656 36.050781 45.285156 36.304688 C 45.082031 36.355469 44.878906 36.355469 44.726562 36.355469 L 7.09375 36.355469 C 5.773438 36.355469 4.710938 35.292969 4.710938 33.925781 L 4.710938 30.082031 L 47.109375 30.082031 Z M 47.109375 30.132812 " fill-opacity="1" fill-rule="nonzero"></path><g clip-path="url(#id1)"><path fill="rgb(100%, 100%, 100%)" d="M 47.109375 30.132812 L 47.109375 4.121094 C 47.109375 2.757812 46.046875 1.695312 44.726562 1.695312 L 7.09375 1.695312 C 5.773438 1.695312 4.710938 2.808594 4.710938 4.121094 L 4.710938 30.132812 Z M 47.109375 30.132812 " fill-opacity="1" fill-rule="nonzero"></path></g><path fill="rgb(91.369629%, 94.509888%, 99.609375%)" d="M 38.691406 26.4375 C 36.460938 26.4375 34.632812 28.054688 34.226562 30.132812 C 34.175781 30.433594 34.125 30.6875 34.125 30.992188 L 34.125 33.875 L 33.71875 33.875 C 32.859375 33.875 32.148438 34.582031 32.148438 35.445312 L 32.148438 36.40625 L 38.640625 36.40625 L 38.640625 26.4375 Z M 38.691406 26.4375 " fill-opacity="1" fill-rule="nonzero"></path><path fill="rgb(60.778809%, 79.219055%, 98.81897%)" d="M 38.691406 30.132812 L 38.691406 36.40625 L 32.199219 36.40625 L 32.199219 35.445312 C 32.199219 34.582031 32.910156 33.875 33.769531 33.875 L 34.175781 33.875 L 34.175781 30.992188 C 34.175781 30.6875 34.226562 30.382812 34.277344 30.132812 Z M 38.691406 30.132812 " fill-opacity="1" fill-rule="nonzero"></path><path fill="rgb(70.979309%, 84.709167%, 99.609375%)" d="M 31.894531 42.125 L 19.925781 42.125 C 21.851562 40.199219 22.359375 38.277344 21.496094 36.355469 L 30.375 36.355469 C 29.460938 38.277344 29.96875 40.199219 31.894531 42.125 Z M 31.894531 42.125 " fill-opacity="1" fill-rule="nonzero"></path><path fill="rgb(60.778809%, 79.219055%, 98.81897%)" d="M 29.96875 37.722656 C 30.019531 37.265625 30.171875 36.808594 30.375 36.40625 L 21.445312 36.40625 C 21.648438 36.859375 21.800781 37.265625 21.851562 37.722656 Z M 29.96875 37.722656 " fill-opacity="1" fill-rule="nonzero"></path><g clip-path="url(#id2)"><path fill="rgb(100%, 100%, 100%)" d="M 32.910156 45.007812 L 18.910156 45.007812 C 18.097656 45.007812 17.492188 44.347656 17.492188 43.589844 C 17.492188 42.78125 18.148438 42.171875 18.910156 42.171875 L 32.910156 42.171875 C 33.71875 42.171875 34.328125 42.832031 34.328125 43.589844 C 34.328125 44.347656 33.71875 45.007812 32.910156 45.007812 Z M 32.910156 45.007812 " fill-opacity="1" fill-rule="nonzero"></path></g><path fill="rgb(100%, 100%, 100%)" d="M 27.027344 33.621094 C 27.027344 33.796875 26.992188 33.964844 26.925781 34.125 C 26.859375 34.285156 26.761719 34.429688 26.640625 34.550781 C 26.515625 34.675781 26.375 34.769531 26.210938 34.835938 C 26.050781 34.90625 25.882812 34.9375 25.707031 34.9375 C 25.53125 34.9375 25.363281 34.90625 25.203125 34.835938 C 25.042969 34.769531 24.898438 34.675781 24.773438 34.550781 C 24.652344 34.429688 24.554688 34.285156 24.488281 34.125 C 24.421875 33.964844 24.386719 33.796875 24.386719 33.621094 C 24.386719 33.449219 24.421875 33.28125 24.488281 33.117188 C 24.554688 32.957031 24.652344 32.816406 24.773438 32.691406 C 24.898438 32.570312 25.042969 32.472656 25.203125 32.40625 C 25.363281 32.339844 25.53125 32.308594 25.707031 32.308594 C 25.882812 32.308594 26.050781 32.339844 26.210938 32.40625 C 26.375 32.472656 26.515625 32.570312 26.640625 32.691406 C 26.761719 32.816406 26.859375 32.957031 26.925781 33.117188 C 26.992188 33.28125 27.027344 33.449219 27.027344 33.621094 Z M 27.027344 33.621094 " fill-opacity="1" fill-rule="nonzero"></path><path fill="rgb(70.979309%, 84.709167%, 99.609375%)" d="M 37.167969 15.152344 L 37.167969 26.386719 C 37.167969 26.4375 37.167969 26.539062 37.117188 26.589844 C 37.117188 26.589844 37.117188 26.640625 37.117188 26.640625 C 37.015625 26.890625 36.863281 27.09375 36.613281 27.246094 C 36.613281 27.246094 36.5625 27.246094 36.5625 27.246094 C 36.5625 27.246094 36.511719 27.246094 36.511719 27.246094 C 36.460938 27.246094 36.460938 27.246094 36.410156 27.246094 C 36.359375 27.246094 36.359375 27.246094 36.308594 27.246094 C 36.257812 27.246094 36.257812 27.246094 36.207031 27.246094 L 16.171875 27.246094 C 16.222656 27.246094 16.273438 27.246094 16.324219 27.246094 C 16.425781 27.246094 16.527344 27.195312 16.628906 27.195312 C 16.628906 27.195312 16.628906 27.195312 16.679688 27.195312 C 16.730469 27.195312 16.78125 27.144531 16.832031 27.144531 C 16.882812 27.144531 16.882812 27.144531 16.933594 27.09375 C 16.984375 27.042969 17.035156 27.042969 17.085938 26.992188 C 17.136719 26.941406 17.1875 26.890625 17.238281 26.84375 C 17.289062 26.792969 17.289062 26.792969 17.339844 26.742188 C 17.390625 26.691406 17.441406 26.640625 17.492188 26.539062 C 17.644531 26.335938 17.695312 26.03125 17.695312 25.78125 L 17.695312 15.152344 C 17.695312 15.101562 17.695312 15 17.695312 14.949219 C 17.695312 14.898438 17.746094 14.851562 17.746094 14.800781 C 17.796875 14.75 17.796875 14.699219 17.847656 14.648438 C 17.898438 14.546875 18 14.445312 18.097656 14.394531 C 18.148438 14.34375 18.199219 14.34375 18.25 14.292969 C 18.300781 14.292969 18.351562 14.242188 18.402344 14.242188 C 18.453125 14.242188 18.554688 14.242188 18.605469 14.242188 L 36.257812 14.242188 C 36.765625 14.191406 37.167969 14.597656 37.167969 15.152344 Z M 37.167969 15.152344 " fill-opacity="1" fill-rule="nonzero"></path><path fill="rgb(70.979309%, 84.709167%, 99.609375%)" d="M 35.242188 13.128906 L 35.242188 14.191406 L 18.605469 14.191406 C 18.097656 14.191406 17.644531 14.597656 17.644531 15.152344 L 17.644531 25.78125 C 17.644531 26.640625 16.933594 27.347656 16.070312 27.296875 C 15.257812 27.246094 14.652344 26.539062 14.652344 25.679688 L 14.652344 9.585938 C 14.652344 9.082031 15.054688 8.625 15.613281 8.625 L 23.882812 8.625 C 24.386719 8.625 24.84375 9.03125 24.84375 9.585938 L 24.84375 11.207031 C 24.84375 11.710938 25.25 12.167969 25.808594 12.167969 L 34.328125 12.167969 C 34.785156 12.167969 35.242188 12.574219 35.242188 13.128906 Z M 35.242188 13.128906 " fill-opacity="1" fill-rule="nonzero"></path><path fill="rgb(60.778809%, 79.219055%, 98.81897%)" d="M 37.167969 26.539062 C 37.167969 26.539062 37.167969 26.589844 37.167969 26.589844 C 37.066406 26.84375 36.914062 27.042969 36.664062 27.195312 C 36.664062 27.195312 36.613281 27.195312 36.613281 27.195312 C 36.613281 27.195312 36.5625 27.195312 36.5625 27.195312 C 36.511719 27.195312 36.511719 27.195312 36.460938 27.195312 C 36.410156 27.195312 36.410156 27.195312 36.359375 27.195312 C 36.308594 27.195312 36.308594 27.195312 36.257812 27.195312 L 16.171875 27.195312 C 16.222656 27.195312 16.273438 27.195312 16.324219 27.195312 C 16.425781 27.195312 16.527344 27.144531 16.628906 27.144531 C 16.628906 27.144531 16.628906 27.144531 16.679688 27.144531 C 16.730469 27.144531 16.78125 27.09375 16.832031 27.09375 C 16.882812 27.09375 16.882812 27.042969 16.933594 27.042969 C 16.984375 26.992188 17.035156 26.992188 17.085938 26.941406 C 17.238281 26.84375 17.339844 26.691406 17.441406 26.539062 Z M 37.167969 26.539062 " fill-opacity="1" fill-rule="nonzero"></path><path fill="rgb(100%, 100%, 100%)" d="M 33.621094 14.191406 L 19.722656 14.191406 L 19.722656 5.539062 C 19.722656 4.984375 20.179688 4.527344 20.738281 4.527344 L 32.65625 4.527344 C 33.214844 4.527344 33.671875 4.984375 33.671875 5.539062 L 33.671875 14.191406 Z M 33.621094 14.191406 " fill-opacity="1" fill-rule="nonzero"></path><g clip-path="url(#id3)"><path fill="rgb(100%, 100%, 100%)" d="M 46.957031 35.394531 L 46.957031 43.945312 C 46.957031 44.550781 46.5 45.007812 45.894531 45.007812 L 35.902344 45.007812 C 35.292969 45.007812 34.835938 44.550781 34.835938 43.945312 L 34.835938 35.394531 C 34.835938 34.785156 35.292969 34.332031 35.902344 34.332031 L 45.84375 34.332031 C 46.449219 34.332031 46.957031 34.835938 46.957031 35.394531 Z M 46.957031 35.394531 " fill-opacity="1" fill-rule="nonzero"></path></g><path fill="rgb(100%, 100%, 100%)" d="M 44.980469 30.992188 L 44.980469 34.382812 L 43.304688 34.382812 L 43.304688 30.992188 C 43.304688 30.332031 43.054688 29.726562 42.597656 29.269531 C 42.140625 28.816406 41.582031 28.5625 40.871094 28.5625 C 39.554688 28.5625 38.488281 29.625 38.488281 30.941406 L 38.488281 34.332031 L 36.816406 34.332031 L 36.816406 30.941406 C 36.816406 28.714844 38.640625 26.890625 40.871094 26.890625 C 41.988281 26.890625 43.003906 27.347656 43.761719 28.105469 C 44.523438 28.867188 44.980469 29.878906 44.980469 30.992188 Z M 44.980469 30.992188 " fill-opacity="1" fill-rule="nonzero"></path><path fill="rgb(70.979309%, 84.709167%, 99.609375%)" d="M 41.582031 39.695312 L 41.988281 42.273438 L 39.910156 42.273438 L 40.3125 39.695312 C 39.910156 39.441406 39.605469 38.984375 39.605469 38.480469 C 39.605469 37.722656 40.210938 37.113281 40.972656 37.113281 C 41.734375 37.113281 42.34375 37.722656 42.34375 38.480469 C 42.292969 38.984375 41.988281 39.441406 41.582031 39.695312 Z M 41.582031 39.695312 " fill-opacity="1" fill-rule="nonzero"></path><g clip-path="url(#id4)"><path fill="rgb(16.468811%, 0%, 49.01886%)" d="M 2.375 44.5 L 1.566406 44.5 C 1.261719 44.5 1.058594 44.703125 1.058594 45.007812 C 1.058594 45.3125 1.261719 45.511719 1.566406 45.511719 L 2.375 45.511719 C 2.679688 45.511719 2.882812 45.3125 2.882812 45.007812 C 2.882812 44.703125 2.679688 44.5 2.375 44.5 Z M 2.375 44.5 " fill-opacity="1" fill-rule="nonzero"></path></g><g clip-path="url(#id5)"><path fill="rgb(16.468811%, 0%, 49.01886%)" d="M 50.253906 44.5 L 48.9375 44.5 C 48.632812 44.5 48.429688 44.703125 48.429688 45.007812 C 48.429688 45.3125 48.632812 45.511719 48.9375 45.511719 L 50.253906 45.511719 C 50.558594 45.511719 50.761719 45.3125 50.761719 45.007812 C 50.761719 44.703125 50.507812 44.5 50.253906 44.5 Z M 50.253906 44.5 " fill-opacity="1" fill-rule="nonzero"></path></g><g clip-path="url(#id6)"><path fill="rgb(16.468811%, 0%, 49.01886%)" d="M 44.726562 1.1875 L 7.09375 1.1875 C 5.46875 1.1875 4.203125 2.503906 4.203125 4.121094 L 4.203125 33.976562 C 4.203125 35.59375 5.519531 36.859375 7.09375 36.859375 L 21.09375 36.859375 C 21.34375 37.570312 21.445312 38.277344 21.242188 38.984375 C 21.191406 39.238281 21.34375 39.542969 21.597656 39.59375 C 21.851562 39.644531 22.15625 39.492188 22.207031 39.238281 C 22.410156 38.429688 22.359375 37.671875 22.15625 36.859375 L 29.5625 36.859375 C 29.105469 38.429688 29.460938 40.046875 30.726562 41.617188 L 21.042969 41.617188 C 21.191406 41.414062 21.34375 41.261719 21.445312 41.058594 C 21.597656 40.808594 21.546875 40.503906 21.292969 40.351562 C 21.042969 40.199219 20.738281 40.25 20.585938 40.503906 C 20.332031 40.859375 20.027344 41.261719 19.671875 41.617188 L 18.910156 41.617188 C 17.847656 41.617188 16.984375 42.476562 16.984375 43.539062 C 16.984375 43.894531 17.085938 44.199219 17.238281 44.449219 L 4.558594 44.449219 C 4.253906 44.449219 4.050781 44.652344 4.050781 44.957031 C 4.050781 45.261719 4.253906 45.460938 4.558594 45.460938 C 6.433594 45.460938 45.4375 45.460938 46.957031 45.460938 C 47.261719 45.460938 47.464844 45.261719 47.464844 44.957031 C 47.464844 44.804688 47.414062 44.652344 47.3125 44.601562 C 47.414062 44.398438 47.464844 44.148438 47.464844 43.894531 L 47.464844 35.394531 C 47.464844 35.292969 47.464844 35.140625 47.414062 35.039062 C 47.566406 34.683594 47.617188 34.332031 47.617188 33.925781 L 47.617188 4.121094 C 47.617188 2.503906 46.296875 1.1875 44.726562 1.1875 Z M 45.894531 33.824219 L 45.488281 33.824219 L 45.488281 30.941406 C 45.488281 30.839844 45.488281 30.6875 45.488281 30.585938 L 46.652344 30.585938 L 46.652344 33.976562 C 46.652344 33.976562 46.652344 34.027344 46.652344 34.027344 C 46.398438 33.925781 46.148438 33.824219 45.894531 33.824219 Z M 38.996094 33.824219 L 38.996094 30.941406 C 38.996094 30.839844 38.996094 30.6875 39.046875 30.585938 L 42.75 30.585938 C 42.75 30.6875 42.800781 30.839844 42.800781 30.941406 L 42.800781 33.824219 Z M 39.605469 29.625 C 40.363281 28.917969 41.480469 28.917969 42.191406 29.625 Z M 42.953125 28.917969 C 42.394531 28.359375 41.683594 28.054688 40.871094 28.054688 C 39.25 28.054688 37.980469 29.371094 37.980469 30.941406 L 37.980469 33.824219 L 37.320312 33.824219 L 37.320312 30.941406 C 37.320312 28.96875 38.945312 27.398438 40.871094 27.398438 C 41.835938 27.398438 42.699219 27.753906 43.40625 28.460938 C 44.066406 29.117188 44.472656 30.03125 44.472656 30.992188 L 44.472656 33.875 L 43.8125 33.875 L 43.8125 30.992188 C 43.8125 30.179688 43.507812 29.472656 42.953125 28.917969 Z M 5.21875 4.121094 C 5.21875 3.058594 6.078125 2.199219 7.09375 2.199219 L 44.675781 2.199219 C 45.742188 2.199219 46.550781 3.058594 46.550781 4.121094 L 46.550781 29.625 L 45.234375 29.625 C 44.675781 27.804688 42.953125 26.4375 40.871094 26.4375 C 38.84375 26.4375 37.066406 27.804688 36.511719 29.625 L 5.21875 29.625 Z M 7.09375 35.847656 C 6.027344 35.847656 5.21875 34.988281 5.21875 33.976562 L 5.21875 30.636719 L 36.359375 30.636719 C 36.359375 30.738281 36.359375 30.890625 36.359375 30.992188 L 36.359375 33.875 L 35.953125 33.875 C 35.089844 33.875 34.378906 34.582031 34.378906 35.445312 L 34.378906 35.898438 C 28.851562 35.847656 11.960938 35.847656 7.09375 35.847656 Z M 30.675781 36.859375 L 34.328125 36.859375 L 34.328125 42.273438 C 33.972656 41.871094 33.46875 41.617188 32.910156 41.617188 L 32.148438 41.617188 C 30.574219 39.996094 30.121094 38.429688 30.675781 36.859375 Z M 18.910156 44.5 C 18.402344 44.5 18 44.097656 18 43.589844 C 18 43.085938 18.402344 42.679688 18.910156 42.679688 C 23.375 42.679688 28.851562 42.679688 32.910156 42.679688 C 33.417969 42.679688 33.820312 43.085938 33.820312 43.589844 C 33.820312 44.097656 33.417969 44.5 32.910156 44.5 Z M 35.902344 44.5 C 35.597656 44.5 35.34375 44.25 35.34375 43.945312 L 35.34375 35.394531 C 35.34375 35.089844 35.597656 34.835938 35.902344 34.835938 C 37.167969 34.835938 44.675781 34.835938 45.84375 34.835938 C 46.148438 34.835938 46.398438 35.089844 46.398438 35.394531 L 46.398438 43.945312 C 46.398438 44.25 46.148438 44.5 45.84375 44.5 Z M 35.902344 44.5 " fill-opacity="1" fill-rule="nonzero"></path></g><path fill="rgb(16.468811%, 0%, 49.01886%)" d="M 25.707031 31.800781 C 24.691406 31.800781 23.882812 32.609375 23.882812 33.621094 C 23.882812 34.632812 24.691406 35.445312 25.707031 35.445312 C 26.722656 35.445312 27.53125 34.632812 27.53125 33.621094 C 27.53125 32.609375 26.671875 31.800781 25.707031 31.800781 Z M 25.707031 34.433594 C 25.25 34.433594 24.894531 34.078125 24.894531 33.621094 C 24.894531 33.167969 25.25 32.8125 25.707031 32.8125 C 26.164062 32.8125 26.519531 33.167969 26.519531 33.621094 C 26.519531 34.078125 26.113281 34.433594 25.707031 34.433594 Z M 25.707031 34.433594 " fill-opacity="1" fill-rule="nonzero"></path><path fill="rgb(16.468811%, 0%, 49.01886%)" d="M 37.675781 26.335938 L 37.675781 18.492188 C 37.675781 18.1875 37.472656 17.988281 37.167969 17.988281 C 36.863281 17.988281 36.664062 18.1875 36.664062 18.492188 L 36.664062 26.335938 C 36.664062 26.589844 36.511719 26.691406 36.257812 26.792969 L 17.847656 26.792969 C 18.046875 26.488281 18.097656 26.082031 18.097656 25.78125 L 18.097656 15.152344 C 18.097656 14.898438 18.351562 14.699219 18.554688 14.699219 C 18.859375 14.699219 35.800781 14.699219 36.207031 14.699219 C 36.460938 14.699219 36.664062 14.898438 36.664062 15.152344 L 36.664062 16.417969 C 36.664062 16.722656 36.863281 16.925781 37.167969 16.925781 C 37.472656 16.925781 37.675781 16.722656 37.675781 16.417969 L 37.675781 15.152344 C 37.675781 14.34375 37.015625 13.6875 36.207031 13.6875 L 35.699219 13.6875 L 35.699219 13.128906 C 35.699219 12.320312 35.039062 11.660156 34.226562 11.660156 L 34.074219 11.660156 L 34.074219 5.539062 C 34.074219 4.679688 33.417969 4.019531 32.554688 4.019531 L 20.738281 4.019531 C 19.875 4.019531 19.214844 4.679688 19.214844 5.539062 L 19.214844 8.171875 L 15.613281 8.171875 C 14.804688 8.171875 14.144531 8.828125 14.144531 9.636719 L 14.144531 25.730469 C 14.144531 26.84375 15.003906 27.753906 16.070312 27.855469 C 16.121094 27.855469 16.121094 27.855469 16.171875 27.855469 L 36.257812 27.855469 C 37.066406 27.804688 37.675781 27.144531 37.675781 26.335938 Z M 34.277344 12.675781 C 34.53125 12.675781 34.734375 12.875 34.734375 13.128906 L 34.734375 13.6875 L 34.175781 13.6875 L 34.175781 12.675781 Z M 20.230469 5.539062 C 20.230469 5.234375 20.433594 5.035156 20.738281 5.035156 L 32.65625 5.035156 C 32.960938 5.035156 33.164062 5.234375 33.164062 5.539062 C 33.164062 6.398438 33.164062 12.875 33.164062 13.6875 L 20.230469 13.6875 Z M 15.15625 25.679688 L 15.15625 9.636719 C 15.15625 9.386719 15.359375 9.183594 15.613281 9.183594 L 19.214844 9.183594 L 19.214844 13.6875 C 19.164062 13.6875 18.554688 13.6875 18.65625 13.6875 C 17.796875 13.6875 17.1875 14.445312 17.1875 15.152344 L 17.1875 25.78125 C 17.1875 26.386719 16.679688 26.792969 16.121094 26.792969 C 15.5625 26.742188 15.15625 26.285156 15.15625 25.679688 Z M 15.15625 25.679688 " fill-opacity="1" fill-rule="nonzero"></path><path fill="rgb(16.468811%, 0%, 49.01886%)" d="M 31.539062 6.246094 L 21.800781 6.246094 C 21.496094 6.246094 21.292969 6.449219 21.292969 6.753906 C 21.292969 7.058594 21.496094 7.257812 21.800781 7.257812 L 31.488281 7.257812 C 31.792969 7.257812 31.996094 7.058594 31.996094 6.753906 C 31.996094 6.449219 31.792969 6.246094 31.539062 6.246094 Z M 31.539062 6.246094 " fill-opacity="1" fill-rule="nonzero"></path><path fill="rgb(16.468811%, 0%, 49.01886%)" d="M 31.539062 8.828125 L 21.800781 8.828125 C 21.496094 8.828125 21.292969 9.03125 21.292969 9.335938 C 21.292969 9.636719 21.496094 9.839844 21.800781 9.839844 L 31.488281 9.839844 C 31.792969 9.839844 31.996094 9.636719 31.996094 9.335938 C 31.996094 9.03125 31.792969 8.828125 31.539062 8.828125 Z M 31.539062 8.828125 " fill-opacity="1" fill-rule="nonzero"></path><path fill="rgb(16.468811%, 0%, 49.01886%)" d="M 26.773438 11.410156 L 21.800781 11.410156 C 21.496094 11.410156 21.292969 11.613281 21.292969 11.914062 C 21.292969 12.21875 21.496094 12.421875 21.800781 12.421875 L 26.773438 12.421875 C 27.078125 12.421875 27.28125 12.21875 27.28125 11.914062 C 27.28125 11.613281 27.078125 11.410156 26.773438 11.410156 Z M 26.773438 11.410156 " fill-opacity="1" fill-rule="nonzero"></path><path fill="rgb(16.468811%, 0%, 49.01886%)" d="M 40.921875 36.558594 C 39.859375 36.558594 39.046875 37.417969 39.046875 38.429688 C 39.046875 38.984375 39.300781 39.542969 39.707031 39.898438 L 39.351562 42.171875 C 39.351562 42.324219 39.351562 42.476562 39.453125 42.578125 C 39.554688 42.679688 39.707031 42.730469 39.859375 42.730469 L 41.9375 42.730469 C 42.089844 42.730469 42.242188 42.679688 42.34375 42.578125 C 42.445312 42.476562 42.496094 42.324219 42.445312 42.171875 L 42.089844 39.898438 C 42.496094 39.542969 42.800781 38.984375 42.800781 38.429688 C 42.800781 37.417969 41.9375 36.558594 40.921875 36.558594 Z M 41.328125 39.238281 C 41.125 39.339844 41.023438 39.542969 41.074219 39.746094 L 41.378906 41.769531 L 40.464844 41.769531 L 40.769531 39.746094 C 40.820312 39.542969 40.71875 39.339844 40.515625 39.238281 C 40.210938 39.085938 40.058594 38.785156 40.058594 38.480469 C 40.058594 37.972656 40.464844 37.621094 40.921875 37.621094 C 41.378906 37.621094 41.785156 38.023438 41.785156 38.480469 C 41.785156 38.785156 41.582031 39.085938 41.328125 39.238281 Z M 41.328125 39.238281 " fill-opacity="1" fill-rule="nonzero"></path></svg>