<svg xmlns="http://www.w3.org/2000/svg" xmlns:xlink="http://www.w3.org/1999/xlink" width="69" viewBox="0 0 51.75 47.25" height="63" preserveAspectRatio="xMidYMid meet"><defs><clipPath id="id1"><path d="M 0.28125 40 L 51.222656 40 L 51.222656 40.960938 L 0.28125 40.960938 Z M 0.28125 40 " clip-rule="nonzero"></path></clipPath><clipPath id="id2"><path d="M 11 7 L 43 7 L 43 40.960938 L 11 40.960938 Z M 11 7 " clip-rule="nonzero"></path></clipPath><clipPath id="id3"><path d="M 47 38 L 50 38 L 50 40.960938 L 47 40.960938 Z M 47 38 " clip-rule="nonzero"></path></clipPath><clipPath id="id4"><path d="M 43 38 L 46 38 L 46 40.960938 L 43 40.960938 Z M 43 38 " clip-rule="nonzero"></path></clipPath><clipPath id="id5"><path d="M 43 25 L 51.222656 25 L 51.222656 39 L 43 39 Z M 43 25 " clip-rule="nonzero"></path></clipPath><clipPath id="id6"><path d="M 2 38 L 5 38 L 5 40.960938 L 2 40.960938 Z M 2 38 " clip-rule="nonzero"></path></clipPath><clipPath id="id7"><path d="M 6 38 L 10 38 L 10 40.960938 L 6 40.960938 Z M 6 38 " clip-rule="nonzero"></path></clipPath><clipPath id="id8"><path d="M 0.28125 17 L 16 17 L 16 34 L 0.28125 34 Z M 0.28125 17 " clip-rule="nonzero"></path></clipPath><clipPath id="id9"><path d="M 37 6.09375 L 45 6.09375 L 45 14 L 37 14 Z M 37 6.09375 " clip-rule="nonzero"></path></clipPath><clipPath id="id10"><path d="M 37 6.09375 L 44 6.09375 L 44 13 L 37 13 Z M 37 6.09375 " clip-rule="nonzero"></path></clipPath><clipPath id="id11"><path d="M 40 6.09375 L 45 6.09375 L 45 11 L 40 11 Z M 40 6.09375 " clip-rule="nonzero"></path></clipPath></defs><g clip-path="url(#id1)"><path fill="rgb(29.019165%, 35.688782%, 41.958618%)" d="M 51.03125 40.648438 C 51.03125 40.738281 50.992188 40.808594 50.941406 40.871094 C 50.882812 40.929688 50.8125 40.960938 50.722656 40.960938 L 0.691406 40.960938 C 0.523438 40.960938 0.382812 40.820312 0.382812 40.648438 C 0.382812 40.558594 0.421875 40.488281 0.472656 40.429688 C 0.53125 40.371094 0.601562 40.339844 0.691406 40.339844 L 50.722656 40.339844 C 50.890625 40.339844 51.03125 40.480469 51.03125 40.648438 Z M 51.03125 40.648438 " fill-opacity="1" fill-rule="nonzero"></path></g><g clip-path="url(#id2)"><path fill="rgb(63.919067%, 79.219055%, 92.939758%)" d="M 11.542969 8.320312 L 11.542969 39.902344 C 11.542969 40.140625 11.738281 40.339844 11.976562 40.339844 L 41.664062 40.339844 C 41.898438 40.339844 42.097656 40.140625 42.097656 39.902344 L 42.097656 8.320312 C 42.097656 8.078125 41.898438 7.878906 41.664062 7.878906 L 11.976562 7.878906 C 11.738281 7.878906 11.542969 8.078125 11.542969 8.320312 Z M 11.542969 8.320312 " fill-opacity="1" fill-rule="nonzero"></path></g><path fill="rgb(100%, 100%, 100%)" d="M 12.855469 10.367188 L 40.792969 10.367188 L 40.792969 39.183594 L 12.855469 39.183594 Z M 12.855469 10.367188 " fill-opacity="1" fill-rule="nonzero"></path><path fill="rgb(100%, 100%, 100%)" d="M 15.46875 9.175781 C 15.46875 9.4375 15.675781 9.648438 15.933594 9.648438 C 16.191406 9.648438 16.398438 9.4375 16.398438 9.175781 C 16.398438 8.917969 16.191406 8.707031 15.933594 8.707031 C 15.675781 8.707031 15.46875 8.917969 15.46875 9.175781 Z M 15.46875 9.175781 " fill-opacity="1" fill-rule="nonzero"></path><path fill="rgb(100%, 100%, 100%)" d="M 16.953125 9.175781 C 16.953125 9.4375 17.160156 9.648438 17.417969 9.648438 C 17.675781 9.648438 17.882812 9.4375 17.882812 9.175781 C 17.882812 8.917969 17.675781 8.707031 17.417969 8.707031 C 17.160156 8.707031 16.953125 8.917969 16.953125 9.175781 Z M 16.953125 9.175781 " fill-opacity="1" fill-rule="nonzero"></path><path fill="rgb(100%, 100%, 100%)" d="M 13.996094 9.175781 C 13.996094 9.4375 14.203125 9.648438 14.460938 9.648438 C 14.71875 9.648438 14.925781 9.4375 14.925781 9.175781 C 14.925781 8.917969 14.71875 8.707031 14.460938 8.707031 C 14.203125 8.707031 13.996094 8.917969 13.996094 9.175781 Z M 13.996094 9.175781 " fill-opacity="1" fill-rule="nonzero"></path><path fill="rgb(78.42865%, 88.238525%, 100%)" d="M 26.816406 23.277344 L 25.675781 22.875 C 25.609375 22.65625 25.527344 22.457031 25.429688 22.257812 L 25.953125 21.160156 C 26.003906 21.058594 25.984375 20.929688 25.90625 20.851562 L 24.785156 19.730469 C 24.707031 19.652344 24.578125 19.632812 24.480469 19.683594 L 23.390625 20.210938 C 23.195312 20.109375 22.996094 20.019531 22.777344 19.960938 L 22.382812 18.8125 C 22.34375 18.703125 22.246094 18.632812 22.125 18.632812 L 20.554688 18.632812 C 20.433594 18.632812 20.335938 18.703125 20.296875 18.8125 L 19.898438 19.960938 C 19.691406 20.03125 19.484375 20.109375 19.285156 20.210938 L 18.199219 19.683594 C 18.101562 19.632812 17.972656 19.652344 17.890625 19.730469 L 16.773438 20.859375 C 16.695312 20.941406 16.675781 21.070312 16.714844 21.167969 L 17.238281 22.269531 C 17.140625 22.46875 17.050781 22.667969 16.992188 22.886719 L 15.855469 23.285156 C 15.746094 23.324219 15.675781 23.425781 15.675781 23.546875 L 15.675781 25.125 C 15.675781 25.242188 15.746094 25.34375 15.855469 25.382812 L 16.992188 25.78125 C 17.0625 25.992188 17.140625 26.203125 17.238281 26.402344 L 16.714844 27.5 C 16.664062 27.597656 16.683594 27.730469 16.765625 27.808594 L 17.882812 28.9375 C 17.960938 29.015625 18.089844 29.039062 18.1875 28.988281 L 19.277344 28.457031 C 19.476562 28.558594 19.671875 28.648438 19.890625 28.707031 L 20.285156 29.855469 C 20.324219 29.964844 20.425781 30.035156 20.542969 30.035156 L 22.117188 30.035156 C 22.234375 30.035156 22.332031 29.964844 22.375 29.855469 L 22.769531 28.707031 C 22.976562 28.636719 23.183594 28.558594 23.382812 28.457031 L 24.46875 28.988281 C 24.570312 29.039062 24.699219 29.015625 24.777344 28.9375 L 25.894531 27.808594 C 25.972656 27.730469 25.992188 27.597656 25.945312 27.5 L 25.421875 26.402344 C 25.519531 26.203125 25.609375 26.003906 25.667969 25.78125 L 26.804688 25.382812 C 26.914062 25.34375 26.984375 25.242188 26.984375 25.125 L 26.984375 23.535156 C 27.003906 23.414062 26.921875 23.316406 26.816406 23.277344 Z M 26.816406 23.277344 " fill-opacity="1" fill-rule="nonzero"></path><path fill="rgb(100%, 100%, 100%)" d="M 22.121094 21.027344 C 22.554688 21.132812 22.953125 21.316406 23.3125 21.578125 C 23.675781 21.84375 23.972656 22.164062 24.207031 22.546875 C 24.441406 22.929688 24.59375 23.34375 24.667969 23.789062 C 24.738281 24.234375 24.722656 24.675781 24.621094 25.113281 C 24.519531 25.550781 24.335938 25.953125 24.074219 26.316406 C 23.816406 26.683594 23.496094 26.984375 23.113281 27.21875 C 22.734375 27.457031 22.324219 27.613281 21.886719 27.683594 C 21.445312 27.753906 21.007812 27.738281 20.574219 27.636719 C 20.140625 27.53125 19.742188 27.351562 19.378906 27.085938 C 19.019531 26.824219 18.71875 26.5 18.484375 26.117188 C 18.25 25.734375 18.097656 25.320312 18.027344 24.875 C 17.957031 24.433594 17.972656 23.992188 18.074219 23.550781 C 18.175781 23.113281 18.359375 22.710938 18.617188 22.347656 C 18.878906 21.980469 19.199219 21.679688 19.578125 21.445312 C 19.957031 21.207031 20.367188 21.054688 20.808594 20.980469 C 21.25 20.910156 21.6875 20.925781 22.121094 21.027344 Z M 22.121094 21.027344 " fill-opacity="1" fill-rule="nonzero"></path><path fill="rgb(78.42865%, 88.238525%, 100%)" d="M 36.566406 25.953125 L 35.738281 25.664062 C 35.6875 25.503906 35.628906 25.351562 35.550781 25.214844 L 35.933594 24.414062 C 35.972656 24.34375 35.953125 24.253906 35.894531 24.183594 L 35.085938 23.367188 C 35.023438 23.304688 34.9375 23.285156 34.855469 23.324219 L 34.066406 23.714844 C 33.925781 23.644531 33.769531 23.574219 33.621094 23.527344 L 33.332031 22.6875 C 33.304688 22.605469 33.234375 22.558594 33.144531 22.558594 L 31.996094 22.558594 C 31.910156 22.558594 31.839844 22.605469 31.808594 22.6875 L 31.523438 23.527344 C 31.363281 23.574219 31.214844 23.636719 31.078125 23.714844 L 30.285156 23.324219 C 30.21875 23.285156 30.117188 23.304688 30.058594 23.367188 L 29.25 24.183594 C 29.1875 24.246094 29.167969 24.335938 29.207031 24.414062 L 29.59375 25.214844 C 29.523438 25.351562 29.457031 25.511719 29.40625 25.664062 L 28.574219 25.953125 C 28.496094 25.980469 28.445312 26.050781 28.445312 26.140625 L 28.445312 27.300781 C 28.445312 27.390625 28.496094 27.460938 28.574219 27.488281 L 29.40625 27.78125 C 29.457031 27.9375 29.515625 28.089844 29.59375 28.230469 L 29.207031 29.027344 C 29.167969 29.097656 29.1875 29.1875 29.25 29.257812 L 30.058594 30.074219 C 30.117188 30.136719 30.207031 30.15625 30.285156 30.117188 L 31.078125 29.726562 C 31.214844 29.796875 31.375 29.867188 31.523438 29.917969 L 31.808594 30.753906 C 31.839844 30.835938 31.910156 30.882812 31.996094 30.882812 L 33.144531 30.882812 C 33.234375 30.882812 33.304688 30.835938 33.332031 30.753906 L 33.621094 29.917969 C 33.777344 29.867188 33.925781 29.804688 34.066406 29.726562 L 34.855469 30.117188 C 34.9375 30.15625 35.023438 30.136719 35.085938 30.074219 L 35.894531 29.257812 C 35.953125 29.195312 35.972656 29.105469 35.933594 29.027344 L 35.550781 28.230469 C 35.617188 28.089844 35.6875 27.929688 35.738281 27.78125 L 36.566406 27.488281 C 36.648438 27.460938 36.695312 27.390625 36.695312 27.300781 L 36.695312 26.140625 C 36.695312 26.050781 36.648438 25.980469 36.566406 25.953125 Z M 36.566406 25.953125 " fill-opacity="1" fill-rule="nonzero"></path><path fill="rgb(100%, 100%, 100%)" d="M 32.988281 24.152344 C 33.328125 24.207031 33.640625 24.328125 33.933594 24.507812 C 34.226562 24.691406 34.46875 24.921875 34.671875 25.203125 C 34.871094 25.480469 35.011719 25.789062 35.089844 26.125 C 35.167969 26.460938 35.179688 26.800781 35.125 27.144531 C 35.070312 27.484375 34.953125 27.800781 34.773438 28.09375 C 34.59375 28.390625 34.363281 28.636719 34.085938 28.839844 C 33.808594 29.042969 33.503906 29.183594 33.167969 29.261719 C 32.835938 29.339844 32.5 29.351562 32.164062 29.296875 C 31.824219 29.242188 31.511719 29.125 31.21875 28.941406 C 30.925781 28.761719 30.683594 28.527344 30.480469 28.25 C 30.28125 27.96875 30.140625 27.660156 30.0625 27.324219 C 29.984375 26.988281 29.972656 26.648438 30.027344 26.308594 C 30.082031 25.964844 30.199219 25.648438 30.378906 25.355469 C 30.558594 25.0625 30.789062 24.8125 31.066406 24.609375 C 31.34375 24.410156 31.648438 24.269531 31.984375 24.1875 C 32.316406 24.109375 32.652344 24.097656 32.988281 24.152344 Z M 32.988281 24.152344 " fill-opacity="1" fill-rule="nonzero"></path><path fill="rgb(78.42865%, 88.238525%, 100%)" d="M 32.800781 16.867188 C 32.800781 17.027344 32.789062 17.183594 32.757812 17.355469 L 33.371094 17.996094 C 33.433594 18.054688 33.441406 18.144531 33.402344 18.222656 L 32.878906 19.261719 C 32.839844 19.34375 32.757812 19.382812 32.679688 19.371094 L 31.808594 19.253906 C 31.691406 19.371094 31.574219 19.472656 31.445312 19.570312 L 31.433594 20.460938 C 31.433594 20.539062 31.375 20.621094 31.296875 20.640625 L 30.199219 21 C 30.117188 21.03125 30.03125 21 29.980469 20.929688 L 29.445312 20.222656 C 29.289062 20.222656 29.128906 20.210938 28.960938 20.179688 L 28.328125 20.800781 C 28.269531 20.859375 28.179688 20.871094 28.101562 20.828125 L 27.070312 20.300781 C 26.992188 20.261719 26.953125 20.179688 26.964844 20.101562 L 27.082031 19.222656 C 26.964844 19.101562 26.863281 18.984375 26.765625 18.851562 L 25.90625 18.832031 C 25.824219 18.832031 25.746094 18.773438 25.726562 18.691406 L 25.371094 17.585938 C 25.339844 17.503906 25.371094 17.414062 25.441406 17.363281 L 26.140625 16.824219 C 26.140625 16.667969 26.152344 16.507812 26.183594 16.335938 L 25.566406 15.699219 C 25.507812 15.636719 25.5 15.546875 25.539062 15.46875 L 26.0625 14.429688 C 26.101562 14.351562 26.183594 14.308594 26.261719 14.320312 L 27.132812 14.441406 C 27.25 14.320312 27.367188 14.21875 27.496094 14.121094 L 27.515625 13.230469 C 27.515625 13.140625 27.578125 13.070312 27.65625 13.050781 L 28.753906 12.691406 C 28.832031 12.664062 28.921875 12.691406 28.972656 12.761719 L 29.503906 13.472656 C 29.664062 13.472656 29.820312 13.480469 29.988281 13.511719 L 30.625 12.890625 C 30.683594 12.832031 30.769531 12.820312 30.851562 12.863281 L 31.878906 13.390625 C 31.957031 13.429688 31.996094 13.511719 31.988281 13.589844 L 31.871094 14.46875 C 31.988281 14.589844 32.085938 14.710938 32.1875 14.839844 L 33.066406 14.859375 C 33.144531 14.859375 33.226562 14.917969 33.246094 15 L 33.601562 16.097656 C 33.628906 16.175781 33.601562 16.265625 33.53125 16.316406 Z M 32.800781 16.867188 " fill-opacity="1" fill-rule="nonzero"></path><path fill="rgb(100%, 100%, 100%)" d="M 31.75 16.855469 C 31.75 17.160156 31.691406 17.457031 31.578125 17.738281 C 31.460938 18.019531 31.296875 18.269531 31.082031 18.488281 C 30.867188 18.703125 30.621094 18.871094 30.339844 18.988281 C 30.058594 19.105469 29.769531 19.164062 29.464844 19.164062 C 29.164062 19.164062 28.871094 19.105469 28.589844 18.988281 C 28.3125 18.871094 28.0625 18.703125 27.851562 18.488281 C 27.636719 18.269531 27.46875 18.019531 27.355469 17.738281 C 27.238281 17.457031 27.179688 17.160156 27.179688 16.855469 C 27.179688 16.550781 27.238281 16.257812 27.355469 15.972656 C 27.46875 15.691406 27.636719 15.441406 27.851562 15.226562 C 28.0625 15.007812 28.3125 14.84375 28.589844 14.726562 C 28.871094 14.609375 29.164062 14.550781 29.464844 14.550781 C 29.769531 14.550781 30.058594 14.609375 30.339844 14.726562 C 30.621094 14.84375 30.867188 15.007812 31.082031 15.226562 C 31.296875 15.441406 31.460938 15.691406 31.578125 15.972656 C 31.691406 16.257812 31.75 16.550781 31.75 16.855469 Z M 31.75 16.855469 " fill-opacity="1" fill-rule="nonzero"></path><path fill="rgb(23.919678%, 51.759338%, 94.898987%)" d="M 21.699219 24.503906 L 20.046875 26.171875 C 19.898438 26.320312 19.664062 26.320312 19.515625 26.171875 C 19.367188 26.023438 19.367188 25.78125 19.515625 25.632812 L 21.167969 23.964844 Z M 21.699219 24.503906 " fill-opacity="1" fill-rule="nonzero"></path><path fill="rgb(23.919678%, 51.759338%, 94.898987%)" d="M 23.421875 24.035156 C 23.421875 24.273438 23.375 24.503906 23.285156 24.726562 C 23.195312 24.949219 23.066406 25.144531 22.898438 25.3125 C 22.730469 25.480469 22.535156 25.613281 22.316406 25.703125 C 22.097656 25.796875 21.867188 25.84375 21.632812 25.84375 C 21.394531 25.84375 21.164062 25.796875 20.945312 25.703125 C 20.726562 25.613281 20.535156 25.480469 20.367188 25.3125 C 20.199219 25.144531 20.066406 24.949219 19.976562 24.726562 C 19.886719 24.503906 19.839844 24.273438 19.839844 24.035156 C 19.839844 23.796875 19.886719 23.566406 19.976562 23.34375 C 20.066406 23.121094 20.199219 22.925781 20.367188 22.757812 C 20.535156 22.585938 20.726562 22.457031 20.945312 22.367188 C 21.164062 22.273438 21.394531 22.226562 21.632812 22.226562 C 21.867188 22.226562 22.097656 22.273438 22.316406 22.367188 C 22.535156 22.457031 22.730469 22.585938 22.898438 22.757812 C 23.066406 22.925781 23.195312 23.121094 23.285156 23.34375 C 23.375 23.566406 23.421875 23.796875 23.421875 24.035156 Z M 23.421875 24.035156 " fill-opacity="1" fill-rule="nonzero"></path><path fill="rgb(100%, 100%, 100%)" d="M 22.710938 24.035156 C 22.710938 24.179688 22.683594 24.316406 22.628906 24.453125 C 22.574219 24.585938 22.496094 24.703125 22.394531 24.804688 C 22.292969 24.90625 22.175781 24.984375 22.042969 25.039062 C 21.910156 25.097656 21.773438 25.125 21.632812 25.125 C 21.488281 25.125 21.351562 25.097656 21.21875 25.039062 C 21.085938 24.984375 20.96875 24.90625 20.867188 24.804688 C 20.769531 24.703125 20.691406 24.585938 20.636719 24.453125 C 20.582031 24.316406 20.554688 24.179688 20.554688 24.035156 C 20.554688 23.890625 20.582031 23.75 20.636719 23.617188 C 20.691406 23.484375 20.769531 23.367188 20.867188 23.265625 C 20.96875 23.164062 21.085938 23.085938 21.21875 23.03125 C 21.351562 22.972656 21.488281 22.945312 21.632812 22.945312 C 21.773438 22.945312 21.910156 22.972656 22.042969 23.03125 C 22.175781 23.085938 22.292969 23.164062 22.394531 23.265625 C 22.496094 23.367188 22.574219 23.484375 22.628906 23.617188 C 22.683594 23.75 22.710938 23.890625 22.710938 24.035156 Z M 22.710938 24.035156 " fill-opacity="1" fill-rule="nonzero"></path><path fill="rgb(28.239441%, 85.879517%, 77.249146%)" d="M 33.136719 25.882812 C 33.136719 26.191406 32.886719 26.453125 32.570312 26.453125 C 32.265625 26.453125 32.007812 26.203125 32.007812 25.882812 C 32.007812 25.574219 32.253906 25.3125 32.570312 25.3125 C 32.886719 25.324219 33.136719 25.574219 33.136719 25.882812 Z M 33.136719 25.882812 " fill-opacity="1" fill-rule="nonzero"></path><path fill="rgb(28.239441%, 85.879517%, 77.249146%)" d="M 33.796875 28.117188 L 31.34375 28.117188 C 31.257812 28.117188 31.1875 28.039062 31.195312 27.949219 C 31.296875 27.269531 31.871094 26.742188 32.570312 26.742188 C 33.273438 26.742188 33.859375 27.269531 33.945312 27.949219 C 33.964844 28.039062 33.886719 28.117188 33.796875 28.117188 Z M 33.796875 28.117188 " fill-opacity="1" fill-rule="nonzero"></path><path fill="rgb(59.609985%, 34.899902%, 80.389404%)" d="M 30.644531 16.40625 C 30.644531 17.464844 29.464844 18.472656 29.464844 18.472656 C 29.464844 18.472656 28.289062 17.464844 28.289062 16.40625 C 28.289062 15.757812 28.8125 15.21875 29.464844 15.21875 C 30.117188 15.21875 30.644531 15.757812 30.644531 16.40625 Z M 30.644531 16.40625 " fill-opacity="1" fill-rule="nonzero"></path><path fill="rgb(100%, 100%, 100%)" d="M 30.011719 16.40625 C 30.011719 16.714844 29.761719 16.957031 29.464844 16.957031 C 29.160156 16.957031 28.921875 16.707031 28.921875 16.40625 C 28.921875 16.097656 29.167969 15.859375 29.464844 15.859375 C 29.773438 15.859375 30.011719 16.105469 30.011719 16.40625 Z M 30.011719 16.40625 " fill-opacity="1" fill-rule="nonzero"></path><path fill="rgb(94.119263%, 95.689392%, 97.648621%)" d="M 36.863281 34.230469 C 36.863281 34.460938 36.777344 34.667969 36.628906 34.820312 C 36.480469 34.96875 36.269531 35.058594 36.042969 35.058594 L 17.59375 35.058594 C 17.140625 35.058594 16.773438 34.6875 16.773438 34.230469 C 16.773438 34 16.863281 33.789062 17.011719 33.640625 C 17.160156 33.492188 17.367188 33.402344 17.59375 33.402344 L 36.042969 33.402344 C 36.5 33.402344 36.863281 33.769531 36.863281 34.230469 Z M 36.863281 34.230469 " fill-opacity="1" fill-rule="nonzero"></path><path fill="rgb(23.919678%, 51.759338%, 94.898987%)" d="M 29.21875 34.230469 C 29.21875 34.460938 29.128906 34.667969 28.980469 34.820312 C 28.832031 34.96875 28.625 35.058594 28.398438 35.058594 L 17.59375 35.058594 C 17.140625 35.058594 16.773438 34.6875 16.773438 34.230469 C 16.773438 34 16.863281 33.789062 17.011719 33.640625 C 17.160156 33.492188 17.367188 33.402344 17.59375 33.402344 L 28.398438 33.402344 C 28.84375 33.402344 29.21875 33.769531 29.21875 34.230469 Z M 29.21875 34.230469 " fill-opacity="1" fill-rule="nonzero"></path><path fill="rgb(94.119263%, 95.689392%, 97.648621%)" d="M 22.5 36.007812 L 23.441406 36.007812 L 23.441406 36.957031 L 22.5 36.957031 Z M 22.5 36.007812 " fill-opacity="1" fill-rule="nonzero"></path><path fill="rgb(94.119263%, 95.689392%, 97.648621%)" d="M 24.429688 36.007812 L 25.371094 36.007812 L 25.371094 36.957031 L 24.429688 36.957031 Z M 24.429688 36.007812 " fill-opacity="1" fill-rule="nonzero"></path><path fill="rgb(94.119263%, 95.689392%, 97.648621%)" d="M 26.351562 36.007812 L 27.289062 36.007812 L 27.289062 36.957031 L 26.351562 36.957031 Z M 26.351562 36.007812 " fill-opacity="1" fill-rule="nonzero"></path><path fill="rgb(94.119263%, 95.689392%, 97.648621%)" d="M 28.277344 36.007812 L 29.21875 36.007812 L 29.21875 36.957031 L 28.277344 36.957031 Z M 28.277344 36.007812 " fill-opacity="1" fill-rule="nonzero"></path><path fill="rgb(94.119263%, 95.689392%, 97.648621%)" d="M 30.207031 36.007812 L 31.148438 36.007812 L 31.148438 36.957031 L 30.207031 36.957031 Z M 30.207031 36.007812 " fill-opacity="1" fill-rule="nonzero"></path><path fill="rgb(48.629761%, 22.749329%, 22.749329%)" d="M 49.398438 23.464844 C 49.734375 23.324219 50.082031 23.167969 50.316406 22.898438 C 50.753906 22.417969 50.792969 21.660156 50.527344 21.070312 C 50.257812 20.480469 49.742188 20.03125 49.171875 19.722656 C 48.773438 19.5 48.328125 19.320312 48.121094 18.921875 C 47.914062 18.535156 48.011719 18.054688 47.945312 17.605469 C 47.84375 16.925781 47.320312 16.335938 46.65625 16.175781 C 46.003906 16.015625 45.253906 16.316406 44.898438 16.894531 C 44.679688 17.246094 44.609375 17.664062 44.628906 18.074219 C 44.648438 18.484375 44.75 18.882812 44.867188 19.273438 C 45.152344 20.199219 45.550781 21.089844 46.035156 21.929688 C 46.28125 22.347656 46.539062 22.757812 46.824219 23.144531 C 47.015625 23.40625 47.359375 24.035156 47.695312 24.046875 C 47.945312 24.054688 48.28125 23.886719 48.507812 23.804688 C 48.8125 23.695312 49.109375 23.585938 49.398438 23.464844 Z M 49.398438 23.464844 " fill-opacity="1" fill-rule="nonzero"></path><g clip-path="url(#id3)"><path fill="rgb(16.079712%, 14.509583%, 38.038635%)" d="M 47.09375 40.160156 C 47.09375 40.21875 47.101562 40.269531 47.113281 40.300781 C 47.121094 40.320312 47.140625 40.339844 47.164062 40.339844 L 49.574219 40.339844 C 49.605469 40.339844 49.636719 40.308594 49.625 40.28125 L 49.535156 39.890625 L 49.238281 38.621094 L 48.28125 38.722656 C 48.28125 38.722656 48.347656 39.292969 47.597656 39.511719 C 47.140625 39.640625 47.082031 39.960938 47.09375 40.160156 Z M 47.09375 40.160156 " fill-opacity="1" fill-rule="nonzero"></path></g><path fill="rgb(9.799194%, 9.799194%, 21.569824%)" d="M 48.011719 39.300781 C 48.328125 39.042969 48.289062 38.710938 48.289062 38.710938 L 49.25 38.613281 L 49.40625 39.300781 Z M 48.011719 39.300781 " fill-opacity="1" fill-rule="nonzero"></path><g clip-path="url(#id4)"><path fill="rgb(16.079712%, 14.509583%, 38.038635%)" d="M 43.085938 40.160156 C 43.085938 40.21875 43.097656 40.269531 43.105469 40.300781 C 43.117188 40.320312 43.136719 40.339844 43.15625 40.339844 L 45.570312 40.339844 C 45.597656 40.339844 45.628906 40.308594 45.617188 40.28125 L 45.53125 39.890625 L 45.234375 38.621094 L 44.273438 38.722656 C 44.273438 38.722656 44.34375 39.292969 43.589844 39.511719 C 43.136719 39.640625 43.078125 39.960938 43.085938 40.160156 Z M 43.085938 40.160156 " fill-opacity="1" fill-rule="nonzero"></path></g><path fill="rgb(9.799194%, 9.799194%, 21.569824%)" d="M 44.007812 39.300781 C 44.324219 39.042969 44.285156 38.710938 44.285156 38.710938 L 45.242188 38.613281 L 45.402344 39.300781 Z M 44.007812 39.300781 " fill-opacity="1" fill-rule="nonzero"></path><path fill="rgb(0%, 0%, 0%)" d="M 46.667969 23.617188 C 46.667969 23.617188 45.363281 22.886719 45.449219 23.726562 C 45.539062 24.5625 46.667969 24.246094 46.667969 24.246094 L 46.667969 23.617188 " fill-opacity="1" fill-rule="nonzero"></path><g clip-path="url(#id5)"><path fill="rgb(27.449036%, 29.019165%, 89.408875%)" d="M 43.125 38.960938 L 46.519531 38.960938 C 46.519531 38.960938 47.164062 37.84375 46.667969 36.027344 C 46.648438 35.9375 46.617188 35.847656 46.597656 35.738281 C 46.558594 35.539062 46.519531 35.308594 46.488281 35.058594 C 46.222656 33.019531 46.171875 29.566406 46.171875 29.566406 C 46.171875 29.566406 46.171875 29.566406 46.171875 29.578125 C 46.203125 29.816406 46.738281 33.691406 47.0625 34.730469 C 47.410156 35.796875 47.289062 38.960938 47.289062 38.960938 L 50.4375 38.960938 C 50.4375 38.960938 51.464844 37.292969 50.832031 35.695312 C 50.199219 34.101562 48.785156 30.253906 48.875 28.90625 C 48.992188 26.96875 48.429688 25.511719 48.429688 25.511719 L 44.519531 25.511719 C 44.519531 25.511719 43.699219 28.539062 43.5625 32.054688 C 43.421875 35.566406 43.898438 36.585938 43.125 38.960938 Z M 43.125 38.960938 " fill-opacity="1" fill-rule="nonzero"></path></g><path fill="rgb(14.898682%, 14.118958%, 74.119568%)" d="M 45.945312 25.511719 C 45.578125 26.222656 45.253906 27.789062 45.214844 28.949219 C 45.164062 30.316406 46.105469 33.441406 46.5 35.058594 C 46.230469 33.019531 46.183594 29.566406 46.183594 29.566406 C 46.183594 29.566406 45.660156 27.128906 46.042969 25.511719 Z M 45.945312 25.511719 " fill-opacity="1" fill-rule="nonzero"></path><path fill="rgb(100%, 60.389709%, 1.959229%)" d="M 41.621094 22.578125 C 41.621094 22.578125 42.742188 23.476562 43.679688 23.875 C 44.054688 24.035156 44.390625 24.113281 44.628906 24.035156 C 45.144531 23.855469 45.480469 22.898438 45.667969 22.167969 C 45.789062 21.699219 45.847656 21.339844 45.847656 21.339844 L 45.253906 19.960938 C 45.253906 19.960938 44.539062 20.378906 44.214844 21.390625 C 43.886719 22.398438 43.800781 22.605469 43.800781 22.605469 L 41.621094 21.96875 Z M 41.621094 22.578125 " fill-opacity="1" fill-rule="nonzero"></path><path fill="rgb(92.549133%, 51.759338%, 0%)" d="M 43.679688 23.886719 C 44.054688 24.046875 44.390625 24.125 44.628906 24.046875 C 45.144531 23.867188 45.480469 22.90625 45.667969 22.179688 C 45.699219 21.71875 45.667969 21.257812 45.558594 20.820312 C 45.539062 20.75 45.519531 20.679688 45.480469 20.621094 C 45.332031 20.410156 45.203125 20.601562 45.074219 20.710938 C 44.964844 20.808594 44.816406 20.789062 44.71875 20.890625 C 44.480469 21.148438 44.382812 21.648438 44.34375 21.988281 C 44.3125 22.289062 44.34375 22.597656 44.304688 22.898438 C 44.265625 23.195312 44.15625 23.503906 43.917969 23.695312 C 43.847656 23.746094 43.75 23.804688 43.679688 23.886719 Z M 43.679688 23.886719 " fill-opacity="1" fill-rule="nonzero"></path><path fill="rgb(100%, 60.389709%, 1.959229%)" d="M 44.5 25.511719 C 44.5 25.753906 46.707031 25.8125 47.804688 25.691406 C 48.171875 25.652344 48.410156 25.59375 48.410156 25.511719 C 48.101562 24.234375 48.308594 22.996094 48.457031 22 C 48.566406 21.21875 48.644531 20.582031 48.398438 20.191406 C 47.992188 19.542969 45.964844 19.472656 45.203125 20.011719 C 44.195312 20.730469 44.5 25.511719 44.5 25.511719 Z M 44.5 25.511719 " fill-opacity="1" fill-rule="nonzero"></path><path fill="rgb(92.549133%, 51.759338%, 0%)" d="M 44.835938 23.335938 C 44.90625 23.753906 45.195312 24.105469 45.539062 24.34375 C 45.886719 24.585938 46.28125 24.734375 46.675781 24.875 C 47.082031 25.023438 47.480469 25.273438 47.746094 25.613281 C 47.765625 25.632812 47.785156 25.664062 47.804688 25.683594 C 48.171875 25.640625 48.410156 25.582031 48.410156 25.503906 C 48.101562 24.226562 48.308594 22.988281 48.457031 21.988281 C 48.339844 21.769531 48.230469 21.558594 48.113281 21.339844 C 47.945312 21.019531 47.726562 20.699219 47.4375 20.480469 C 47.082031 20.648438 46.835938 21.050781 46.824219 21.449219 C 46.824219 21.570312 46.84375 21.699219 46.835938 21.820312 C 46.824219 21.9375 46.796875 22.066406 46.699219 22.148438 C 46.597656 22.238281 46.449219 22.246094 46.3125 22.238281 C 46.085938 22.226562 45.855469 22.167969 45.648438 22.066406 C 45.492188 22 45.324219 21.898438 45.164062 21.96875 C 45.003906 22.039062 44.945312 22.226562 44.90625 22.398438 C 44.859375 22.71875 44.789062 23.027344 44.835938 23.335938 Z M 44.835938 23.335938 " fill-opacity="1" fill-rule="nonzero"></path><path fill="rgb(100%, 81.959534%, 76.858521%)" d="M 44.808594 22.855469 L 45.125 22.316406 C 45.125 22.316406 44.242188 21.019531 43.90625 21.96875 C 43.570312 22.917969 44.808594 22.855469 44.808594 22.855469 Z M 44.808594 22.855469 " fill-opacity="1" fill-rule="nonzero"></path><path fill="rgb(100%, 60.389709%, 1.959229%)" d="M 44.6875 23.066406 C 44.6875 23.066406 47.121094 24.945312 47.875 24.804688 C 48.46875 24.695312 48.6875 22.746094 48.714844 22.027344 C 48.734375 21.5 48.6875 20.101562 48.171875 19.972656 C 47.585938 19.820312 47.269531 20.171875 47.101562 21.277344 C 47.042969 21.679688 47.390625 23.265625 47.390625 23.265625 L 45.175781 22.148438 Z M 44.6875 23.066406 " fill-opacity="1" fill-rule="nonzero"></path><path fill="rgb(100%, 81.959534%, 76.858521%)" d="M 46.09375 19.773438 L 46.085938 19.164062 C 46.085938 19.164062 45.511719 19.183594 45.382812 19.011719 C 45.253906 18.84375 44.957031 16.746094 45.886719 16.714844 C 47.210938 16.675781 47.46875 17.695312 47.359375 18.09375 C 47.25 18.492188 47.082031 18.773438 47.015625 19.003906 C 46.964844 19.183594 46.972656 19.761719 46.972656 19.761719 C 46.984375 19.953125 46.105469 19.960938 46.09375 19.773438 " fill-opacity="1" fill-rule="nonzero"></path><path fill="rgb(48.629761%, 22.749329%, 22.749329%)" d="M 46.6875 17.972656 C 46.71875 17.972656 46.785156 17.445312 47.082031 17.703125 C 47.351562 17.945312 46.933594 18.363281 46.933594 18.363281 C 46.6875 18.78125 46.984375 19.652344 46.984375 19.652344 C 46.984375 19.652344 47.300781 19.363281 47.480469 18.984375 C 47.65625 18.601562 47.695312 17.59375 47.222656 16.835938 C 46.867188 16.285156 45.34375 16.40625 45.242188 16.996094 C 45.144531 17.574219 46.65625 17.972656 46.6875 17.972656 Z M 46.6875 17.972656 " fill-opacity="1" fill-rule="nonzero"></path><path fill="rgb(16.079712%, 14.509583%, 38.038635%)" d="M 41.109375 21.199219 L 41.621094 23.054688 C 41.632812 23.078125 41.644531 23.097656 41.664062 23.105469 L 42.613281 23.476562 C 42.660156 23.496094 42.722656 23.445312 42.699219 23.394531 L 42.1875 21.539062 C 42.175781 21.519531 42.167969 21.5 42.148438 21.488281 L 41.199219 21.121094 C 41.148438 21.089844 41.097656 21.140625 41.109375 21.199219 Z M 41.109375 21.199219 " fill-opacity="1" fill-rule="nonzero"></path><path fill="rgb(100%, 81.959534%, 76.858521%)" d="M 41.433594 22.847656 C 41.671875 22.816406 41.832031 22.527344 41.789062 22.207031 C 41.75 21.886719 41.523438 21.660156 41.285156 21.6875 C 41.050781 21.730469 41.199219 22.886719 41.433594 22.847656 Z M 41.433594 22.847656 " fill-opacity="1" fill-rule="nonzero"></path><path fill="rgb(26.669312%, 57.249451%, 16.859436%)" d="M 6.0625 25.351562 C 6.269531 25.492188 7.359375 25.144531 8.386719 24.753906 C 9.40625 24.375 10.363281 23.964844 10.363281 23.964844 L 10.128906 23.277344 L 7.695312 23.644531 C 7.59375 22.078125 6.617188 21.089844 6.617188 21.089844 C 6.617188 21.089844 6.515625 21.480469 6.40625 22.027344 C 6.152344 23.226562 5.773438 25.164062 6.0625 25.351562 Z M 6.0625 25.351562 " fill-opacity="1" fill-rule="nonzero"></path><path fill="rgb(19.60907%, 49.798584%, 9.01947%)" d="M 6.0625 25.351562 C 6.269531 25.492188 7.359375 25.144531 8.386719 24.753906 C 8.386719 24.753906 8.386719 24.753906 8.375 24.742188 C 8.140625 24.523438 7.703125 24.722656 7.457031 24.503906 C 7.289062 24.355469 7.308594 24.09375 7.277344 23.867188 C 7.238281 23.605469 7.109375 23.367188 6.992188 23.136719 C 6.851562 22.875 6.714844 22.628906 6.574219 22.367188 C 6.535156 22.289062 6.476562 22.128906 6.40625 22.019531 C 6.152344 23.226562 5.773438 25.164062 6.0625 25.351562 Z M 6.0625 25.351562 " fill-opacity="1" fill-rule="nonzero"></path><g clip-path="url(#id6)"><path fill="rgb(27.449036%, 29.019165%, 89.408875%)" d="M 4.507812 40.171875 C 4.507812 40.210938 4.5 40.25 4.488281 40.28125 C 4.480469 40.308594 4.449219 40.339844 4.417969 40.339844 L 2.132812 40.339844 C 2.105469 40.339844 2.074219 40.308594 2.085938 40.28125 L 2.175781 39.902344 L 2.441406 38.753906 C 2.449219 38.710938 2.480469 38.691406 2.519531 38.691406 L 3.300781 38.773438 C 3.339844 38.773438 3.359375 38.800781 3.371094 38.84375 C 3.382812 38.992188 3.449219 39.371094 4.023438 39.53125 C 4.46875 39.671875 4.519531 39.980469 4.507812 40.171875 Z M 4.507812 40.171875 " fill-opacity="1" fill-rule="nonzero"></path></g><path fill="rgb(14.898682%, 14.118958%, 74.119568%)" d="M 3.726562 39.410156 C 3.429688 39.222656 3.382812 38.960938 3.371094 38.851562 C 3.371094 38.8125 3.339844 38.78125 3.300781 38.78125 L 2.519531 38.703125 C 2.480469 38.703125 2.449219 38.722656 2.441406 38.761719 L 2.28125 39.421875 L 3.726562 39.421875 Z M 3.726562 39.410156 " fill-opacity="1" fill-rule="nonzero"></path><g clip-path="url(#id7)"><path fill="rgb(27.449036%, 29.019165%, 89.408875%)" d="M 9.019531 40.171875 C 9.019531 40.210938 9.007812 40.25 9 40.28125 C 8.988281 40.308594 8.960938 40.339844 8.929688 40.339844 L 6.644531 40.339844 C 6.617188 40.339844 6.585938 40.308594 6.597656 40.28125 L 6.683594 39.902344 L 6.953125 38.753906 C 6.960938 38.710938 6.992188 38.691406 7.03125 38.691406 L 7.8125 38.773438 C 7.851562 38.773438 7.871094 38.800781 7.882812 38.84375 C 7.890625 38.992188 7.960938 39.371094 8.535156 39.53125 C 8.96875 39.671875 9.027344 39.980469 9.019531 40.171875 Z M 9.019531 40.171875 " fill-opacity="1" fill-rule="nonzero"></path></g><path fill="rgb(14.898682%, 14.118958%, 74.119568%)" d="M 8.226562 39.410156 C 7.929688 39.222656 7.882812 38.960938 7.871094 38.851562 C 7.871094 38.8125 7.84375 38.78125 7.800781 38.78125 L 7.019531 38.703125 C 6.980469 38.703125 6.953125 38.722656 6.941406 38.761719 L 6.785156 39.421875 L 8.226562 39.421875 Z M 8.226562 39.410156 " fill-opacity="1" fill-rule="nonzero"></path><path fill="rgb(9.799194%, 9.799194%, 21.569824%)" d="M 7.277344 27.199219 C 7.277344 27.199219 8.265625 31.832031 8.160156 33.691406 C 8.050781 35.546875 8.941406 39.0625 8.941406 39.0625 L 6.25 39.0625 C 6.25 39.0625 5.675781 38.074219 5.65625 36.84375 C 5.617188 34.519531 4.585938 30.746094 4.585938 30.746094 L 5.300781 25.800781 Z M 7.277344 27.199219 " fill-opacity="1" fill-rule="nonzero"></path><path fill="rgb(16.079712%, 14.509583%, 38.038635%)" d="M 2.726562 27.199219 C 2.726562 27.199219 2.3125 31.703125 2.449219 33.390625 C 2.589844 35.078125 1.5625 37.09375 1.589844 39.0625 L 4.628906 39.0625 C 4.488281 37.855469 5.347656 34.796875 5.585938 33.492188 C 5.835938 32.082031 6.328125 27.820312 5.457031 27.050781 Z M 2.726562 27.199219 " fill-opacity="1" fill-rule="nonzero"></path><path fill="rgb(26.669312%, 57.249451%, 16.859436%)" d="M 2.726562 27.199219 C 2.726562 27.398438 7.269531 27.398438 7.269531 27.199219 C 7.269531 27.199219 7.296875 26.460938 7.296875 25.492188 C 7.296875 23.945312 7.21875 21.828125 6.804688 21.289062 C 5.984375 20.230469 3.964844 20.449219 3.351562 21.199219 C 3.261719 21.300781 3.191406 21.417969 3.125 21.539062 C 2.144531 23.316406 2.726562 27.199219 2.726562 27.199219 Z M 2.726562 27.199219 " fill-opacity="1" fill-rule="nonzero"></path><path fill="rgb(19.60907%, 49.798584%, 9.01947%)" d="M 2.726562 27.199219 C 2.726562 27.398438 7.269531 27.398438 7.269531 27.199219 C 7.269531 27.199219 7.296875 26.460938 7.296875 25.492188 C 7.257812 25.492188 7.21875 25.484375 7.179688 25.484375 C 6.882812 25.472656 6.585938 25.511719 6.289062 25.492188 C 5.6875 25.453125 5.101562 25.144531 4.726562 24.675781 C 4.351562 24.195312 4.171875 23.566406 4.261719 22.957031 C 4.3125 22.628906 4.429688 22.296875 4.398438 21.96875 C 4.398438 21.699219 4.144531 21.269531 3.835938 21.339844 C 3.699219 21.367188 3.578125 21.457031 3.441406 21.480469 C 3.332031 21.5 3.222656 21.519531 3.113281 21.539062 C 2.144531 23.316406 2.726562 27.199219 2.726562 27.199219 Z M 2.726562 27.199219 " fill-opacity="1" fill-rule="nonzero"></path><path fill="rgb(26.669312%, 57.249451%, 16.859436%)" d="M 3.777344 20.871094 C 3.777344 20.871094 2.894531 21.308594 2.589844 22.398438 C 2.15625 23.945312 2.660156 26.121094 5.714844 26.621094 L 6.179688 25.722656 C 6.179688 25.722656 2.984375 24.8125 3.894531 22.128906 C 3.996094 21.847656 4.210938 20.917969 3.777344 20.871094 Z M 3.777344 20.871094 " fill-opacity="1" fill-rule="nonzero"></path><g clip-path="url(#id8)"><path fill="rgb(98.81897%, 78.42865%, 0%)" d="M 1.304688 28.230469 C 0.582031 28.957031 0.285156 29.945312 0.402344 30.882812 C 0.421875 31.054688 0.632812 31.132812 0.757812 31.015625 L 2.570312 29.347656 C 2.660156 29.265625 2.789062 29.265625 2.867188 29.355469 L 4.648438 31.152344 C 4.726562 31.234375 4.726562 31.363281 4.65625 31.453125 L 3.003906 33.28125 C 2.886719 33.410156 2.964844 33.621094 3.132812 33.640625 C 4.074219 33.761719 5.042969 33.460938 5.765625 32.730469 C 6.703125 31.785156 6.921875 30.386719 6.425781 29.21875 C 6.398438 29.136719 6.40625 29.039062 6.46875 28.976562 L 11.273438 24.125 C 11.335938 24.066406 11.433594 24.046875 11.511719 24.085938 C 12.667969 24.585938 14.054688 24.363281 14.992188 23.414062 C 15.714844 22.6875 16.011719 21.699219 15.894531 20.761719 C 15.875 20.589844 15.667969 20.511719 15.539062 20.628906 L 13.738281 22.296875 C 13.648438 22.378906 13.519531 22.378906 13.441406 22.289062 L 11.660156 20.492188 C 11.582031 20.410156 11.582031 20.28125 11.652344 20.191406 L 13.300781 18.363281 C 13.421875 18.234375 13.34375 18.023438 13.175781 18.003906 C 12.234375 17.882812 11.265625 18.183594 10.542969 18.914062 C 9.601562 19.863281 9.375 21.269531 9.878906 22.425781 C 9.910156 22.507812 9.898438 22.605469 9.839844 22.667969 L 5.03125 27.507812 C 4.972656 27.570312 4.875 27.589844 4.796875 27.550781 C 3.636719 27.050781 2.253906 27.28125 1.304688 28.230469 Z M 1.304688 28.230469 " fill-opacity="1" fill-rule="nonzero"></path></g><path fill="rgb(100%, 81.959534%, 76.858521%)" d="M 6.132812 25.824219 C 6.132812 25.824219 7.398438 26.003906 7.238281 26.699219 C 7.082031 27.390625 5.773438 26.5 5.773438 26.5 Z M 6.132812 25.824219 " fill-opacity="1" fill-rule="nonzero"></path><path fill="rgb(100%, 81.959534%, 76.858521%)" d="M 5.578125 20.78125 L 5.625 20.121094 C 5.625 20.121094 6.417969 20.300781 6.515625 20.050781 C 6.636719 19.730469 7.039062 18.234375 6.101562 17.945312 C 5.160156 17.644531 4.558594 18.535156 4.636719 18.953125 C 4.707031 19.371094 4.636719 20.738281 4.636719 20.738281 C 4.609375 20.839844 5.558594 20.871094 5.578125 20.78125 Z M 5.578125 20.78125 " fill-opacity="1" fill-rule="nonzero"></path><path fill="rgb(48.629761%, 22.749329%, 22.749329%)" d="M 4.65625 20.011719 C 4.65625 20.011719 5.003906 20.101562 5.011719 19.632812 C 5.023438 19.164062 4.578125 18.722656 4.945312 18.644531 C 5.308594 18.5625 5.152344 19.113281 5.289062 19.042969 C 5.417969 18.972656 5.328125 18.472656 5.417969 18.363281 C 5.507812 18.253906 7.210938 18.8125 7.238281 17.945312 C 7.269531 17.074219 6.605469 16.515625 6.109375 16.996094 C 5.617188 17.476562 5.359375 16.925781 5.132812 17.34375 C 4.90625 17.753906 4.5 17.054688 4.261719 17.746094 C 4.015625 18.433594 3.785156 19.582031 4.65625 20.011719 Z M 4.65625 20.011719 " fill-opacity="1" fill-rule="nonzero"></path><path fill="rgb(94.509888%, 75.289917%, 72.938538%)" d="M 5.625 20.121094 C 5.625 20.121094 5.230469 20.011719 5.121094 19.761719 C 5.121094 19.761719 5.171875 20.191406 5.605469 20.402344 Z M 5.625 20.121094 " fill-opacity="1" fill-rule="nonzero"></path><g clip-path="url(#id9)"><path fill="rgb(98.039246%, 34.509277%, 7.839966%)" d="M 44.679688 9.90625 C 44.679688 10.414062 44.582031 10.898438 44.390625 11.367188 C 44.199219 11.832031 43.925781 12.246094 43.574219 12.605469 C 43.21875 12.960938 42.808594 13.238281 42.347656 13.429688 C 41.882812 13.625 41.402344 13.722656 40.902344 13.722656 C 40.398438 13.722656 39.917969 13.625 39.453125 13.429688 C 38.992188 13.238281 38.582031 12.960938 38.230469 12.605469 C 37.875 12.246094 37.601562 11.832031 37.410156 11.367188 C 37.21875 10.898438 37.121094 10.414062 37.121094 9.90625 C 37.121094 9.402344 37.21875 8.914062 37.410156 8.445312 C 37.601562 7.980469 37.875 7.566406 38.230469 7.210938 C 38.582031 6.851562 38.992188 6.578125 39.453125 6.382812 C 39.917969 6.1875 40.398438 6.09375 40.902344 6.09375 C 41.402344 6.09375 41.882812 6.1875 42.347656 6.382812 C 42.808594 6.578125 43.21875 6.851562 43.574219 7.210938 C 43.925781 7.566406 44.199219 7.980469 44.390625 8.445312 C 44.582031 8.914062 44.679688 9.402344 44.679688 9.90625 Z M 44.679688 9.90625 " fill-opacity="1" fill-rule="nonzero"></path></g><g clip-path="url(#id10)"><path fill="rgb(100%, 100%, 100%)" d="M 43.9375 9.90625 C 43.9375 10.3125 43.859375 10.703125 43.707031 11.078125 C 43.550781 11.457031 43.332031 11.785156 43.046875 12.074219 C 42.761719 12.363281 42.433594 12.582031 42.0625 12.738281 C 41.691406 12.894531 41.304688 12.972656 40.902344 12.972656 C 40.496094 12.972656 40.109375 12.894531 39.738281 12.738281 C 39.367188 12.582031 39.039062 12.363281 38.753906 12.074219 C 38.46875 11.785156 38.25 11.457031 38.09375 11.078125 C 37.941406 10.703125 37.863281 10.3125 37.863281 9.90625 C 37.863281 9.5 37.941406 9.109375 38.09375 8.734375 C 38.25 8.359375 38.46875 8.027344 38.753906 7.738281 C 39.039062 7.453125 39.367188 7.230469 39.738281 7.074219 C 40.109375 6.917969 40.496094 6.839844 40.902344 6.839844 C 41.304688 6.839844 41.691406 6.917969 42.0625 7.074219 C 42.433594 7.230469 42.761719 7.453125 43.046875 7.738281 C 43.332031 8.027344 43.550781 8.359375 43.707031 8.734375 C 43.859375 9.109375 43.9375 9.5 43.9375 9.90625 Z M 43.9375 9.90625 " fill-opacity="1" fill-rule="nonzero"></path></g><path fill="rgb(98.039246%, 34.509277%, 7.839966%)" d="M 43.175781 9.90625 C 43.175781 10.210938 43.117188 10.503906 43.003906 10.785156 C 42.886719 11.066406 42.722656 11.316406 42.507812 11.53125 C 42.296875 11.746094 42.050781 11.910156 41.769531 12.027344 C 41.492188 12.144531 41.203125 12.203125 40.902344 12.203125 C 40.597656 12.203125 40.308594 12.144531 40.03125 12.027344 C 39.75 11.910156 39.503906 11.746094 39.292969 11.53125 C 39.078125 11.316406 38.914062 11.066406 38.796875 10.785156 C 38.683594 10.503906 38.625 10.210938 38.625 9.90625 C 38.625 9.601562 38.683594 9.308594 38.796875 9.027344 C 38.914062 8.746094 39.078125 8.496094 39.292969 8.28125 C 39.503906 8.066406 39.75 7.902344 40.03125 7.785156 C 40.308594 7.667969 40.597656 7.609375 40.902344 7.609375 C 41.203125 7.609375 41.492188 7.667969 41.769531 7.785156 C 42.050781 7.902344 42.296875 8.066406 42.507812 8.28125 C 42.722656 8.496094 42.886719 8.746094 43.003906 9.027344 C 43.117188 9.308594 43.175781 9.601562 43.175781 9.90625 Z M 43.175781 9.90625 " fill-opacity="1" fill-rule="nonzero"></path><path fill="rgb(100%, 100%, 100%)" d="M 42.167969 9.90625 C 42.167969 10.074219 42.132812 10.238281 42.070312 10.394531 C 42.007812 10.550781 41.914062 10.691406 41.796875 10.808594 C 41.675781 10.929688 41.539062 11.023438 41.386719 11.085938 C 41.230469 11.152344 41.070312 11.183594 40.902344 11.183594 C 40.734375 11.183594 40.570312 11.152344 40.417969 11.085938 C 40.261719 11.023438 40.125 10.929688 40.003906 10.808594 C 39.886719 10.691406 39.796875 10.550781 39.730469 10.394531 C 39.667969 10.238281 39.632812 10.074219 39.632812 9.90625 C 39.632812 9.738281 39.667969 9.574219 39.730469 9.417969 C 39.796875 9.261719 39.886719 9.121094 40.003906 9.003906 C 40.125 8.882812 40.261719 8.789062 40.417969 8.726562 C 40.570312 8.660156 40.734375 8.628906 40.902344 8.628906 C 41.070312 8.628906 41.230469 8.660156 41.386719 8.726562 C 41.539062 8.789062 41.675781 8.882812 41.796875 9.003906 C 41.914062 9.121094 42.007812 9.261719 42.070312 9.417969 C 42.132812 9.574219 42.167969 9.738281 42.167969 9.90625 Z M 42.167969 9.90625 " fill-opacity="1" fill-rule="nonzero"></path><g clip-path="url(#id11)"><path fill="rgb(16.079712%, 14.509583%, 38.038635%)" d="M 40.960938 9.019531 L 41.355469 9.386719 L 43.164062 7.339844 L 43.078125 6.890625 C 43.078125 6.871094 43.078125 6.851562 43.097656 6.832031 L 43.582031 6.292969 C 43.621094 6.253906 43.691406 6.273438 43.699219 6.320312 L 43.800781 6.792969 C 43.808594 6.820312 43.828125 6.839844 43.859375 6.839844 L 44.332031 6.890625 C 44.390625 6.902344 44.414062 6.960938 44.371094 7 L 43.886719 7.539062 C 43.878906 7.558594 43.847656 7.558594 43.828125 7.558594 L 43.382812 7.511719 L 41.574219 9.558594 L 41.96875 9.925781 C 42.019531 9.976562 42 10.066406 41.929688 10.085938 L 40.664062 10.476562 C 40.59375 10.496094 40.535156 10.4375 40.542969 10.367188 L 40.800781 9.058594 C 40.820312 8.996094 40.910156 8.96875 40.960938 9.019531 Z M 40.960938 9.019531 " fill-opacity="1" fill-rule="nonzero"></path></g></svg>