<svg xmlns="http://www.w3.org/2000/svg" xmlns:xlink="http://www.w3.org/1999/xlink" width="69" viewBox="0 0 51.75 47.25" height="63" preserveAspectRatio="xMidYMid meet"><defs><clipPath id="id1"><path d="M 22 15 L 50.410156 15 L 50.410156 35.765625 L 22 35.765625 Z M 22 15 " clip-rule="nonzero"></path></clipPath><clipPath id="id2"><path d="M 1.449219 16 L 23 16 L 23 32 L 1.449219 32 Z M 1.449219 16 " clip-rule="nonzero"></path></clipPath><clipPath id="id3"><path d="M 22 11.285156 L 43 11.285156 L 43 29 L 22 29 Z M 22 11.285156 " clip-rule="nonzero"></path></clipPath></defs><g clip-path="url(#id1)"><path fill="rgb(90.19928%, 45.098877%, 9.799194%)" d="M 23.304688 19.703125 C 23.070312 20.164062 22.847656 20.710938 22.710938 21.167969 C 22.65625 21.359375 22.589844 21.609375 22.5625 21.730469 C 22.40625 22.453125 22.347656 23.039062 22.355469 23.761719 C 22.355469 24.03125 22.390625 24.484375 22.433594 24.777344 C 22.507812 25.339844 22.667969 25.984375 22.851562 26.492188 C 23.152344 27.324219 23.554688 28.074219 24.066406 28.753906 C 24.648438 29.519531 25.316406 30.148438 26.148438 30.703125 C 26.296875 30.804688 26.792969 31.089844 26.949219 31.167969 C 27.664062 31.523438 28.300781 31.746094 29.035156 31.894531 C 29.992188 32.089844 30.972656 32.113281 31.953125 31.960938 C 32.589844 31.863281 33.292969 31.667969 33.878906 31.421875 C 34.4375 31.1875 34.894531 30.9375 35.386719 30.601562 C 35.921875 30.234375 36.398438 29.824219 36.835938 29.34375 C 37.117188 29.035156 37.398438 28.675781 37.621094 28.339844 L 37.660156 28.28125 L 38.683594 28.875 L 38.59375 29.03125 C 38.527344 29.152344 38.503906 29.199219 38.492188 29.230469 C 38.453125 29.375 38.492188 29.53125 38.589844 29.644531 C 38.625 29.6875 38.628906 29.6875 38.824219 29.804688 C 38.929688 29.867188 41.261719 31.222656 44 32.820312 C 48.363281 35.355469 48.988281 35.71875 49.03125 35.734375 C 49.089844 35.753906 49.1875 35.757812 49.246094 35.746094 C 49.300781 35.738281 49.363281 35.707031 49.414062 35.671875 C 49.496094 35.613281 49.480469 35.640625 49.957031 34.800781 L 50.390625 34.03125 L 50.398438 33.980469 C 50.410156 33.90625 50.40625 33.847656 50.386719 33.777344 C 50.367188 33.710938 50.34375 33.667969 50.296875 33.609375 L 50.265625 33.570312 L 49.296875 33.003906 C 48.765625 32.691406 46.421875 31.328125 44.089844 29.976562 L 39.855469 27.511719 L 39.808594 27.503906 C 39.671875 27.476562 39.539062 27.515625 39.429688 27.605469 C 39.390625 27.640625 39.386719 27.644531 39.289062 27.808594 L 39.191406 27.980469 L 39.140625 27.941406 C 39.109375 27.921875 38.878906 27.789062 38.628906 27.640625 L 38.171875 27.378906 L 38.226562 27.265625 C 38.289062 27.136719 38.363281 26.972656 38.445312 26.769531 C 38.5 26.628906 38.515625 26.585938 38.585938 26.386719 C 38.78125 25.824219 38.925781 25.175781 38.992188 24.554688 C 39.007812 24.40625 39.035156 24.027344 39.035156 23.898438 C 39.039062 23.75 39.039062 23.703125 39.039062 23.609375 C 39.03125 22.265625 38.710938 20.9375 38.101562 19.746094 C 37.863281 19.277344 37.574219 18.824219 37.253906 18.410156 C 36.738281 17.746094 36.121094 17.160156 35.4375 16.6875 C 35.0625 16.425781 34.644531 16.183594 34.238281 15.992188 C 32.746094 15.28125 31.074219 15.042969 29.4375 15.296875 C 28.445312 15.453125 27.484375 15.785156 26.617188 16.273438 C 25.90625 16.675781 25.308594 17.140625 24.71875 17.738281 C 24.589844 17.875 24.386719 18.101562 24.246094 18.277344 C 24.152344 18.390625 24.109375 18.445312 23.972656 18.628906 C 23.789062 18.871094 23.464844 19.394531 23.304688 19.703125 Z M 25.582031 20.109375 C 25.957031 19.558594 26.371094 19.109375 26.882812 18.703125 C 27.484375 18.222656 28.164062 17.863281 28.90625 17.636719 C 29.046875 17.597656 29.054688 17.59375 29.207031 17.554688 C 29.582031 17.460938 29.90625 17.410156 30.289062 17.386719 C 31.3125 17.316406 32.328125 17.507812 33.269531 17.945312 C 33.539062 18.066406 33.933594 18.292969 34.148438 18.441406 C 34.773438 18.871094 35.257812 19.335938 35.683594 19.921875 C 36.40625 20.910156 36.832031 22.125 36.882812 23.355469 C 36.929688 24.417969 36.707031 25.460938 36.234375 26.414062 C 36.171875 26.546875 35.949219 26.9375 35.878906 27.042969 C 35.765625 27.21875 35.648438 27.386719 35.566406 27.488281 C 35.542969 27.515625 35.503906 27.566406 35.480469 27.597656 C 35.167969 27.992188 34.710938 28.421875 34.277344 28.734375 C 34.023438 28.917969 33.78125 29.0625 33.492188 29.210938 C 31.933594 30.015625 30.09375 30.105469 28.457031 29.457031 C 28.140625 29.332031 27.96875 29.25 27.617188 29.042969 C 27.269531 28.84375 27.136719 28.753906 26.867188 28.539062 C 25.636719 27.566406 24.816406 26.152344 24.578125 24.585938 C 24.476562 23.945312 24.480469 23.289062 24.582031 22.640625 C 24.679688 22.035156 24.875 21.421875 25.140625 20.882812 C 25.171875 20.816406 25.207031 20.746094 25.214844 20.730469 C 25.261719 20.636719 25.511719 20.214844 25.582031 20.109375 Z M 25.582031 20.109375 " fill-opacity="1" fill-rule="nonzero"></path></g><g clip-path="url(#id2)"><path fill="rgb(9.799194%, 1.959229%, 35.688782%)" d="M 6.082031 16.613281 C 5.613281 16.625 5.453125 16.636719 5.359375 16.675781 C 5.292969 16.699219 5.152344 16.734375 5.042969 16.75 C 4.941406 16.765625 4.785156 16.796875 4.703125 16.820312 C 4.355469 16.921875 3.921875 17.066406 3.871094 17.09375 C 3.839844 17.113281 3.738281 17.160156 3.640625 17.203125 C 3.546875 17.242188 3.4375 17.296875 3.398438 17.324219 C 3.359375 17.351562 3.21875 17.445312 3.089844 17.53125 C 2.535156 17.894531 2 18.550781 1.785156 19.132812 C 1.75 19.222656 1.707031 19.335938 1.6875 19.382812 C 1.667969 19.433594 1.640625 19.519531 1.632812 19.578125 C 1.621094 19.636719 1.589844 19.769531 1.5625 19.878906 C 1.496094 20.148438 1.449219 20.957031 1.484375 21.332031 C 1.53125 21.808594 1.558594 22.03125 1.605469 22.140625 C 1.625 22.203125 1.675781 22.355469 1.714844 22.484375 C 1.816406 22.835938 2.199219 23.449219 2.449219 23.667969 C 2.476562 23.691406 2.570312 23.769531 2.65625 23.84375 C 2.945312 24.097656 3.496094 24.429688 3.832031 24.550781 C 3.929688 24.585938 4.03125 24.632812 4.0625 24.652344 C 4.09375 24.667969 4.167969 24.699219 4.226562 24.714844 C 4.285156 24.726562 4.421875 24.769531 4.527344 24.800781 C 4.941406 24.933594 6.148438 25.214844 6.574219 25.285156 C 6.632812 25.292969 6.761719 25.324219 6.859375 25.351562 C 6.957031 25.382812 7.171875 25.429688 7.335938 25.460938 C 7.503906 25.496094 7.6875 25.542969 7.746094 25.570312 C 7.804688 25.601562 7.917969 25.636719 7.992188 25.652344 C 8.175781 25.695312 8.59375 25.902344 8.734375 26.023438 C 8.890625 26.164062 9.023438 26.351562 9.113281 26.578125 C 9.183594 26.753906 9.191406 26.800781 9.191406 27.101562 C 9.191406 27.402344 9.183594 27.449219 9.113281 27.632812 C 8.914062 28.128906 8.46875 28.472656 7.8125 28.632812 C 7.761719 28.644531 7.597656 28.675781 7.445312 28.707031 C 6.957031 28.796875 5.730469 28.765625 5.152344 28.644531 C 5.050781 28.625 4.910156 28.597656 4.839844 28.589844 C 4.773438 28.578125 4.636719 28.550781 4.539062 28.523438 C 4.441406 28.492188 4.253906 28.441406 4.117188 28.410156 C 3.984375 28.375 3.8125 28.316406 3.742188 28.28125 C 3.671875 28.25 3.597656 28.21875 3.578125 28.21875 C 3.515625 28.21875 3.121094 28.085938 3.078125 28.054688 C 3.0625 28.039062 2.96875 28 2.871094 27.96875 C 2.691406 27.910156 2.65625 27.894531 2.09375 27.625 C 1.882812 27.523438 1.742188 27.472656 1.714844 27.484375 C 1.667969 27.5 1.667969 27.546875 1.683594 28.144531 C 1.695312 28.496094 1.703125 29.121094 1.703125 29.535156 C 1.703125 30.398438 1.691406 30.359375 1.976562 30.441406 C 2.058594 30.464844 2.167969 30.5 2.21875 30.519531 C 2.273438 30.542969 2.363281 30.574219 2.425781 30.589844 C 2.484375 30.605469 2.628906 30.640625 2.738281 30.675781 C 2.851562 30.707031 3.015625 30.75 3.105469 30.773438 C 3.199219 30.792969 3.351562 30.835938 3.449219 30.867188 C 3.546875 30.894531 3.703125 30.933594 3.804688 30.949219 C 3.902344 30.964844 4.03125 30.988281 4.089844 31.003906 C 4.148438 31.015625 4.242188 31.03125 4.292969 31.03125 C 4.347656 31.03125 4.476562 31.0625 4.582031 31.101562 C 4.71875 31.148438 4.828125 31.167969 4.980469 31.167969 C 5.097656 31.167969 5.34375 31.1875 5.527344 31.214844 C 5.8125 31.25 6.054688 31.257812 7.078125 31.242188 C 8.160156 31.230469 8.316406 31.222656 8.511719 31.175781 C 8.628906 31.144531 8.800781 31.109375 8.890625 31.101562 C 8.980469 31.089844 9.125 31.0625 9.207031 31.039062 C 9.289062 31.015625 9.425781 30.980469 9.507812 30.960938 C 9.933594 30.855469 10.5625 30.574219 10.964844 30.300781 C 11.234375 30.121094 11.660156 29.6875 11.847656 29.40625 C 12.09375 29.035156 12.371094 28.410156 12.371094 28.214844 C 12.371094 28.179688 12.402344 28.09375 12.433594 28.027344 C 12.46875 27.957031 12.515625 27.84375 12.535156 27.769531 C 12.574219 27.613281 12.609375 27.585938 12.640625 27.675781 C 12.65625 27.714844 12.675781 28.441406 12.6875 29.292969 C 12.703125 30.535156 12.714844 30.847656 12.746094 30.878906 C 12.773438 30.910156 12.945312 30.914062 13.632812 30.902344 C 14.101562 30.898438 15.371094 30.878906 16.449219 30.867188 C 17.53125 30.847656 18.765625 30.832031 19.191406 30.824219 C 19.621094 30.816406 20.554688 30.800781 21.269531 30.792969 C 21.984375 30.78125 22.585938 30.765625 22.605469 30.753906 C 22.632812 30.738281 22.632812 30.472656 22.609375 29.476562 C 22.59375 28.785156 22.570312 28.203125 22.558594 28.1875 C 22.542969 28.160156 21.882812 28.164062 19.78125 28.203125 C 19.40625 28.214844 18.472656 28.226562 17.707031 28.234375 C 16.316406 28.25 16.3125 28.25 16.242188 28.195312 C 16.195312 28.15625 16.164062 28.101562 16.152344 28.03125 C 16.144531 27.976562 16.136719 27.25 16.132812 26.421875 L 16.125 24.914062 L 16.1875 24.847656 L 16.25 24.785156 L 18.207031 24.761719 C 19.28125 24.753906 20.558594 24.734375 21.046875 24.722656 L 21.933594 24.703125 L 21.945312 23.4375 C 21.949219 22.476562 21.941406 22.164062 21.917969 22.132812 C 21.890625 22.097656 21.808594 22.09375 21.429688 22.109375 C 21.183594 22.117188 20.257812 22.128906 19.371094 22.136719 C 18.484375 22.148438 17.429688 22.160156 17.023438 22.167969 C 16.257812 22.183594 16.167969 22.175781 16.113281 22.074219 C 16.074219 22.003906 16.058594 21.550781 16.050781 20.417969 L 16.046875 19.46875 L 16.121094 19.402344 C 16.1875 19.34375 16.21875 19.339844 16.527344 19.339844 C 16.710938 19.339844 17.109375 19.332031 17.417969 19.324219 C 17.726562 19.316406 18.921875 19.296875 20.078125 19.285156 C 21.777344 19.261719 22.1875 19.25 22.214844 19.21875 C 22.246094 19.1875 22.25 18.960938 22.234375 17.921875 C 22.214844 16.804688 22.207031 16.660156 22.167969 16.644531 C 22.144531 16.632812 21.738281 16.628906 21.265625 16.640625 C 20.792969 16.648438 19.257812 16.671875 17.855469 16.691406 C 12.730469 16.753906 12.59375 16.757812 12.550781 16.804688 C 12.519531 16.839844 12.515625 17.054688 12.535156 18.375 C 12.558594 20.011719 12.621094 24.679688 12.625 25.15625 C 12.628906 25.609375 12.574219 25.789062 12.503906 25.535156 C 12.488281 25.472656 12.453125 25.394531 12.425781 25.363281 C 12.394531 25.335938 12.339844 25.195312 12.292969 25.0625 C 12.050781 24.308594 11.511719 23.726562 10.636719 23.273438 C 10.476562 23.1875 10.253906 23.085938 10.148438 23.046875 C 10.042969 23.007812 9.941406 22.964844 9.921875 22.945312 C 9.902344 22.929688 9.820312 22.898438 9.738281 22.878906 C 9.65625 22.859375 9.523438 22.824219 9.441406 22.804688 C 9.363281 22.785156 9.261719 22.746094 9.21875 22.726562 C 9.171875 22.699219 9.058594 22.667969 8.960938 22.652344 C 8.59375 22.589844 8.324219 22.539062 8.1875 22.5 C 8.109375 22.476562 7.972656 22.449219 7.882812 22.441406 C 7.792969 22.429688 7.652344 22.40625 7.570312 22.386719 C 7.488281 22.367188 7.363281 22.34375 7.296875 22.335938 C 7.078125 22.304688 6.257812 22.125 5.945312 22.039062 C 5.765625 21.988281 5.601562 21.921875 5.289062 21.78125 C 5.109375 21.695312 4.855469 21.457031 4.773438 21.296875 C 4.738281 21.226562 4.691406 21.0625 4.667969 20.9375 C 4.636719 20.742188 4.636719 20.667969 4.664062 20.457031 C 4.703125 20.164062 4.753906 20.039062 4.894531 19.847656 C 5.148438 19.503906 5.667969 19.261719 6.3125 19.183594 C 7.191406 19.074219 7.4375 19.066406 7.828125 19.132812 C 7.964844 19.15625 8.160156 19.175781 8.265625 19.175781 C 8.371094 19.175781 8.527344 19.1875 8.621094 19.203125 C 8.710938 19.21875 8.890625 19.25 9.019531 19.269531 C 9.148438 19.289062 9.28125 19.320312 9.3125 19.335938 C 9.34375 19.355469 9.457031 19.386719 9.566406 19.40625 C 9.839844 19.457031 10.410156 19.625 10.71875 19.742188 C 10.828125 19.78125 10.972656 19.835938 11.046875 19.863281 C 11.125 19.890625 11.253906 19.945312 11.339844 19.980469 C 11.488281 20.046875 11.496094 20.050781 11.523438 20.003906 C 11.539062 19.972656 11.542969 19.449219 11.535156 18.613281 C 11.519531 17.441406 11.511719 17.261719 11.472656 17.214844 C 11.445312 17.175781 11.371094 17.152344 11.234375 17.136719 C 11.125 17.121094 11.023438 17.105469 11.007812 17.09375 C 10.992188 17.082031 10.890625 17.0625 10.785156 17.046875 C 10.683594 17.035156 10.566406 17.007812 10.523438 16.984375 C 10.480469 16.964844 10.375 16.9375 10.285156 16.929688 C 10.195312 16.917969 10.015625 16.894531 9.886719 16.871094 C 8.476562 16.632812 7.597656 16.570312 6.082031 16.613281 Z M 6.082031 16.613281 " fill-opacity="1" fill-rule="nonzero"></path></g><g clip-path="url(#id3)"><path fill="rgb(9.799194%, 1.959229%, 35.688782%)" d="M 42.25 11.289062 C 42.039062 11.289062 41.160156 11.660156 38.226562 12.933594 C 36.011719 13.898438 34.242188 14.707031 34.296875 14.734375 C 34.351562 14.757812 35.1875 14.886719 36.15625 15.007812 C 37.128906 15.128906 37.929688 15.242188 37.945312 15.25 C 37.957031 15.265625 37.476562 16.242188 36.703125 17.769531 C 36.390625 18.386719 36.03125 19.09375 35.640625 19.863281 C 35.238281 20.652344 34.800781 21.503906 34.34375 22.398438 L 33.632812 23.78125 L 30.449219 21.578125 L 27.273438 19.375 L 26.496094 20.308594 C 25.847656 21.09375 25.179688 21.914062 24.582031 22.65625 L 24.578125 22.65625 C 23.472656 24.027344 22.59375 25.128906 22.511719 25.257812 C 22.507812 25.265625 22.503906 25.269531 22.507812 25.269531 C 22.507812 25.269531 22.507812 25.265625 22.511719 25.265625 C 22.511719 25.265625 22.511719 25.261719 22.515625 25.261719 C 22.546875 25.238281 22.570312 25.222656 22.589844 25.222656 C 22.644531 25.222656 22.648438 25.351562 22.648438 25.773438 L 22.648438 25.835938 C 22.710938 26.066406 22.777344 26.289062 22.851562 26.492188 C 22.882812 26.582031 22.917969 26.675781 22.957031 26.765625 L 24.53125 24.910156 C 24.558594 24.875 24.585938 24.84375 24.613281 24.8125 C 24.613281 24.8125 24.613281 24.808594 24.613281 24.808594 C 26.035156 23.136719 27.210938 21.78125 27.25 21.78125 C 27.296875 21.78125 27.726562 22.167969 28.210938 22.648438 C 32.226562 26.585938 33.832031 28.117188 33.945312 28.117188 C 33.949219 28.117188 33.949219 28.117188 33.953125 28.117188 C 34 28.066406 35.046875 26.210938 36.855469 22.964844 C 37.308594 22.152344 37.804688 21.253906 38.347656 20.277344 C 38.347656 20.277344 38.347656 20.277344 38.347656 20.273438 L 38.351562 20.273438 C 38.445312 20.101562 38.542969 19.925781 38.640625 19.746094 C 39.46875 18.257812 40.191406 16.984375 40.238281 16.929688 C 40.246094 16.921875 40.253906 16.917969 40.261719 16.917969 C 40.363281 16.917969 40.65625 17.261719 41.449219 18.320312 C 42.058594 19.128906 42.566406 19.789062 42.59375 19.789062 C 42.636719 19.757812 42.355469 11.433594 42.304688 11.3125 C 42.300781 11.300781 42.285156 11.289062 42.25 11.289062 Z M 42.25 11.289062 " fill-opacity="1" fill-rule="nonzero"></path></g></svg>