<svg xmlns="http://www.w3.org/2000/svg" xmlns:xlink="http://www.w3.org/1999/xlink" width="69" viewBox="0 0 51.75 47.25" height="63" preserveAspectRatio="xMidYMid meet"><defs><clipPath id="id1"><path d="M 0.28125 45 L 5 45 L 5 46.097656 L 0.28125 46.097656 Z M 0.28125 45 " clip-rule="nonzero"></path></clipPath><clipPath id="id2"><path d="M 46 45 L 51.222656 45 L 51.222656 46.097656 L 46 46.097656 Z M 46 45 " clip-rule="nonzero"></path></clipPath><clipPath id="id3"><path d="M 6 45 L 46 45 L 46 46.097656 L 6 46.097656 Z M 6 45 " clip-rule="nonzero"></path></clipPath><clipPath id="id4"><path d="M 0.28125 0.847656 L 51.222656 0.847656 L 51.222656 43 L 0.28125 43 Z M 0.28125 0.847656 " clip-rule="nonzero"></path></clipPath></defs><path fill="rgb(61.959839%, 61.959839%, 61.959839%)" d="M 36.085938 21.816406 C 36.085938 27.480469 31.515625 32.070312 25.882812 32.070312 C 20.246094 32.070312 15.679688 27.480469 15.679688 21.816406 C 15.679688 16.15625 20.246094 11.566406 25.882812 11.566406 C 28.589844 11.566406 31.183594 12.648438 33.097656 14.570312 C 35.011719 16.492188 36.085938 19.097656 36.085938 21.816406 Z M 36.085938 21.816406 " fill-opacity="1" fill-rule="nonzero"></path><path fill="rgb(43.919373%, 43.919373%, 43.919373%)" d="M 17.753906 21.816406 C 17.753906 16.507812 21.769531 12.140625 26.917969 11.617188 C 26.578125 11.585938 26.230469 11.566406 25.882812 11.566406 C 20.246094 11.566406 15.679688 16.15625 15.679688 21.816406 C 15.679688 27.480469 20.246094 32.070312 25.882812 32.070312 C 26.230469 32.070312 26.578125 32.050781 26.917969 32.015625 C 21.769531 31.496094 17.753906 27.128906 17.753906 21.816406 Z M 17.753906 21.816406 " fill-opacity="1" fill-rule="nonzero"></path><path fill="rgb(80.778503%, 80.778503%, 80.778503%)" d="M 34.011719 21.816406 C 34.011719 16.507812 29.992188 12.140625 24.84375 11.617188 C 25.1875 11.585938 25.53125 11.566406 25.882812 11.566406 C 31.515625 11.566406 36.085938 16.15625 36.085938 21.816406 C 36.085938 27.480469 31.515625 32.070312 25.882812 32.070312 C 25.53125 32.070312 25.1875 32.050781 24.84375 32.015625 C 29.992188 31.496094 34.011719 27.128906 34.011719 21.816406 Z M 34.011719 21.816406 " fill-opacity="1" fill-rule="nonzero"></path><path fill="rgb(97.24884%, 68.629456%, 13.729858%)" d="M 33.113281 21.238281 C 33.113281 22.441406 32.140625 23.414062 30.945312 23.414062 C 29.75 23.414062 28.777344 22.441406 28.777344 21.238281 C 28.777344 20.039062 29.75 19.0625 30.945312 19.0625 C 32.140625 19.0625 33.113281 20.039062 33.113281 21.238281 Z M 33.113281 21.238281 " fill-opacity="1" fill-rule="nonzero"></path><path fill="rgb(38.819885%, 73.728943%, 90.589905%)" d="M 29.671875 26.355469 L 24.605469 23.683594 L 24.605469 18.792969 L 29.671875 16.121094 Z M 29.671875 26.355469 " fill-opacity="1" fill-rule="nonzero"></path><path fill="rgb(95.689392%, 38.42926%, 45.878601%)" d="M 29.671875 26.355469 L 30.945312 26.355469 L 30.945312 16.121094 L 29.671875 16.121094 Z M 29.671875 26.355469 " fill-opacity="1" fill-rule="nonzero"></path><path fill="rgb(97.24884%, 68.629456%, 13.729858%)" d="M 20.34375 23.6875 L 24.605469 23.6875 L 24.605469 18.792969 L 20.34375 18.792969 Z M 20.34375 23.6875 " fill-opacity="1" fill-rule="nonzero"></path><path fill="rgb(95.689392%, 38.42926%, 45.878601%)" d="M 18.652344 22.460938 L 20.34375 22.460938 L 20.34375 20.015625 L 18.652344 20.015625 Z M 18.652344 22.460938 " fill-opacity="1" fill-rule="nonzero"></path><path fill="rgb(38.819885%, 73.728943%, 90.589905%)" d="M 21.535156 27.515625 L 23.414062 27.515625 L 23.414062 23.6875 L 21.535156 23.6875 Z M 21.535156 27.515625 " fill-opacity="1" fill-rule="nonzero"></path><path fill="rgb(97.24884%, 68.629456%, 13.729858%)" d="M 29.84375 8.8125 L 21.921875 8.8125 C 21.335938 8.8125 20.859375 8.335938 20.859375 7.746094 L 20.859375 2.230469 C 20.859375 1.640625 21.335938 1.164062 21.921875 1.164062 L 29.84375 1.164062 C 30.429688 1.164062 30.90625 1.640625 30.90625 2.230469 L 30.90625 7.746094 C 30.90625 8.335938 30.429688 8.8125 29.84375 8.8125 Z M 29.84375 8.8125 " fill-opacity="1" fill-rule="nonzero"></path><path fill="rgb(97.24884%, 43.919373%, 13.729858%)" d="M 22.933594 7.746094 L 22.933594 2.230469 C 22.933594 1.640625 23.410156 1.164062 23.996094 1.164062 L 21.921875 1.164062 C 21.335938 1.164062 20.859375 1.640625 20.859375 2.230469 L 20.859375 7.746094 C 20.859375 8.335938 21.335938 8.8125 21.921875 8.8125 L 23.996094 8.8125 C 23.410156 8.8125 22.933594 8.335938 22.933594 7.746094 Z M 22.933594 7.746094 " fill-opacity="1" fill-rule="nonzero"></path><path fill="rgb(97.24884%, 68.629456%, 13.729858%)" d="M 29.84375 42.472656 L 21.921875 42.472656 C 21.335938 42.472656 20.859375 41.992188 20.859375 41.40625 L 20.859375 35.886719 C 20.859375 35.300781 21.335938 34.820312 21.921875 34.820312 L 29.84375 34.820312 C 30.429688 34.820312 30.90625 35.300781 30.90625 35.886719 L 30.90625 41.40625 C 30.90625 41.992188 30.429688 42.472656 29.84375 42.472656 Z M 29.84375 42.472656 " fill-opacity="1" fill-rule="nonzero"></path><path fill="rgb(97.24884%, 43.919373%, 13.729858%)" d="M 22.933594 41.40625 L 22.933594 35.886719 C 22.933594 35.300781 23.410156 34.820312 23.996094 34.820312 L 21.921875 34.820312 C 21.335938 34.820312 20.859375 35.300781 20.859375 35.886719 L 20.859375 41.40625 C 20.859375 41.992188 21.335938 42.472656 21.921875 42.472656 L 23.996094 42.472656 C 23.410156 42.472656 22.933594 41.992188 22.933594 41.40625 Z M 22.933594 41.40625 " fill-opacity="1" fill-rule="nonzero"></path><path fill="rgb(61.959839%, 61.959839%, 61.959839%)" d="M 29.1875 40.210938 C 29.1875 40.582031 28.882812 40.882812 28.515625 40.882812 L 23.269531 40.882812 C 22.902344 40.882812 22.597656 40.582031 22.597656 40.210938 L 22.597656 37.082031 C 22.597656 36.710938 22.902344 36.410156 23.269531 36.410156 L 28.515625 36.410156 C 28.882812 36.410156 29.1875 36.710938 29.1875 37.082031 Z M 29.1875 40.210938 " fill-opacity="1" fill-rule="nonzero"></path><path fill="rgb(95.689392%, 38.42926%, 45.878601%)" d="M 22.800781 40.691406 C 22.925781 40.808594 23.089844 40.882812 23.269531 40.882812 L 28.515625 40.882812 C 28.695312 40.882812 28.863281 40.808594 28.984375 40.691406 L 25.894531 37.753906 Z M 22.800781 40.691406 " fill-opacity="1" fill-rule="nonzero"></path><path fill="rgb(38.819885%, 73.728943%, 90.589905%)" d="M 28.984375 36.601562 C 28.863281 36.480469 28.695312 36.410156 28.515625 36.410156 L 23.269531 36.410156 C 23.089844 36.410156 22.921875 36.480469 22.800781 36.601562 L 25.894531 39.539062 Z M 28.984375 36.601562 " fill-opacity="1" fill-rule="nonzero"></path><path fill="rgb(38.819885%, 73.728943%, 90.589905%)" d="M 43.949219 38.644531 L 36.027344 38.644531 C 35.441406 38.644531 34.964844 38.167969 34.964844 37.578125 L 34.964844 32.0625 C 34.964844 31.476562 35.441406 30.996094 36.027344 30.996094 L 43.949219 30.996094 C 44.535156 30.996094 45.011719 31.476562 45.011719 32.0625 L 45.011719 37.582031 C 45.011719 38.167969 44.535156 38.644531 43.949219 38.644531 Z M 43.949219 38.644531 " fill-opacity="1" fill-rule="nonzero"></path><path fill="rgb(38.819885%, 88.62915%, 90.589905%)" d="M 43.949219 30.996094 L 41.875 30.996094 C 42.460938 30.996094 42.9375 31.472656 42.9375 32.0625 L 42.9375 37.578125 C 42.9375 38.167969 42.460938 38.644531 41.875 38.644531 L 43.949219 38.644531 C 44.535156 38.644531 45.011719 38.167969 45.011719 37.578125 L 45.011719 32.0625 C 45.011719 31.472656 44.535156 30.996094 43.949219 30.996094 Z M 43.949219 30.996094 " fill-opacity="1" fill-rule="nonzero"></path><path fill="rgb(95.689392%, 38.42926%, 45.878601%)" d="M 15.738281 38.644531 L 7.816406 38.644531 C 7.230469 38.644531 6.753906 38.167969 6.753906 37.578125 L 6.753906 32.0625 C 6.753906 31.476562 7.230469 30.996094 7.816406 30.996094 L 15.738281 30.996094 C 16.324219 30.996094 16.796875 31.476562 16.796875 32.0625 L 16.796875 37.582031 C 16.796875 38.167969 16.324219 38.644531 15.738281 38.644531 Z M 15.738281 38.644531 " fill-opacity="1" fill-rule="nonzero"></path><path fill="rgb(95.689392%, 18.818665%, 45.878601%)" d="M 8.828125 37.578125 L 8.828125 32.0625 C 8.828125 31.476562 9.300781 30.996094 9.886719 30.996094 L 7.816406 30.996094 C 7.226562 30.996094 6.753906 31.476562 6.753906 32.0625 L 6.753906 37.582031 C 6.753906 38.167969 7.226562 38.644531 7.816406 38.644531 L 9.886719 38.644531 C 9.300781 38.644531 8.828125 38.167969 8.828125 37.578125 Z M 8.828125 37.578125 " fill-opacity="1" fill-rule="nonzero"></path><path fill="rgb(95.689392%, 38.42926%, 45.878601%)" d="M 43.949219 12.539062 L 36.027344 12.539062 C 35.441406 12.539062 34.964844 12.058594 34.964844 11.472656 L 34.964844 5.953125 C 34.964844 5.367188 35.441406 4.886719 36.027344 4.886719 L 43.949219 4.886719 C 44.535156 4.886719 45.011719 5.367188 45.011719 5.953125 L 45.011719 11.472656 C 45.011719 12.058594 44.535156 12.539062 43.949219 12.539062 Z M 43.949219 12.539062 " fill-opacity="1" fill-rule="nonzero"></path><path fill="rgb(95.689392%, 53.329468%, 45.878601%)" d="M 43.949219 4.886719 L 41.875 4.886719 C 42.460938 4.886719 42.9375 5.367188 42.9375 5.953125 L 42.9375 11.472656 C 42.9375 12.058594 42.460938 12.539062 41.875 12.539062 L 43.949219 12.539062 C 44.535156 12.539062 45.011719 12.058594 45.011719 11.472656 L 45.011719 5.953125 C 45.011719 5.367188 44.535156 4.886719 43.949219 4.886719 Z M 43.949219 4.886719 " fill-opacity="1" fill-rule="nonzero"></path><path fill="rgb(38.819885%, 73.728943%, 90.589905%)" d="M 15.738281 12.539062 L 7.816406 12.539062 C 7.230469 12.539062 6.753906 12.058594 6.753906 11.472656 L 6.753906 5.953125 C 6.753906 5.367188 7.230469 4.886719 7.816406 4.886719 L 15.738281 4.886719 C 16.324219 4.886719 16.796875 5.367188 16.796875 5.953125 L 16.796875 11.472656 C 16.796875 12.058594 16.324219 12.539062 15.738281 12.539062 Z M 15.738281 12.539062 " fill-opacity="1" fill-rule="nonzero"></path><path fill="rgb(38.819885%, 46.669006%, 90.589905%)" d="M 8.828125 11.472656 L 8.828125 5.953125 C 8.828125 5.367188 9.300781 4.886719 9.886719 4.886719 L 7.816406 4.886719 C 7.226562 4.886719 6.753906 5.367188 6.753906 5.953125 L 6.753906 11.472656 C 6.753906 12.058594 7.226562 12.539062 7.816406 12.539062 L 9.886719 12.539062 C 9.300781 12.539062 8.828125 12.058594 8.828125 11.472656 Z M 8.828125 11.472656 " fill-opacity="1" fill-rule="nonzero"></path><path fill="rgb(61.959839%, 61.959839%, 61.959839%)" d="M 11.773438 32.769531 L 11.773438 34.820312 L 9.734375 34.820312 C 9.734375 35.957031 10.648438 36.875 11.773438 36.875 C 12.902344 36.875 13.820312 35.957031 13.820312 34.820312 C 13.820312 33.6875 12.902344 32.769531 11.773438 32.769531 Z M 11.773438 32.769531 " fill-opacity="1" fill-rule="nonzero"></path><path fill="rgb(97.24884%, 68.629456%, 13.729858%)" d="M 11.773438 32.769531 C 10.648438 32.769531 9.734375 33.6875 9.734375 34.820312 L 11.773438 34.820312 Z M 11.773438 32.769531 " fill-opacity="1" fill-rule="nonzero"></path><path fill="rgb(95.689392%, 38.42926%, 45.878601%)" d="M 36.375 37.152344 L 37.835938 37.152344 L 37.835938 33.734375 L 36.375 33.734375 Z M 36.375 37.152344 " fill-opacity="1" fill-rule="nonzero"></path><path fill="rgb(95.689392%, 38.42926%, 45.878601%)" d="M 39.257812 37.152344 L 40.71875 37.152344 L 40.71875 33.132812 L 39.257812 33.132812 Z M 39.257812 37.152344 " fill-opacity="1" fill-rule="nonzero"></path><path fill="rgb(95.689392%, 38.42926%, 45.878601%)" d="M 42.140625 37.152344 L 43.601562 37.152344 L 43.601562 32.488281 L 42.140625 32.488281 Z M 42.140625 37.152344 " fill-opacity="1" fill-rule="nonzero"></path><path fill="rgb(19.60907%, 12.159729%, 47.839355%)" d="M 20.023438 23.6875 C 20.023438 23.863281 20.167969 24.007812 20.34375 24.007812 L 21.214844 24.007812 L 21.214844 27.515625 C 21.214844 27.691406 21.359375 27.835938 21.535156 27.835938 L 23.414062 27.835938 C 23.589844 27.835938 23.734375 27.691406 23.734375 27.515625 L 23.734375 24.007812 L 24.53125 24.007812 L 29.523438 26.640625 L 29.523438 26.636719 C 29.566406 26.660156 29.617188 26.675781 29.671875 26.675781 L 30.945312 26.675781 C 31.121094 26.675781 31.265625 26.53125 31.265625 26.355469 L 31.265625 23.714844 C 32.492188 23.554688 33.429688 22.503906 33.429688 21.238281 C 33.429688 19.976562 32.492188 18.921875 31.265625 18.765625 L 31.265625 16.121094 C 31.265625 15.945312 31.121094 15.800781 30.945312 15.800781 L 29.671875 15.800781 C 29.617188 15.800781 29.566406 15.816406 29.523438 15.839844 L 24.527344 18.472656 L 20.34375 18.472656 C 20.167969 18.472656 20.023438 18.617188 20.023438 18.792969 L 20.023438 19.695312 L 18.652344 19.695312 C 18.476562 19.695312 18.332031 19.835938 18.332031 20.015625 L 18.332031 22.460938 C 18.332031 22.640625 18.476562 22.78125 18.652344 22.78125 L 20.023438 22.78125 Z M 32.792969 21.238281 C 32.792969 22.152344 32.136719 22.914062 31.265625 23.066406 L 31.265625 19.414062 C 32.136719 19.5625 32.792969 20.328125 32.792969 21.238281 Z M 29.992188 16.441406 L 30.625 16.441406 L 30.625 26.035156 L 29.992188 26.035156 Z M 23.09375 27.195312 L 21.851562 27.195312 L 21.851562 24.007812 L 23.09375 24.007812 Z M 29.355469 25.824219 L 24.921875 23.492188 L 24.921875 18.988281 L 29.355469 16.652344 Z M 20.664062 19.113281 L 24.285156 19.113281 L 24.285156 23.367188 L 20.664062 23.367188 Z M 18.972656 20.335938 L 20.023438 20.335938 L 20.023438 22.140625 L 18.972656 22.140625 Z M 18.972656 20.335938 " fill-opacity="1" fill-rule="nonzero"></path><path fill="rgb(19.60907%, 12.159729%, 47.839355%)" d="M 28.515625 36.089844 L 23.269531 36.089844 C 22.726562 36.089844 22.28125 36.535156 22.28125 37.082031 L 22.28125 40.210938 C 22.28125 40.757812 22.726562 41.203125 23.269531 41.203125 L 28.515625 41.203125 C 29.0625 41.203125 29.503906 40.757812 29.503906 40.210938 L 29.503906 37.082031 C 29.503906 36.535156 29.0625 36.089844 28.515625 36.089844 Z M 22.917969 37.152344 L 24.492188 38.644531 L 22.917969 40.140625 Z M 25.894531 39.097656 L 23.398438 36.730469 L 28.386719 36.730469 Z M 24.953125 39.085938 L 25.675781 39.769531 C 25.734375 39.828125 25.8125 39.859375 25.894531 39.859375 C 25.972656 39.859375 26.050781 39.828125 26.113281 39.769531 L 26.832031 39.085938 L 28.386719 40.5625 L 23.398438 40.5625 Z M 27.292969 38.644531 L 28.867188 37.152344 L 28.867188 40.140625 Z M 27.292969 38.644531 " fill-opacity="1" fill-rule="nonzero"></path><path fill="rgb(19.60907%, 12.159729%, 47.839355%)" d="M 11.773438 32.449219 C 10.472656 32.449219 9.414062 33.511719 9.414062 34.820312 C 9.414062 36.128906 10.472656 37.195312 11.773438 37.195312 C 13.078125 37.195312 14.136719 36.128906 14.136719 34.820312 C 14.136719 33.511719 13.078125 32.449219 11.773438 32.449219 Z M 11.457031 33.117188 L 11.457031 34.5 L 10.082031 34.5 C 10.210938 33.800781 10.761719 33.25 11.457031 33.117188 Z M 11.773438 36.554688 C 10.933594 36.554688 10.230469 35.945312 10.082031 35.140625 L 11.773438 35.140625 C 11.953125 35.140625 12.09375 35 12.09375 34.820312 L 12.09375 33.117188 C 12.894531 33.269531 13.5 33.976562 13.5 34.820312 C 13.5 35.777344 12.726562 36.554688 11.773438 36.554688 Z M 11.773438 36.554688 " fill-opacity="1" fill-rule="nonzero"></path><path fill="rgb(19.60907%, 12.159729%, 47.839355%)" d="M 12.980469 5.796875 L 10.570312 5.796875 C 9.632812 5.796875 8.871094 6.5625 8.871094 7.5 L 8.871094 9.925781 C 8.871094 10.863281 9.632812 11.628906 10.570312 11.628906 L 12.980469 11.628906 C 13.917969 11.628906 14.679688 10.863281 14.679688 9.925781 L 14.679688 7.5 C 14.679688 6.5625 13.917969 5.796875 12.980469 5.796875 Z M 14.042969 9.925781 C 14.042969 10.511719 13.566406 10.988281 12.980469 10.988281 L 10.570312 10.988281 C 9.984375 10.988281 9.507812 10.511719 9.507812 9.925781 L 9.507812 7.5 C 9.507812 6.914062 9.984375 6.4375 10.570312 6.4375 L 12.980469 6.4375 C 13.566406 6.4375 14.042969 6.914062 14.042969 7.5 Z M 14.042969 9.925781 " fill-opacity="1" fill-rule="nonzero"></path><path fill="rgb(19.60907%, 12.159729%, 47.839355%)" d="M 11.773438 7.257812 C 10.976562 7.257812 10.328125 7.910156 10.328125 8.710938 C 10.328125 9.515625 10.976562 10.167969 11.773438 10.167969 C 12.574219 10.167969 13.222656 9.515625 13.222656 8.710938 C 13.222656 7.910156 12.574219 7.257812 11.773438 7.257812 Z M 11.773438 9.527344 C 11.328125 9.527344 10.964844 9.160156 10.964844 8.714844 C 10.964844 8.265625 11.328125 7.898438 11.773438 7.898438 C 12.222656 7.898438 12.585938 8.265625 12.585938 8.714844 C 12.585938 9.160156 12.222656 9.527344 11.773438 9.527344 Z M 11.773438 9.527344 " fill-opacity="1" fill-rule="nonzero"></path><path fill="rgb(19.60907%, 12.159729%, 47.839355%)" d="M 13.425781 7.160156 C 13.425781 7.292969 13.320312 7.398438 13.191406 7.398438 C 13.0625 7.398438 12.957031 7.292969 12.957031 7.160156 C 12.957031 7.03125 13.0625 6.925781 13.191406 6.925781 C 13.320312 6.925781 13.425781 7.03125 13.425781 7.160156 Z M 13.425781 7.160156 " fill-opacity="1" fill-rule="nonzero"></path><path fill="rgb(19.60907%, 12.159729%, 47.839355%)" d="M 26.203125 6.980469 L 26.203125 4.734375 L 27.066406 4.734375 C 27.242188 4.734375 27.386719 4.59375 27.386719 4.417969 C 27.386719 4.238281 27.242188 4.097656 27.066406 4.097656 L 26.203125 4.097656 L 26.203125 3.75 C 26.203125 3.488281 26.414062 3.277344 26.675781 3.277344 L 27.121094 3.277344 C 27.296875 3.277344 27.4375 3.136719 27.4375 2.957031 C 27.4375 2.78125 27.296875 2.636719 27.121094 2.636719 L 26.675781 2.636719 C 26.0625 2.636719 25.566406 3.136719 25.566406 3.75 L 25.566406 4.097656 L 25.03125 4.097656 C 24.855469 4.097656 24.710938 4.238281 24.710938 4.417969 C 24.710938 4.59375 24.855469 4.734375 25.03125 4.734375 L 25.566406 4.734375 L 25.566406 6.980469 C 25.566406 7.15625 25.710938 7.300781 25.886719 7.300781 C 26.0625 7.300781 26.203125 7.15625 26.203125 6.980469 Z M 26.203125 6.980469 " fill-opacity="1" fill-rule="nonzero"></path><path fill="rgb(19.60907%, 12.159729%, 47.839355%)" d="M 39.160156 10.472656 C 39.230469 10.5 39.304688 10.515625 39.378906 10.515625 C 39.53125 10.515625 39.675781 10.457031 39.789062 10.34375 L 41.003906 9.121094 C 41.230469 8.894531 41.230469 8.527344 41.003906 8.300781 L 39.789062 7.078125 C 39.621094 6.914062 39.375 6.863281 39.160156 6.953125 C 38.941406 7.042969 38.800781 7.253906 38.800781 7.488281 L 38.800781 9.933594 C 38.800781 10.171875 38.941406 10.382812 39.160156 10.472656 Z M 39.441406 7.636719 L 40.511719 8.714844 L 39.441406 9.789062 Z M 39.441406 7.636719 " fill-opacity="1" fill-rule="nonzero"></path><path fill="rgb(19.60907%, 12.159729%, 47.839355%)" d="M 36.375 37.472656 L 37.835938 37.472656 C 38.011719 37.472656 38.15625 37.328125 38.15625 37.152344 L 38.15625 33.734375 C 38.15625 33.558594 38.011719 33.417969 37.835938 33.417969 L 36.375 33.417969 C 36.199219 33.417969 36.058594 33.558594 36.058594 33.734375 L 36.058594 37.152344 C 36.058594 37.328125 36.199219 37.472656 36.375 37.472656 Z M 36.695312 34.054688 L 37.519531 34.054688 L 37.519531 36.832031 L 36.695312 36.832031 Z M 36.695312 34.054688 " fill-opacity="1" fill-rule="nonzero"></path><path fill="rgb(19.60907%, 12.159729%, 47.839355%)" d="M 39.257812 37.472656 L 40.71875 37.472656 C 40.894531 37.472656 41.039062 37.328125 41.039062 37.152344 L 41.039062 33.128906 C 41.039062 32.953125 40.894531 32.808594 40.71875 32.808594 L 39.257812 32.808594 C 39.082031 32.808594 38.941406 32.953125 38.941406 33.128906 L 38.941406 37.152344 C 38.941406 37.328125 39.082031 37.472656 39.257812 37.472656 Z M 39.578125 33.449219 L 40.398438 33.449219 L 40.398438 36.832031 L 39.578125 36.832031 Z M 39.578125 33.449219 " fill-opacity="1" fill-rule="nonzero"></path><path fill="rgb(19.60907%, 12.159729%, 47.839355%)" d="M 42.140625 37.472656 L 43.601562 37.472656 C 43.777344 37.472656 43.917969 37.328125 43.917969 37.152344 L 43.917969 32.488281 C 43.917969 32.3125 43.777344 32.167969 43.601562 32.167969 L 42.140625 32.167969 C 41.964844 32.167969 41.820312 32.3125 41.820312 32.488281 L 41.820312 37.152344 C 41.820312 37.328125 41.964844 37.472656 42.140625 37.472656 Z M 42.457031 32.8125 L 43.28125 32.8125 L 43.28125 36.832031 L 42.457031 36.832031 Z M 42.457031 32.8125 " fill-opacity="1" fill-rule="nonzero"></path><g clip-path="url(#id1)"><path fill="rgb(19.60907%, 12.159729%, 47.839355%)" d="M 4.492188 45.460938 L 0.664062 45.460938 C 0.488281 45.460938 0.347656 45.601562 0.347656 45.78125 C 0.347656 45.957031 0.488281 46.097656 0.664062 46.097656 L 4.492188 46.097656 C 4.667969 46.097656 4.808594 45.957031 4.808594 45.78125 C 4.808594 45.601562 4.667969 45.460938 4.492188 45.460938 Z M 4.492188 45.460938 " fill-opacity="1" fill-rule="nonzero"></path></g><g clip-path="url(#id2)"><path fill="rgb(19.60907%, 12.159729%, 47.839355%)" d="M 51.097656 45.460938 L 47.273438 45.460938 C 47.097656 45.460938 46.953125 45.601562 46.953125 45.78125 C 46.953125 45.957031 47.097656 46.097656 47.273438 46.097656 L 51.097656 46.097656 C 51.273438 46.097656 51.417969 45.957031 51.417969 45.78125 C 51.417969 45.601562 51.273438 45.460938 51.097656 45.460938 Z M 51.097656 45.460938 " fill-opacity="1" fill-rule="nonzero"></path></g><g clip-path="url(#id3)"><path fill="rgb(19.60907%, 12.159729%, 47.839355%)" d="M 45.105469 45.460938 L 6.65625 45.460938 C 6.480469 45.460938 6.339844 45.601562 6.339844 45.78125 C 6.339844 45.957031 6.480469 46.097656 6.65625 46.097656 L 45.105469 46.097656 C 45.28125 46.097656 45.425781 45.957031 45.425781 45.78125 C 45.425781 45.601562 45.28125 45.460938 45.105469 45.460938 Z M 45.105469 45.460938 " fill-opacity="1" fill-rule="nonzero"></path></g><g clip-path="url(#id4)"><path fill="rgb(19.60907%, 12.159729%, 47.839355%)" d="M 0.664062 42.789062 L 51.097656 42.789062 C 51.273438 42.789062 51.417969 42.648438 51.417969 42.472656 C 51.417969 42.292969 51.273438 42.152344 51.097656 42.152344 L 31.003906 42.152344 C 31.140625 41.933594 31.222656 41.679688 31.222656 41.40625 L 31.222656 35.886719 C 31.222656 35.125 30.605469 34.5 29.84375 34.5 L 26.199219 34.5 L 26.199219 32.378906 C 28.863281 32.300781 31.277344 31.222656 33.089844 29.511719 L 34.875 31.304688 C 34.730469 31.523438 34.648438 31.78125 34.648438 32.0625 L 34.648438 37.578125 C 34.648438 38.34375 35.265625 38.964844 36.027344 38.964844 L 43.949219 38.964844 C 44.710938 38.964844 45.328125 38.34375 45.328125 37.578125 L 45.328125 32.0625 C 45.328125 31.300781 44.710938 30.675781 43.949219 30.675781 L 36.027344 30.675781 C 35.777344 30.675781 35.542969 30.746094 35.335938 30.863281 L 33.539062 29.058594 C 35.3125 27.164062 36.40625 24.617188 36.40625 21.816406 C 36.40625 19.019531 35.3125 16.472656 33.539062 14.578125 L 35.402344 12.707031 C 35.589844 12.800781 35.800781 12.859375 36.027344 12.859375 L 43.949219 12.859375 C 44.710938 12.859375 45.328125 12.234375 45.328125 11.472656 L 45.328125 5.953125 C 45.328125 5.191406 44.710938 4.566406 43.949219 4.566406 L 36.027344 4.566406 C 35.265625 4.566406 34.648438 5.191406 34.648438 5.953125 L 34.648438 11.472656 C 34.648438 11.777344 34.746094 12.058594 34.914062 12.289062 L 33.089844 14.125 C 31.277344 12.410156 28.863281 11.335938 26.199219 11.253906 L 26.199219 9.132812 L 29.84375 9.132812 C 30.605469 9.132812 31.222656 8.511719 31.222656 7.746094 L 31.222656 2.230469 C 31.222656 1.464844 30.605469 0.84375 29.84375 0.84375 L 21.921875 0.84375 C 21.160156 0.84375 20.539062 1.464844 20.539062 2.230469 L 20.539062 7.746094 C 20.539062 8.511719 21.160156 9.132812 21.921875 9.132812 L 25.5625 9.132812 L 25.5625 11.253906 C 22.902344 11.335938 20.488281 12.410156 18.675781 14.125 L 16.847656 12.289062 C 17.015625 12.058594 17.117188 11.777344 17.117188 11.472656 L 17.117188 5.953125 C 17.117188 5.191406 16.496094 4.566406 15.738281 4.566406 L 7.816406 4.566406 C 7.054688 4.566406 6.433594 5.191406 6.433594 5.953125 L 6.433594 11.472656 C 6.433594 12.234375 7.054688 12.859375 7.816406 12.859375 L 15.738281 12.859375 C 15.960938 12.859375 16.171875 12.800781 16.359375 12.707031 L 18.226562 14.578125 C 16.449219 16.472656 15.359375 19.019531 15.359375 21.816406 C 15.359375 24.617188 16.449219 27.164062 18.226562 29.058594 L 16.425781 30.863281 C 16.222656 30.746094 15.988281 30.675781 15.734375 30.675781 L 7.816406 30.675781 C 7.054688 30.675781 6.433594 31.296875 6.433594 32.0625 L 6.433594 37.578125 C 6.433594 38.34375 7.054688 38.964844 7.816406 38.964844 L 15.738281 38.964844 C 16.496094 38.964844 17.117188 38.34375 17.117188 37.578125 L 17.117188 32.0625 C 17.117188 31.785156 17.03125 31.523438 16.890625 31.304688 L 18.675781 29.511719 C 20.488281 31.226562 22.902344 32.300781 25.5625 32.382812 L 25.5625 34.5 L 21.921875 34.5 C 21.160156 34.5 20.539062 35.125 20.539062 35.886719 L 20.539062 41.40625 C 20.539062 41.679688 20.621094 41.933594 20.757812 42.152344 L 0.664062 42.152344 C 0.488281 42.152344 0.347656 42.292969 0.347656 42.472656 C 0.347656 42.648438 0.488281 42.789062 0.664062 42.789062 Z M 21.179688 7.746094 L 21.179688 2.230469 C 21.179688 1.820312 21.511719 1.484375 21.921875 1.484375 L 29.84375 1.484375 C 30.253906 1.484375 30.585938 1.820312 30.585938 2.230469 L 30.585938 7.746094 C 30.585938 8.160156 30.253906 8.492188 29.84375 8.492188 L 21.921875 8.492188 C 21.511719 8.492188 21.179688 8.160156 21.179688 7.746094 Z M 43.949219 31.316406 C 44.359375 31.316406 44.691406 31.652344 44.691406 32.0625 L 44.691406 37.578125 C 44.691406 37.992188 44.359375 38.324219 43.949219 38.324219 L 36.027344 38.324219 C 35.617188 38.324219 35.285156 37.992188 35.285156 37.578125 L 35.285156 32.0625 C 35.285156 31.652344 35.617188 31.316406 36.027344 31.316406 Z M 35.285156 5.953125 C 35.285156 5.542969 35.617188 5.207031 36.027344 5.207031 L 43.949219 5.207031 C 44.359375 5.207031 44.691406 5.542969 44.691406 5.953125 L 44.691406 11.472656 C 44.691406 11.882812 44.359375 12.21875 43.949219 12.21875 L 36.027344 12.21875 C 35.617188 12.21875 35.285156 11.882812 35.285156 11.472656 Z M 7.816406 12.21875 C 7.40625 12.21875 7.070312 11.882812 7.070312 11.472656 L 7.070312 5.953125 C 7.070312 5.542969 7.40625 5.207031 7.816406 5.207031 L 15.738281 5.207031 C 16.144531 5.207031 16.480469 5.542969 16.480469 5.953125 L 16.480469 11.472656 C 16.480469 11.882812 16.144531 12.21875 15.738281 12.21875 Z M 25.882812 11.886719 C 31.332031 11.886719 35.765625 16.34375 35.765625 21.816406 C 35.765625 27.292969 31.332031 31.75 25.882812 31.75 C 20.429688 31.75 15.996094 27.292969 15.996094 21.816406 C 15.996094 16.34375 20.429688 11.886719 25.882812 11.886719 Z M 16.480469 37.578125 C 16.480469 37.992188 16.144531 38.324219 15.738281 38.324219 L 7.816406 38.324219 C 7.40625 38.324219 7.070312 37.992188 7.070312 37.578125 L 7.070312 32.0625 C 7.070312 31.652344 7.40625 31.316406 7.816406 31.316406 L 15.738281 31.316406 C 16.144531 31.316406 16.480469 31.652344 16.480469 32.0625 Z M 21.179688 41.40625 L 21.179688 35.886719 C 21.179688 35.476562 21.511719 35.140625 21.921875 35.140625 L 29.84375 35.140625 C 30.253906 35.140625 30.585938 35.476562 30.585938 35.886719 L 30.585938 41.40625 C 30.585938 41.816406 30.253906 42.152344 29.84375 42.152344 L 21.921875 42.152344 C 21.511719 42.152344 21.179688 41.816406 21.179688 41.40625 Z M 21.179688 41.40625 " fill-opacity="1" fill-rule="nonzero"></path></g></svg>