<svg xmlns="http://www.w3.org/2000/svg" xmlns:xlink="http://www.w3.org/1999/xlink" width="69" viewBox="0 0 51.75 47.25" height="63" preserveAspectRatio="xMidYMid meet"><defs><clipPath id="id1"><path d="M 0.28125 0.613281 L 51.222656 0.613281 L 51.222656 45.867188 L 0.28125 45.867188 Z M 0.28125 0.613281 " clip-rule="nonzero"></path></clipPath><clipPath id="id2"><path d="M 0.28125 11 L 50 11 L 50 45.867188 L 0.28125 45.867188 Z M 0.28125 11 " clip-rule="nonzero"></path></clipPath><clipPath id="id3"><path d="M 3 7 L 51.222656 7 L 51.222656 45 L 3 45 Z M 3 7 " clip-rule="nonzero"></path></clipPath><clipPath id="id4"><path d="M 3 10 L 50 10 L 50 45.867188 L 3 45.867188 Z M 3 10 " clip-rule="nonzero"></path></clipPath></defs><g clip-path="url(#id1)"><path fill="rgb(96.078491%, 96.078491%, 96.078491%)" d="M 20.132812 3.890625 C 19.976562 3.734375 19.976562 3.480469 20.132812 3.324219 L 20.359375 3.097656 C 20.519531 2.941406 20.773438 2.941406 20.929688 3.097656 L 22.675781 4.835938 C 22.835938 4.992188 22.835938 5.246094 22.675781 5.402344 L 22.449219 5.628906 C 22.292969 5.785156 22.039062 5.785156 21.882812 5.628906 Z M 30.386719 5.511719 C 30.542969 5.667969 30.796875 5.667969 30.953125 5.511719 L 32.703125 3.773438 C 32.859375 3.617188 32.859375 3.367188 32.703125 3.210938 L 32.476562 2.984375 C 32.320312 2.828125 32.066406 2.828125 31.90625 2.984375 L 30.160156 4.722656 C 30.003906 4.878906 30.003906 5.132812 30.160156 5.289062 Z M 18.152344 9.929688 L 20.625 9.929688 C 20.84375 9.929688 21.023438 9.753906 21.023438 9.53125 L 21.023438 9.210938 C 21.023438 8.992188 20.84375 8.8125 20.625 8.8125 L 18.152344 8.8125 C 17.929688 8.8125 17.75 8.992188 17.75 9.210938 L 17.75 9.53125 C 17.75 9.753906 17.929688 9.929688 18.152344 9.929688 Z M 26.234375 3.871094 L 26.554688 3.871094 C 26.777344 3.871094 26.957031 3.691406 26.957031 3.472656 L 26.957031 1.011719 C 26.957031 0.792969 26.777344 0.613281 26.554688 0.613281 L 26.234375 0.613281 C 26.011719 0.613281 25.832031 0.792969 25.832031 1.011719 L 25.832031 3.472656 C 25.832031 3.691406 26.011719 3.871094 26.234375 3.871094 Z M 31.925781 9.050781 L 31.925781 9.371094 C 31.925781 9.589844 32.105469 9.769531 32.328125 9.769531 L 34.800781 9.769531 C 35.023438 9.769531 35.203125 9.589844 35.203125 9.371094 L 35.203125 9.050781 C 35.203125 8.828125 35.023438 8.652344 34.800781 8.652344 L 32.328125 8.652344 C 32.105469 8.652344 31.925781 8.828125 31.925781 9.050781 Z M 51.417969 34.5625 C 51.417969 35.390625 51.417969 36.84375 51.417969 37.671875 C 51.417969 38.015625 51.136719 38.296875 50.789062 38.296875 C 49 38.296875 43.90625 38.296875 42.121094 38.296875 C 41.773438 38.296875 41.492188 38.015625 41.492188 37.671875 L 41.492188 36.144531 L 37.882812 36.144531 L 38.085938 43.1875 L 35.398438 43.078125 L 35.1875 36.144531 L 34.414062 36.144531 L 33.976562 43.0625 L 33.09375 43.066406 C 33.09375 43.070312 33.09375 43.074219 33.09375 43.078125 L 32.925781 43.078125 C 32.882812 43.425781 32.828125 43.933594 32.832031 44.3125 C 32.960938 44.714844 32.980469 45.171875 32.972656 45.488281 L 29.894531 45.488281 L 29.640625 45.089844 C 30.230469 44.804688 30.988281 44.34375 31.28125 43.984375 C 31.371094 43.757812 31.433594 43.484375 31.464844 43.074219 L 31.421875 43.074219 L 31.707031 36.402344 L 31.714844 36.144531 L 18.269531 36.144531 L 18.183594 44.050781 C 18.359375 44.148438 18.53125 44.230469 18.679688 44.300781 C 19.167969 44.535156 19.082031 44.929688 19.082031 44.929688 L 18.171875 44.929688 L 18.164062 45.828125 L 17.777344 45.828125 L 17.765625 44.929688 L 15.5 44.929688 C 15.3125 44.191406 15.558594 43.929688 15.476562 43.132812 L 13.957031 43.132812 L 13.550781 41.792969 L 13.535156 41.792969 C 13.503906 41.792969 13.484375 41.769531 13.484375 41.742188 C 13.484375 41.71875 13.5 41.699219 13.519531 41.695312 L 12.878906 39.605469 L 12.871094 39.683594 L 13.945312 44.472656 C 13.960938 44.550781 13.941406 44.632812 13.886719 44.695312 C 13.832031 44.757812 13.75 44.785156 13.667969 44.777344 C 13.460938 44.757812 13.285156 44.605469 13.242188 44.398438 C 13.136719 43.925781 12.929688 43.007812 12.703125 41.992188 L 12.617188 43.132812 L 10.707031 43.132812 C 10.742188 43.195312 10.804688 43.292969 10.910156 43.441406 C 11.210938 43.871094 11.6875 44.113281 12.082031 44.300781 C 12.570312 44.535156 12.484375 44.929688 12.484375 44.929688 L 8.902344 44.929688 C 8.882812 44.855469 8.867188 44.785156 8.855469 44.71875 C 8.804688 44.761719 8.738281 44.785156 8.667969 44.777344 C 8.511719 44.761719 8.375 44.671875 8.296875 44.542969 L 8.328125 41.726562 C 8.523438 42.609375 8.710938 43.445312 8.839844 44.023438 C 8.875 43.753906 8.949219 43.484375 9.003906 43.132812 L 8.992188 43.132812 L 9.183594 41.789062 C 9.183594 41.792969 9.1875 41.792969 9.1875 41.792969 C 9.160156 41.792969 9.136719 41.769531 9.136719 41.742188 C 9.136719 41.714844 9.160156 41.691406 9.1875 41.691406 L 9.195312 41.691406 L 9.328125 40.746094 L 8.335938 40.746094 L 8.339844 40.4375 L 8.28125 45.828125 L 7.894531 45.828125 L 7.84375 41.582031 L 7.859375 42.699219 C 7.738281 42.160156 7.601562 41.558594 7.46875 40.964844 C 7.15625 42.367188 6.839844 43.785156 6.695312 44.417969 C 6.652344 44.625 6.476562 44.777344 6.269531 44.800781 C 6.1875 44.808594 6.105469 44.777344 6.050781 44.714844 C 5.996094 44.65625 5.976562 44.570312 5.992188 44.492188 L 6.835938 40.726562 L 2.34375 40.726562 C 2.015625 42.207031 1.667969 43.757812 1.515625 44.429688 C 1.46875 44.636719 1.296875 44.789062 1.085938 44.808594 C 1.007812 44.816406 0.925781 44.785156 0.871094 44.726562 C 0.816406 44.664062 0.796875 44.582031 0.8125 44.503906 L 2.398438 37.421875 L 2.425781 37.417969 L 1.808594 37.417969 L 1.597656 36.488281 C 1.519531 36.167969 0.917969 33.660156 0.457031 31.742188 C 0.328125 31.199219 0.453125 30.632812 0.796875 30.195312 C 1.144531 29.761719 1.671875 29.507812 2.226562 29.507812 L 2.289062 29.507812 L 2.289062 29.542969 C 2.398438 29.523438 2.511719 29.511719 2.625 29.511719 C 2.886719 29.511719 3.15625 29.511719 3.425781 29.511719 C 3.410156 29.285156 3.398438 29.054688 3.398438 28.820312 C 3.398438 28.414062 3.546875 28.097656 3.785156 27.882812 C 3.4375 27.59375 3.230469 27.15625 3.242188 26.6875 C 3.257812 26.03125 3.523438 25.273438 4.535156 24.953125 C 4.535156 24.953125 4.582031 24.660156 4.71875 24.300781 C 4.796875 23.933594 5.007812 23.59375 5.339844 23.355469 C 5.4375 23.28125 5.546875 23.226562 5.65625 23.179688 C 5.785156 23.121094 5.929688 23.082031 6.089844 23.0625 C 6.753906 22.996094 7.195312 23.199219 7.503906 23.609375 C 7.746094 23.929688 7.863281 24.421875 7.925781 24.832031 C 7.972656 25.128906 8.039062 25.417969 8.113281 25.710938 C 8.125 25.742188 8.128906 25.777344 8.136719 25.808594 C 8.550781 26.054688 8.828125 26.503906 8.828125 27.015625 C 8.828125 27.492188 8.59375 27.910156 8.230469 28.164062 L 9.609375 29.324219 L 9.707031 28.570312 C 9.714844 28.507812 9.769531 28.457031 9.832031 28.457031 L 12.957031 28.453125 L 15.296875 28.449219 C 15.359375 28.449219 15.402344 28.5 15.394531 28.5625 L 15.234375 29.808594 C 15.234375 29.808594 15.234375 29.804688 15.234375 29.804688 C 15.339844 29.839844 15.433594 29.886719 15.488281 29.941406 C 15.539062 29.996094 15.480469 30.230469 15.425781 30.273438 C 15.429688 30.28125 15.433594 30.289062 15.429688 30.296875 C 15.429688 30.296875 15.425781 30.296875 15.425781 30.296875 C 15.460938 30.347656 15.417969 30.542969 15.347656 30.597656 C 15.355469 30.601562 15.363281 30.605469 15.371094 30.609375 C 15.382812 30.613281 15.386719 30.625 15.382812 30.632812 C 15.414062 30.691406 15.359375 30.894531 15.277344 30.921875 C 15.277344 30.925781 15.269531 30.925781 15.265625 30.925781 C 15.273438 30.929688 15.273438 30.941406 15.269531 30.949219 C 15.269531 30.953125 15.265625 30.953125 15.261719 30.953125 C 15.285156 31.035156 15.253906 31.171875 15.148438 31.21875 C 15.121094 31.230469 15.089844 31.230469 15.054688 31.230469 L 14.910156 32.367188 L 16.34375 32.367188 L 16.34375 19.734375 C 14.28125 19.734375 9 19.734375 7.804688 19.734375 C 7.671875 19.734375 7.5625 19.625 7.5625 19.492188 L 7.5625 14.621094 L 7.21875 14.621094 C 7.167969 14.621094 7.121094 14.597656 7.085938 14.5625 C 7.046875 14.527344 7.027344 14.480469 7.027344 14.429688 C 7.027344 14.097656 7.027344 13.417969 7.027344 13.089844 C 7.027344 13.039062 7.046875 12.988281 7.085938 12.953125 C 7.121094 12.917969 7.167969 12.898438 7.21875 12.898438 C 7.53125 12.898438 8.144531 12.898438 8.457031 12.898438 C 8.507812 12.898438 8.554688 12.917969 8.589844 12.953125 C 8.625 12.988281 8.648438 13.039062 8.648438 13.089844 C 8.648438 13.246094 8.648438 13.484375 8.648438 13.730469 L 16.925781 13.730469 C 17.058594 13.730469 17.167969 13.835938 17.167969 13.96875 L 17.167969 14.386719 L 24.625 14.386719 L 24.625 14.207031 C 24.625 14.105469 24.710938 14.023438 24.8125 14.023438 L 24.980469 14.023438 C 24.875 13.050781 24.429688 12.140625 23.726562 11.441406 C 22.992188 10.707031 22.535156 9.691406 22.535156 8.574219 C 22.535156 7.679688 22.820312 6.851562 23.3125 6.183594 C 24.046875 5.175781 25.238281 4.519531 26.59375 4.507812 C 28.863281 4.492188 30.707031 6.320312 30.707031 8.574219 C 30.707031 9.6875 30.253906 10.699219 29.523438 11.433594 C 28.820312 12.136719 28.367188 13.046875 28.261719 14.023438 L 28.367188 14.023438 C 28.46875 14.023438 28.554688 14.105469 28.554688 14.207031 L 28.554688 14.386719 L 40.285156 14.386719 L 40.285156 11.109375 L 48.363281 11.109375 C 48.363281 10.925781 48.363281 10.753906 48.363281 10.628906 C 48.363281 10.582031 48.382812 10.535156 48.417969 10.5 C 48.453125 10.46875 48.5 10.449219 48.546875 10.449219 C 48.847656 10.449219 49.441406 10.449219 49.742188 10.449219 C 49.789062 10.449219 49.835938 10.46875 49.871094 10.5 C 49.90625 10.535156 49.925781 10.582031 49.925781 10.628906 C 49.925781 10.949219 49.925781 11.605469 49.925781 11.925781 C 49.925781 11.972656 49.90625 12.019531 49.871094 12.054688 C 49.835938 12.089844 49.789062 12.109375 49.742188 12.109375 L 49.457031 12.109375 L 49.457031 17.542969 L 48.027344 17.542969 L 48.027344 33.9375 C 49.160156 33.9375 50.171875 33.9375 50.789062 33.9375 C 51.136719 33.9375 51.417969 34.21875 51.417969 34.5625 Z M 48.371094 11.976562 Z M 48.480469 12.097656 Z M 48.511719 12.171875 C 48.511719 12.167969 48.507812 12.167969 48.507812 12.164062 C 48.507812 12.167969 48.511719 12.167969 48.511719 12.171875 Z M 48.546875 12.109375 C 48.535156 12.109375 48.523438 12.109375 48.511719 12.105469 C 48.523438 12.109375 48.535156 12.109375 48.546875 12.109375 Z M 48.328125 11.949219 C 48.339844 11.957031 48.355469 11.964844 48.371094 11.976562 C 48.355469 11.964844 48.339844 11.957031 48.328125 11.949219 Z M 48.191406 11.921875 C 48.210938 11.921875 48.230469 11.925781 48.25 11.925781 C 48.230469 11.925781 48.210938 11.921875 48.191406 11.921875 Z M 48.269531 11.933594 C 48.28125 11.933594 48.292969 11.9375 48.304688 11.941406 C 48.292969 11.9375 48.28125 11.933594 48.269531 11.933594 Z M 28.519531 15.421875 C 28.519531 15.421875 28.515625 15.421875 28.515625 15.421875 C 28.515625 15.421875 28.519531 15.421875 28.519531 15.421875 Z M 28.546875 15.480469 C 28.542969 15.476562 28.542969 15.472656 28.542969 15.46875 C 28.542969 15.472656 28.542969 15.476562 28.546875 15.480469 Z M 28.519531 14.765625 C 28.519531 14.765625 28.515625 14.765625 28.515625 14.765625 C 28.515625 14.765625 28.519531 14.765625 28.519531 14.765625 Z M 28.546875 14.707031 C 28.542969 14.710938 28.542969 14.714844 28.542969 14.71875 C 28.542969 14.714844 28.542969 14.710938 28.546875 14.707031 Z M 28.398438 15.347656 C 28.386719 15.347656 28.378906 15.34375 28.367188 15.34375 C 28.378906 15.34375 28.386719 15.347656 28.398438 15.347656 Z M 28.367188 14.839844 C 28.378906 14.839844 28.386719 14.839844 28.398438 14.839844 C 28.386719 14.839844 28.378906 14.839844 28.367188 14.839844 Z M 7.746094 33.394531 C 6.996094 33.398438 6.753906 33.40625 6.679688 33.414062 C 6.753906 33.40625 6.996094 33.398438 7.746094 33.394531 L 7.753906 34.023438 L 7.777344 36.007812 Z M 8.867188 32.316406 C 8.867188 32.316406 8.867188 32.320312 8.867188 32.316406 L 9.261719 32.316406 L 9.371094 31.457031 L 9.339844 31.460938 L 9.230469 32.316406 L 8.867188 32.316406 C 8.839844 32.289062 8.816406 32.253906 8.796875 32.21875 C 8.816406 32.253906 8.839844 32.289062 8.867188 32.316406 Z M 6.632812 33.320312 Z M 6.601562 33.328125 Z M 6.609375 33.324219 Z M 6.621094 33.320312 Z M 6.648438 33.316406 C 6.644531 33.316406 6.644531 33.316406 6.644531 33.316406 C 6.644531 33.316406 6.644531 33.316406 6.648438 33.316406 Z M 7.746094 33.292969 L 7.742188 33.050781 L 7.578125 33.050781 C 7.636719 33.097656 7.695312 33.144531 7.746094 33.195312 Z M 7.363281 33.296875 Z M 7.136719 33.296875 C 7.136719 33.296875 7.140625 33.296875 7.144531 33.296875 C 7.140625 33.296875 7.136719 33.296875 7.136719 33.296875 Z M 7.066406 33.296875 C 7.070312 33.296875 7.078125 33.296875 7.085938 33.296875 C 7.078125 33.296875 7.070312 33.296875 7.066406 33.296875 Z M 7.007812 33.300781 C 7.015625 33.300781 7.019531 33.300781 7.023438 33.300781 C 7.019531 33.300781 7.015625 33.300781 7.007812 33.300781 Z M 6.96875 33.300781 C 6.964844 33.300781 6.960938 33.300781 6.957031 33.300781 C 6.960938 33.300781 6.964844 33.300781 6.96875 33.300781 Z M 6.90625 33.300781 C 6.910156 33.300781 6.914062 33.300781 6.917969 33.300781 C 6.914062 33.300781 6.910156 33.300781 6.90625 33.300781 Z M 6.863281 33.304688 C 6.867188 33.300781 6.871094 33.300781 6.875 33.300781 C 6.871094 33.300781 6.867188 33.300781 6.863281 33.304688 Z M 6.824219 33.304688 C 6.828125 33.304688 6.828125 33.304688 6.832031 33.304688 C 6.828125 33.304688 6.828125 33.304688 6.824219 33.304688 Z M 6.789062 33.304688 C 6.789062 33.304688 6.792969 33.304688 6.792969 33.304688 C 6.792969 33.304688 6.789062 33.304688 6.789062 33.304688 Z M 6.753906 33.308594 C 6.757812 33.308594 6.757812 33.308594 6.761719 33.304688 C 6.757812 33.308594 6.757812 33.308594 6.753906 33.308594 Z M 6.726562 33.308594 C 6.730469 33.308594 6.730469 33.308594 6.730469 33.308594 C 6.730469 33.308594 6.730469 33.308594 6.726562 33.308594 Z M 6.703125 33.308594 C 6.703125 33.308594 6.703125 33.308594 6.707031 33.308594 C 6.703125 33.308594 6.703125 33.308594 6.703125 33.308594 Z M 6.679688 33.3125 C 6.679688 33.3125 6.683594 33.3125 6.683594 33.3125 C 6.683594 33.3125 6.679688 33.3125 6.679688 33.3125 Z M 6.660156 33.3125 C 6.660156 33.3125 6.664062 33.3125 6.664062 33.3125 C 6.664062 33.3125 6.660156 33.3125 6.660156 33.3125 Z M 6.53125 35.109375 C 6.53125 35.109375 6.53125 35.113281 6.535156 35.113281 C 6.53125 35.109375 6.53125 35.109375 6.53125 35.109375 Z M 6.761719 35.207031 C 6.757812 35.203125 6.753906 35.203125 6.746094 35.199219 C 6.753906 35.203125 6.757812 35.203125 6.761719 35.207031 Z M 7.175781 35.445312 C 7.171875 35.441406 7.171875 35.441406 7.167969 35.441406 C 7.171875 35.441406 7.171875 35.441406 7.175781 35.445312 Z M 7.363281 35.589844 C 7.363281 35.589844 7.363281 35.589844 7.363281 35.585938 C 7.363281 35.589844 7.363281 35.589844 7.363281 35.589844 Z M 7.582031 35.789062 C 7.582031 35.789062 7.582031 35.789062 7.582031 35.785156 C 7.582031 35.789062 7.582031 35.789062 7.582031 35.789062 Z M 6.671875 33.414062 C 6.667969 33.414062 6.667969 33.414062 6.664062 33.414062 C 6.667969 33.414062 6.667969 33.414062 6.671875 33.414062 Z M 14.636719 30.378906 C 14.636719 30.375 14.640625 30.375 14.640625 30.371094 C 14.640625 30.375 14.636719 30.375 14.636719 30.378906 Z M 14.625 31.039062 C 14.636719 31.050781 14.648438 31.0625 14.664062 31.074219 C 14.648438 31.0625 14.636719 31.050781 14.625 31.039062 Z M 14.601562 31.019531 C 14.582031 31 14.5625 30.976562 14.550781 30.957031 C 14.5625 30.976562 14.582031 31 14.601562 31.019531 Z M 14.800781 31.160156 C 14.792969 31.15625 14.78125 31.152344 14.773438 31.148438 C 14.78125 31.152344 14.792969 31.15625 14.800781 31.160156 Z M 14.734375 31.121094 C 14.722656 31.113281 14.707031 31.105469 14.695312 31.097656 C 14.707031 31.105469 14.722656 31.113281 14.734375 31.121094 Z M 15.132812 29.78125 C 15.121094 29.78125 15.109375 29.777344 15.097656 29.777344 C 15.109375 29.777344 15.121094 29.78125 15.132812 29.78125 Z M 14.988281 29.765625 C 15.007812 29.765625 15.027344 29.765625 15.046875 29.769531 C 15.027344 29.765625 15.007812 29.765625 14.988281 29.765625 Z M 14.753906 29.90625 C 14.757812 29.867188 14.777344 29.828125 14.824219 29.796875 C 14.84375 29.789062 14.863281 29.78125 14.882812 29.777344 C 14.863281 29.78125 14.84375 29.789062 14.824219 29.796875 C 14.777344 29.828125 14.757812 29.867188 14.753906 29.90625 Z M 14.898438 29.773438 C 14.917969 29.769531 14.941406 29.765625 14.964844 29.765625 C 14.941406 29.765625 14.917969 29.769531 14.898438 29.773438 Z M 14.539062 30.199219 C 14.539062 30.175781 14.546875 30.15625 14.558594 30.136719 C 14.589844 30.078125 14.652344 30.042969 14.71875 30.042969 C 14.722656 30.03125 14.734375 30.027344 14.742188 30.027344 C 14.746094 30.027344 14.761719 30.03125 14.792969 30.039062 C 14.761719 30.03125 14.746094 30.027344 14.742188 30.027344 C 14.734375 30.027344 14.722656 30.03125 14.71875 30.042969 C 14.652344 30.042969 14.589844 30.078125 14.558594 30.136719 C 14.546875 30.15625 14.539062 30.175781 14.539062 30.199219 Z M 14.527344 30.558594 C 14.519531 30.445312 14.589844 30.40625 14.640625 30.390625 C 14.589844 30.40625 14.519531 30.445312 14.527344 30.558594 Z M 14.511719 30.863281 C 14.5 30.785156 14.5625 30.734375 14.601562 30.710938 C 14.605469 30.707031 14.605469 30.703125 14.609375 30.703125 C 14.605469 30.703125 14.605469 30.707031 14.601562 30.710938 C 14.5625 30.734375 14.5 30.785156 14.511719 30.863281 Z M 9.296875 31.226562 L 7.921875 30.226562 L 7.871094 30.972656 C 7.871094 31 7.847656 31.023438 7.820312 31.023438 C 7.820312 31.023438 7.820312 31.019531 7.816406 31.019531 C 7.816406 31.019531 7.8125 31.019531 7.808594 31.019531 C 7.800781 31.054688 7.796875 31.09375 7.789062 31.132812 L 9.351562 31.367188 L 9.363281 31.273438 C 9.359375 31.269531 9.359375 31.269531 9.355469 31.269531 Z M 3.996094 27.734375 C 4 27.734375 4 27.734375 4 27.730469 C 4 27.734375 4 27.734375 3.996094 27.734375 Z M 4.105469 27.683594 C 4.113281 27.679688 4.121094 27.675781 4.128906 27.671875 C 4.121094 27.675781 4.113281 27.679688 4.105469 27.683594 Z M 2.136719 29.582031 C 2.132812 29.582031 2.128906 29.582031 2.125 29.582031 C 2.128906 29.582031 2.132812 29.582031 2.136719 29.582031 Z M 1.714844 29.757812 C 1.703125 29.761719 1.691406 29.769531 1.679688 29.773438 C 1.691406 29.769531 1.703125 29.761719 1.714844 29.757812 Z M 1.519531 29.882812 C 1.546875 29.863281 1.570312 29.847656 1.59375 29.832031 C 1.570312 29.847656 1.546875 29.863281 1.519531 29.882812 Z M 1.367188 30.011719 C 1.394531 29.988281 1.425781 29.960938 1.453125 29.9375 C 1.425781 29.960938 1.394531 29.988281 1.367188 30.011719 Z M 1.195312 30.199219 C 1.234375 30.152344 1.277344 30.105469 1.320312 30.058594 C 1.277344 30.105469 1.234375 30.152344 1.195312 30.199219 Z M 1.164062 33.046875 C 1.179688 33.105469 1.195312 33.164062 1.207031 33.222656 C 1.195312 33.164062 1.179688 33.105469 1.164062 33.046875 Z M 0.851562 31.742188 C 0.910156 31.988281 0.972656 32.242188 1.035156 32.5 C 0.972656 32.242188 0.910156 31.988281 0.851562 31.742188 Z M 1.050781 32.558594 C 1.074219 32.671875 1.101562 32.785156 1.128906 32.898438 C 1.101562 32.785156 1.074219 32.671875 1.050781 32.558594 Z M 7.820312 39.457031 L 7.820312 39.402344 C 7.777344 39.597656 7.730469 39.796875 7.683594 40 C 7.730469 39.804688 7.773438 39.613281 7.8125 39.429688 C 7.816406 39.4375 7.816406 39.449219 7.820312 39.457031 Z M 7.625 40.265625 Z M 9.40625 40.207031 L 9.855469 37.042969 C 9.859375 37.046875 9.859375 37.046875 9.863281 37.046875 C 9.851562 37.046875 9.839844 37.042969 9.828125 37.035156 C 9.816406 37.023438 9.8125 37.011719 9.8125 36.996094 L 8.378906 37.003906 L 8.378906 36.824219 L 8.417969 33.542969 L 8.417969 33.519531 L 8.34375 40.207031 Z M 9.824219 36.964844 C 9.820312 36.96875 9.816406 36.972656 9.816406 36.980469 C 9.816406 36.972656 9.820312 36.96875 9.824219 36.964844 Z M 16.878906 41.785156 C 16.878906 41.785156 16.878906 41.785156 16.882812 41.785156 C 16.878906 41.785156 16.878906 41.785156 16.878906 41.785156 Z M 17.753906 43.78125 L 17.625 33.054688 L 17.660156 36.144531 L 16.34375 36.144531 L 16.34375 33.054688 L 8.421875 33.054688 L 8.417969 33.347656 L 11.835938 33.570312 C 11.871094 33.574219 11.902344 33.578125 11.933594 33.582031 L 13.890625 33.710938 C 14.71875 33.765625 15.214844 34.355469 15.398438 35.164062 L 16.882812 41.699219 C 16.894531 41.710938 16.90625 41.722656 16.90625 41.742188 C 16.90625 41.75 16.902344 41.761719 16.898438 41.769531 L 17.207031 43.132812 L 17.175781 43.132812 C 17.21875 43.214844 17.285156 43.332031 17.375 43.441406 C 17.480469 43.566406 17.613281 43.679688 17.753906 43.78125 Z M 46.667969 36.144531 L 47.453125 36.996094 Z M 38.308594 45.695312 C 38.324219 45.785156 38.253906 45.867188 38.164062 45.867188 L 35.558594 45.867188 C 35.476562 45.867188 35.410156 45.796875 35.410156 45.714844 C 35.410156 45.429688 35.414062 45.179688 35.421875 44.960938 C 35.421875 44.953125 35.421875 44.941406 35.421875 44.933594 C 35.421875 44.902344 35.425781 44.871094 35.425781 44.84375 C 35.425781 44.828125 35.425781 44.8125 35.425781 44.796875 C 35.429688 44.773438 35.429688 44.75 35.429688 44.722656 C 35.429688 44.699219 35.429688 44.679688 35.433594 44.65625 C 35.433594 44.640625 35.433594 44.625 35.433594 44.609375 C 35.4375 44.570312 35.4375 44.53125 35.4375 44.496094 C 35.460938 43.988281 35.492188 43.628906 35.492188 43.152344 C 35.492188 43.128906 35.492188 43.105469 35.492188 43.078125 L 36.859375 43.136719 C 36.851562 43.40625 36.875 43.671875 36.972656 43.933594 C 36.980469 43.953125 36.984375 43.972656 36.992188 43.992188 C 36.992188 43.992188 36.996094 43.992188 36.996094 43.996094 C 37.011719 44.039062 37.035156 44.082031 37.058594 44.125 C 37.066406 44.140625 37.078125 44.15625 37.085938 44.167969 C 37.101562 44.195312 37.121094 44.222656 37.136719 44.25 C 37.148438 44.265625 37.164062 44.28125 37.175781 44.296875 C 37.191406 44.320312 37.210938 44.34375 37.226562 44.363281 C 37.242188 44.382812 37.257812 44.398438 37.269531 44.414062 C 37.289062 44.433594 37.308594 44.453125 37.324219 44.472656 C 37.34375 44.492188 37.359375 44.507812 37.375 44.523438 C 37.394531 44.539062 37.410156 44.558594 37.429688 44.578125 C 37.449219 44.59375 37.46875 44.609375 37.484375 44.628906 C 37.503906 44.644531 37.519531 44.660156 37.539062 44.675781 C 37.613281 44.742188 37.691406 44.808594 37.765625 44.875 C 37.773438 44.882812 37.78125 44.890625 37.792969 44.902344 C 37.792969 44.902344 37.792969 44.902344 37.792969 44.898438 C 38.039062 45.125 38.253906 45.359375 38.308594 45.695312 Z M 35.578125 44.519531 C 35.570312 44.519531 35.5625 44.519531 35.554688 44.519531 C 35.5625 44.519531 35.570312 44.519531 35.578125 44.519531 Z M 35.886719 44.351562 C 35.910156 44.328125 35.9375 44.300781 35.960938 44.277344 C 35.9375 44.300781 35.910156 44.328125 35.886719 44.351562 C 35.867188 44.375 35.847656 44.390625 35.828125 44.40625 C 35.847656 44.390625 35.867188 44.375 35.886719 44.351562 Z M 35.628906 44.511719 C 35.617188 44.515625 35.609375 44.515625 35.601562 44.515625 C 35.609375 44.515625 35.617188 44.515625 35.628906 44.511719 Z M 35.699219 44.492188 C 35.683594 44.5 35.664062 44.503906 35.648438 44.507812 C 35.664062 44.503906 35.683594 44.5 35.699219 44.492188 Z M 35.753906 44.464844 C 35.738281 44.472656 35.726562 44.480469 35.710938 44.484375 C 35.726562 44.480469 35.738281 44.472656 35.753906 44.464844 Z M 35.8125 44.421875 C 35.796875 44.433594 35.785156 44.441406 35.773438 44.449219 C 35.785156 44.441406 35.796875 44.433594 35.8125 44.421875 Z M 36.902344 43.914062 C 36.761719 43.882812 36.617188 43.894531 36.480469 43.941406 C 36.503906 43.929688 36.53125 43.921875 36.558594 43.917969 C 36.605469 43.90625 36.648438 43.898438 36.695312 43.898438 C 36.765625 43.894531 36.835938 43.898438 36.902344 43.914062 Z M 36.035156 44.207031 C 36.019531 44.222656 36 44.238281 35.984375 44.257812 C 36 44.238281 36.019531 44.222656 36.035156 44.207031 Z M 36.117188 44.140625 C 36.097656 44.15625 36.082031 44.171875 36.0625 44.183594 C 36.082031 44.171875 36.097656 44.15625 36.117188 44.140625 Z M 36.292969 44.023438 C 36.242188 44.050781 36.191406 44.085938 36.140625 44.125 C 36.191406 44.085938 36.242188 44.050781 36.292969 44.023438 Z M 36.316406 44.011719 C 36.335938 44 36.355469 43.992188 36.371094 43.984375 C 36.355469 43.992188 36.335938 44 36.316406 44.011719 Z M 36.453125 43.949219 C 36.4375 43.957031 36.417969 43.960938 36.398438 43.96875 C 36.417969 43.960938 36.4375 43.957031 36.453125 43.949219 Z M 29.640625 45.089844 C 29.550781 45.132812 29.464844 45.171875 29.382812 45.207031 C 29.035156 45.355469 28.945312 45.53125 28.921875 45.699219 C 28.910156 45.785156 28.980469 45.867188 29.070312 45.867188 L 32.8125 45.867188 C 32.890625 45.867188 32.953125 45.804688 32.960938 45.730469 C 32.964844 45.667969 32.96875 45.582031 32.972656 45.488281 L 29.894531 45.488281 Z M 29.640625 45.089844 " fill-opacity="1" fill-rule="nonzero"></path></g><g clip-path="url(#id2)"><path fill="rgb(87.838745%, 87.838745%, 87.838745%)" d="M 38.398438 32.082031 L 34.25 32.082031 L 34.25 25.445312 L 38.398438 25.445312 Z M 23.949219 19.953125 L 19.800781 19.953125 L 19.800781 32.019531 L 23.949219 32.019531 Z M 30.707031 23.855469 L 26.558594 23.855469 L 26.558594 32.019531 L 30.707031 32.019531 Z M 45.15625 20.527344 L 41.007812 20.527344 L 41.007812 32.082031 L 45.15625 32.082031 Z M 28.554688 15.980469 L 28.554688 15.53125 C 28.554688 15.429688 28.46875 15.34375 28.367188 15.34375 L 24.8125 15.34375 C 24.710938 15.34375 24.625 15.429688 24.625 15.53125 L 24.625 15.980469 C 24.625 16.082031 24.710938 16.164062 24.8125 16.164062 L 28.367188 16.164062 C 28.46875 16.164062 28.554688 16.082031 28.554688 15.980469 Z M 28.554688 14.65625 L 28.554688 14.207031 C 28.554688 14.105469 28.46875 14.023438 28.367188 14.023438 L 24.8125 14.023438 C 24.710938 14.023438 24.625 14.105469 24.625 14.207031 L 24.625 14.65625 C 24.625 14.757812 24.710938 14.839844 24.8125 14.839844 L 28.367188 14.839844 C 28.46875 14.839844 28.554688 14.757812 28.554688 14.65625 Z M 16.925781 13.730469 L 8.648438 13.730469 C 8.648438 13.992188 8.648438 14.257812 8.648438 14.429688 C 8.648438 14.480469 8.625 14.527344 8.589844 14.5625 C 8.554688 14.597656 8.507812 14.617188 8.457031 14.617188 L 7.5625 14.617188 L 7.5625 19.492188 C 7.5625 19.625 7.671875 19.734375 7.804688 19.734375 C 9.140625 19.734375 15.59375 19.734375 16.925781 19.734375 C 17.0625 19.734375 17.167969 19.625 17.167969 19.492188 L 17.167969 13.96875 C 17.167969 13.835938 17.058594 13.730469 16.925781 13.730469 Z M 11.804688 17.898438 C 11.746094 17.960938 11.660156 17.992188 11.574219 17.992188 C 11.070312 17.992188 10.125 17.992188 9.625 17.992188 C 9.539062 17.992188 9.453125 17.960938 9.394531 17.898438 C 9.332031 17.835938 9.296875 17.753906 9.296875 17.667969 C 9.296875 17.578125 9.332031 17.496094 9.394531 17.433594 C 9.453125 17.371094 9.539062 17.339844 9.625 17.339844 C 10.125 17.339844 11.070312 17.339844 11.574219 17.339844 C 11.660156 17.339844 11.746094 17.371094 11.804688 17.433594 C 11.867188 17.496094 11.902344 17.578125 11.902344 17.667969 C 11.902344 17.753906 11.867188 17.835938 11.804688 17.898438 Z M 11.804688 16.929688 C 11.746094 16.992188 11.660156 17.027344 11.574219 17.027344 C 11.070312 17.027344 10.125 17.027344 9.625 17.027344 C 9.539062 17.027344 9.453125 16.992188 9.394531 16.929688 C 9.332031 16.871094 9.296875 16.785156 9.296875 16.699219 C 9.296875 16.613281 9.332031 16.53125 9.394531 16.46875 C 9.453125 16.40625 9.539062 16.371094 9.625 16.371094 L 11.574219 16.371094 C 11.660156 16.371094 11.746094 16.40625 11.804688 16.46875 C 11.867188 16.53125 11.902344 16.613281 11.902344 16.699219 C 11.902344 16.785156 11.867188 16.871094 11.804688 16.929688 Z M 11.804688 15.964844 C 11.746094 16.027344 11.660156 16.0625 11.574219 16.0625 C 11.070312 16.0625 10.125 16.0625 9.625 16.0625 C 9.539062 16.0625 9.453125 16.027344 9.394531 15.964844 C 9.332031 15.902344 9.296875 15.820312 9.296875 15.734375 C 9.296875 15.648438 9.332031 15.5625 9.394531 15.503906 C 9.453125 15.441406 9.539062 15.40625 9.625 15.40625 L 11.574219 15.40625 C 11.660156 15.40625 11.746094 15.441406 11.804688 15.503906 C 11.867188 15.5625 11.902344 15.648438 11.902344 15.734375 C 11.902344 15.820312 11.867188 15.902344 11.804688 15.964844 Z M 48.804688 11.636719 C 48.820312 11.636719 48.835938 11.632812 48.847656 11.621094 L 49.144531 11.363281 L 49.441406 11.621094 C 49.445312 11.625 49.449219 11.628906 49.457031 11.632812 L 49.457031 11.46875 L 49.242188 11.277344 L 49.429688 11.109375 L 49.238281 11.109375 L 49.144531 11.195312 L 49.050781 11.109375 L 48.859375 11.109375 L 49.046875 11.277344 L 48.765625 11.527344 C 48.75 11.539062 48.742188 11.554688 48.742188 11.570312 C 48.742188 11.585938 48.746094 11.605469 48.757812 11.617188 C 48.769531 11.628906 48.789062 11.636719 48.804688 11.636719 Z M 48.546875 12.109375 C 48.523438 12.109375 48.503906 12.105469 48.480469 12.097656 C 48.503906 12.140625 48.519531 12.195312 48.519531 12.25 C 48.519531 12.429688 48.375 12.578125 48.191406 12.578125 L 41.382812 12.578125 C 41.199219 12.578125 41.050781 12.429688 41.050781 12.25 C 41.050781 12.070312 41.199219 11.921875 41.382812 11.921875 C 42.617188 11.921875 46.957031 11.921875 48.191406 11.921875 C 48.257812 11.921875 48.320312 11.941406 48.371094 11.976562 C 48.367188 11.960938 48.363281 11.941406 48.363281 11.925781 C 48.363281 11.730469 48.363281 11.40625 48.363281 11.109375 L 40.285156 11.109375 L 40.285156 17.542969 L 49.457031 17.542969 L 49.457031 12.109375 Z M 45.839844 16.085938 L 41.4375 16.054688 C 41.40625 16.054688 41.382812 16.027344 41.382812 15.996094 C 41.382812 15.964844 41.40625 15.941406 41.4375 15.941406 L 45.839844 15.972656 C 45.871094 15.972656 45.894531 16 45.894531 16.03125 C 45.894531 16.0625 45.871094 16.085938 45.839844 16.085938 Z M 45.839844 15.320312 L 41.4375 15.320312 C 41.40625 15.320312 41.382812 15.292969 41.382812 15.265625 C 41.382812 15.234375 41.40625 15.207031 41.4375 15.207031 L 45.839844 15.207031 C 45.871094 15.207031 45.894531 15.234375 45.894531 15.265625 C 45.894531 15.292969 45.871094 15.320312 45.839844 15.320312 Z M 45.839844 14.609375 L 41.4375 14.609375 C 41.40625 14.609375 41.382812 14.585938 41.382812 14.554688 C 41.382812 14.523438 41.40625 14.5 41.4375 14.5 L 45.839844 14.5 C 45.871094 14.5 45.894531 14.523438 45.894531 14.554688 C 45.894531 14.585938 45.871094 14.609375 45.839844 14.609375 Z M 48.429688 16.578125 L 46.335938 16.578125 L 46.335938 14.191406 L 48.429688 14.191406 Z M 48.234375 13.621094 L 41.425781 13.621094 C 41.242188 13.621094 41.09375 13.476562 41.09375 13.292969 C 41.09375 13.113281 41.242188 12.964844 41.425781 12.964844 C 42.660156 12.964844 46.996094 12.964844 48.234375 12.964844 C 48.414062 12.964844 48.5625 13.113281 48.5625 13.292969 C 48.5625 13.476562 48.414062 13.621094 48.234375 13.621094 Z M 5.8125 32.367188 L 5.8125 33.054688 L 7.742188 33.054688 L 7.777344 36.007812 C 7.253906 35.351562 6.445312 34.9375 5.550781 34.9375 C 4.078125 34.941406 2.363281 34.945312 1.621094 34.949219 C 1.394531 34.003906 1.101562 32.785156 0.851562 31.742188 C 0.722656 31.203125 0.847656 30.636719 1.195312 30.199219 C 1.46875 29.851562 1.859375 29.625 2.289062 29.542969 L 2.289062 29.507812 L 2.226562 29.507812 C 1.671875 29.507812 1.144531 29.761719 0.796875 30.195312 C 0.453125 30.632812 0.328125 31.203125 0.457031 31.742188 C 0.917969 33.660156 1.519531 36.167969 1.597656 36.488281 L 1.808594 37.417969 L 2.425781 37.417969 L 2.398438 37.421875 L 0.8125 44.503906 C 0.796875 44.582031 0.816406 44.664062 0.871094 44.726562 C 0.925781 44.785156 1.007812 44.816406 1.085938 44.808594 C 1.296875 44.789062 1.472656 44.636719 1.515625 44.429688 C 1.667969 43.757812 2.015625 42.207031 2.34375 40.726562 L 6.835938 40.726562 L 5.992188 44.492188 C 5.976562 44.570312 5.996094 44.65625 6.050781 44.714844 C 6.105469 44.777344 6.1875 44.808594 6.269531 44.800781 C 6.476562 44.777344 6.652344 44.625 6.695312 44.421875 C 6.894531 43.542969 7.425781 41.164062 7.820312 39.402344 L 7.894531 45.828125 L 8.28125 45.828125 L 8.421875 33.054688 L 17.625 33.054688 L 17.777344 45.828125 L 18.164062 45.828125 L 18.304688 33.054688 L 19.925781 33.054688 L 19.925781 32.367188 Z M 5.8125 32.367188 " fill-opacity="1" fill-rule="evenodd"></path></g><g clip-path="url(#id3)"><path fill="rgb(37.249756%, 66.268921%, 87.838745%)" d="M 28.367188 14.839844 C 28.386719 14.839844 28.40625 14.835938 28.425781 14.832031 L 28.425781 15.355469 C 28.40625 15.351562 28.386719 15.34375 28.367188 15.34375 L 24.816406 15.34375 L 24.816406 14.839844 Z M 28.550781 8.820312 C 28.652344 8.445312 28.65625 8.085938 28.460938 7.753906 C 28.445312 7.722656 28.40625 7.714844 28.375 7.730469 C 28.34375 7.75 28.335938 7.785156 28.351562 7.816406 C 28.511719 8.085938 28.519531 8.386719 28.449219 8.703125 C 28.355469 8.621094 28.238281 8.574219 28.109375 8.574219 C 27.933594 8.574219 27.769531 8.664062 27.675781 8.8125 L 27.613281 8.910156 L 27.550781 8.8125 C 27.457031 8.664062 27.292969 8.574219 27.117188 8.574219 C 26.941406 8.574219 26.777344 8.664062 26.683594 8.8125 L 26.621094 8.910156 L 26.558594 8.8125 C 26.464844 8.664062 26.300781 8.574219 26.125 8.574219 C 25.949219 8.574219 25.785156 8.664062 25.691406 8.8125 L 25.628906 8.910156 L 25.566406 8.8125 C 25.472656 8.664062 25.308594 8.574219 25.132812 8.574219 C 24.972656 8.574219 24.824219 8.648438 24.726562 8.773438 C 24.636719 8.433594 24.636719 8.109375 24.808594 7.816406 C 24.824219 7.785156 24.816406 7.746094 24.785156 7.730469 C 24.753906 7.714844 24.714844 7.722656 24.699219 7.753906 C 24.488281 8.109375 24.503906 8.503906 24.636719 8.910156 L 24.402344 9.273438 C 24.386719 9.296875 24.394531 9.328125 24.417969 9.34375 C 24.441406 9.359375 24.476562 9.351562 24.488281 9.328125 L 24.679688 9.035156 C 24.820312 9.410156 25.042969 9.792969 25.261719 10.171875 C 25.308594 10.25 25.351562 10.324219 25.394531 10.398438 C 25.785156 11.078125 25.828125 13.164062 25.832031 14.023438 L 25.957031 14.023438 C 25.957031 13.152344 25.914062 11.046875 25.503906 10.335938 C 25.460938 10.261719 25.417969 10.1875 25.371094 10.109375 C 25.136719 9.703125 24.894531 9.292969 24.765625 8.898438 L 24.785156 8.867188 C 24.863281 8.75 24.992188 8.679688 25.132812 8.679688 C 25.273438 8.679688 25.402344 8.75 25.476562 8.867188 L 25.566406 9.003906 L 25.492188 9.117188 C 25.460938 9.164062 25.460938 9.226562 25.488281 9.277344 C 25.515625 9.328125 25.570312 9.359375 25.628906 9.359375 C 25.6875 9.359375 25.738281 9.328125 25.765625 9.277344 C 25.792969 9.226562 25.792969 9.167969 25.761719 9.117188 L 25.691406 9.003906 L 25.777344 8.867188 C 25.855469 8.75 25.984375 8.679688 26.125 8.679688 C 26.265625 8.679688 26.394531 8.75 26.472656 8.867188 L 26.558594 9.003906 L 26.488281 9.117188 C 26.453125 9.164062 26.453125 9.226562 26.480469 9.277344 C 26.511719 9.328125 26.566406 9.359375 26.621094 9.359375 C 26.679688 9.359375 26.730469 9.328125 26.761719 9.277344 C 26.789062 9.226562 26.785156 9.167969 26.753906 9.117188 L 26.683594 9.003906 L 26.773438 8.867188 C 26.847656 8.75 26.976562 8.679688 27.117188 8.679688 C 27.257812 8.679688 27.386719 8.75 27.464844 8.867188 L 27.550781 9.003906 L 27.480469 9.117188 C 27.445312 9.164062 27.445312 9.226562 27.472656 9.277344 C 27.503906 9.328125 27.554688 9.359375 27.613281 9.359375 C 27.613281 9.359375 27.613281 9.359375 27.617188 9.359375 C 27.671875 9.359375 27.726562 9.328125 27.753906 9.277344 C 27.78125 9.226562 27.777344 9.167969 27.746094 9.117188 L 27.675781 9.003906 L 27.765625 8.867188 C 27.839844 8.75 27.96875 8.679688 28.109375 8.679688 C 28.230469 8.679688 28.339844 8.730469 28.417969 8.816406 C 28.296875 9.234375 28.039062 9.675781 27.785156 10.109375 C 27.742188 10.1875 27.699219 10.261719 27.65625 10.335938 C 27.246094 11.046875 27.199219 13.152344 27.199219 14.023438 L 27.328125 14.023438 C 27.328125 13.164062 27.375 11.078125 27.765625 10.398438 C 27.808594 10.324219 27.851562 10.25 27.894531 10.171875 C 28.132812 9.765625 28.375 9.351562 28.507812 8.953125 L 28.753906 9.332031 C 28.769531 9.355469 28.800781 9.363281 28.824219 9.347656 C 28.847656 9.332031 28.855469 9.300781 28.839844 9.277344 Z M 25.675781 9.226562 C 25.671875 9.238281 25.65625 9.253906 25.628906 9.257812 C 25.597656 9.257812 25.585938 9.238281 25.582031 9.230469 C 25.574219 9.21875 25.566406 9.199219 25.582031 9.171875 L 25.628906 9.101562 L 25.671875 9.171875 C 25.6875 9.199219 25.679688 9.21875 25.675781 9.226562 Z M 26.667969 9.226562 C 26.664062 9.238281 26.648438 9.253906 26.621094 9.257812 C 26.589844 9.257812 26.578125 9.238281 26.574219 9.230469 C 26.566406 9.21875 26.558594 9.199219 26.574219 9.171875 L 26.621094 9.101562 L 26.664062 9.171875 C 26.679688 9.199219 26.671875 9.21875 26.667969 9.226562 Z M 27.660156 9.226562 C 27.65625 9.238281 27.640625 9.253906 27.613281 9.257812 C 27.582031 9.257812 27.570312 9.238281 27.566406 9.230469 C 27.558594 9.21875 27.550781 9.199219 27.566406 9.171875 L 27.613281 9.101562 L 27.65625 9.171875 C 27.671875 9.199219 27.664062 9.21875 27.660156 9.226562 Z M 50.789062 33.9375 C 49 33.9375 43.90625 33.9375 42.121094 33.9375 C 41.773438 33.9375 41.492188 34.21875 41.492188 34.5625 L 41.492188 34.902344 L 51.417969 34.902344 L 51.417969 35.015625 L 41.492188 35.015625 L 41.492188 37.671875 C 41.492188 38.015625 41.773438 38.296875 42.121094 38.296875 C 43.90625 38.296875 49 38.296875 50.789062 38.296875 C 51.136719 38.296875 51.417969 38.015625 51.417969 37.671875 C 51.417969 36.84375 51.417969 35.390625 51.417969 34.5625 C 51.417969 34.21875 51.136719 33.9375 50.789062 33.9375 Z M 49.460938 34.484375 C 49.382812 34.484375 49.320312 34.421875 49.320312 34.34375 C 49.320312 34.265625 49.382812 34.203125 49.460938 34.203125 C 49.539062 34.203125 49.605469 34.265625 49.605469 34.34375 C 49.605469 34.421875 49.539062 34.484375 49.460938 34.484375 Z M 49.933594 34.484375 C 49.855469 34.484375 49.792969 34.421875 49.792969 34.34375 C 49.792969 34.265625 49.855469 34.203125 49.933594 34.203125 C 50.011719 34.203125 50.074219 34.265625 50.074219 34.34375 C 50.074219 34.421875 50.011719 34.484375 49.933594 34.484375 Z M 50.40625 34.484375 C 50.328125 34.484375 50.265625 34.421875 50.265625 34.34375 C 50.265625 34.265625 50.328125 34.203125 50.40625 34.203125 C 50.484375 34.203125 50.546875 34.265625 50.546875 34.34375 C 50.546875 34.421875 50.484375 34.484375 50.40625 34.484375 Z M 50.421875 37.417969 C 50.398438 37.4375 50.363281 37.433594 50.34375 37.410156 L 48.8125 35.664062 L 47.535156 36.996094 C 47.523438 37.007812 47.507812 37.011719 47.492188 37.011719 C 47.476562 37.011719 47.464844 37.007812 47.453125 36.996094 L 46.5 35.960938 L 45.109375 37.433594 C 45.097656 37.445312 45.078125 37.457031 45.066406 37.453125 C 45.050781 37.453125 45.035156 37.445312 45.027344 37.4375 L 43.984375 36.367188 L 42.652344 37.492188 C 42.640625 37.5 42.628906 37.507812 42.613281 37.507812 C 42.597656 37.507812 42.582031 37.5 42.570312 37.488281 C 42.550781 37.460938 42.554688 37.425781 42.578125 37.40625 L 43.949219 36.246094 C 43.972656 36.226562 44.007812 36.230469 44.027344 36.25 L 45.066406 37.316406 L 46.460938 35.839844 C 46.472656 35.828125 46.488281 35.824219 46.503906 35.824219 C 46.515625 35.820312 46.53125 35.832031 46.542969 35.839844 L 47.496094 36.875 L 48.773438 35.542969 C 48.785156 35.53125 48.800781 35.527344 48.816406 35.527344 C 48.832031 35.527344 48.847656 35.535156 48.855469 35.546875 L 50.429688 37.335938 C 50.449219 37.359375 50.445312 37.394531 50.421875 37.417969 Z M 48.546875 12.109375 L 49.742188 12.109375 C 49.789062 12.109375 49.835938 12.089844 49.871094 12.054688 C 49.90625 12.019531 49.925781 11.972656 49.925781 11.925781 C 49.925781 11.605469 49.925781 10.949219 49.925781 10.628906 C 49.925781 10.582031 49.90625 10.535156 49.871094 10.5 C 49.835938 10.46875 49.789062 10.449219 49.742188 10.449219 C 49.441406 10.449219 48.847656 10.449219 48.546875 10.449219 C 48.5 10.449219 48.453125 10.46875 48.417969 10.5 C 48.382812 10.535156 48.363281 10.582031 48.363281 10.628906 C 48.363281 10.949219 48.363281 11.605469 48.363281 11.925781 C 48.363281 11.972656 48.382812 12.019531 48.417969 12.054688 C 48.453125 12.089844 48.5 12.109375 48.546875 12.109375 Z M 48.765625 11.027344 C 48.738281 11.007812 48.734375 10.964844 48.757812 10.941406 C 48.78125 10.914062 48.820312 10.910156 48.847656 10.933594 L 49.144531 11.195312 L 49.441406 10.933594 C 49.46875 10.910156 49.507812 10.914062 49.53125 10.941406 C 49.554688 10.964844 49.550781 11.007812 49.523438 11.027344 L 49.242188 11.277344 L 49.523438 11.527344 C 49.539062 11.539062 49.546875 11.554688 49.546875 11.570312 C 49.546875 11.585938 49.542969 11.605469 49.53125 11.617188 C 49.519531 11.628906 49.5 11.636719 49.484375 11.636719 C 49.46875 11.636719 49.453125 11.632812 49.441406 11.621094 L 49.144531 11.363281 L 48.847656 11.621094 C 48.835938 11.632812 48.820312 11.636719 48.804688 11.636719 C 48.789062 11.636719 48.769531 11.628906 48.757812 11.617188 C 48.746094 11.605469 48.742188 11.585938 48.742188 11.570312 C 48.742188 11.554688 48.75 11.539062 48.761719 11.527344 L 49.046875 11.277344 Z M 12.484375 44.929688 L 8.902344 44.929688 C 8.714844 44.191406 8.894531 43.835938 9.003906 43.132812 L 10.707031 43.132812 C 10.742188 43.195312 10.804688 43.292969 10.910156 43.441406 C 11.210938 43.871094 11.6875 44.113281 12.082031 44.300781 C 12.570312 44.535156 12.484375 44.929688 12.484375 44.929688 Z M 14.234375 16.734375 L 15.179688 17.660156 C 15.011719 17.828125 14.804688 17.949219 14.578125 18.007812 C 13.871094 18.195312 13.144531 17.777344 12.953125 17.074219 C 12.765625 16.371094 13.183594 15.648438 13.890625 15.457031 C 14.601562 15.269531 15.328125 15.6875 15.519531 16.390625 C 15.546875 16.503906 15.5625 16.617188 15.5625 16.730469 Z M 19.082031 44.929688 L 15.5 44.929688 C 15.3125 44.191406 15.558594 43.929688 15.476562 43.132812 L 17.175781 43.132812 C 17.21875 43.214844 17.285156 43.332031 17.375 43.441406 C 17.710938 43.84375 18.285156 44.113281 18.679688 44.300781 C 19.167969 44.535156 19.082031 44.929688 19.082031 44.929688 Z M 7.21875 14.621094 L 8.457031 14.621094 C 8.507812 14.621094 8.554688 14.597656 8.589844 14.5625 C 8.625 14.527344 8.648438 14.480469 8.648438 14.429688 C 8.648438 14.097656 8.648438 13.417969 8.648438 13.089844 C 8.648438 13.039062 8.625 12.988281 8.589844 12.953125 C 8.554688 12.917969 8.507812 12.898438 8.457031 12.898438 C 8.144531 12.898438 7.53125 12.898438 7.21875 12.898438 C 7.167969 12.898438 7.121094 12.917969 7.085938 12.953125 C 7.046875 12.988281 7.027344 13.039062 7.027344 13.089844 C 7.027344 13.417969 7.027344 14.097656 7.027344 14.429688 C 7.027344 14.480469 7.046875 14.527344 7.085938 14.5625 C 7.121094 14.597656 7.167969 14.621094 7.21875 14.621094 Z M 7.445312 13.5 C 7.417969 13.476562 7.414062 13.433594 7.4375 13.410156 C 7.460938 13.382812 7.503906 13.378906 7.53125 13.402344 L 7.835938 13.671875 L 8.144531 13.402344 C 8.15625 13.390625 8.171875 13.382812 8.191406 13.386719 C 8.210938 13.386719 8.226562 13.394531 8.238281 13.40625 C 8.25 13.421875 8.253906 13.4375 8.253906 13.457031 C 8.253906 13.472656 8.246094 13.488281 8.230469 13.5 L 7.9375 13.757812 L 8.230469 14.015625 C 8.246094 14.027344 8.253906 14.042969 8.253906 14.0625 C 8.253906 14.078125 8.25 14.097656 8.238281 14.109375 C 8.226562 14.125 8.207031 14.132812 8.1875 14.132812 C 8.171875 14.132812 8.15625 14.125 8.144531 14.113281 L 7.835938 13.847656 L 7.53125 14.113281 C 7.519531 14.125 7.503906 14.132812 7.488281 14.132812 C 7.46875 14.132812 7.449219 14.125 7.4375 14.109375 C 7.414062 14.082031 7.417969 14.039062 7.441406 14.015625 L 7.738281 13.757812 Z M 25.394531 16.164062 L 27.847656 16.164062 C 27.707031 16.707031 27.210938 17.109375 26.621094 17.109375 C 26.03125 17.109375 25.535156 16.707031 25.394531 16.164062 Z M 12.703125 28.621094 L 9.984375 29.640625 L 7.777344 27.78125 C 7.699219 27.71875 7.613281 27.667969 7.53125 27.632812 C 7.4375 27.5625 7.320312 27.511719 7.171875 27.484375 C 7.105469 27.472656 7.039062 27.464844 6.976562 27.453125 L 6.957031 27.773438 C 6.917969 28.242188 6.535156 28.605469 6.0625 28.566406 C 5.585938 28.527344 5.234375 28.113281 5.277344 27.640625 L 5.320312 27.375 C 5.023438 27.417969 4.683594 27.5 4.242188 27.632812 C 3.753906 27.777344 3.398438 28.191406 3.398438 28.820312 C 3.402344 30.339844 3.769531 31.714844 4.214844 32.742188 C 4.433594 33.246094 7.074219 33.035156 7.25 32.691406 C 7.277344 32.628906 7.304688 32.570312 7.332031 32.511719 L 9.414062 32.480469 C 9.761719 32.476562 9.933594 32.234375 9.929688 31.890625 C 9.921875 31.574219 9.78125 31.417969 9.472656 31.386719 L 7.789062 31.132812 C 7.851562 30.828125 7.894531 30.527344 7.921875 30.226562 L 9.296875 31.226562 L 9.355469 31.269531 C 9.609375 31.457031 9.9375 31.464844 10.191406 31.316406 L 13.28125 29.578125 C 13.582031 29.402344 13.667969 29.175781 13.492188 28.878906 C 13.332031 28.605469 12.988281 28.5 12.703125 28.621094 Z M 8.730469 31.996094 C 8.730469 31.738281 8.917969 31.519531 9.175781 31.484375 L 9.371094 31.457031 L 9.261719 32.316406 L 8.867188 32.320312 C 8.785156 32.226562 8.730469 32.117188 8.730469 31.996094 Z M 39.089844 23.3125 C 39.117188 23.675781 39.140625 24.035156 39.164062 24.398438 L 37.859375 24.449219 C 37.75 25.328125 37.667969 26.140625 37.667969 26.53125 C 37.667969 27.371094 37.792969 28.847656 37.792969 29.460938 C 37.792969 29.621094 37.675781 29.757812 37.515625 29.785156 C 35.820312 30.070312 33.847656 30.0625 32.105469 29.785156 C 31.945312 29.757812 31.824219 29.621094 31.824219 29.457031 C 31.824219 28.84375 31.953125 27.367188 31.953125 26.53125 C 31.953125 26.136719 31.890625 25.316406 31.808594 24.433594 L 30.117188 23.527344 L 31.082031 21.628906 C 31.210938 21.351562 31.441406 21.152344 31.710938 21.058594 C 31.710938 21.058594 31.714844 21.058594 31.714844 21.058594 C 32.417969 20.765625 33.113281 20.570312 33.804688 20.472656 L 33.820312 20.683594 C 33.867188 21.238281 34.335938 21.660156 34.925781 21.609375 C 35.515625 21.558594 35.957031 21.070312 35.914062 20.519531 L 35.902344 20.464844 C 36.695312 20.570312 37.496094 20.796875 38.3125 21.148438 C 38.3125 21.148438 38.3125 21.152344 38.3125 21.15625 C 38.65625 21.3125 38.914062 21.636719 38.960938 22.035156 C 39.015625 22.460938 39.050781 22.886719 39.089844 23.3125 Z M 27.480469 25.730469 L 20.523438 25.730469 L 20.523438 18.804688 L 27.480469 18.804688 Z M 27.480469 25.730469 " fill-opacity="1" fill-rule="nonzero"></path></g><g clip-path="url(#id4)"><path fill="rgb(16.079712%, 19.60907%, 21.569824%)" d="M 32.289062 16.609375 C 32.28125 16.585938 32.292969 16.5625 32.3125 16.550781 C 32.328125 16.535156 32.355469 16.535156 32.375 16.546875 C 32.410156 16.570312 32.457031 16.589844 32.503906 16.601562 C 32.527344 16.605469 32.546875 16.601562 32.566406 16.585938 C 32.582031 16.574219 32.59375 16.550781 32.589844 16.53125 C 32.589844 16.53125 32.589844 16.535156 32.589844 16.535156 C 32.589844 16.539062 32.589844 16.539062 32.589844 16.539062 C 32.59375 16.582031 32.59375 16.605469 32.589844 16.535156 C 32.570312 16.113281 32.816406 15.71875 33.210938 15.554688 C 33.523438 15.421875 33.953125 15.316406 34.425781 15.402344 C 35.425781 15.585938 35.628906 16.414062 35.628906 16.414062 C 35.949219 16.535156 36.203125 16.78125 36.332031 17.09375 C 36.464844 17.410156 36.460938 17.761719 36.324219 18.070312 C 36.15625 18.445312 35.929688 18.800781 35.644531 18.886719 L 35.617188 18.71875 C 35.71875 18.640625 35.789062 18.535156 35.808594 18.414062 C 35.859375 18.117188 35.714844 17.84375 35.484375 17.804688 C 35.253906 17.765625 35.203125 17.980469 35.175781 18.128906 L 35.171875 18.167969 C 35.066406 18.164062 34.980469 18.164062 34.980469 18.164062 C 34.863281 17.824219 35.023438 17.289062 34.960938 16.882812 C 33.789062 16.648438 33.359375 17.140625 32.855469 16.9375 C 32.84375 16.980469 32.832031 17.023438 32.824219 17.070312 C 32.550781 17 32.339844 16.859375 32.289062 16.609375 Z M 9.1875 41.792969 C 9.1875 41.792969 9.183594 41.792969 9.183594 41.792969 L 8.992188 43.132812 L 12.617188 43.132812 L 12.71875 41.78125 C 12.710938 41.789062 12.699219 41.792969 12.6875 41.792969 Z M 16.855469 41.792969 L 13.550781 41.792969 L 13.957031 43.132812 L 17.207031 43.132812 L 16.898438 41.769531 C 16.886719 41.78125 16.875 41.792969 16.855469 41.792969 Z M 6.617188 32.378906 C 6.617188 32.441406 6.667969 32.488281 6.730469 32.488281 L 9.320312 32.488281 L 9.636719 32.484375 L 11.929688 32.484375 L 14.785156 32.480469 C 14.84375 32.480469 14.902344 32.429688 14.910156 32.367188 L 15.054688 31.230469 C 14.894531 31.226562 14.652344 31.109375 14.550781 30.957031 C 14.457031 30.820312 14.546875 30.742188 14.601562 30.710938 C 14.605469 30.707031 14.605469 30.703125 14.609375 30.703125 C 14.570312 30.671875 14.542969 30.640625 14.535156 30.613281 C 14.496094 30.457031 14.585938 30.40625 14.640625 30.390625 C 14.636719 30.386719 14.636719 30.382812 14.636719 30.378906 C 14.636719 30.375 14.640625 30.375 14.640625 30.371094 C 14.59375 30.339844 14.558594 30.304688 14.546875 30.273438 C 14.527344 30.21875 14.535156 30.175781 14.558594 30.136719 C 14.589844 30.078125 14.652344 30.042969 14.71875 30.042969 C 14.722656 30.03125 14.734375 30.027344 14.742188 30.027344 C 14.746094 30.027344 14.761719 30.03125 14.792969 30.039062 C 14.769531 30.011719 14.757812 29.980469 14.753906 29.949219 C 14.75 29.894531 14.761719 29.835938 14.824219 29.796875 C 14.910156 29.746094 15.082031 29.761719 15.234375 29.808594 L 15.394531 28.5625 C 15.402344 28.5 15.359375 28.453125 15.296875 28.453125 L 12.957031 28.453125 L 9.832031 28.457031 C 9.769531 28.457031 9.714844 28.507812 9.707031 28.570312 L 9.230469 32.316406 L 6.617188 32.320312 Z M 7.820312 31.023438 C 7.847656 31.023438 7.871094 31 7.871094 30.972656 L 7.964844 29.597656 C 7.96875 29.570312 7.945312 29.546875 7.917969 29.546875 C 7.890625 29.542969 7.867188 29.566406 7.863281 29.59375 L 7.769531 30.96875 C 7.769531 30.996094 7.789062 31.019531 7.816406 31.019531 C 7.820312 31.019531 7.820312 31.023438 7.820312 31.023438 Z M 6.5625 31.105469 C 6.9375 31.1875 7.363281 31.230469 7.367188 31.230469 C 7.367188 31.230469 7.367188 31.230469 7.371094 31.230469 C 7.394531 31.230469 7.417969 31.210938 7.421875 31.183594 C 7.421875 31.15625 7.402344 31.132812 7.375 31.128906 C 7.371094 31.128906 6.953125 31.085938 6.585938 31.003906 C 6.300781 30.941406 5.453125 29.765625 5.148438 29.316406 C 5.132812 29.292969 5.101562 29.289062 5.078125 29.304688 C 5.054688 29.320312 5.050781 29.351562 5.066406 29.375 C 5.179688 29.542969 6.1875 31.019531 6.5625 31.105469 Z M 3.976562 30.652344 C 3.960938 30.628906 3.929688 30.621094 3.90625 30.636719 C 3.882812 30.652344 3.875 30.683594 3.890625 30.707031 C 3.933594 30.769531 4.90625 32.308594 5.851562 32.417969 C 5.851562 32.417969 5.855469 32.417969 5.855469 32.417969 C 5.882812 32.417969 5.902344 32.398438 5.90625 32.371094 C 5.910156 32.34375 5.890625 32.320312 5.859375 32.316406 C 4.96875 32.214844 3.988281 30.667969 3.976562 30.652344 Z M 3.785156 27.882812 C 3.914062 27.769531 4.070312 27.683594 4.242188 27.632812 C 4.683594 27.5 5.023438 27.417969 5.320312 27.375 L 5.4375 26.628906 L 5.484375 26.070312 L 5.359375 25.765625 C 5.371094 25.753906 5.382812 25.738281 5.394531 25.726562 C 5.375 25.730469 5.351562 25.734375 5.332031 25.730469 C 5.078125 25.707031 4.882812 25.554688 4.839844 25.339844 C 4.785156 25.0625 4.914062 24.800781 5.128906 24.757812 C 5.34375 24.714844 5.398438 24.917969 5.429688 25.058594 L 5.515625 25.5 C 5.632812 25.195312 5.636719 24.796875 5.628906 24.589844 C 5.628906 24.589844 5.632812 24.589844 5.632812 24.589844 C 5.65625 24.589844 5.675781 24.589844 5.699219 24.589844 C 5.722656 24.589844 5.742188 24.589844 5.765625 24.589844 C 5.785156 24.589844 5.804688 24.589844 5.824219 24.585938 C 5.851562 24.585938 5.875 24.585938 5.902344 24.585938 C 5.921875 24.585938 5.941406 24.582031 5.960938 24.582031 C 5.988281 24.582031 6.015625 24.578125 6.046875 24.578125 C 6.066406 24.574219 6.085938 24.574219 6.101562 24.574219 C 6.132812 24.570312 6.164062 24.566406 6.195312 24.566406 C 6.214844 24.5625 6.230469 24.558594 6.25 24.558594 C 6.28125 24.554688 6.316406 24.550781 6.347656 24.546875 C 6.363281 24.542969 6.382812 24.539062 6.402344 24.535156 C 6.433594 24.53125 6.464844 24.527344 6.5 24.519531 C 6.515625 24.515625 6.535156 24.511719 6.550781 24.507812 C 6.585938 24.5 6.617188 24.492188 6.648438 24.484375 C 6.664062 24.480469 6.683594 24.476562 6.699219 24.472656 C 6.730469 24.460938 6.761719 24.449219 6.796875 24.441406 C 6.8125 24.433594 6.828125 24.429688 6.84375 24.421875 C 6.875 24.410156 6.90625 24.398438 6.9375 24.382812 C 6.949219 24.378906 6.964844 24.371094 6.980469 24.363281 C 7.007812 24.347656 7.039062 24.332031 7.070312 24.316406 C 7.082031 24.308594 7.09375 24.300781 7.105469 24.292969 C 7.136719 24.273438 7.164062 24.253906 7.191406 24.230469 C 7.203125 24.222656 7.210938 24.21875 7.222656 24.210938 C 7.25 24.183594 7.277344 24.160156 7.300781 24.132812 C 7.308594 24.125 7.316406 24.117188 7.324219 24.109375 C 7.351562 24.078125 7.378906 24.042969 7.402344 24.007812 C 7.402344 24.003906 7.40625 24 7.410156 23.996094 C 7.4375 23.953125 7.460938 23.910156 7.480469 23.863281 C 7.5625 24.023438 7.613281 24.203125 7.621094 24.398438 L 7.683594 25.789062 C 7.703125 26.234375 7.449219 26.660156 7.015625 26.847656 L 6.957031 27.773438 L 6.976562 27.453125 C 7.039062 27.464844 7.105469 27.476562 7.171875 27.484375 C 7.320312 27.511719 7.4375 27.566406 7.53125 27.632812 C 7.613281 27.667969 7.699219 27.71875 7.777344 27.78125 L 8.230469 28.164062 C 8.59375 27.910156 8.828125 27.492188 8.828125 27.015625 C 8.828125 26.503906 8.550781 26.054688 8.136719 25.808594 C 8.128906 25.777344 8.125 25.742188 8.113281 25.710938 C 8.039062 25.421875 7.972656 25.128906 7.925781 24.832031 C 7.863281 24.421875 7.746094 23.933594 7.503906 23.609375 C 7.195312 23.199219 6.753906 22.996094 6.089844 23.066406 C 5.929688 23.082031 5.785156 23.121094 5.65625 23.179688 C 5.546875 23.226562 5.4375 23.285156 5.339844 23.355469 C 5.007812 23.59375 4.796875 23.933594 4.71875 24.304688 C 4.582031 24.660156 4.539062 24.957031 4.539062 24.957031 C 3.523438 25.273438 3.257812 26.03125 3.242188 26.6875 C 3.230469 27.15625 3.4375 27.59375 3.785156 27.882812 Z M 31.8125 24.523438 C 31.8125 24.523438 31.816406 24.523438 31.816406 24.523438 C 31.84375 24.519531 31.867188 24.492188 31.863281 24.464844 L 31.6875 22.792969 C 31.6875 22.765625 31.660156 22.742188 31.632812 22.746094 C 31.605469 22.75 31.585938 22.773438 31.589844 22.800781 L 31.761719 24.476562 C 31.765625 24.503906 31.785156 24.523438 31.8125 24.523438 Z M 35.121094 23.425781 L 36.796875 23.425781 C 36.824219 23.425781 36.847656 23.445312 36.847656 23.472656 L 36.847656 24.226562 C 36.847656 24.710938 36.449219 25.109375 35.957031 25.109375 C 35.46875 25.109375 35.070312 24.710938 35.070312 24.226562 L 35.070312 23.472656 C 35.070312 23.445312 35.089844 23.425781 35.121094 23.425781 Z M 35.171875 24.226562 C 35.171875 24.65625 35.523438 25.007812 35.957031 25.007812 C 36.390625 25.007812 36.746094 24.65625 36.746094 24.226562 L 36.746094 23.523438 L 35.171875 23.523438 Z M 37.851562 24.496094 C 37.855469 24.496094 37.859375 24.496094 37.859375 24.496094 C 37.886719 24.496094 37.90625 24.476562 37.910156 24.453125 L 38.140625 22.769531 C 38.144531 22.742188 38.125 22.714844 38.097656 22.710938 C 38.070312 22.710938 38.046875 22.726562 38.042969 22.753906 L 37.808594 24.4375 C 37.804688 24.464844 37.824219 24.492188 37.851562 24.496094 Z M 38.308594 45.695312 C 38.253906 45.359375 38.039062 45.125 37.792969 44.898438 C 37.78125 44.890625 37.773438 44.882812 37.765625 44.875 C 37.691406 44.808594 37.613281 44.742188 37.539062 44.675781 C 37.519531 44.660156 37.503906 44.644531 37.484375 44.628906 C 37.464844 44.609375 37.449219 44.59375 37.429688 44.578125 C 37.410156 44.558594 37.394531 44.539062 37.375 44.523438 C 37.359375 44.507812 37.339844 44.488281 37.324219 44.472656 C 37.308594 44.453125 37.289062 44.433594 37.269531 44.414062 C 37.257812 44.398438 37.242188 44.382812 37.226562 44.363281 C 37.207031 44.34375 37.191406 44.320312 37.175781 44.296875 C 37.164062 44.28125 37.148438 44.265625 37.136719 44.25 C 37.121094 44.222656 37.101562 44.195312 37.085938 44.167969 C 37.078125 44.15625 37.066406 44.140625 37.058594 44.125 C 37.035156 44.082031 37.011719 44.039062 36.996094 43.992188 C 36.992188 43.992188 36.992188 43.992188 36.992188 43.992188 C 36.984375 43.972656 36.980469 43.953125 36.972656 43.933594 C 36.878906 43.90625 36.789062 43.890625 36.695312 43.898438 C 36.648438 43.898438 36.601562 43.90625 36.558594 43.917969 C 36.328125 43.96875 36.101562 44.125 35.886719 44.351562 C 35.753906 44.492188 35.632812 44.527344 35.53125 44.515625 C 35.5 44.515625 35.46875 44.507812 35.4375 44.496094 C 35.4375 44.53125 35.4375 44.570312 35.433594 44.609375 C 35.433594 44.625 35.433594 44.640625 35.433594 44.65625 C 35.429688 44.679688 35.429688 44.699219 35.429688 44.722656 C 35.429688 44.75 35.429688 44.773438 35.425781 44.796875 C 35.425781 44.8125 35.425781 44.828125 35.425781 44.84375 C 35.425781 44.871094 35.421875 44.902344 35.421875 44.933594 C 35.421875 44.941406 35.421875 44.953125 35.421875 44.960938 C 35.414062 45.179688 35.410156 45.425781 35.410156 45.714844 C 35.410156 45.796875 35.476562 45.863281 35.558594 45.863281 L 38.164062 45.863281 C 38.253906 45.863281 38.324219 45.785156 38.308594 45.695312 Z M 37.695312 29.691406 C 37.648438 29.738281 37.585938 29.773438 37.515625 29.785156 C 35.820312 30.070312 33.847656 30.0625 32.105469 29.785156 C 32.046875 29.773438 31.996094 29.75 31.953125 29.71875 L 31.707031 36.402344 L 31.421875 43.074219 L 33.09375 43.074219 C 33.09375 43.074219 33.09375 43.070312 33.097656 43.066406 L 33.976562 43.0625 L 34.714844 31.359375 L 34.800781 30.652344 L 35.019531 30.671875 L 35.398438 43.078125 L 38.085938 43.1875 Z M 31.28125 43.984375 C 30.992188 44.34375 30.230469 44.804688 29.640625 45.089844 L 29.894531 45.488281 L 32.972656 45.488281 C 32.980469 45.171875 32.960938 44.714844 32.832031 44.3125 C 32.453125 44.503906 31.78125 44.636719 31.28125 43.984375 Z M 29.640625 45.089844 C 29.550781 45.132812 29.464844 45.171875 29.382812 45.207031 C 29.035156 45.355469 28.945312 45.53125 28.921875 45.699219 C 28.910156 45.785156 28.980469 45.867188 29.070312 45.867188 L 32.8125 45.867188 C 32.890625 45.867188 32.953125 45.804688 32.960938 45.730469 C 32.964844 45.667969 32.96875 45.582031 32.972656 45.488281 L 29.894531 45.488281 Z M 5.203125 34.941406 C 5.320312 34.941406 5.4375 34.9375 5.550781 34.9375 C 5.628906 34.9375 5.703125 34.941406 5.777344 34.949219 C 5.796875 34.949219 5.8125 34.949219 5.828125 34.953125 C 5.90625 34.960938 5.980469 34.96875 6.050781 34.980469 C 6.054688 34.984375 6.058594 34.984375 6.0625 34.984375 C 6.132812 34.996094 6.203125 35.011719 6.273438 35.03125 C 6.285156 35.035156 6.300781 35.039062 6.3125 35.042969 C 6.386719 35.0625 6.457031 35.082031 6.527344 35.109375 C 6.53125 35.109375 6.53125 35.109375 6.535156 35.113281 C 6.605469 35.136719 6.671875 35.167969 6.742188 35.199219 C 6.75 35.199219 6.753906 35.203125 6.761719 35.207031 C 6.90625 35.273438 7.039062 35.351562 7.167969 35.441406 C 7.171875 35.441406 7.171875 35.441406 7.175781 35.445312 C 7.238281 35.488281 7.304688 35.539062 7.363281 35.585938 C 7.363281 35.585938 7.363281 35.589844 7.363281 35.589844 C 7.515625 35.714844 7.65625 35.851562 7.777344 36.007812 L 7.753906 34.023438 L 7.746094 33.394531 C 6.890625 33.398438 6.695312 33.410156 6.65625 33.414062 C 6.648438 33.417969 6.640625 33.417969 6.632812 33.417969 C 6.628906 33.417969 6.628906 33.417969 6.625 33.417969 C 6.597656 33.414062 6.578125 33.390625 6.582031 33.363281 C 6.585938 33.304688 6.585938 33.300781 7.746094 33.292969 L 7.746094 33.195312 C 7.695312 33.144531 7.636719 33.097656 7.578125 33.054688 L 5.8125 33.054688 L 5.8125 33.03125 C 5.101562 33.070312 4.363281 33.003906 4.226562 32.761719 C 3.394531 33.125 3.113281 33.976562 3.160156 34.945312 C 3.792969 34.941406 4.511719 34.941406 5.203125 34.941406 Z M 13.890625 33.710938 L 11.933594 33.582031 C 11.902344 33.578125 11.871094 33.574219 11.835938 33.570312 L 8.417969 33.347656 L 8.417969 33.542969 L 8.378906 36.824219 L 8.378906 37.003906 L 9.8125 36.996094 C 9.8125 36.984375 9.816406 36.972656 9.824219 36.964844 L 10.453125 36.238281 C 10.472656 36.214844 10.503906 36.214844 10.527344 36.230469 C 10.546875 36.25 10.550781 36.28125 10.53125 36.304688 L 9.898438 37.03125 C 9.890625 37.042969 9.875 37.046875 9.863281 37.046875 C 9.859375 37.046875 9.859375 37.046875 9.855469 37.046875 L 9.195312 41.691406 L 12.6875 41.691406 C 12.703125 41.691406 12.714844 41.699219 12.722656 41.707031 L 12.878906 39.605469 L 13.519531 41.695312 C 13.523438 41.691406 13.527344 41.691406 13.535156 41.691406 L 16.855469 41.691406 C 16.867188 41.691406 16.875 41.695312 16.882812 41.699219 L 15.398438 35.164062 C 15.214844 34.355469 14.71875 33.765625 13.890625 33.710938 Z M 13.242188 35.359375 L 12.949219 39.351562 C 12.945312 39.378906 12.925781 39.398438 12.898438 39.398438 C 12.898438 39.398438 12.894531 39.398438 12.894531 39.398438 C 12.867188 39.398438 12.84375 39.371094 12.847656 39.34375 L 13.140625 35.351562 C 13.171875 34.90625 13.09375 34.53125 12.914062 34.238281 C 12.898438 34.210938 12.90625 34.183594 12.929688 34.167969 C 12.953125 34.152344 12.984375 34.160156 13 34.183594 C 13.191406 34.496094 13.273438 34.890625 13.242188 35.359375 Z M 49.523438 11.527344 L 49.242188 11.277344 L 49.523438 11.027344 C 49.550781 11.007812 49.554688 10.964844 49.53125 10.941406 C 49.507812 10.914062 49.46875 10.910156 49.441406 10.933594 L 49.144531 11.195312 L 48.847656 10.933594 C 48.824219 10.910156 48.78125 10.914062 48.757812 10.941406 C 48.734375 10.964844 48.738281 11.007812 48.765625 11.027344 L 49.046875 11.277344 L 48.765625 11.527344 C 48.75 11.539062 48.742188 11.554688 48.742188 11.570312 C 48.742188 11.589844 48.746094 11.605469 48.757812 11.617188 C 48.769531 11.628906 48.789062 11.636719 48.804688 11.636719 C 48.820312 11.636719 48.835938 11.632812 48.847656 11.621094 L 49.144531 11.363281 L 49.441406 11.621094 C 49.453125 11.632812 49.46875 11.636719 49.484375 11.636719 C 49.5 11.636719 49.519531 11.628906 49.53125 11.617188 C 49.542969 11.605469 49.546875 11.589844 49.546875 11.570312 C 49.546875 11.554688 49.539062 11.539062 49.523438 11.527344 Z M 8.230469 14.015625 L 7.9375 13.757812 L 8.230469 13.5 C 8.246094 13.488281 8.253906 13.472656 8.253906 13.457031 C 8.253906 13.4375 8.25 13.421875 8.238281 13.40625 C 8.226562 13.394531 8.210938 13.386719 8.191406 13.386719 C 8.171875 13.382812 8.15625 13.390625 8.144531 13.402344 L 7.835938 13.671875 L 7.53125 13.402344 C 7.503906 13.378906 7.460938 13.382812 7.4375 13.410156 C 7.414062 13.4375 7.417969 13.476562 7.445312 13.5 L 7.738281 13.757812 L 7.441406 14.015625 C 7.417969 14.042969 7.414062 14.082031 7.4375 14.109375 C 7.449219 14.125 7.46875 14.132812 7.488281 14.132812 C 7.503906 14.132812 7.519531 14.125 7.53125 14.117188 L 7.835938 13.847656 L 8.144531 14.113281 C 8.15625 14.125 8.171875 14.132812 8.1875 14.132812 C 8.207031 14.132812 8.226562 14.125 8.238281 14.109375 C 8.25 14.097656 8.253906 14.078125 8.253906 14.0625 C 8.253906 14.042969 8.246094 14.027344 8.230469 14.015625 Z M 27.160156 19.882812 L 26.945312 19.679688 L 27.160156 19.480469 C 27.167969 19.472656 27.171875 19.464844 27.171875 19.453125 C 27.171875 19.445312 27.167969 19.433594 27.160156 19.425781 C 27.148438 19.410156 27.121094 19.410156 27.109375 19.425781 L 26.890625 19.628906 L 26.671875 19.425781 C 26.664062 19.417969 26.65625 19.414062 26.648438 19.414062 C 26.644531 19.414062 26.644531 19.414062 26.644531 19.414062 C 26.636719 19.414062 26.625 19.417969 26.617188 19.425781 C 26.613281 19.433594 26.609375 19.441406 26.609375 19.453125 C 26.609375 19.464844 26.613281 19.472656 26.621094 19.480469 L 26.835938 19.679688 L 26.621094 19.882812 C 26.605469 19.894531 26.605469 19.917969 26.617188 19.933594 C 26.625 19.941406 26.636719 19.945312 26.644531 19.945312 C 26.65625 19.945312 26.664062 19.945312 26.671875 19.9375 L 26.890625 19.734375 L 27.109375 19.9375 C 27.113281 19.945312 27.125 19.945312 27.132812 19.945312 C 27.144531 19.945312 27.15625 19.941406 27.160156 19.933594 C 27.167969 19.925781 27.171875 19.917969 27.171875 19.90625 C 27.171875 19.898438 27.167969 19.886719 27.160156 19.882812 Z M 22.042969 20.441406 L 21.328125 20.441406 C 21.308594 20.441406 21.289062 20.457031 21.289062 20.476562 L 21.289062 21.191406 C 21.289062 21.210938 21.308594 21.226562 21.328125 21.226562 L 22.042969 21.226562 C 22.066406 21.226562 22.082031 21.210938 22.082031 21.191406 L 22.082031 20.476562 C 22.082031 20.457031 22.066406 20.441406 22.042969 20.441406 Z M 22.042969 21.550781 L 21.328125 21.550781 C 21.308594 21.550781 21.289062 21.566406 21.289062 21.589844 L 21.289062 22.300781 C 21.289062 22.320312 21.308594 22.339844 21.328125 22.339844 L 22.042969 22.339844 C 22.066406 22.339844 22.082031 22.320312 22.082031 22.300781 L 22.082031 21.589844 C 22.082031 21.566406 22.066406 21.550781 22.042969 21.550781 Z M 22.042969 22.660156 L 21.328125 22.660156 C 21.308594 22.660156 21.289062 22.679688 21.289062 22.699219 L 21.289062 23.410156 C 21.289062 23.433594 21.308594 23.449219 21.328125 23.449219 L 22.042969 23.449219 C 22.066406 23.449219 22.082031 23.433594 22.082031 23.410156 L 22.082031 22.699219 C 22.082031 22.679688 22.066406 22.660156 22.042969 22.660156 Z M 22.042969 23.773438 L 21.328125 23.773438 C 21.308594 23.773438 21.289062 23.789062 21.289062 23.8125 L 21.289062 24.523438 C 21.289062 24.542969 21.308594 24.558594 21.328125 24.558594 L 22.042969 24.558594 C 22.066406 24.558594 22.082031 24.542969 22.082031 24.523438 L 22.082031 23.8125 C 22.082031 23.789062 22.066406 23.773438 22.042969 23.773438 Z M 26.414062 20.824219 L 22.519531 20.824219 C 22.5 20.824219 22.480469 20.839844 22.480469 20.863281 C 22.480469 20.882812 22.5 20.902344 22.519531 20.902344 L 26.414062 20.902344 C 26.433594 20.902344 26.453125 20.882812 26.453125 20.863281 C 26.453125 20.839844 26.433594 20.824219 26.414062 20.824219 Z M 26.414062 21.9375 L 22.519531 21.9375 C 22.5 21.9375 22.480469 21.957031 22.480469 21.976562 C 22.480469 22 22.5 22.015625 22.519531 22.015625 L 26.414062 22.015625 C 26.433594 22.015625 26.453125 22 26.453125 21.976562 C 26.453125 21.957031 26.433594 21.9375 26.414062 21.9375 Z M 26.414062 23.054688 L 22.519531 23.054688 C 22.5 23.054688 22.480469 23.070312 22.480469 23.089844 C 22.480469 23.113281 22.5 23.128906 22.519531 23.128906 L 26.414062 23.128906 C 26.433594 23.128906 26.453125 23.113281 26.453125 23.089844 C 26.453125 23.070312 26.433594 23.054688 26.414062 23.054688 Z M 26.414062 24.167969 L 22.519531 24.167969 C 22.5 24.167969 22.480469 24.183594 22.480469 24.207031 C 22.480469 24.226562 22.5 24.246094 22.519531 24.246094 L 26.414062 24.246094 C 26.433594 24.246094 26.453125 24.226562 26.453125 24.207031 C 26.453125 24.183594 26.433594 24.167969 26.414062 24.167969 Z M 26.414062 24.167969 " fill-opacity="1" fill-rule="evenodd"></path></g><path fill="rgb(96.078491%, 75.289917%, 63.529968%)" d="M 15.347656 30.597656 C 15.355469 30.601562 15.363281 30.605469 15.371094 30.609375 C 15.382812 30.613281 15.386719 30.625 15.382812 30.632812 C 15.414062 30.691406 15.359375 30.894531 15.277344 30.921875 C 15.277344 30.925781 15.269531 30.925781 15.265625 30.925781 C 15.273438 30.929688 15.273438 30.941406 15.269531 30.949219 C 15.269531 30.953125 15.265625 30.953125 15.261719 30.957031 C 15.285156 31.035156 15.253906 31.171875 15.148438 31.21875 C 15.007812 31.28125 14.675781 31.144531 14.550781 30.957031 C 14.457031 30.820312 14.546875 30.742188 14.601562 30.710938 C 14.605469 30.707031 14.605469 30.703125 14.609375 30.703125 C 14.570312 30.671875 14.542969 30.640625 14.535156 30.613281 C 14.496094 30.457031 14.585938 30.40625 14.640625 30.390625 C 14.636719 30.386719 14.636719 30.382812 14.636719 30.378906 C 14.636719 30.375 14.640625 30.375 14.640625 30.371094 C 14.59375 30.339844 14.558594 30.304688 14.546875 30.273438 C 14.527344 30.21875 14.535156 30.175781 14.558594 30.136719 C 14.589844 30.078125 14.652344 30.042969 14.71875 30.042969 C 14.722656 30.03125 14.734375 30.027344 14.742188 30.027344 C 14.746094 30.027344 14.761719 30.03125 14.792969 30.039062 C 14.769531 30.011719 14.757812 29.980469 14.753906 29.945312 C 14.75 29.894531 14.761719 29.835938 14.824219 29.796875 C 14.972656 29.710938 15.359375 29.808594 15.488281 29.941406 C 15.539062 29.996094 15.480469 30.230469 15.425781 30.273438 C 15.429688 30.28125 15.433594 30.289062 15.429688 30.296875 C 15.429688 30.296875 15.425781 30.296875 15.425781 30.296875 C 15.460938 30.347656 15.417969 30.542969 15.347656 30.597656 Z M 36.859375 43.136719 L 35.492188 43.078125 C 35.492188 43.105469 35.492188 43.128906 35.492188 43.152344 C 35.492188 43.628906 35.460938 43.988281 35.4375 44.496094 C 35.558594 44.542969 35.714844 44.535156 35.886719 44.351562 C 36.230469 43.988281 36.601562 43.8125 36.972656 43.933594 C 36.875 43.671875 36.851562 43.40625 36.859375 43.136719 Z M 35.914062 20.519531 L 35.617188 18.71875 C 35.71875 18.640625 35.789062 18.535156 35.808594 18.414062 C 35.859375 18.117188 35.714844 17.84375 35.484375 17.804688 C 35.253906 17.765625 35.203125 17.980469 35.175781 18.128906 L 35.171875 18.167969 C 35.066406 18.164062 34.980469 18.164062 34.980469 18.164062 C 34.863281 17.828125 35.023438 17.289062 34.960938 16.882812 C 33.789062 16.648438 33.359375 17.140625 32.855469 16.9375 C 32.816406 17.078125 32.796875 17.226562 32.800781 17.378906 L 32.855469 18.859375 C 32.875 19.339844 33.195312 19.78125 33.683594 19.929688 C 33.710938 19.9375 33.738281 19.945312 33.761719 19.949219 L 33.820312 20.683594 C 33.867188 21.238281 34.335938 21.660156 34.925781 21.609375 C 35.515625 21.558594 35.957031 21.070312 35.914062 20.519531 Z M 31.808594 24.433594 L 30.339844 23.648438 L 29.597656 25.007812 L 28.589844 23.074219 C 28.574219 22.582031 28.039062 21.949219 27.792969 21.644531 C 27.671875 21.488281 27.625 21.457031 27.554688 21.519531 C 27.460938 21.605469 27.464844 21.773438 27.515625 21.957031 C 27.5625 22.125 27.640625 22.285156 27.660156 22.375 C 27.59375 22.355469 27.527344 22.335938 27.460938 22.320312 L 27.460938 24.117188 C 27.539062 24.136719 27.609375 24.148438 27.671875 24.15625 C 27.996094 25.109375 28.765625 27.355469 28.765625 27.355469 C 28.925781 27.832031 29.492188 28.058594 29.917969 27.792969 C 29.9375 27.78125 29.957031 27.765625 29.972656 27.753906 C 30.050781 27.695312 30.117188 27.625 30.167969 27.546875 L 31.839844 24.761719 C 31.828125 24.65625 31.820312 24.542969 31.808594 24.433594 Z M 7.683594 25.789062 L 7.621094 24.398438 C 7.613281 24.203125 7.5625 24.023438 7.480469 23.863281 C 7.460938 23.910156 7.4375 23.953125 7.410156 23.996094 C 7.40625 24 7.402344 24.003906 7.402344 24.007812 C 7.378906 24.042969 7.351562 24.078125 7.324219 24.109375 C 7.316406 24.117188 7.308594 24.125 7.300781 24.132812 C 7.277344 24.160156 7.25 24.183594 7.222656 24.207031 C 7.210938 24.21875 7.203125 24.222656 7.191406 24.230469 C 7.164062 24.253906 7.136719 24.273438 7.105469 24.292969 C 7.09375 24.300781 7.082031 24.308594 7.070312 24.316406 C 7.039062 24.332031 7.007812 24.347656 6.980469 24.363281 C 6.964844 24.371094 6.949219 24.378906 6.9375 24.382812 C 6.90625 24.398438 6.875 24.410156 6.84375 24.421875 C 6.828125 24.429688 6.8125 24.433594 6.796875 24.441406 C 6.761719 24.449219 6.730469 24.460938 6.699219 24.46875 C 6.683594 24.476562 6.664062 24.480469 6.648438 24.484375 C 6.617188 24.492188 6.585938 24.5 6.550781 24.507812 C 6.535156 24.511719 6.515625 24.515625 6.5 24.519531 C 6.464844 24.527344 6.433594 24.53125 6.402344 24.535156 C 6.382812 24.539062 6.363281 24.542969 6.347656 24.546875 C 6.316406 24.550781 6.28125 24.554688 6.25 24.558594 C 6.230469 24.558594 6.214844 24.5625 6.195312 24.5625 C 6.164062 24.566406 6.132812 24.570312 6.101562 24.574219 C 6.085938 24.574219 6.066406 24.574219 6.046875 24.578125 C 6.015625 24.578125 5.988281 24.582031 5.960938 24.582031 C 5.941406 24.582031 5.921875 24.585938 5.902344 24.585938 C 5.875 24.585938 5.851562 24.585938 5.824219 24.585938 C 5.804688 24.585938 5.785156 24.589844 5.765625 24.589844 C 5.742188 24.589844 5.722656 24.589844 5.699219 24.589844 C 5.675781 24.589844 5.65625 24.589844 5.632812 24.589844 C 5.632812 24.589844 5.628906 24.589844 5.628906 24.589844 C 5.636719 24.796875 5.632812 25.195312 5.515625 25.5 L 5.429688 25.058594 C 5.398438 24.917969 5.34375 24.714844 5.128906 24.757812 C 4.914062 24.800781 4.785156 25.0625 4.839844 25.339844 C 4.882812 25.554688 5.078125 25.707031 5.332031 25.730469 C 5.351562 25.734375 5.375 25.730469 5.394531 25.726562 C 5.382812 25.738281 5.371094 25.753906 5.359375 25.765625 L 5.484375 26.070312 L 5.4375 26.628906 L 5.277344 27.640625 C 5.234375 28.109375 5.585938 28.527344 6.0625 28.566406 C 6.535156 28.605469 6.917969 28.242188 6.957031 27.773438 L 7.015625 26.847656 C 7.449219 26.660156 7.703125 26.230469 7.683594 25.789062 Z M 31.28125 43.984375 C 31.78125 44.636719 32.453125 44.503906 32.832031 44.3125 C 32.828125 43.933594 32.882812 43.425781 32.925781 43.074219 L 31.464844 43.074219 C 31.433594 43.484375 31.371094 43.757812 31.28125 43.984375 Z M 38.878906 24.410156 L 37.859375 24.449219 C 37.75 25.328125 37.667969 26.140625 37.667969 26.53125 C 37.667969 27.371094 37.792969 28.847656 37.792969 29.460938 C 37.792969 29.621094 37.675781 29.757812 37.515625 29.785156 C 37.433594 29.800781 37.351562 29.8125 37.269531 29.824219 C 37.359375 30.289062 37.472656 30.585938 37.625 30.519531 C 38.035156 30.328125 38.515625 28.933594 38.730469 28.257812 C 38.800781 28.03125 38.832031 27.796875 38.828125 27.558594 C 38.816406 26.554688 38.867188 24.757812 38.878906 24.410156 Z M 9.261719 32.316406 L 9.371094 31.457031 L 9.175781 31.484375 C 8.917969 31.519531 8.730469 31.738281 8.730469 31.996094 C 8.730469 32.117188 8.785156 32.226562 8.867188 32.320312 Z M 9.261719 32.316406 " fill-opacity="1" fill-rule="nonzero"></path></svg>