<svg xmlns="http://www.w3.org/2000/svg" xmlns:xlink="http://www.w3.org/1999/xlink" width="69" viewBox="0 0 51.75 47.25" height="63" preserveAspectRatio="xMidYMid meet"><defs><clipPath id="id1"><path d="M 3.542969 33 L 10 33 L 10 43 L 3.542969 43 Z M 3.542969 33 " clip-rule="nonzero"></path></clipPath><clipPath id="id2"><path d="M 42 11 L 48.054688 11 L 48.054688 43 L 42 43 Z M 42 11 " clip-rule="nonzero"></path></clipPath><clipPath id="id3"><path d="M 3.542969 42 L 48.054688 42 L 48.054688 45.546875 L 3.542969 45.546875 Z M 3.542969 42 " clip-rule="nonzero"></path></clipPath><clipPath id="id4"><path d="M 36 1.035156 L 44 1.035156 L 44 11 L 36 11 Z M 36 1.035156 " clip-rule="nonzero"></path></clipPath></defs><g clip-path="url(#id1)"><path fill="rgb(16.468811%, 0%, 49.01886%)" d="M 6.324219 42.070312 C 4.792969 42.070312 3.542969 40.816406 3.542969 39.285156 L 3.542969 36.503906 C 3.542969 34.976562 4.792969 33.722656 6.324219 33.722656 C 7.855469 33.722656 9.105469 34.976562 9.105469 36.503906 L 9.105469 39.285156 C 9.105469 40.816406 7.855469 42.070312 6.324219 42.070312 Z M 6.324219 42.070312 " fill-opacity="1" fill-rule="nonzero"></path></g><path fill="rgb(16.468811%, 0%, 49.01886%)" d="M 16.0625 42.070312 C 14.53125 42.070312 13.277344 40.816406 13.277344 39.285156 L 13.277344 30.941406 C 13.277344 29.410156 14.53125 28.160156 16.0625 28.160156 C 17.589844 28.160156 18.84375 29.410156 18.84375 30.941406 L 18.84375 39.285156 C 18.84375 40.816406 17.589844 42.070312 16.0625 42.070312 Z M 16.0625 42.070312 " fill-opacity="1" fill-rule="nonzero"></path><path fill="rgb(16.468811%, 0%, 49.01886%)" d="M 25.796875 42.070312 C 24.269531 42.070312 23.015625 40.816406 23.015625 39.285156 L 23.015625 25.378906 C 23.015625 23.847656 24.269531 22.59375 25.796875 22.59375 C 27.328125 22.59375 28.578125 23.847656 28.578125 25.378906 L 28.578125 39.285156 C 28.578125 40.816406 27.328125 42.070312 25.796875 42.070312 Z M 25.796875 42.070312 " fill-opacity="1" fill-rule="nonzero"></path><path fill="rgb(16.468811%, 0%, 49.01886%)" d="M 35.535156 42.070312 C 34.003906 42.070312 32.753906 40.816406 32.753906 39.285156 L 32.753906 19.8125 C 32.753906 18.285156 34.003906 17.03125 35.535156 17.03125 C 37.066406 17.03125 38.316406 18.285156 38.316406 19.8125 L 38.316406 39.285156 C 38.316406 40.816406 37.066406 42.070312 35.535156 42.070312 Z M 35.535156 42.070312 " fill-opacity="1" fill-rule="nonzero"></path><g clip-path="url(#id2)"><path fill="rgb(16.468811%, 0%, 49.01886%)" d="M 45.269531 42.070312 C 43.742188 42.070312 42.488281 40.816406 42.488281 39.285156 L 42.488281 14.25 C 42.488281 12.71875 43.742188 11.46875 45.269531 11.46875 C 46.800781 11.46875 48.054688 12.71875 48.054688 14.25 L 48.054688 39.285156 C 48.054688 40.816406 46.800781 42.070312 45.269531 42.070312 Z M 45.269531 42.070312 " fill-opacity="1" fill-rule="nonzero"></path></g><g clip-path="url(#id3)"><path fill="rgb(16.468811%, 0%, 49.01886%)" d="M 46.664062 45.546875 L 4.933594 45.546875 C 4.167969 45.546875 3.542969 44.921875 3.542969 44.15625 C 3.542969 43.390625 4.167969 42.765625 4.933594 42.765625 L 46.664062 42.765625 C 47.425781 42.765625 48.054688 43.390625 48.054688 44.15625 C 48.054688 44.921875 47.425781 45.546875 46.664062 45.546875 Z M 46.664062 45.546875 " fill-opacity="1" fill-rule="nonzero"></path></g><path fill="rgb(100%, 56.858826%, 30.198669%)" d="M 6.601562 24.195312 L 38.316406 3.121094 L 41.097656 7.988281 L 7.226562 25.308594 C 6.8125 25.515625 6.324219 25.238281 6.324219 24.75 C 6.324219 24.542969 6.464844 24.335938 6.601562 24.195312 Z M 6.601562 24.195312 " fill-opacity="1" fill-rule="nonzero"></path><g clip-path="url(#id4)"><path fill="rgb(100%, 56.858826%, 30.198669%)" d="M 36.230469 1.035156 L 42.488281 10.773438 L 43.183594 3.121094 Z M 36.230469 1.035156 " fill-opacity="1" fill-rule="nonzero"></path></g></svg>