<svg xmlns="http://www.w3.org/2000/svg" xmlns:xlink="http://www.w3.org/1999/xlink" width="69" viewBox="0 0 51.75 47.25" height="63" preserveAspectRatio="xMidYMid meet"><defs><clipPath id="id1"><path d="M 4.015625 1.507812 L 47.78125 1.507812 L 47.78125 45.277344 L 4.015625 45.277344 Z M 4.015625 1.507812 " clip-rule="nonzero"></path></clipPath></defs><g clip-path="url(#id1)"><path fill="rgb(16.468811%, 0%, 49.01886%)" d="M 36.289062 29.226562 L 46.324219 29.226562 L 46.324219 34.335938 C 46.324219 34.734375 45.996094 35.0625 45.59375 35.0625 L 42.125 35.0625 Z M 45.800781 41.835938 C 45.664062 41.972656 45.480469 42.050781 45.285156 42.050781 C 45.089844 42.050781 44.910156 41.972656 44.769531 41.835938 L 36 33.066406 L 37.03125 32.035156 L 45.800781 40.804688 C 46.085938 41.089844 46.085938 41.550781 45.800781 41.835938 Z M 6.203125 35.0625 C 5.800781 35.0625 5.472656 34.734375 5.472656 34.335938 L 5.472656 29.226562 L 28.984375 29.226562 L 30.46875 29.597656 L 35.933594 35.0625 Z M 30.875 43.816406 L 20.921875 43.816406 L 22.140625 36.523438 L 29.65625 36.523438 Z M 6.203125 2.964844 L 45.59375 2.964844 C 45.996094 2.964844 46.324219 3.292969 46.324219 3.695312 L 46.324219 7.34375 L 5.472656 7.34375 L 5.472656 3.695312 C 5.472656 3.292969 5.800781 2.964844 6.203125 2.964844 Z M 33.566406 26.503906 L 33.015625 24.308594 C 32.683594 22.972656 31.640625 21.949219 30.296875 21.636719 L 25.332031 20.492188 C 25.089844 20.4375 24.832031 20.507812 24.652344 20.6875 C 24.476562 20.867188 24.402344 21.121094 24.457031 21.367188 L 25.605469 26.332031 C 25.726562 26.867188 25.964844 27.355469 26.292969 27.769531 L 5.472656 27.769531 L 5.472656 8.800781 L 46.324219 8.800781 L 46.324219 27.769531 L 34.828125 27.769531 Z M 30.621094 28.132812 L 28.628906 27.636719 C 27.824219 27.433594 27.210938 26.808594 27.027344 26.003906 L 26.140625 22.175781 L 29.96875 23.058594 C 30.773438 23.246094 31.398438 23.859375 31.601562 24.660156 L 32.097656 26.652344 Z M 31.875 28.941406 L 32.90625 27.910156 L 36 31.003906 L 34.96875 32.035156 Z M 47.78125 34.335938 L 47.78125 3.695312 C 47.78125 2.488281 46.800781 1.507812 45.59375 1.507812 L 6.203125 1.507812 C 4.996094 1.507812 4.015625 2.488281 4.015625 3.695312 L 4.015625 34.335938 C 4.015625 35.539062 4.996094 36.523438 6.203125 36.523438 L 20.660156 36.523438 L 19.445312 43.816406 L 16.414062 43.816406 C 16.011719 43.816406 15.6875 44.144531 15.6875 44.546875 C 15.6875 44.949219 16.011719 45.277344 16.414062 45.277344 L 35.382812 45.277344 C 35.785156 45.277344 36.113281 44.949219 36.113281 44.546875 C 36.113281 44.144531 35.785156 43.816406 35.382812 43.816406 L 32.351562 43.816406 L 31.136719 36.523438 L 37.394531 36.523438 L 43.738281 42.867188 C 44.152344 43.28125 44.703125 43.507812 45.285156 43.507812 C 45.871094 43.507812 46.421875 43.28125 46.832031 42.867188 C 47.6875 42.015625 47.6875 40.625 46.832031 39.773438 L 43.582031 36.523438 L 45.59375 36.523438 C 46.800781 36.523438 47.78125 35.539062 47.78125 34.335938 " fill-opacity="1" fill-rule="nonzero"></path></g><path fill="rgb(16.468811%, 0%, 49.01886%)" d="M 27.359375 30.6875 L 24.441406 30.6875 C 24.035156 30.6875 23.710938 31.011719 23.710938 31.417969 C 23.710938 31.820312 24.035156 32.144531 24.441406 32.144531 L 27.359375 32.144531 C 27.761719 32.144531 28.085938 31.820312 28.085938 31.417969 C 28.085938 31.011719 27.761719 30.6875 27.359375 30.6875 " fill-opacity="1" fill-rule="nonzero"></path><path fill="rgb(16.468811%, 0%, 49.01886%)" d="M 7.660156 5.882812 C 8.0625 5.882812 8.390625 5.558594 8.390625 5.15625 C 8.390625 4.75 8.0625 4.425781 7.660156 4.425781 C 7.257812 4.425781 6.933594 4.75 6.933594 5.15625 C 6.933594 5.558594 7.257812 5.882812 7.660156 5.882812 " fill-opacity="1" fill-rule="nonzero"></path><path fill="rgb(16.468811%, 0%, 49.01886%)" d="M 10.578125 5.882812 C 10.980469 5.882812 11.308594 5.558594 11.308594 5.15625 C 11.308594 4.75 10.980469 4.425781 10.578125 4.425781 C 10.175781 4.425781 9.851562 4.75 9.851562 5.15625 C 9.851562 5.558594 10.175781 5.882812 10.578125 5.882812 " fill-opacity="1" fill-rule="nonzero"></path><path fill="rgb(16.468811%, 0%, 49.01886%)" d="M 13.496094 5.882812 C 13.898438 5.882812 14.226562 5.558594 14.226562 5.15625 C 14.226562 4.75 13.898438 4.425781 13.496094 4.425781 C 13.09375 4.425781 12.769531 4.75 12.769531 5.15625 C 12.769531 5.558594 13.09375 5.882812 13.496094 5.882812 " fill-opacity="1" fill-rule="nonzero"></path><path fill="rgb(16.468811%, 0%, 49.01886%)" d="M 12.039062 11.71875 L 13.496094 11.71875 C 13.898438 11.71875 14.226562 11.394531 14.226562 10.992188 C 14.226562 10.585938 13.898438 10.261719 13.496094 10.261719 L 12.039062 10.261719 C 11.636719 10.261719 11.308594 10.585938 11.308594 10.992188 C 11.308594 11.394531 11.636719 11.71875 12.039062 11.71875 " fill-opacity="1" fill-rule="nonzero"></path><path fill="rgb(16.468811%, 0%, 49.01886%)" d="M 16.414062 11.71875 L 17.875 11.71875 C 18.277344 11.71875 18.605469 11.394531 18.605469 10.992188 C 18.605469 10.585938 18.277344 10.261719 17.875 10.261719 L 16.414062 10.261719 C 16.011719 10.261719 15.6875 10.585938 15.6875 10.992188 C 15.6875 11.394531 16.011719 11.71875 16.414062 11.71875 " fill-opacity="1" fill-rule="nonzero"></path><path fill="rgb(16.468811%, 0%, 49.01886%)" d="M 9.121094 24.851562 L 8.390625 24.851562 L 8.390625 24.121094 C 8.390625 23.71875 8.0625 23.390625 7.660156 23.390625 C 7.257812 23.390625 6.933594 23.71875 6.933594 24.121094 L 6.933594 25.582031 C 6.933594 25.984375 7.257812 26.308594 7.660156 26.308594 L 9.121094 26.308594 C 9.523438 26.308594 9.851562 25.984375 9.851562 25.582031 C 9.851562 25.175781 9.523438 24.851562 9.121094 24.851562 " fill-opacity="1" fill-rule="nonzero"></path><path fill="rgb(16.468811%, 0%, 49.01886%)" d="M 13.496094 24.851562 L 12.039062 24.851562 C 11.636719 24.851562 11.308594 25.175781 11.308594 25.582031 C 11.308594 25.984375 11.636719 26.308594 12.039062 26.308594 L 13.496094 26.308594 C 13.898438 26.308594 14.226562 25.984375 14.226562 25.582031 C 14.226562 25.175781 13.898438 24.851562 13.496094 24.851562 " fill-opacity="1" fill-rule="nonzero"></path><path fill="rgb(16.468811%, 0%, 49.01886%)" d="M 17.875 24.851562 L 16.414062 24.851562 C 16.011719 24.851562 15.6875 25.175781 15.6875 25.582031 C 15.6875 25.984375 16.011719 26.308594 16.414062 26.308594 L 17.875 26.308594 C 18.277344 26.308594 18.605469 25.984375 18.605469 25.582031 C 18.605469 25.175781 18.277344 24.851562 17.875 24.851562 " fill-opacity="1" fill-rule="nonzero"></path><path fill="rgb(16.468811%, 0%, 49.01886%)" d="M 22.25 10.261719 L 20.792969 10.261719 C 20.390625 10.261719 20.0625 10.585938 20.0625 10.992188 C 20.0625 11.394531 20.390625 11.71875 20.792969 11.71875 L 21.523438 11.71875 L 21.523438 12.449219 C 21.523438 12.851562 21.847656 13.179688 22.25 13.179688 C 22.652344 13.179688 22.980469 12.851562 22.980469 12.449219 L 22.980469 10.992188 C 22.980469 10.585938 22.652344 10.261719 22.25 10.261719 " fill-opacity="1" fill-rule="nonzero"></path><path fill="rgb(16.468811%, 0%, 49.01886%)" d="M 22.25 14.636719 C 21.847656 14.636719 21.523438 14.964844 21.523438 15.367188 L 21.523438 16.828125 C 21.523438 17.230469 21.847656 17.554688 22.25 17.554688 C 22.652344 17.554688 22.980469 17.230469 22.980469 16.828125 L 22.980469 15.367188 C 22.980469 14.964844 22.652344 14.636719 22.25 14.636719 " fill-opacity="1" fill-rule="nonzero"></path><path fill="rgb(16.468811%, 0%, 49.01886%)" d="M 22.25 19.015625 C 21.847656 19.015625 21.523438 19.339844 21.523438 19.746094 L 21.523438 21.203125 C 21.523438 21.605469 21.847656 21.933594 22.25 21.933594 C 22.652344 21.933594 22.980469 21.605469 22.980469 21.203125 L 22.980469 19.746094 C 22.980469 19.339844 22.652344 19.015625 22.25 19.015625 " fill-opacity="1" fill-rule="nonzero"></path><path fill="rgb(16.468811%, 0%, 49.01886%)" d="M 22.25 23.390625 C 21.847656 23.390625 21.523438 23.71875 21.523438 24.121094 L 21.523438 24.851562 L 20.792969 24.851562 C 20.390625 24.851562 20.0625 25.175781 20.0625 25.582031 C 20.0625 25.984375 20.390625 26.308594 20.792969 26.308594 L 22.25 26.308594 C 22.652344 26.308594 22.980469 25.984375 22.980469 25.582031 L 22.980469 24.121094 C 22.980469 23.71875 22.652344 23.390625 22.25 23.390625 " fill-opacity="1" fill-rule="nonzero"></path><path fill="rgb(16.468811%, 0%, 49.01886%)" d="M 7.660156 13.179688 C 8.0625 13.179688 8.390625 12.851562 8.390625 12.449219 L 8.390625 11.71875 L 9.121094 11.71875 C 9.523438 11.71875 9.851562 11.394531 9.851562 10.992188 C 9.851562 10.585938 9.523438 10.261719 9.121094 10.261719 L 7.660156 10.261719 C 7.257812 10.261719 6.933594 10.585938 6.933594 10.992188 L 6.933594 12.449219 C 6.933594 12.851562 7.257812 13.179688 7.660156 13.179688 " fill-opacity="1" fill-rule="nonzero"></path><path fill="rgb(16.468811%, 0%, 49.01886%)" d="M 7.660156 17.554688 C 8.0625 17.554688 8.390625 17.230469 8.390625 16.828125 L 8.390625 15.367188 C 8.390625 14.964844 8.0625 14.636719 7.660156 14.636719 C 7.257812 14.636719 6.933594 14.964844 6.933594 15.367188 L 6.933594 16.828125 C 6.933594 17.230469 7.257812 17.554688 7.660156 17.554688 " fill-opacity="1" fill-rule="nonzero"></path><path fill="rgb(16.468811%, 0%, 49.01886%)" d="M 7.660156 21.933594 C 8.0625 21.933594 8.390625 21.605469 8.390625 21.203125 L 8.390625 19.746094 C 8.390625 19.339844 8.0625 19.015625 7.660156 19.015625 C 7.257812 19.015625 6.933594 19.339844 6.933594 19.746094 L 6.933594 21.203125 C 6.933594 21.605469 7.257812 21.933594 7.660156 21.933594 " fill-opacity="1" fill-rule="nonzero"></path><path fill="rgb(16.468811%, 0%, 49.01886%)" d="M 29.546875 17.554688 L 25.167969 17.554688 C 24.765625 17.554688 24.441406 17.882812 24.441406 18.285156 C 24.441406 18.6875 24.765625 19.015625 25.167969 19.015625 L 29.546875 19.015625 C 29.949219 19.015625 30.277344 18.6875 30.277344 18.285156 C 30.277344 17.882812 29.949219 17.554688 29.546875 17.554688 " fill-opacity="1" fill-rule="nonzero"></path><path fill="rgb(16.468811%, 0%, 49.01886%)" d="M 44.136719 17.554688 L 32.464844 17.554688 C 32.0625 17.554688 31.734375 17.882812 31.734375 18.285156 C 31.734375 18.6875 32.0625 19.015625 32.464844 19.015625 L 44.136719 19.015625 C 44.539062 19.015625 44.863281 18.6875 44.863281 18.285156 C 44.863281 17.882812 44.539062 17.554688 44.136719 17.554688 " fill-opacity="1" fill-rule="nonzero"></path><path fill="rgb(16.468811%, 0%, 49.01886%)" d="M 44.136719 20.472656 L 33.921875 20.472656 C 33.519531 20.472656 33.195312 20.800781 33.195312 21.203125 C 33.195312 21.605469 33.519531 21.933594 33.921875 21.933594 L 44.136719 21.933594 C 44.539062 21.933594 44.863281 21.605469 44.863281 21.203125 C 44.863281 20.800781 44.539062 20.472656 44.136719 20.472656 " fill-opacity="1" fill-rule="nonzero"></path><path fill="rgb(16.468811%, 0%, 49.01886%)" d="M 43.40625 14.636719 L 25.898438 14.636719 L 25.898438 11.71875 L 43.40625 11.71875 Z M 44.136719 10.261719 L 25.167969 10.261719 C 24.765625 10.261719 24.441406 10.585938 24.441406 10.992188 L 24.441406 15.367188 C 24.441406 15.769531 24.765625 16.097656 25.167969 16.097656 L 44.136719 16.097656 C 44.539062 16.097656 44.863281 15.769531 44.863281 15.367188 L 44.863281 10.992188 C 44.863281 10.585938 44.539062 10.261719 44.136719 10.261719 " fill-opacity="1" fill-rule="nonzero"></path><path fill="rgb(16.468811%, 0%, 49.01886%)" d="M 18.605469 21.933594 L 11.308594 21.933594 L 11.308594 14.636719 L 18.605469 14.636719 Z M 20.0625 13.910156 C 20.0625 13.503906 19.734375 13.179688 19.332031 13.179688 L 10.578125 13.179688 C 10.175781 13.179688 9.851562 13.503906 9.851562 13.910156 L 9.851562 22.664062 C 9.851562 23.066406 10.175781 23.390625 10.578125 23.390625 L 19.332031 23.390625 C 19.734375 23.390625 20.0625 23.066406 20.0625 22.664062 L 20.0625 13.910156 " fill-opacity="1" fill-rule="nonzero"></path></svg>