<svg xmlns="http://www.w3.org/2000/svg" width="477.521" height="542.301" viewBox="0 0 477.521 542.301">
  <path id="Пересечение_79" data-name="Пересечение 79" d="M619.491,1289.15l-1.52-1.3,24.769-28.979,1.52,1.3Zm-24.153,0-1.52-1.3,48.922-57.237,1.52,1.3Zm-24.154,0-1.52-1.3,73.075-85.5,1.52,1.3Zm-24.153,0-1.52-1.3L642.74,1174.1l1.52,1.3Zm-24.153,0-1.52-1.3L642.74,1145.837l1.52,1.3Zm-24.152,0-1.52-1.3L642.74,1117.579l1.52,1.3Zm-24.154,0-1.52-1.3L642.74,1089.32l1.52,1.3Zm-24.153,0-1.52-1.3,193.84-226.79,1.52,1.3Zm-24.153,0-1.52-1.3L642.74,1032.8l1.52,1.3Zm-24.153,0-1.52-1.3L642.74,1004.544l1.52,1.3Zm-24.153,0-1.52-1.3,266.3-311.566,1.52,1.3Zm-24.153,0-1.52-1.3L642.74,948.026l1.52,1.3Zm-24.154,0-1.52-1.3L642.74,919.767l1.52,1.3Zm-24.153,0-1.52-1.3L642.74,891.508l1.52,1.3Zm-24.154,0-1.52-1.3,362.913-424.6,1.52,1.3Zm-24.153,0-1.52-1.3L642.74,834.99l1.52,1.3Zm-24.153,0-1.52-1.3L642.74,806.732l1.52,1.3Zm410.6,0-1.52-1.3.616-.721,1.52,1.3Zm-434.108-.759-1.52-1.3,432.273-505.75,1.52,1.3Zm-18.124-7.054-1.52-1.3L630.7,764.3l1.52,1.3Zm-13.425-12.551-1.52-1.3,439.924-514.7,1.52,1.3Zm-8.452-18.371-1.52-1.3L597.146,747.041l1.52,1.3Zm-1.274-26.767-1.52-1.3,406.417-475.5,1.52,1.3Zm0-28.259-1.52-1.3L549,746.85l1.52,1.3Zm0-28.259-1.52-1.3L524.85,746.85l1.52,1.3Zm0-28.258-1.52-1.3L500.7,746.85l1.52,1.3Zm0-28.26-1.52-1.3,309.8-362.464,1.52,1.3Zm0-28.257-1.52-1.3L452.391,746.85l1.52,1.3Zm0-28.259-1.52-1.3,261.5-305.948,1.52,1.3Zm0-28.258-1.52-1.3L404.085,746.85l1.52,1.3Zm0-28.26-1.52-1.3L379.932,746.85l1.52,1.3Zm0-28.258-1.52-1.3L355.778,746.85l1.52,1.3Zm0-28.259-1.52-1.3L331.625,746.85l1.52,1.3Zm0-28.259-1.52-1.3L307.472,746.85l1.52,1.3Zm0-28.259-1.52-1.3,116.579-136.4,1.52,1.3Zm0-28.258-1.52-1.3L259.166,746.85l1.52,1.3Zm0-28.26-1.52-1.3,68.273-79.878,1.52,1.3Zm0-28.258-1.52-1.3,44.12-51.619,1.52,1.3Zm0-28.26-1.52-1.3,19.966-23.36,1.52,1.3Z" transform="translate(-166.74 -746.85)" fill="#f96156"/>
</svg>
